%TF.GenerationSoftware,KiCad,Pcbnew,9.0.1*%
%TF.CreationDate,2025-04-14T01:12:43-04:00*%
%TF.ProjectId,USB-3-2-splitter,5553422d-332d-4322-9d73-706c69747465,rev?*%
%TF.SameCoordinates,Original*%
%TF.FileFunction,Soldermask,Top*%
%TF.FilePolarity,Negative*%
%FSLAX46Y46*%
G04 Gerber Fmt 4.6, Leading zero omitted, Abs format (unit mm)*
G04 Created by KiCad (PCBNEW 9.0.1) date 2025-04-14 01:12:43*
%MOMM*%
%LPD*%
G01*
G04 APERTURE LIST*
G04 APERTURE END LIST*
G36*
X26266828Y-26388581D02*
G01*
X26437407Y-26444006D01*
X26597216Y-26525432D01*
X26742319Y-26630856D01*
X26869144Y-26757681D01*
X26974568Y-26902784D01*
X27055994Y-27062593D01*
X27111419Y-27233172D01*
X27139477Y-27410321D01*
X27139477Y-27589679D01*
X27111419Y-27766828D01*
X27055994Y-27937407D01*
X26974568Y-28097216D01*
X26869144Y-28242319D01*
X26742319Y-28369144D01*
X26597216Y-28474568D01*
X26437407Y-28555994D01*
X26266828Y-28611419D01*
X26089679Y-28639477D01*
X25910321Y-28639477D01*
X25733172Y-28611419D01*
X25562593Y-28555994D01*
X25402784Y-28474568D01*
X25257681Y-28369144D01*
X25130856Y-28242319D01*
X25025432Y-28097216D01*
X24944006Y-27937407D01*
X24888581Y-27766828D01*
X24860523Y-27589679D01*
X24860523Y-27410321D01*
X24888581Y-27233172D01*
X24944006Y-27062593D01*
X25025432Y-26902784D01*
X25130856Y-26757681D01*
X25257681Y-26630856D01*
X25402784Y-26525432D01*
X25562593Y-26444006D01*
X25733172Y-26388581D01*
X25910321Y-26360523D01*
X26089679Y-26360523D01*
X26266828Y-26388581D01*
G37*
G36*
X8944230Y-26787388D02*
G01*
X9077891Y-26842752D01*
X9198182Y-26923128D01*
X9300482Y-27025428D01*
X9380858Y-27145719D01*
X9436222Y-27279380D01*
X9464446Y-27421273D01*
X9464446Y-27565947D01*
X9436222Y-27707840D01*
X9380858Y-27841501D01*
X9300482Y-27961792D01*
X9198182Y-28064092D01*
X9077891Y-28144468D01*
X8944230Y-28199832D01*
X8802337Y-28228056D01*
X8657663Y-28228056D01*
X8515770Y-28199832D01*
X8382109Y-28144468D01*
X8261818Y-28064092D01*
X8159518Y-27961792D01*
X8079142Y-27841501D01*
X8023778Y-27707840D01*
X7995554Y-27565947D01*
X7995554Y-27421273D01*
X8023778Y-27279380D01*
X8079142Y-27145719D01*
X8159518Y-27025428D01*
X8261818Y-26923128D01*
X8382109Y-26842752D01*
X8515770Y-26787388D01*
X8657663Y-26759164D01*
X8802337Y-26759164D01*
X8944230Y-26787388D01*
G37*
G36*
X17924230Y-26787388D02*
G01*
X18057891Y-26842752D01*
X18178182Y-26923128D01*
X18280482Y-27025428D01*
X18360858Y-27145719D01*
X18416222Y-27279380D01*
X18444446Y-27421273D01*
X18444446Y-27565947D01*
X18416222Y-27707840D01*
X18360858Y-27841501D01*
X18280482Y-27961792D01*
X18178182Y-28064092D01*
X18057891Y-28144468D01*
X17924230Y-28199832D01*
X17782337Y-28228056D01*
X17637663Y-28228056D01*
X17495770Y-28199832D01*
X17362109Y-28144468D01*
X17241818Y-28064092D01*
X17139518Y-27961792D01*
X17059142Y-27841501D01*
X17003778Y-27707840D01*
X16975554Y-27565947D01*
X16975554Y-27421273D01*
X17003778Y-27279380D01*
X17059142Y-27145719D01*
X17139518Y-27025428D01*
X17241818Y-26923128D01*
X17362109Y-26842752D01*
X17495770Y-26787388D01*
X17637663Y-26759164D01*
X17782337Y-26759164D01*
X17924230Y-26787388D01*
G37*
G36*
X30105884Y-26406563D02*
G01*
X30227514Y-26476786D01*
X30326824Y-26576096D01*
X30397047Y-26697726D01*
X30433397Y-26833387D01*
X30438000Y-26903610D01*
X30438000Y-27503610D01*
X30433397Y-27573833D01*
X30397047Y-27709494D01*
X30326824Y-27831124D01*
X30227514Y-27930434D01*
X30105884Y-28000657D01*
X29970223Y-28037007D01*
X29829777Y-28037007D01*
X29694116Y-28000657D01*
X29572486Y-27930434D01*
X29473176Y-27831124D01*
X29402953Y-27709494D01*
X29366603Y-27573833D01*
X29362000Y-27503610D01*
X29362000Y-26903610D01*
X29366603Y-26833387D01*
X29402953Y-26697726D01*
X29473176Y-26576096D01*
X29572486Y-26476786D01*
X29694116Y-26406563D01*
X29829777Y-26370213D01*
X29970223Y-26370213D01*
X30105884Y-26406563D01*
G37*
G36*
X38745884Y-26406563D02*
G01*
X38867514Y-26476786D01*
X38966824Y-26576096D01*
X39037047Y-26697726D01*
X39073397Y-26833387D01*
X39078000Y-26903610D01*
X39078000Y-27503610D01*
X39073397Y-27573833D01*
X39037047Y-27709494D01*
X38966824Y-27831124D01*
X38867514Y-27930434D01*
X38745884Y-28000657D01*
X38610223Y-28037007D01*
X38469777Y-28037007D01*
X38334116Y-28000657D01*
X38212486Y-27930434D01*
X38113176Y-27831124D01*
X38042953Y-27709494D01*
X38006603Y-27573833D01*
X38002000Y-27503610D01*
X38002000Y-26903610D01*
X38006603Y-26833387D01*
X38042953Y-26697726D01*
X38113176Y-26576096D01*
X38212486Y-26476786D01*
X38334116Y-26406563D01*
X38469777Y-26370213D01*
X38610223Y-26370213D01*
X38745884Y-26406563D01*
G37*
G36*
X21271944Y-25451311D02*
G01*
X21332936Y-25492064D01*
X21373689Y-25553056D01*
X21388000Y-25625000D01*
X21388000Y-26650000D01*
X21373689Y-26721944D01*
X21332936Y-26782936D01*
X21271944Y-26823689D01*
X21200000Y-26838000D01*
X20900000Y-26838000D01*
X20828056Y-26823689D01*
X20767064Y-26782936D01*
X20726311Y-26721944D01*
X20712000Y-26650000D01*
X20712000Y-25625000D01*
X20726311Y-25553056D01*
X20767064Y-25492064D01*
X20828056Y-25451311D01*
X20900000Y-25437000D01*
X21200000Y-25437000D01*
X21271944Y-25451311D01*
G37*
G36*
X22221944Y-25451311D02*
G01*
X22282936Y-25492064D01*
X22323689Y-25553056D01*
X22338000Y-25625000D01*
X22338000Y-26650000D01*
X22323689Y-26721944D01*
X22282936Y-26782936D01*
X22221944Y-26823689D01*
X22150000Y-26838000D01*
X21850000Y-26838000D01*
X21778056Y-26823689D01*
X21717064Y-26782936D01*
X21676311Y-26721944D01*
X21662000Y-26650000D01*
X21662000Y-25625000D01*
X21676311Y-25553056D01*
X21717064Y-25492064D01*
X21778056Y-25451311D01*
X21850000Y-25437000D01*
X22150000Y-25437000D01*
X22221944Y-25451311D01*
G37*
G36*
X23171944Y-25451311D02*
G01*
X23232936Y-25492064D01*
X23273689Y-25553056D01*
X23288000Y-25625000D01*
X23288000Y-26650000D01*
X23273689Y-26721944D01*
X23232936Y-26782936D01*
X23171944Y-26823689D01*
X23100000Y-26838000D01*
X22800000Y-26838000D01*
X22728056Y-26823689D01*
X22667064Y-26782936D01*
X22626311Y-26721944D01*
X22612000Y-26650000D01*
X22612000Y-25625000D01*
X22626311Y-25553056D01*
X22667064Y-25492064D01*
X22728056Y-25451311D01*
X22800000Y-25437000D01*
X23100000Y-25437000D01*
X23171944Y-25451311D01*
G37*
G36*
X4118025Y-22867049D02*
G01*
X4128516Y-22867049D01*
X4180176Y-22875231D01*
X4319536Y-22893578D01*
X4353540Y-22902689D01*
X4382384Y-22907258D01*
X4437857Y-22925282D01*
X4526480Y-22949029D01*
X4583022Y-22972449D01*
X4626835Y-22986685D01*
X4667877Y-23007597D01*
X4724426Y-23031020D01*
X4803892Y-23076900D01*
X4855853Y-23103375D01*
X4879474Y-23120537D01*
X4909962Y-23138139D01*
X5021487Y-23223715D01*
X5063796Y-23254455D01*
X5071212Y-23261871D01*
X5079933Y-23268563D01*
X5231436Y-23420066D01*
X5238127Y-23428786D01*
X5245545Y-23436204D01*
X5276288Y-23478518D01*
X5361860Y-23590037D01*
X5379460Y-23620522D01*
X5396625Y-23644147D01*
X5423103Y-23696113D01*
X5468979Y-23775573D01*
X5492399Y-23832116D01*
X5513315Y-23873165D01*
X5527552Y-23916983D01*
X5550970Y-23973519D01*
X5574713Y-24062129D01*
X5592742Y-24117616D01*
X5597311Y-24146465D01*
X5606421Y-24180463D01*
X5624767Y-24319815D01*
X5632951Y-24371484D01*
X5632951Y-24381974D01*
X5634386Y-24392874D01*
X5634386Y-24607125D01*
X5632951Y-24618024D01*
X5632951Y-24628516D01*
X5624766Y-24680188D01*
X5606421Y-24819536D01*
X5597311Y-24853531D01*
X5592742Y-24882384D01*
X5574711Y-24937875D01*
X5550970Y-25026480D01*
X5527554Y-25083011D01*
X5513315Y-25126835D01*
X5492397Y-25167887D01*
X5468979Y-25224426D01*
X5423107Y-25303878D01*
X5396625Y-25355853D01*
X5379458Y-25379481D01*
X5361860Y-25409962D01*
X5276301Y-25521462D01*
X5245545Y-25563796D01*
X5238124Y-25571216D01*
X5231436Y-25579933D01*
X5079933Y-25731436D01*
X5071216Y-25738124D01*
X5063796Y-25745545D01*
X5021462Y-25776301D01*
X4909962Y-25861860D01*
X4879481Y-25879458D01*
X4855853Y-25896625D01*
X4803878Y-25923107D01*
X4724426Y-25968979D01*
X4667887Y-25992397D01*
X4626835Y-26013315D01*
X4583011Y-26027554D01*
X4526480Y-26050970D01*
X4437875Y-26074711D01*
X4382384Y-26092742D01*
X4353531Y-26097311D01*
X4319536Y-26106421D01*
X4180188Y-26124766D01*
X4128516Y-26132951D01*
X4118025Y-26132951D01*
X4107125Y-26134386D01*
X3892875Y-26134386D01*
X3881975Y-26132951D01*
X3871484Y-26132951D01*
X3819812Y-26124767D01*
X3680463Y-26106421D01*
X3646465Y-26097311D01*
X3617616Y-26092742D01*
X3562129Y-26074713D01*
X3473519Y-26050970D01*
X3416983Y-26027552D01*
X3373165Y-26013315D01*
X3332116Y-25992399D01*
X3275573Y-25968979D01*
X3196113Y-25923103D01*
X3144147Y-25896625D01*
X3120522Y-25879460D01*
X3090037Y-25861860D01*
X2978518Y-25776288D01*
X2936204Y-25745545D01*
X2928786Y-25738127D01*
X2920066Y-25731436D01*
X2768563Y-25579933D01*
X2761871Y-25571212D01*
X2754455Y-25563796D01*
X2723715Y-25521487D01*
X2638139Y-25409962D01*
X2620537Y-25379474D01*
X2603375Y-25355853D01*
X2576900Y-25303892D01*
X2531020Y-25224426D01*
X2507597Y-25167877D01*
X2486685Y-25126835D01*
X2472449Y-25083022D01*
X2449029Y-25026480D01*
X2425282Y-24937857D01*
X2407258Y-24882384D01*
X2402689Y-24853540D01*
X2393578Y-24819536D01*
X2375231Y-24680176D01*
X2367049Y-24628516D01*
X2367049Y-24618025D01*
X2365614Y-24607125D01*
X2365614Y-24392874D01*
X2367049Y-24381973D01*
X2367049Y-24371484D01*
X2375230Y-24319828D01*
X2393578Y-24180463D01*
X2402690Y-24146456D01*
X2407258Y-24117616D01*
X2425280Y-24062147D01*
X2449029Y-23973519D01*
X2472451Y-23916972D01*
X2486685Y-23873165D01*
X2507594Y-23832126D01*
X2531020Y-23775573D01*
X2576904Y-23696098D01*
X2603375Y-23644147D01*
X2620534Y-23620529D01*
X2638139Y-23590037D01*
X2723729Y-23478493D01*
X2754455Y-23436204D01*
X2761868Y-23428790D01*
X2768563Y-23420066D01*
X2920066Y-23268563D01*
X2928790Y-23261868D01*
X2936204Y-23254455D01*
X2978493Y-23223729D01*
X3090037Y-23138139D01*
X3120529Y-23120534D01*
X3144147Y-23103375D01*
X3196098Y-23076904D01*
X3275573Y-23031020D01*
X3332126Y-23007594D01*
X3373165Y-22986685D01*
X3416972Y-22972451D01*
X3473519Y-22949029D01*
X3562147Y-22925280D01*
X3617616Y-22907258D01*
X3646456Y-22902690D01*
X3680463Y-22893578D01*
X3819825Y-22875230D01*
X3871484Y-22867049D01*
X3881975Y-22867049D01*
X3892875Y-22865614D01*
X4107125Y-22865614D01*
X4118025Y-22867049D01*
G37*
G36*
X21271944Y-23176311D02*
G01*
X21332936Y-23217064D01*
X21373689Y-23278056D01*
X21388000Y-23350000D01*
X21388000Y-24375000D01*
X21373689Y-24446944D01*
X21332936Y-24507936D01*
X21271944Y-24548689D01*
X21200000Y-24563000D01*
X20900000Y-24563000D01*
X20828056Y-24548689D01*
X20767064Y-24507936D01*
X20726311Y-24446944D01*
X20712000Y-24375000D01*
X20712000Y-23350000D01*
X20726311Y-23278056D01*
X20767064Y-23217064D01*
X20828056Y-23176311D01*
X20900000Y-23162000D01*
X21200000Y-23162000D01*
X21271944Y-23176311D01*
G37*
G36*
X22221944Y-23176311D02*
G01*
X22282936Y-23217064D01*
X22323689Y-23278056D01*
X22338000Y-23350000D01*
X22338000Y-24375000D01*
X22323689Y-24446944D01*
X22282936Y-24507936D01*
X22221944Y-24548689D01*
X22150000Y-24563000D01*
X21850000Y-24563000D01*
X21778056Y-24548689D01*
X21717064Y-24507936D01*
X21676311Y-24446944D01*
X21662000Y-24375000D01*
X21662000Y-23350000D01*
X21676311Y-23278056D01*
X21717064Y-23217064D01*
X21778056Y-23176311D01*
X21850000Y-23162000D01*
X22150000Y-23162000D01*
X22221944Y-23176311D01*
G37*
G36*
X23171944Y-23176311D02*
G01*
X23232936Y-23217064D01*
X23273689Y-23278056D01*
X23288000Y-23350000D01*
X23288000Y-24375000D01*
X23273689Y-24446944D01*
X23232936Y-24507936D01*
X23171944Y-24548689D01*
X23100000Y-24563000D01*
X22800000Y-24563000D01*
X22728056Y-24548689D01*
X22667064Y-24507936D01*
X22626311Y-24446944D01*
X22612000Y-24375000D01*
X22612000Y-23350000D01*
X22626311Y-23278056D01*
X22667064Y-23217064D01*
X22728056Y-23176311D01*
X22800000Y-23162000D01*
X23100000Y-23162000D01*
X23171944Y-23176311D01*
G37*
G36*
X28315938Y-23169650D02*
G01*
X28320653Y-23171732D01*
X28323326Y-23172084D01*
X28356770Y-23187679D01*
X28412759Y-23212401D01*
X28487599Y-23287241D01*
X28512330Y-23343251D01*
X28527915Y-23376673D01*
X28528266Y-23379343D01*
X28530350Y-23384062D01*
X28538000Y-23450000D01*
X28538000Y-24150000D01*
X28530350Y-24215938D01*
X28528266Y-24220656D01*
X28527915Y-24223326D01*
X28512338Y-24256730D01*
X28487599Y-24312759D01*
X28412759Y-24387599D01*
X28356730Y-24412338D01*
X28323326Y-24427915D01*
X28320656Y-24428266D01*
X28315938Y-24430350D01*
X28250000Y-24438000D01*
X27350000Y-24438000D01*
X27284062Y-24430350D01*
X27279343Y-24428266D01*
X27276673Y-24427915D01*
X27243251Y-24412330D01*
X27187241Y-24387599D01*
X27112401Y-24312759D01*
X27087679Y-24256770D01*
X27072084Y-24223326D01*
X27071732Y-24220653D01*
X27069650Y-24215938D01*
X27062000Y-24150000D01*
X27062000Y-23450000D01*
X27069650Y-23384062D01*
X27071732Y-23379346D01*
X27072084Y-23376673D01*
X27087687Y-23343210D01*
X27112401Y-23287241D01*
X27187241Y-23212401D01*
X27243210Y-23187687D01*
X27276673Y-23172084D01*
X27279346Y-23171732D01*
X27284062Y-23169650D01*
X27350000Y-23162000D01*
X28250000Y-23162000D01*
X28315938Y-23169650D01*
G37*
G36*
X30105884Y-21976563D02*
G01*
X30227514Y-22046786D01*
X30326824Y-22146096D01*
X30397047Y-22267726D01*
X30433397Y-22403387D01*
X30438000Y-22473610D01*
X30438000Y-23573610D01*
X30433397Y-23643833D01*
X30397047Y-23779494D01*
X30326824Y-23901124D01*
X30227514Y-24000434D01*
X30105884Y-24070657D01*
X29970223Y-24107007D01*
X29829777Y-24107007D01*
X29694116Y-24070657D01*
X29572486Y-24000434D01*
X29473176Y-23901124D01*
X29402953Y-23779494D01*
X29366603Y-23643833D01*
X29362000Y-23573610D01*
X29362000Y-22473610D01*
X29366603Y-22403387D01*
X29402953Y-22267726D01*
X29473176Y-22146096D01*
X29572486Y-22046786D01*
X29694116Y-21976563D01*
X29829777Y-21940213D01*
X29970223Y-21940213D01*
X30105884Y-21976563D01*
G37*
G36*
X38745884Y-21976563D02*
G01*
X38867514Y-22046786D01*
X38966824Y-22146096D01*
X39037047Y-22267726D01*
X39073397Y-22403387D01*
X39078000Y-22473610D01*
X39078000Y-23573610D01*
X39073397Y-23643833D01*
X39037047Y-23779494D01*
X38966824Y-23901124D01*
X38867514Y-24000434D01*
X38745884Y-24070657D01*
X38610223Y-24107007D01*
X38469777Y-24107007D01*
X38334116Y-24070657D01*
X38212486Y-24000434D01*
X38113176Y-23901124D01*
X38042953Y-23779494D01*
X38006603Y-23643833D01*
X38002000Y-23573610D01*
X38002000Y-22473610D01*
X38006603Y-22403387D01*
X38042953Y-22267726D01*
X38113176Y-22146096D01*
X38212486Y-22046786D01*
X38334116Y-21976563D01*
X38469777Y-21940213D01*
X38610223Y-21940213D01*
X38745884Y-21976563D01*
G37*
G36*
X31468914Y-23218242D02*
G01*
X31550980Y-23265623D01*
X31617987Y-23332630D01*
X31665368Y-23414696D01*
X31689894Y-23506229D01*
X31689894Y-23600991D01*
X31665368Y-23692524D01*
X31617987Y-23774590D01*
X31550980Y-23841597D01*
X31468914Y-23888978D01*
X31377381Y-23913504D01*
X31282619Y-23913504D01*
X31191086Y-23888978D01*
X31109020Y-23841597D01*
X31042013Y-23774590D01*
X30994632Y-23692524D01*
X30970106Y-23600991D01*
X30970106Y-23506229D01*
X30994632Y-23414696D01*
X31042013Y-23332630D01*
X31109020Y-23265623D01*
X31191086Y-23218242D01*
X31282619Y-23193716D01*
X31377381Y-23193716D01*
X31468914Y-23218242D01*
G37*
G36*
X37248914Y-23218242D02*
G01*
X37330980Y-23265623D01*
X37397987Y-23332630D01*
X37445368Y-23414696D01*
X37469894Y-23506229D01*
X37469894Y-23600991D01*
X37445368Y-23692524D01*
X37397987Y-23774590D01*
X37330980Y-23841597D01*
X37248914Y-23888978D01*
X37157381Y-23913504D01*
X37062619Y-23913504D01*
X36971086Y-23888978D01*
X36889020Y-23841597D01*
X36822013Y-23774590D01*
X36774632Y-23692524D01*
X36750106Y-23600991D01*
X36750106Y-23506229D01*
X36774632Y-23414696D01*
X36822013Y-23332630D01*
X36889020Y-23265623D01*
X36971086Y-23218242D01*
X37062619Y-23193716D01*
X37157381Y-23193716D01*
X37248914Y-23218242D01*
G37*
G36*
X31284542Y-21348503D02*
G01*
X31296870Y-21356740D01*
X31305107Y-21369068D01*
X31308000Y-21383610D01*
X31308000Y-22833610D01*
X31305107Y-22848152D01*
X31296870Y-22860480D01*
X31284542Y-22868717D01*
X31270000Y-22871610D01*
X30670000Y-22871610D01*
X30655458Y-22868717D01*
X30643130Y-22860480D01*
X30634893Y-22848152D01*
X30632000Y-22833610D01*
X30632000Y-21383610D01*
X30634893Y-21369068D01*
X30643130Y-21356740D01*
X30655458Y-21348503D01*
X30670000Y-21345610D01*
X31270000Y-21345610D01*
X31284542Y-21348503D01*
G37*
G36*
X32084542Y-21348503D02*
G01*
X32096870Y-21356740D01*
X32105107Y-21369068D01*
X32108000Y-21383610D01*
X32108000Y-22833610D01*
X32105107Y-22848152D01*
X32096870Y-22860480D01*
X32084542Y-22868717D01*
X32070000Y-22871610D01*
X31470000Y-22871610D01*
X31455458Y-22868717D01*
X31443130Y-22860480D01*
X31434893Y-22848152D01*
X31432000Y-22833610D01*
X31432000Y-21383610D01*
X31434893Y-21369068D01*
X31443130Y-21356740D01*
X31455458Y-21348503D01*
X31470000Y-21345610D01*
X32070000Y-21345610D01*
X32084542Y-21348503D01*
G37*
G36*
X32634542Y-21348503D02*
G01*
X32646870Y-21356740D01*
X32655107Y-21369068D01*
X32658000Y-21383610D01*
X32658000Y-22833610D01*
X32655107Y-22848152D01*
X32646870Y-22860480D01*
X32634542Y-22868717D01*
X32620000Y-22871610D01*
X32320000Y-22871610D01*
X32305458Y-22868717D01*
X32293130Y-22860480D01*
X32284893Y-22848152D01*
X32282000Y-22833610D01*
X32282000Y-21383610D01*
X32284893Y-21369068D01*
X32293130Y-21356740D01*
X32305458Y-21348503D01*
X32320000Y-21345610D01*
X32620000Y-21345610D01*
X32634542Y-21348503D01*
G37*
G36*
X33134542Y-21348503D02*
G01*
X33146870Y-21356740D01*
X33155107Y-21369068D01*
X33158000Y-21383610D01*
X33158000Y-22833610D01*
X33155107Y-22848152D01*
X33146870Y-22860480D01*
X33134542Y-22868717D01*
X33120000Y-22871610D01*
X32820000Y-22871610D01*
X32805458Y-22868717D01*
X32793130Y-22860480D01*
X32784893Y-22848152D01*
X32782000Y-22833610D01*
X32782000Y-21383610D01*
X32784893Y-21369068D01*
X32793130Y-21356740D01*
X32805458Y-21348503D01*
X32820000Y-21345610D01*
X33120000Y-21345610D01*
X33134542Y-21348503D01*
G37*
G36*
X33634542Y-21348503D02*
G01*
X33646870Y-21356740D01*
X33655107Y-21369068D01*
X33658000Y-21383610D01*
X33658000Y-22833610D01*
X33655107Y-22848152D01*
X33646870Y-22860480D01*
X33634542Y-22868717D01*
X33620000Y-22871610D01*
X33320000Y-22871610D01*
X33305458Y-22868717D01*
X33293130Y-22860480D01*
X33284893Y-22848152D01*
X33282000Y-22833610D01*
X33282000Y-21383610D01*
X33284893Y-21369068D01*
X33293130Y-21356740D01*
X33305458Y-21348503D01*
X33320000Y-21345610D01*
X33620000Y-21345610D01*
X33634542Y-21348503D01*
G37*
G36*
X34134542Y-21348503D02*
G01*
X34146870Y-21356740D01*
X34155107Y-21369068D01*
X34158000Y-21383610D01*
X34158000Y-22833610D01*
X34155107Y-22848152D01*
X34146870Y-22860480D01*
X34134542Y-22868717D01*
X34120000Y-22871610D01*
X33820000Y-22871610D01*
X33805458Y-22868717D01*
X33793130Y-22860480D01*
X33784893Y-22848152D01*
X33782000Y-22833610D01*
X33782000Y-21383610D01*
X33784893Y-21369068D01*
X33793130Y-21356740D01*
X33805458Y-21348503D01*
X33820000Y-21345610D01*
X34120000Y-21345610D01*
X34134542Y-21348503D01*
G37*
G36*
X34634542Y-21348503D02*
G01*
X34646870Y-21356740D01*
X34655107Y-21369068D01*
X34658000Y-21383610D01*
X34658000Y-22833610D01*
X34655107Y-22848152D01*
X34646870Y-22860480D01*
X34634542Y-22868717D01*
X34620000Y-22871610D01*
X34320000Y-22871610D01*
X34305458Y-22868717D01*
X34293130Y-22860480D01*
X34284893Y-22848152D01*
X34282000Y-22833610D01*
X34282000Y-21383610D01*
X34284893Y-21369068D01*
X34293130Y-21356740D01*
X34305458Y-21348503D01*
X34320000Y-21345610D01*
X34620000Y-21345610D01*
X34634542Y-21348503D01*
G37*
G36*
X35134542Y-21348503D02*
G01*
X35146870Y-21356740D01*
X35155107Y-21369068D01*
X35158000Y-21383610D01*
X35158000Y-22833610D01*
X35155107Y-22848152D01*
X35146870Y-22860480D01*
X35134542Y-22868717D01*
X35120000Y-22871610D01*
X34820000Y-22871610D01*
X34805458Y-22868717D01*
X34793130Y-22860480D01*
X34784893Y-22848152D01*
X34782000Y-22833610D01*
X34782000Y-21383610D01*
X34784893Y-21369068D01*
X34793130Y-21356740D01*
X34805458Y-21348503D01*
X34820000Y-21345610D01*
X35120000Y-21345610D01*
X35134542Y-21348503D01*
G37*
G36*
X35634542Y-21348503D02*
G01*
X35646870Y-21356740D01*
X35655107Y-21369068D01*
X35658000Y-21383610D01*
X35658000Y-22833610D01*
X35655107Y-22848152D01*
X35646870Y-22860480D01*
X35634542Y-22868717D01*
X35620000Y-22871610D01*
X35320000Y-22871610D01*
X35305458Y-22868717D01*
X35293130Y-22860480D01*
X35284893Y-22848152D01*
X35282000Y-22833610D01*
X35282000Y-21383610D01*
X35284893Y-21369068D01*
X35293130Y-21356740D01*
X35305458Y-21348503D01*
X35320000Y-21345610D01*
X35620000Y-21345610D01*
X35634542Y-21348503D01*
G37*
G36*
X36134542Y-21348503D02*
G01*
X36146870Y-21356740D01*
X36155107Y-21369068D01*
X36158000Y-21383610D01*
X36158000Y-22833610D01*
X36155107Y-22848152D01*
X36146870Y-22860480D01*
X36134542Y-22868717D01*
X36120000Y-22871610D01*
X35820000Y-22871610D01*
X35805458Y-22868717D01*
X35793130Y-22860480D01*
X35784893Y-22848152D01*
X35782000Y-22833610D01*
X35782000Y-21383610D01*
X35784893Y-21369068D01*
X35793130Y-21356740D01*
X35805458Y-21348503D01*
X35820000Y-21345610D01*
X36120000Y-21345610D01*
X36134542Y-21348503D01*
G37*
G36*
X36984542Y-21348503D02*
G01*
X36996870Y-21356740D01*
X37005107Y-21369068D01*
X37008000Y-21383610D01*
X37008000Y-22833610D01*
X37005107Y-22848152D01*
X36996870Y-22860480D01*
X36984542Y-22868717D01*
X36970000Y-22871610D01*
X36370000Y-22871610D01*
X36355458Y-22868717D01*
X36343130Y-22860480D01*
X36334893Y-22848152D01*
X36332000Y-22833610D01*
X36332000Y-21383610D01*
X36334893Y-21369068D01*
X36343130Y-21356740D01*
X36355458Y-21348503D01*
X36370000Y-21345610D01*
X36970000Y-21345610D01*
X36984542Y-21348503D01*
G37*
G36*
X37784542Y-21348503D02*
G01*
X37796870Y-21356740D01*
X37805107Y-21369068D01*
X37808000Y-21383610D01*
X37808000Y-22833610D01*
X37805107Y-22848152D01*
X37796870Y-22860480D01*
X37784542Y-22868717D01*
X37770000Y-22871610D01*
X37170000Y-22871610D01*
X37155458Y-22868717D01*
X37143130Y-22860480D01*
X37134893Y-22848152D01*
X37132000Y-22833610D01*
X37132000Y-21383610D01*
X37134893Y-21369068D01*
X37143130Y-21356740D01*
X37155458Y-21348503D01*
X37170000Y-21345610D01*
X37770000Y-21345610D01*
X37784542Y-21348503D01*
G37*
G36*
X28315938Y-21169650D02*
G01*
X28320653Y-21171732D01*
X28323326Y-21172084D01*
X28356770Y-21187679D01*
X28412759Y-21212401D01*
X28487599Y-21287241D01*
X28512330Y-21343251D01*
X28527915Y-21376673D01*
X28528266Y-21379343D01*
X28530350Y-21384062D01*
X28538000Y-21450000D01*
X28538000Y-22150000D01*
X28530350Y-22215938D01*
X28528266Y-22220656D01*
X28527915Y-22223326D01*
X28512338Y-22256730D01*
X28487599Y-22312759D01*
X28412759Y-22387599D01*
X28356730Y-22412338D01*
X28323326Y-22427915D01*
X28320656Y-22428266D01*
X28315938Y-22430350D01*
X28250000Y-22438000D01*
X27350000Y-22438000D01*
X27284062Y-22430350D01*
X27279343Y-22428266D01*
X27276673Y-22427915D01*
X27243251Y-22412330D01*
X27187241Y-22387599D01*
X27112401Y-22312759D01*
X27087679Y-22256770D01*
X27072084Y-22223326D01*
X27071732Y-22220653D01*
X27069650Y-22215938D01*
X27062000Y-22150000D01*
X27062000Y-21450000D01*
X27069650Y-21384062D01*
X27071732Y-21379346D01*
X27072084Y-21376673D01*
X27087687Y-21343210D01*
X27112401Y-21287241D01*
X27187241Y-21212401D01*
X27243210Y-21187687D01*
X27276673Y-21172084D01*
X27279346Y-21171732D01*
X27284062Y-21169650D01*
X27350000Y-21162000D01*
X28250000Y-21162000D01*
X28315938Y-21169650D01*
G37*
G36*
X9304230Y-20837388D02*
G01*
X9437891Y-20892752D01*
X9558182Y-20973128D01*
X9660482Y-21075428D01*
X9740858Y-21195719D01*
X9796222Y-21329380D01*
X9824446Y-21471273D01*
X9824446Y-21615947D01*
X9796222Y-21757840D01*
X9740858Y-21891501D01*
X9660482Y-22011792D01*
X9558182Y-22114092D01*
X9437891Y-22194468D01*
X9304230Y-22249832D01*
X9162337Y-22278056D01*
X9017663Y-22278056D01*
X8875770Y-22249832D01*
X8742109Y-22194468D01*
X8621818Y-22114092D01*
X8519518Y-22011792D01*
X8439142Y-21891501D01*
X8383778Y-21757840D01*
X8355554Y-21615947D01*
X8355554Y-21471273D01*
X8383778Y-21329380D01*
X8439142Y-21195719D01*
X8519518Y-21075428D01*
X8621818Y-20973128D01*
X8742109Y-20892752D01*
X8875770Y-20837388D01*
X9017663Y-20809164D01*
X9162337Y-20809164D01*
X9304230Y-20837388D01*
G37*
G36*
X17564230Y-20837388D02*
G01*
X17697891Y-20892752D01*
X17818182Y-20973128D01*
X17920482Y-21075428D01*
X18000858Y-21195719D01*
X18056222Y-21329380D01*
X18084446Y-21471273D01*
X18084446Y-21615947D01*
X18056222Y-21757840D01*
X18000858Y-21891501D01*
X17920482Y-22011792D01*
X17818182Y-22114092D01*
X17697891Y-22194468D01*
X17564230Y-22249832D01*
X17422337Y-22278056D01*
X17277663Y-22278056D01*
X17135770Y-22249832D01*
X17002109Y-22194468D01*
X16881818Y-22114092D01*
X16779518Y-22011792D01*
X16699142Y-21891501D01*
X16643778Y-21757840D01*
X16615554Y-21615947D01*
X16615554Y-21471273D01*
X16643778Y-21329380D01*
X16699142Y-21195719D01*
X16779518Y-21075428D01*
X16881818Y-20973128D01*
X17002109Y-20892752D01*
X17135770Y-20837388D01*
X17277663Y-20809164D01*
X17422337Y-20809164D01*
X17564230Y-20837388D01*
G37*
G36*
X10384542Y-20948503D02*
G01*
X10396870Y-20956740D01*
X10405107Y-20969068D01*
X10408000Y-20983610D01*
X10408000Y-21683610D01*
X10405107Y-21698152D01*
X10396870Y-21710480D01*
X10384542Y-21718717D01*
X10370000Y-21721610D01*
X10070000Y-21721610D01*
X10055458Y-21718717D01*
X10043130Y-21710480D01*
X10034893Y-21698152D01*
X10032000Y-21683610D01*
X10032000Y-20983610D01*
X10034893Y-20969068D01*
X10043130Y-20956740D01*
X10055458Y-20948503D01*
X10070000Y-20945610D01*
X10370000Y-20945610D01*
X10384542Y-20948503D01*
G37*
G36*
X10884542Y-20948503D02*
G01*
X10896870Y-20956740D01*
X10905107Y-20969068D01*
X10908000Y-20983610D01*
X10908000Y-21683610D01*
X10905107Y-21698152D01*
X10896870Y-21710480D01*
X10884542Y-21718717D01*
X10870000Y-21721610D01*
X10570000Y-21721610D01*
X10555458Y-21718717D01*
X10543130Y-21710480D01*
X10534893Y-21698152D01*
X10532000Y-21683610D01*
X10532000Y-20983610D01*
X10534893Y-20969068D01*
X10543130Y-20956740D01*
X10555458Y-20948503D01*
X10570000Y-20945610D01*
X10870000Y-20945610D01*
X10884542Y-20948503D01*
G37*
G36*
X11384542Y-20948503D02*
G01*
X11396870Y-20956740D01*
X11405107Y-20969068D01*
X11408000Y-20983610D01*
X11408000Y-21683610D01*
X11405107Y-21698152D01*
X11396870Y-21710480D01*
X11384542Y-21718717D01*
X11370000Y-21721610D01*
X11070000Y-21721610D01*
X11055458Y-21718717D01*
X11043130Y-21710480D01*
X11034893Y-21698152D01*
X11032000Y-21683610D01*
X11032000Y-20983610D01*
X11034893Y-20969068D01*
X11043130Y-20956740D01*
X11055458Y-20948503D01*
X11070000Y-20945610D01*
X11370000Y-20945610D01*
X11384542Y-20948503D01*
G37*
G36*
X11884542Y-20948503D02*
G01*
X11896870Y-20956740D01*
X11905107Y-20969068D01*
X11908000Y-20983610D01*
X11908000Y-21683610D01*
X11905107Y-21698152D01*
X11896870Y-21710480D01*
X11884542Y-21718717D01*
X11870000Y-21721610D01*
X11570000Y-21721610D01*
X11555458Y-21718717D01*
X11543130Y-21710480D01*
X11534893Y-21698152D01*
X11532000Y-21683610D01*
X11532000Y-20983610D01*
X11534893Y-20969068D01*
X11543130Y-20956740D01*
X11555458Y-20948503D01*
X11570000Y-20945610D01*
X11870000Y-20945610D01*
X11884542Y-20948503D01*
G37*
G36*
X12384542Y-20948503D02*
G01*
X12396870Y-20956740D01*
X12405107Y-20969068D01*
X12408000Y-20983610D01*
X12408000Y-21683610D01*
X12405107Y-21698152D01*
X12396870Y-21710480D01*
X12384542Y-21718717D01*
X12370000Y-21721610D01*
X12070000Y-21721610D01*
X12055458Y-21718717D01*
X12043130Y-21710480D01*
X12034893Y-21698152D01*
X12032000Y-21683610D01*
X12032000Y-20983610D01*
X12034893Y-20969068D01*
X12043130Y-20956740D01*
X12055458Y-20948503D01*
X12070000Y-20945610D01*
X12370000Y-20945610D01*
X12384542Y-20948503D01*
G37*
G36*
X12884542Y-20948503D02*
G01*
X12896870Y-20956740D01*
X12905107Y-20969068D01*
X12908000Y-20983610D01*
X12908000Y-21683610D01*
X12905107Y-21698152D01*
X12896870Y-21710480D01*
X12884542Y-21718717D01*
X12870000Y-21721610D01*
X12570000Y-21721610D01*
X12555458Y-21718717D01*
X12543130Y-21710480D01*
X12534893Y-21698152D01*
X12532000Y-21683610D01*
X12532000Y-20983610D01*
X12534893Y-20969068D01*
X12543130Y-20956740D01*
X12555458Y-20948503D01*
X12570000Y-20945610D01*
X12870000Y-20945610D01*
X12884542Y-20948503D01*
G37*
G36*
X13384542Y-20948503D02*
G01*
X13396870Y-20956740D01*
X13405107Y-20969068D01*
X13408000Y-20983610D01*
X13408000Y-21683610D01*
X13405107Y-21698152D01*
X13396870Y-21710480D01*
X13384542Y-21718717D01*
X13370000Y-21721610D01*
X13070000Y-21721610D01*
X13055458Y-21718717D01*
X13043130Y-21710480D01*
X13034893Y-21698152D01*
X13032000Y-21683610D01*
X13032000Y-20983610D01*
X13034893Y-20969068D01*
X13043130Y-20956740D01*
X13055458Y-20948503D01*
X13070000Y-20945610D01*
X13370000Y-20945610D01*
X13384542Y-20948503D01*
G37*
G36*
X13884542Y-20948503D02*
G01*
X13896870Y-20956740D01*
X13905107Y-20969068D01*
X13908000Y-20983610D01*
X13908000Y-21683610D01*
X13905107Y-21698152D01*
X13896870Y-21710480D01*
X13884542Y-21718717D01*
X13870000Y-21721610D01*
X13570000Y-21721610D01*
X13555458Y-21718717D01*
X13543130Y-21710480D01*
X13534893Y-21698152D01*
X13532000Y-21683610D01*
X13532000Y-20983610D01*
X13534893Y-20969068D01*
X13543130Y-20956740D01*
X13555458Y-20948503D01*
X13570000Y-20945610D01*
X13870000Y-20945610D01*
X13884542Y-20948503D01*
G37*
G36*
X14384542Y-20948503D02*
G01*
X14396870Y-20956740D01*
X14405107Y-20969068D01*
X14408000Y-20983610D01*
X14408000Y-21683610D01*
X14405107Y-21698152D01*
X14396870Y-21710480D01*
X14384542Y-21718717D01*
X14370000Y-21721610D01*
X14070000Y-21721610D01*
X14055458Y-21718717D01*
X14043130Y-21710480D01*
X14034893Y-21698152D01*
X14032000Y-21683610D01*
X14032000Y-20983610D01*
X14034893Y-20969068D01*
X14043130Y-20956740D01*
X14055458Y-20948503D01*
X14070000Y-20945610D01*
X14370000Y-20945610D01*
X14384542Y-20948503D01*
G37*
G36*
X14884542Y-20948503D02*
G01*
X14896870Y-20956740D01*
X14905107Y-20969068D01*
X14908000Y-20983610D01*
X14908000Y-21683610D01*
X14905107Y-21698152D01*
X14896870Y-21710480D01*
X14884542Y-21718717D01*
X14870000Y-21721610D01*
X14570000Y-21721610D01*
X14555458Y-21718717D01*
X14543130Y-21710480D01*
X14534893Y-21698152D01*
X14532000Y-21683610D01*
X14532000Y-20983610D01*
X14534893Y-20969068D01*
X14543130Y-20956740D01*
X14555458Y-20948503D01*
X14570000Y-20945610D01*
X14870000Y-20945610D01*
X14884542Y-20948503D01*
G37*
G36*
X15384542Y-20948503D02*
G01*
X15396870Y-20956740D01*
X15405107Y-20969068D01*
X15408000Y-20983610D01*
X15408000Y-21683610D01*
X15405107Y-21698152D01*
X15396870Y-21710480D01*
X15384542Y-21718717D01*
X15370000Y-21721610D01*
X15070000Y-21721610D01*
X15055458Y-21718717D01*
X15043130Y-21710480D01*
X15034893Y-21698152D01*
X15032000Y-21683610D01*
X15032000Y-20983610D01*
X15034893Y-20969068D01*
X15043130Y-20956740D01*
X15055458Y-20948503D01*
X15070000Y-20945610D01*
X15370000Y-20945610D01*
X15384542Y-20948503D01*
G37*
G36*
X15884542Y-20948503D02*
G01*
X15896870Y-20956740D01*
X15905107Y-20969068D01*
X15908000Y-20983610D01*
X15908000Y-21683610D01*
X15905107Y-21698152D01*
X15896870Y-21710480D01*
X15884542Y-21718717D01*
X15870000Y-21721610D01*
X15570000Y-21721610D01*
X15555458Y-21718717D01*
X15543130Y-21710480D01*
X15534893Y-21698152D01*
X15532000Y-21683610D01*
X15532000Y-20983610D01*
X15534893Y-20969068D01*
X15543130Y-20956740D01*
X15555458Y-20948503D01*
X15570000Y-20945610D01*
X15870000Y-20945610D01*
X15884542Y-20948503D01*
G37*
G36*
X17016317Y-19819660D02*
G01*
X17132295Y-19886620D01*
X17226990Y-19981315D01*
X17293950Y-20097293D01*
X17328611Y-20226650D01*
X17328611Y-20360570D01*
X17293950Y-20489927D01*
X17226990Y-20605905D01*
X17132295Y-20700600D01*
X17016317Y-20767560D01*
X16886960Y-20802221D01*
X16753040Y-20802221D01*
X16623683Y-20767560D01*
X16507705Y-20700600D01*
X16413010Y-20605905D01*
X16346050Y-20489927D01*
X16311389Y-20360570D01*
X16311389Y-20226650D01*
X16346050Y-20097293D01*
X16413010Y-19981315D01*
X16507705Y-19886620D01*
X16623683Y-19819660D01*
X16753040Y-19784999D01*
X16886960Y-19784999D01*
X17016317Y-19819660D01*
G37*
G36*
X9758914Y-19958242D02*
G01*
X9840980Y-20005623D01*
X9907987Y-20072630D01*
X9955368Y-20154696D01*
X9979894Y-20246229D01*
X9979894Y-20340991D01*
X9955368Y-20432524D01*
X9907987Y-20514590D01*
X9840980Y-20581597D01*
X9758914Y-20628978D01*
X9667381Y-20653504D01*
X9572619Y-20653504D01*
X9481086Y-20628978D01*
X9399020Y-20581597D01*
X9332013Y-20514590D01*
X9284632Y-20432524D01*
X9260106Y-20340991D01*
X9260106Y-20246229D01*
X9284632Y-20154696D01*
X9332013Y-20072630D01*
X9399020Y-20005623D01*
X9481086Y-19958242D01*
X9572619Y-19933716D01*
X9667381Y-19933716D01*
X9758914Y-19958242D01*
G37*
G36*
X2840938Y-19319650D02*
G01*
X2845653Y-19321732D01*
X2848326Y-19322084D01*
X2881770Y-19337679D01*
X2937759Y-19362401D01*
X3012599Y-19437241D01*
X3037330Y-19493251D01*
X3052915Y-19526673D01*
X3053266Y-19529343D01*
X3055350Y-19534062D01*
X3063000Y-19600000D01*
X3063000Y-20275000D01*
X3055350Y-20340938D01*
X3053266Y-20345656D01*
X3052915Y-20348326D01*
X3037338Y-20381730D01*
X3012599Y-20437759D01*
X2937759Y-20512599D01*
X2881730Y-20537338D01*
X2848326Y-20552915D01*
X2845656Y-20553266D01*
X2840938Y-20555350D01*
X2775000Y-20563000D01*
X1825000Y-20563000D01*
X1759062Y-20555350D01*
X1754343Y-20553266D01*
X1751673Y-20552915D01*
X1718251Y-20537330D01*
X1662241Y-20512599D01*
X1587401Y-20437759D01*
X1562679Y-20381770D01*
X1547084Y-20348326D01*
X1546732Y-20345653D01*
X1544650Y-20340938D01*
X1537000Y-20275000D01*
X1537000Y-19600000D01*
X1544650Y-19534062D01*
X1546732Y-19529346D01*
X1547084Y-19526673D01*
X1562687Y-19493210D01*
X1587401Y-19437241D01*
X1662241Y-19362401D01*
X1718210Y-19337687D01*
X1751673Y-19322084D01*
X1754346Y-19321732D01*
X1759062Y-19319650D01*
X1825000Y-19312000D01*
X2775000Y-19312000D01*
X2840938Y-19319650D01*
G37*
G36*
X4915938Y-19269650D02*
G01*
X4920653Y-19271732D01*
X4923326Y-19272084D01*
X4956770Y-19287679D01*
X5012759Y-19312401D01*
X5087599Y-19387241D01*
X5112330Y-19443251D01*
X5127915Y-19476673D01*
X5128266Y-19479343D01*
X5130350Y-19484062D01*
X5138000Y-19550000D01*
X5138000Y-20250000D01*
X5130350Y-20315938D01*
X5128266Y-20320656D01*
X5127915Y-20323326D01*
X5112338Y-20356730D01*
X5087599Y-20412759D01*
X5012759Y-20487599D01*
X4956730Y-20512338D01*
X4923326Y-20527915D01*
X4920656Y-20528266D01*
X4915938Y-20530350D01*
X4850000Y-20538000D01*
X3950000Y-20538000D01*
X3884062Y-20530350D01*
X3879343Y-20528266D01*
X3876673Y-20527915D01*
X3843251Y-20512330D01*
X3787241Y-20487599D01*
X3712401Y-20412759D01*
X3687679Y-20356770D01*
X3672084Y-20323326D01*
X3671732Y-20320653D01*
X3669650Y-20315938D01*
X3662000Y-20250000D01*
X3662000Y-19550000D01*
X3669650Y-19484062D01*
X3671732Y-19479346D01*
X3672084Y-19476673D01*
X3687687Y-19443210D01*
X3712401Y-19387241D01*
X3787241Y-19312401D01*
X3843210Y-19287687D01*
X3876673Y-19272084D01*
X3879346Y-19271732D01*
X3884062Y-19269650D01*
X3950000Y-19262000D01*
X4850000Y-19262000D01*
X4915938Y-19269650D01*
G37*
G36*
X27215938Y-19269650D02*
G01*
X27220653Y-19271732D01*
X27223326Y-19272084D01*
X27256770Y-19287679D01*
X27312759Y-19312401D01*
X27387599Y-19387241D01*
X27412330Y-19443251D01*
X27427915Y-19476673D01*
X27428266Y-19479343D01*
X27430350Y-19484062D01*
X27438000Y-19550000D01*
X27438000Y-20250000D01*
X27430350Y-20315938D01*
X27428266Y-20320656D01*
X27427915Y-20323326D01*
X27412338Y-20356730D01*
X27387599Y-20412759D01*
X27312759Y-20487599D01*
X27256730Y-20512338D01*
X27223326Y-20527915D01*
X27220656Y-20528266D01*
X27215938Y-20530350D01*
X27150000Y-20538000D01*
X26250000Y-20538000D01*
X26184062Y-20530350D01*
X26179343Y-20528266D01*
X26176673Y-20527915D01*
X26143251Y-20512330D01*
X26087241Y-20487599D01*
X26012401Y-20412759D01*
X25987679Y-20356770D01*
X25972084Y-20323326D01*
X25971732Y-20320653D01*
X25969650Y-20315938D01*
X25962000Y-20250000D01*
X25962000Y-19550000D01*
X25969650Y-19484062D01*
X25971732Y-19479346D01*
X25972084Y-19476673D01*
X25987687Y-19443210D01*
X26012401Y-19387241D01*
X26087241Y-19312401D01*
X26143210Y-19287687D01*
X26176673Y-19272084D01*
X26179346Y-19271732D01*
X26184062Y-19269650D01*
X26250000Y-19262000D01*
X27150000Y-19262000D01*
X27215938Y-19269650D01*
G37*
G36*
X39315938Y-19032150D02*
G01*
X39320653Y-19034232D01*
X39323326Y-19034584D01*
X39356770Y-19050179D01*
X39412759Y-19074901D01*
X39487599Y-19149741D01*
X39512330Y-19205751D01*
X39527915Y-19239173D01*
X39528266Y-19241843D01*
X39530350Y-19246562D01*
X39538000Y-19312500D01*
X39538000Y-20137500D01*
X39530350Y-20203438D01*
X39528266Y-20208156D01*
X39527915Y-20210826D01*
X39512338Y-20244230D01*
X39487599Y-20300259D01*
X39412759Y-20375099D01*
X39356730Y-20399838D01*
X39323326Y-20415415D01*
X39320656Y-20415766D01*
X39315938Y-20417850D01*
X39250000Y-20425500D01*
X37950000Y-20425500D01*
X37884062Y-20417850D01*
X37879343Y-20415766D01*
X37876673Y-20415415D01*
X37843251Y-20399830D01*
X37787241Y-20375099D01*
X37712401Y-20300259D01*
X37687679Y-20244270D01*
X37672084Y-20210826D01*
X37671732Y-20208153D01*
X37669650Y-20203438D01*
X37662000Y-20137500D01*
X37662000Y-19312500D01*
X37669650Y-19246562D01*
X37671732Y-19241846D01*
X37672084Y-19239173D01*
X37687687Y-19205710D01*
X37712401Y-19149741D01*
X37787241Y-19074901D01*
X37843210Y-19050187D01*
X37876673Y-19034584D01*
X37879346Y-19034232D01*
X37884062Y-19032150D01*
X37950000Y-19024500D01*
X39250000Y-19024500D01*
X39315938Y-19032150D01*
G37*
G36*
X29484444Y-19376311D02*
G01*
X29545436Y-19417064D01*
X29586189Y-19478056D01*
X29600500Y-19550000D01*
X29600500Y-19850000D01*
X29586189Y-19921944D01*
X29545436Y-19982936D01*
X29484444Y-20023689D01*
X29412500Y-20038000D01*
X28237500Y-20038000D01*
X28165556Y-20023689D01*
X28104564Y-19982936D01*
X28063811Y-19921944D01*
X28049500Y-19850000D01*
X28049500Y-19550000D01*
X28063811Y-19478056D01*
X28104564Y-19417064D01*
X28165556Y-19376311D01*
X28237500Y-19362000D01*
X29412500Y-19362000D01*
X29484444Y-19376311D01*
G37*
G36*
X10634542Y-19248503D02*
G01*
X10646870Y-19256740D01*
X10655107Y-19269068D01*
X10658000Y-19283610D01*
X10658000Y-19983610D01*
X10655107Y-19998152D01*
X10646870Y-20010480D01*
X10634542Y-20018717D01*
X10620000Y-20021610D01*
X10320000Y-20021610D01*
X10305458Y-20018717D01*
X10293130Y-20010480D01*
X10284893Y-19998152D01*
X10282000Y-19983610D01*
X10282000Y-19283610D01*
X10284893Y-19269068D01*
X10293130Y-19256740D01*
X10305458Y-19248503D01*
X10320000Y-19245610D01*
X10620000Y-19245610D01*
X10634542Y-19248503D01*
G37*
G36*
X11134542Y-19248503D02*
G01*
X11146870Y-19256740D01*
X11155107Y-19269068D01*
X11158000Y-19283610D01*
X11158000Y-19983610D01*
X11155107Y-19998152D01*
X11146870Y-20010480D01*
X11134542Y-20018717D01*
X11120000Y-20021610D01*
X10820000Y-20021610D01*
X10805458Y-20018717D01*
X10793130Y-20010480D01*
X10784893Y-19998152D01*
X10782000Y-19983610D01*
X10782000Y-19283610D01*
X10784893Y-19269068D01*
X10793130Y-19256740D01*
X10805458Y-19248503D01*
X10820000Y-19245610D01*
X11120000Y-19245610D01*
X11134542Y-19248503D01*
G37*
G36*
X11634542Y-19248503D02*
G01*
X11646870Y-19256740D01*
X11655107Y-19269068D01*
X11658000Y-19283610D01*
X11658000Y-19983610D01*
X11655107Y-19998152D01*
X11646870Y-20010480D01*
X11634542Y-20018717D01*
X11620000Y-20021610D01*
X11320000Y-20021610D01*
X11305458Y-20018717D01*
X11293130Y-20010480D01*
X11284893Y-19998152D01*
X11282000Y-19983610D01*
X11282000Y-19283610D01*
X11284893Y-19269068D01*
X11293130Y-19256740D01*
X11305458Y-19248503D01*
X11320000Y-19245610D01*
X11620000Y-19245610D01*
X11634542Y-19248503D01*
G37*
G36*
X12134542Y-19248503D02*
G01*
X12146870Y-19256740D01*
X12155107Y-19269068D01*
X12158000Y-19283610D01*
X12158000Y-19983610D01*
X12155107Y-19998152D01*
X12146870Y-20010480D01*
X12134542Y-20018717D01*
X12120000Y-20021610D01*
X11820000Y-20021610D01*
X11805458Y-20018717D01*
X11793130Y-20010480D01*
X11784893Y-19998152D01*
X11782000Y-19983610D01*
X11782000Y-19283610D01*
X11784893Y-19269068D01*
X11793130Y-19256740D01*
X11805458Y-19248503D01*
X11820000Y-19245610D01*
X12120000Y-19245610D01*
X12134542Y-19248503D01*
G37*
G36*
X12634542Y-19248503D02*
G01*
X12646870Y-19256740D01*
X12655107Y-19269068D01*
X12658000Y-19283610D01*
X12658000Y-19983610D01*
X12655107Y-19998152D01*
X12646870Y-20010480D01*
X12634542Y-20018717D01*
X12620000Y-20021610D01*
X12320000Y-20021610D01*
X12305458Y-20018717D01*
X12293130Y-20010480D01*
X12284893Y-19998152D01*
X12282000Y-19983610D01*
X12282000Y-19283610D01*
X12284893Y-19269068D01*
X12293130Y-19256740D01*
X12305458Y-19248503D01*
X12320000Y-19245610D01*
X12620000Y-19245610D01*
X12634542Y-19248503D01*
G37*
G36*
X13134542Y-19248503D02*
G01*
X13146870Y-19256740D01*
X13155107Y-19269068D01*
X13158000Y-19283610D01*
X13158000Y-19983610D01*
X13155107Y-19998152D01*
X13146870Y-20010480D01*
X13134542Y-20018717D01*
X13120000Y-20021610D01*
X12820000Y-20021610D01*
X12805458Y-20018717D01*
X12793130Y-20010480D01*
X12784893Y-19998152D01*
X12782000Y-19983610D01*
X12782000Y-19283610D01*
X12784893Y-19269068D01*
X12793130Y-19256740D01*
X12805458Y-19248503D01*
X12820000Y-19245610D01*
X13120000Y-19245610D01*
X13134542Y-19248503D01*
G37*
G36*
X13634542Y-19248503D02*
G01*
X13646870Y-19256740D01*
X13655107Y-19269068D01*
X13658000Y-19283610D01*
X13658000Y-19983610D01*
X13655107Y-19998152D01*
X13646870Y-20010480D01*
X13634542Y-20018717D01*
X13620000Y-20021610D01*
X13320000Y-20021610D01*
X13305458Y-20018717D01*
X13293130Y-20010480D01*
X13284893Y-19998152D01*
X13282000Y-19983610D01*
X13282000Y-19283610D01*
X13284893Y-19269068D01*
X13293130Y-19256740D01*
X13305458Y-19248503D01*
X13320000Y-19245610D01*
X13620000Y-19245610D01*
X13634542Y-19248503D01*
G37*
G36*
X14134542Y-19248503D02*
G01*
X14146870Y-19256740D01*
X14155107Y-19269068D01*
X14158000Y-19283610D01*
X14158000Y-19983610D01*
X14155107Y-19998152D01*
X14146870Y-20010480D01*
X14134542Y-20018717D01*
X14120000Y-20021610D01*
X13820000Y-20021610D01*
X13805458Y-20018717D01*
X13793130Y-20010480D01*
X13784893Y-19998152D01*
X13782000Y-19983610D01*
X13782000Y-19283610D01*
X13784893Y-19269068D01*
X13793130Y-19256740D01*
X13805458Y-19248503D01*
X13820000Y-19245610D01*
X14120000Y-19245610D01*
X14134542Y-19248503D01*
G37*
G36*
X14634542Y-19248503D02*
G01*
X14646870Y-19256740D01*
X14655107Y-19269068D01*
X14658000Y-19283610D01*
X14658000Y-19983610D01*
X14655107Y-19998152D01*
X14646870Y-20010480D01*
X14634542Y-20018717D01*
X14620000Y-20021610D01*
X14320000Y-20021610D01*
X14305458Y-20018717D01*
X14293130Y-20010480D01*
X14284893Y-19998152D01*
X14282000Y-19983610D01*
X14282000Y-19283610D01*
X14284893Y-19269068D01*
X14293130Y-19256740D01*
X14305458Y-19248503D01*
X14320000Y-19245610D01*
X14620000Y-19245610D01*
X14634542Y-19248503D01*
G37*
G36*
X15134542Y-19248503D02*
G01*
X15146870Y-19256740D01*
X15155107Y-19269068D01*
X15158000Y-19283610D01*
X15158000Y-19983610D01*
X15155107Y-19998152D01*
X15146870Y-20010480D01*
X15134542Y-20018717D01*
X15120000Y-20021610D01*
X14820000Y-20021610D01*
X14805458Y-20018717D01*
X14793130Y-20010480D01*
X14784893Y-19998152D01*
X14782000Y-19983610D01*
X14782000Y-19283610D01*
X14784893Y-19269068D01*
X14793130Y-19256740D01*
X14805458Y-19248503D01*
X14820000Y-19245610D01*
X15120000Y-19245610D01*
X15134542Y-19248503D01*
G37*
G36*
X15634542Y-19248503D02*
G01*
X15646870Y-19256740D01*
X15655107Y-19269068D01*
X15658000Y-19283610D01*
X15658000Y-19983610D01*
X15655107Y-19998152D01*
X15646870Y-20010480D01*
X15634542Y-20018717D01*
X15620000Y-20021610D01*
X15320000Y-20021610D01*
X15305458Y-20018717D01*
X15293130Y-20010480D01*
X15284893Y-19998152D01*
X15282000Y-19983610D01*
X15282000Y-19283610D01*
X15284893Y-19269068D01*
X15293130Y-19256740D01*
X15305458Y-19248503D01*
X15320000Y-19245610D01*
X15620000Y-19245610D01*
X15634542Y-19248503D01*
G37*
G36*
X16134542Y-19248503D02*
G01*
X16146870Y-19256740D01*
X16155107Y-19269068D01*
X16158000Y-19283610D01*
X16158000Y-19983610D01*
X16155107Y-19998152D01*
X16146870Y-20010480D01*
X16134542Y-20018717D01*
X16120000Y-20021610D01*
X15820000Y-20021610D01*
X15805458Y-20018717D01*
X15793130Y-20010480D01*
X15784893Y-19998152D01*
X15782000Y-19983610D01*
X15782000Y-19283610D01*
X15784893Y-19269068D01*
X15793130Y-19256740D01*
X15805458Y-19248503D01*
X15820000Y-19245610D01*
X16120000Y-19245610D01*
X16134542Y-19248503D01*
G37*
G36*
X31359444Y-18426311D02*
G01*
X31420436Y-18467064D01*
X31461189Y-18528056D01*
X31475500Y-18600000D01*
X31475500Y-18900000D01*
X31461189Y-18971944D01*
X31420436Y-19032936D01*
X31359444Y-19073689D01*
X31287500Y-19088000D01*
X30112500Y-19088000D01*
X30040556Y-19073689D01*
X29979564Y-19032936D01*
X29938811Y-18971944D01*
X29924500Y-18900000D01*
X29924500Y-18600000D01*
X29938811Y-18528056D01*
X29979564Y-18467064D01*
X30040556Y-18426311D01*
X30112500Y-18412000D01*
X31287500Y-18412000D01*
X31359444Y-18426311D01*
G37*
G36*
X4915938Y-17269650D02*
G01*
X4920653Y-17271732D01*
X4923326Y-17272084D01*
X4956770Y-17287679D01*
X5012759Y-17312401D01*
X5087599Y-17387241D01*
X5112330Y-17443251D01*
X5127915Y-17476673D01*
X5128266Y-17479343D01*
X5130350Y-17484062D01*
X5138000Y-17550000D01*
X5138000Y-18250000D01*
X5130350Y-18315938D01*
X5128266Y-18320656D01*
X5127915Y-18323326D01*
X5112338Y-18356730D01*
X5087599Y-18412759D01*
X5012759Y-18487599D01*
X4956730Y-18512338D01*
X4923326Y-18527915D01*
X4920656Y-18528266D01*
X4915938Y-18530350D01*
X4850000Y-18538000D01*
X3950000Y-18538000D01*
X3884062Y-18530350D01*
X3879343Y-18528266D01*
X3876673Y-18527915D01*
X3843251Y-18512330D01*
X3787241Y-18487599D01*
X3712401Y-18412759D01*
X3687679Y-18356770D01*
X3672084Y-18323326D01*
X3671732Y-18320653D01*
X3669650Y-18315938D01*
X3662000Y-18250000D01*
X3662000Y-17550000D01*
X3669650Y-17484062D01*
X3671732Y-17479346D01*
X3672084Y-17476673D01*
X3687687Y-17443210D01*
X3712401Y-17387241D01*
X3787241Y-17312401D01*
X3843210Y-17287687D01*
X3876673Y-17272084D01*
X3879346Y-17271732D01*
X3884062Y-17269650D01*
X3950000Y-17262000D01*
X4850000Y-17262000D01*
X4915938Y-17269650D01*
G37*
G36*
X27215938Y-17269650D02*
G01*
X27220653Y-17271732D01*
X27223326Y-17272084D01*
X27256770Y-17287679D01*
X27312759Y-17312401D01*
X27387599Y-17387241D01*
X27412330Y-17443251D01*
X27427915Y-17476673D01*
X27428266Y-17479343D01*
X27430350Y-17484062D01*
X27438000Y-17550000D01*
X27438000Y-18250000D01*
X27430350Y-18315938D01*
X27428266Y-18320656D01*
X27427915Y-18323326D01*
X27412338Y-18356730D01*
X27387599Y-18412759D01*
X27312759Y-18487599D01*
X27256730Y-18512338D01*
X27223326Y-18527915D01*
X27220656Y-18528266D01*
X27215938Y-18530350D01*
X27150000Y-18538000D01*
X26250000Y-18538000D01*
X26184062Y-18530350D01*
X26179343Y-18528266D01*
X26176673Y-18527915D01*
X26143251Y-18512330D01*
X26087241Y-18487599D01*
X26012401Y-18412759D01*
X25987679Y-18356770D01*
X25972084Y-18323326D01*
X25971732Y-18320653D01*
X25969650Y-18315938D01*
X25962000Y-18250000D01*
X25962000Y-17550000D01*
X25969650Y-17484062D01*
X25971732Y-17479346D01*
X25972084Y-17476673D01*
X25987687Y-17443210D01*
X26012401Y-17387241D01*
X26087241Y-17312401D01*
X26143210Y-17287687D01*
X26176673Y-17272084D01*
X26179346Y-17271732D01*
X26184062Y-17269650D01*
X26250000Y-17262000D01*
X27150000Y-17262000D01*
X27215938Y-17269650D01*
G37*
G36*
X2840938Y-17244650D02*
G01*
X2845653Y-17246732D01*
X2848326Y-17247084D01*
X2881770Y-17262679D01*
X2937759Y-17287401D01*
X3012599Y-17362241D01*
X3037330Y-17418251D01*
X3052915Y-17451673D01*
X3053266Y-17454343D01*
X3055350Y-17459062D01*
X3063000Y-17525000D01*
X3063000Y-18200000D01*
X3055350Y-18265938D01*
X3053266Y-18270656D01*
X3052915Y-18273326D01*
X3037338Y-18306730D01*
X3012599Y-18362759D01*
X2937759Y-18437599D01*
X2881730Y-18462338D01*
X2848326Y-18477915D01*
X2845656Y-18478266D01*
X2840938Y-18480350D01*
X2775000Y-18488000D01*
X1825000Y-18488000D01*
X1759062Y-18480350D01*
X1754343Y-18478266D01*
X1751673Y-18477915D01*
X1718251Y-18462330D01*
X1662241Y-18437599D01*
X1587401Y-18362759D01*
X1562679Y-18306770D01*
X1547084Y-18273326D01*
X1546732Y-18270653D01*
X1544650Y-18265938D01*
X1537000Y-18200000D01*
X1537000Y-17525000D01*
X1544650Y-17459062D01*
X1546732Y-17454346D01*
X1547084Y-17451673D01*
X1562687Y-17418210D01*
X1587401Y-17362241D01*
X1662241Y-17287401D01*
X1718210Y-17262687D01*
X1751673Y-17247084D01*
X1754346Y-17246732D01*
X1759062Y-17244650D01*
X1825000Y-17237000D01*
X2775000Y-17237000D01*
X2840938Y-17244650D01*
G37*
G36*
X29484444Y-17476311D02*
G01*
X29545436Y-17517064D01*
X29586189Y-17578056D01*
X29600500Y-17650000D01*
X29600500Y-17950000D01*
X29586189Y-18021944D01*
X29545436Y-18082936D01*
X29484444Y-18123689D01*
X29412500Y-18138000D01*
X28237500Y-18138000D01*
X28165556Y-18123689D01*
X28104564Y-18082936D01*
X28063811Y-18021944D01*
X28049500Y-17950000D01*
X28049500Y-17650000D01*
X28063811Y-17578056D01*
X28104564Y-17517064D01*
X28165556Y-17476311D01*
X28237500Y-17462000D01*
X29412500Y-17462000D01*
X29484444Y-17476311D01*
G37*
G36*
X17540938Y-14469650D02*
G01*
X17545653Y-14471732D01*
X17548326Y-14472084D01*
X17581770Y-14487679D01*
X17637759Y-14512401D01*
X17712599Y-14587241D01*
X17737330Y-14643251D01*
X17752915Y-14676673D01*
X17753266Y-14679343D01*
X17755350Y-14684062D01*
X17763000Y-14750000D01*
X17763000Y-17650000D01*
X17755350Y-17715938D01*
X17753266Y-17720656D01*
X17752915Y-17723326D01*
X17737338Y-17756730D01*
X17712599Y-17812759D01*
X17637759Y-17887599D01*
X17581730Y-17912338D01*
X17548326Y-17927915D01*
X17545656Y-17928266D01*
X17540938Y-17930350D01*
X17475000Y-17938000D01*
X16675000Y-17938000D01*
X16609062Y-17930350D01*
X16604343Y-17928266D01*
X16601673Y-17927915D01*
X16568251Y-17912330D01*
X16512241Y-17887599D01*
X16437401Y-17812759D01*
X16412679Y-17756770D01*
X16397084Y-17723326D01*
X16396732Y-17720653D01*
X16394650Y-17715938D01*
X16387000Y-17650000D01*
X16387000Y-14750000D01*
X16394650Y-14684062D01*
X16396732Y-14679346D01*
X16397084Y-14676673D01*
X16412687Y-14643210D01*
X16437401Y-14587241D01*
X16512241Y-14512401D01*
X16568210Y-14487687D01*
X16601673Y-14472084D01*
X16604346Y-14471732D01*
X16609062Y-14469650D01*
X16675000Y-14462000D01*
X17475000Y-14462000D01*
X17540938Y-14469650D01*
G37*
G36*
X21990938Y-14469650D02*
G01*
X21995653Y-14471732D01*
X21998326Y-14472084D01*
X22031770Y-14487679D01*
X22087759Y-14512401D01*
X22162599Y-14587241D01*
X22187330Y-14643251D01*
X22202915Y-14676673D01*
X22203266Y-14679343D01*
X22205350Y-14684062D01*
X22213000Y-14750000D01*
X22213000Y-17650000D01*
X22205350Y-17715938D01*
X22203266Y-17720656D01*
X22202915Y-17723326D01*
X22187338Y-17756730D01*
X22162599Y-17812759D01*
X22087759Y-17887599D01*
X22031730Y-17912338D01*
X21998326Y-17927915D01*
X21995656Y-17928266D01*
X21990938Y-17930350D01*
X21925000Y-17938000D01*
X21125000Y-17938000D01*
X21059062Y-17930350D01*
X21054343Y-17928266D01*
X21051673Y-17927915D01*
X21018251Y-17912330D01*
X20962241Y-17887599D01*
X20887401Y-17812759D01*
X20862679Y-17756770D01*
X20847084Y-17723326D01*
X20846732Y-17720653D01*
X20844650Y-17715938D01*
X20837000Y-17650000D01*
X20837000Y-14750000D01*
X20844650Y-14684062D01*
X20846732Y-14679346D01*
X20847084Y-14676673D01*
X20862687Y-14643210D01*
X20887401Y-14587241D01*
X20962241Y-14512401D01*
X21018210Y-14487687D01*
X21051673Y-14472084D01*
X21054346Y-14471732D01*
X21059062Y-14469650D01*
X21125000Y-14462000D01*
X21925000Y-14462000D01*
X21990938Y-14469650D01*
G37*
G36*
X7315938Y-16469650D02*
G01*
X7320653Y-16471732D01*
X7323326Y-16472084D01*
X7356770Y-16487679D01*
X7412759Y-16512401D01*
X7487599Y-16587241D01*
X7512330Y-16643251D01*
X7527915Y-16676673D01*
X7528266Y-16679343D01*
X7530350Y-16684062D01*
X7538000Y-16750000D01*
X7538000Y-17575000D01*
X7530350Y-17640938D01*
X7528266Y-17645656D01*
X7527915Y-17648326D01*
X7512338Y-17681730D01*
X7487599Y-17737759D01*
X7412759Y-17812599D01*
X7356730Y-17837338D01*
X7323326Y-17852915D01*
X7320656Y-17853266D01*
X7315938Y-17855350D01*
X7250000Y-17863000D01*
X5950000Y-17863000D01*
X5884062Y-17855350D01*
X5879343Y-17853266D01*
X5876673Y-17852915D01*
X5843251Y-17837330D01*
X5787241Y-17812599D01*
X5712401Y-17737759D01*
X5687679Y-17681770D01*
X5672084Y-17648326D01*
X5671732Y-17645653D01*
X5669650Y-17640938D01*
X5662000Y-17575000D01*
X5662000Y-16750000D01*
X5669650Y-16684062D01*
X5671732Y-16679346D01*
X5672084Y-16676673D01*
X5687687Y-16643210D01*
X5712401Y-16587241D01*
X5787241Y-16512401D01*
X5843210Y-16487687D01*
X5876673Y-16472084D01*
X5879346Y-16471732D01*
X5884062Y-16469650D01*
X5950000Y-16462000D01*
X7250000Y-16462000D01*
X7315938Y-16469650D01*
G37*
G36*
X39315938Y-15907150D02*
G01*
X39320653Y-15909232D01*
X39323326Y-15909584D01*
X39356770Y-15925179D01*
X39412759Y-15949901D01*
X39487599Y-16024741D01*
X39512330Y-16080751D01*
X39527915Y-16114173D01*
X39528266Y-16116843D01*
X39530350Y-16121562D01*
X39538000Y-16187500D01*
X39538000Y-17012500D01*
X39530350Y-17078438D01*
X39528266Y-17083156D01*
X39527915Y-17085826D01*
X39512338Y-17119230D01*
X39487599Y-17175259D01*
X39412759Y-17250099D01*
X39356730Y-17274838D01*
X39323326Y-17290415D01*
X39320656Y-17290766D01*
X39315938Y-17292850D01*
X39250000Y-17300500D01*
X37950000Y-17300500D01*
X37884062Y-17292850D01*
X37879343Y-17290766D01*
X37876673Y-17290415D01*
X37843251Y-17274830D01*
X37787241Y-17250099D01*
X37712401Y-17175259D01*
X37687679Y-17119270D01*
X37672084Y-17085826D01*
X37671732Y-17083153D01*
X37669650Y-17078438D01*
X37662000Y-17012500D01*
X37662000Y-16187500D01*
X37669650Y-16121562D01*
X37671732Y-16116846D01*
X37672084Y-16114173D01*
X37687687Y-16080710D01*
X37712401Y-16024741D01*
X37787241Y-15949901D01*
X37843210Y-15925187D01*
X37876673Y-15909584D01*
X37879346Y-15909232D01*
X37884062Y-15907150D01*
X37950000Y-15899500D01*
X39250000Y-15899500D01*
X39315938Y-15907150D01*
G37*
G36*
X27215938Y-15369650D02*
G01*
X27220653Y-15371732D01*
X27223326Y-15372084D01*
X27256770Y-15387679D01*
X27312759Y-15412401D01*
X27387599Y-15487241D01*
X27412330Y-15543251D01*
X27427915Y-15576673D01*
X27428266Y-15579343D01*
X27430350Y-15584062D01*
X27438000Y-15650000D01*
X27438000Y-16350000D01*
X27430350Y-16415938D01*
X27428266Y-16420656D01*
X27427915Y-16423326D01*
X27412338Y-16456730D01*
X27387599Y-16512759D01*
X27312759Y-16587599D01*
X27256730Y-16612338D01*
X27223326Y-16627915D01*
X27220656Y-16628266D01*
X27215938Y-16630350D01*
X27150000Y-16638000D01*
X26250000Y-16638000D01*
X26184062Y-16630350D01*
X26179343Y-16628266D01*
X26176673Y-16627915D01*
X26143251Y-16612330D01*
X26087241Y-16587599D01*
X26012401Y-16512759D01*
X25987679Y-16456770D01*
X25972084Y-16423326D01*
X25971732Y-16420653D01*
X25969650Y-16415938D01*
X25962000Y-16350000D01*
X25962000Y-15650000D01*
X25969650Y-15584062D01*
X25971732Y-15579346D01*
X25972084Y-15576673D01*
X25987687Y-15543210D01*
X26012401Y-15487241D01*
X26087241Y-15412401D01*
X26143210Y-15387687D01*
X26176673Y-15372084D01*
X26179346Y-15371732D01*
X26184062Y-15369650D01*
X26250000Y-15362000D01*
X27150000Y-15362000D01*
X27215938Y-15369650D01*
G37*
G36*
X29484444Y-15776311D02*
G01*
X29545436Y-15817064D01*
X29586189Y-15878056D01*
X29600500Y-15950000D01*
X29600500Y-16250000D01*
X29586189Y-16321944D01*
X29545436Y-16382936D01*
X29484444Y-16423689D01*
X29412500Y-16438000D01*
X28237500Y-16438000D01*
X28165556Y-16423689D01*
X28104564Y-16382936D01*
X28063811Y-16321944D01*
X28049500Y-16250000D01*
X28049500Y-15950000D01*
X28063811Y-15878056D01*
X28104564Y-15817064D01*
X28165556Y-15776311D01*
X28237500Y-15762000D01*
X29412500Y-15762000D01*
X29484444Y-15776311D01*
G37*
G36*
X31359444Y-14826311D02*
G01*
X31420436Y-14867064D01*
X31461189Y-14928056D01*
X31475500Y-15000000D01*
X31475500Y-15300000D01*
X31461189Y-15371944D01*
X31420436Y-15432936D01*
X31359444Y-15473689D01*
X31287500Y-15488000D01*
X30112500Y-15488000D01*
X30040556Y-15473689D01*
X29979564Y-15432936D01*
X29938811Y-15371944D01*
X29924500Y-15300000D01*
X29924500Y-15000000D01*
X29938811Y-14928056D01*
X29979564Y-14867064D01*
X30040556Y-14826311D01*
X30112500Y-14812000D01*
X31287500Y-14812000D01*
X31359444Y-14826311D01*
G37*
G36*
X7315938Y-13344650D02*
G01*
X7320653Y-13346732D01*
X7323326Y-13347084D01*
X7356770Y-13362679D01*
X7412759Y-13387401D01*
X7487599Y-13462241D01*
X7512330Y-13518251D01*
X7527915Y-13551673D01*
X7528266Y-13554343D01*
X7530350Y-13559062D01*
X7538000Y-13625000D01*
X7538000Y-14450000D01*
X7530350Y-14515938D01*
X7528266Y-14520656D01*
X7527915Y-14523326D01*
X7512338Y-14556730D01*
X7487599Y-14612759D01*
X7412759Y-14687599D01*
X7356730Y-14712338D01*
X7323326Y-14727915D01*
X7320656Y-14728266D01*
X7315938Y-14730350D01*
X7250000Y-14738000D01*
X5950000Y-14738000D01*
X5884062Y-14730350D01*
X5879343Y-14728266D01*
X5876673Y-14727915D01*
X5843251Y-14712330D01*
X5787241Y-14687599D01*
X5712401Y-14612759D01*
X5687679Y-14556770D01*
X5672084Y-14523326D01*
X5671732Y-14520653D01*
X5669650Y-14515938D01*
X5662000Y-14450000D01*
X5662000Y-13625000D01*
X5669650Y-13559062D01*
X5671732Y-13554346D01*
X5672084Y-13551673D01*
X5687687Y-13518210D01*
X5712401Y-13462241D01*
X5787241Y-13387401D01*
X5843210Y-13362687D01*
X5876673Y-13347084D01*
X5879346Y-13346732D01*
X5884062Y-13344650D01*
X5950000Y-13337000D01*
X7250000Y-13337000D01*
X7315938Y-13344650D01*
G37*
G36*
X27215938Y-13369650D02*
G01*
X27220653Y-13371732D01*
X27223326Y-13372084D01*
X27256770Y-13387679D01*
X27312759Y-13412401D01*
X27387599Y-13487241D01*
X27412330Y-13543251D01*
X27427915Y-13576673D01*
X27428266Y-13579343D01*
X27430350Y-13584062D01*
X27438000Y-13650000D01*
X27438000Y-14350000D01*
X27430350Y-14415938D01*
X27428266Y-14420656D01*
X27427915Y-14423326D01*
X27412338Y-14456730D01*
X27387599Y-14512759D01*
X27312759Y-14587599D01*
X27256730Y-14612338D01*
X27223326Y-14627915D01*
X27220656Y-14628266D01*
X27215938Y-14630350D01*
X27150000Y-14638000D01*
X26250000Y-14638000D01*
X26184062Y-14630350D01*
X26179343Y-14628266D01*
X26176673Y-14627915D01*
X26143251Y-14612330D01*
X26087241Y-14587599D01*
X26012401Y-14512759D01*
X25987679Y-14456770D01*
X25972084Y-14423326D01*
X25971732Y-14420653D01*
X25969650Y-14415938D01*
X25962000Y-14350000D01*
X25962000Y-13650000D01*
X25969650Y-13584062D01*
X25971732Y-13579346D01*
X25972084Y-13576673D01*
X25987687Y-13543210D01*
X26012401Y-13487241D01*
X26087241Y-13412401D01*
X26143210Y-13387687D01*
X26176673Y-13372084D01*
X26179346Y-13371732D01*
X26184062Y-13369650D01*
X26250000Y-13362000D01*
X27150000Y-13362000D01*
X27215938Y-13369650D01*
G37*
G36*
X29484444Y-13876311D02*
G01*
X29545436Y-13917064D01*
X29586189Y-13978056D01*
X29600500Y-14050000D01*
X29600500Y-14350000D01*
X29586189Y-14421944D01*
X29545436Y-14482936D01*
X29484444Y-14523689D01*
X29412500Y-14538000D01*
X28237500Y-14538000D01*
X28165556Y-14523689D01*
X28104564Y-14482936D01*
X28063811Y-14421944D01*
X28049500Y-14350000D01*
X28049500Y-14050000D01*
X28063811Y-13978056D01*
X28104564Y-13917064D01*
X28165556Y-13876311D01*
X28237500Y-13862000D01*
X29412500Y-13862000D01*
X29484444Y-13876311D01*
G37*
G36*
X2266828Y-11888581D02*
G01*
X2437407Y-11944006D01*
X2597216Y-12025432D01*
X2742319Y-12130856D01*
X2869144Y-12257681D01*
X2974568Y-12402784D01*
X3055994Y-12562593D01*
X3111419Y-12733172D01*
X3139477Y-12910321D01*
X3139477Y-13089679D01*
X3111419Y-13266828D01*
X3055994Y-13437407D01*
X2974568Y-13597216D01*
X2869144Y-13742319D01*
X2742319Y-13869144D01*
X2597216Y-13974568D01*
X2437407Y-14055994D01*
X2266828Y-14111419D01*
X2089679Y-14139477D01*
X1910321Y-14139477D01*
X1733172Y-14111419D01*
X1562593Y-14055994D01*
X1402784Y-13974568D01*
X1257681Y-13869144D01*
X1130856Y-13742319D01*
X1025432Y-13597216D01*
X944006Y-13437407D01*
X888581Y-13266828D01*
X860523Y-13089679D01*
X860523Y-12910321D01*
X888581Y-12733172D01*
X944006Y-12562593D01*
X1025432Y-12402784D01*
X1130856Y-12257681D01*
X1257681Y-12130856D01*
X1402784Y-12025432D01*
X1562593Y-11944006D01*
X1733172Y-11888581D01*
X1910321Y-11860523D01*
X2089679Y-11860523D01*
X2266828Y-11888581D01*
G37*
G36*
X9535938Y-12523260D02*
G01*
X9540653Y-12525342D01*
X9543326Y-12525694D01*
X9576770Y-12541289D01*
X9632759Y-12566011D01*
X9707599Y-12640851D01*
X9732330Y-12696861D01*
X9747915Y-12730283D01*
X9748266Y-12732953D01*
X9750350Y-12737672D01*
X9758000Y-12803610D01*
X9758000Y-13503610D01*
X9750350Y-13569548D01*
X9748266Y-13574266D01*
X9747915Y-13576936D01*
X9732338Y-13610340D01*
X9707599Y-13666369D01*
X9632759Y-13741209D01*
X9576730Y-13765948D01*
X9543326Y-13781525D01*
X9540656Y-13781876D01*
X9535938Y-13783960D01*
X9470000Y-13791610D01*
X8570000Y-13791610D01*
X8504062Y-13783960D01*
X8499343Y-13781876D01*
X8496673Y-13781525D01*
X8463251Y-13765940D01*
X8407241Y-13741209D01*
X8332401Y-13666369D01*
X8307679Y-13610380D01*
X8292084Y-13576936D01*
X8291732Y-13574263D01*
X8289650Y-13569548D01*
X8282000Y-13503610D01*
X8282000Y-12803610D01*
X8289650Y-12737672D01*
X8291732Y-12732956D01*
X8292084Y-12730283D01*
X8307687Y-12696820D01*
X8332401Y-12640851D01*
X8407241Y-12566011D01*
X8463210Y-12541297D01*
X8496673Y-12525694D01*
X8499346Y-12525342D01*
X8504062Y-12523260D01*
X8570000Y-12515610D01*
X9470000Y-12515610D01*
X9535938Y-12523260D01*
G37*
G36*
X17935938Y-12523260D02*
G01*
X17940653Y-12525342D01*
X17943326Y-12525694D01*
X17976770Y-12541289D01*
X18032759Y-12566011D01*
X18107599Y-12640851D01*
X18132330Y-12696861D01*
X18147915Y-12730283D01*
X18148266Y-12732953D01*
X18150350Y-12737672D01*
X18158000Y-12803610D01*
X18158000Y-13503610D01*
X18150350Y-13569548D01*
X18148266Y-13574266D01*
X18147915Y-13576936D01*
X18132338Y-13610340D01*
X18107599Y-13666369D01*
X18032759Y-13741209D01*
X17976730Y-13765948D01*
X17943326Y-13781525D01*
X17940656Y-13781876D01*
X17935938Y-13783960D01*
X17870000Y-13791610D01*
X16970000Y-13791610D01*
X16904062Y-13783960D01*
X16899343Y-13781876D01*
X16896673Y-13781525D01*
X16863251Y-13765940D01*
X16807241Y-13741209D01*
X16732401Y-13666369D01*
X16707679Y-13610380D01*
X16692084Y-13576936D01*
X16691732Y-13574263D01*
X16689650Y-13569548D01*
X16682000Y-13503610D01*
X16682000Y-12803610D01*
X16689650Y-12737672D01*
X16691732Y-12732956D01*
X16692084Y-12730283D01*
X16707687Y-12696820D01*
X16732401Y-12640851D01*
X16807241Y-12566011D01*
X16863210Y-12541297D01*
X16896673Y-12525694D01*
X16899346Y-12525342D01*
X16904062Y-12523260D01*
X16970000Y-12515610D01*
X17870000Y-12515610D01*
X17935938Y-12523260D01*
G37*
G36*
X37140938Y-11919650D02*
G01*
X37145653Y-11921732D01*
X37148326Y-11922084D01*
X37181770Y-11937679D01*
X37237759Y-11962401D01*
X37312599Y-12037241D01*
X37337330Y-12093251D01*
X37352915Y-12126673D01*
X37353266Y-12129343D01*
X37355350Y-12134062D01*
X37363000Y-12200000D01*
X37363000Y-12875000D01*
X37355350Y-12940938D01*
X37353266Y-12945656D01*
X37352915Y-12948326D01*
X37337338Y-12981730D01*
X37312599Y-13037759D01*
X37237759Y-13112599D01*
X37181730Y-13137338D01*
X37148326Y-13152915D01*
X37145656Y-13153266D01*
X37140938Y-13155350D01*
X37075000Y-13163000D01*
X36125000Y-13163000D01*
X36059062Y-13155350D01*
X36054343Y-13153266D01*
X36051673Y-13152915D01*
X36018251Y-13137330D01*
X35962241Y-13112599D01*
X35887401Y-13037759D01*
X35862679Y-12981770D01*
X35847084Y-12948326D01*
X35846732Y-12945653D01*
X35844650Y-12940938D01*
X35837000Y-12875000D01*
X35837000Y-12200000D01*
X35844650Y-12134062D01*
X35846732Y-12129346D01*
X35847084Y-12126673D01*
X35862687Y-12093210D01*
X35887401Y-12037241D01*
X35962241Y-11962401D01*
X36018210Y-11937687D01*
X36051673Y-11922084D01*
X36054346Y-11921732D01*
X36059062Y-11919650D01*
X36125000Y-11912000D01*
X37075000Y-11912000D01*
X37140938Y-11919650D01*
G37*
G36*
X39215938Y-11869650D02*
G01*
X39220653Y-11871732D01*
X39223326Y-11872084D01*
X39256770Y-11887679D01*
X39312759Y-11912401D01*
X39387599Y-11987241D01*
X39412330Y-12043251D01*
X39427915Y-12076673D01*
X39428266Y-12079343D01*
X39430350Y-12084062D01*
X39438000Y-12150000D01*
X39438000Y-12850000D01*
X39430350Y-12915938D01*
X39428266Y-12920656D01*
X39427915Y-12923326D01*
X39412338Y-12956730D01*
X39387599Y-13012759D01*
X39312759Y-13087599D01*
X39256730Y-13112338D01*
X39223326Y-13127915D01*
X39220656Y-13128266D01*
X39215938Y-13130350D01*
X39150000Y-13138000D01*
X38250000Y-13138000D01*
X38184062Y-13130350D01*
X38179343Y-13128266D01*
X38176673Y-13127915D01*
X38143251Y-13112330D01*
X38087241Y-13087599D01*
X38012401Y-13012759D01*
X37987679Y-12956770D01*
X37972084Y-12923326D01*
X37971732Y-12920653D01*
X37969650Y-12915938D01*
X37962000Y-12850000D01*
X37962000Y-12150000D01*
X37969650Y-12084062D01*
X37971732Y-12079346D01*
X37972084Y-12076673D01*
X37987687Y-12043210D01*
X38012401Y-11987241D01*
X38087241Y-11912401D01*
X38143210Y-11887687D01*
X38176673Y-11872084D01*
X38179346Y-11871732D01*
X38184062Y-11869650D01*
X38250000Y-11862000D01*
X39150000Y-11862000D01*
X39215938Y-11869650D01*
G37*
G36*
X24715938Y-11069650D02*
G01*
X24720653Y-11071732D01*
X24723326Y-11072084D01*
X24756770Y-11087679D01*
X24812759Y-11112401D01*
X24887599Y-11187241D01*
X24912330Y-11243251D01*
X24927915Y-11276673D01*
X24928266Y-11279343D01*
X24930350Y-11284062D01*
X24938000Y-11350000D01*
X24938000Y-12050000D01*
X24930350Y-12115938D01*
X24928266Y-12120656D01*
X24927915Y-12123326D01*
X24912338Y-12156730D01*
X24887599Y-12212759D01*
X24812759Y-12287599D01*
X24756730Y-12312338D01*
X24723326Y-12327915D01*
X24720656Y-12328266D01*
X24715938Y-12330350D01*
X24650000Y-12338000D01*
X23750000Y-12338000D01*
X23684062Y-12330350D01*
X23679343Y-12328266D01*
X23676673Y-12327915D01*
X23643251Y-12312330D01*
X23587241Y-12287599D01*
X23512401Y-12212759D01*
X23487679Y-12156770D01*
X23472084Y-12123326D01*
X23471732Y-12120653D01*
X23469650Y-12115938D01*
X23462000Y-12050000D01*
X23462000Y-11350000D01*
X23469650Y-11284062D01*
X23471732Y-11279346D01*
X23472084Y-11276673D01*
X23487687Y-11243210D01*
X23512401Y-11187241D01*
X23587241Y-11112401D01*
X23643210Y-11087687D01*
X23676673Y-11072084D01*
X23679346Y-11071732D01*
X23684062Y-11069650D01*
X23750000Y-11062000D01*
X24650000Y-11062000D01*
X24715938Y-11069650D01*
G37*
G36*
X32415938Y-10969650D02*
G01*
X32420653Y-10971732D01*
X32423326Y-10972084D01*
X32456770Y-10987679D01*
X32512759Y-11012401D01*
X32587599Y-11087241D01*
X32612330Y-11143251D01*
X32627915Y-11176673D01*
X32628266Y-11179343D01*
X32630350Y-11184062D01*
X32638000Y-11250000D01*
X32638000Y-11950000D01*
X32630350Y-12015938D01*
X32628266Y-12020656D01*
X32627915Y-12023326D01*
X32612338Y-12056730D01*
X32587599Y-12112759D01*
X32512759Y-12187599D01*
X32456730Y-12212338D01*
X32423326Y-12227915D01*
X32420656Y-12228266D01*
X32415938Y-12230350D01*
X32350000Y-12238000D01*
X31450000Y-12238000D01*
X31384062Y-12230350D01*
X31379343Y-12228266D01*
X31376673Y-12227915D01*
X31343251Y-12212330D01*
X31287241Y-12187599D01*
X31212401Y-12112759D01*
X31187679Y-12056770D01*
X31172084Y-12023326D01*
X31171732Y-12020653D01*
X31169650Y-12015938D01*
X31162000Y-11950000D01*
X31162000Y-11250000D01*
X31169650Y-11184062D01*
X31171732Y-11179346D01*
X31172084Y-11176673D01*
X31187687Y-11143210D01*
X31212401Y-11087241D01*
X31287241Y-11012401D01*
X31343210Y-10987687D01*
X31376673Y-10972084D01*
X31379346Y-10971732D01*
X31384062Y-10969650D01*
X31450000Y-10962000D01*
X32350000Y-10962000D01*
X32415938Y-10969650D01*
G37*
G36*
X27715938Y-10369650D02*
G01*
X27720653Y-10371732D01*
X27723326Y-10372084D01*
X27756770Y-10387679D01*
X27812759Y-10412401D01*
X27887599Y-10487241D01*
X27912330Y-10543251D01*
X27927915Y-10576673D01*
X27928266Y-10579343D01*
X27930350Y-10584062D01*
X27938000Y-10650000D01*
X27938000Y-11550000D01*
X27930350Y-11615938D01*
X27928266Y-11620656D01*
X27927915Y-11623326D01*
X27912338Y-11656730D01*
X27887599Y-11712759D01*
X27812759Y-11787599D01*
X27756730Y-11812338D01*
X27723326Y-11827915D01*
X27720656Y-11828266D01*
X27715938Y-11830350D01*
X27650000Y-11838000D01*
X26950000Y-11838000D01*
X26884062Y-11830350D01*
X26879343Y-11828266D01*
X26876673Y-11827915D01*
X26843251Y-11812330D01*
X26787241Y-11787599D01*
X26712401Y-11712759D01*
X26687679Y-11656770D01*
X26672084Y-11623326D01*
X26671732Y-11620653D01*
X26669650Y-11615938D01*
X26662000Y-11550000D01*
X26662000Y-10650000D01*
X26669650Y-10584062D01*
X26671732Y-10579346D01*
X26672084Y-10576673D01*
X26687687Y-10543210D01*
X26712401Y-10487241D01*
X26787241Y-10412401D01*
X26843210Y-10387687D01*
X26876673Y-10372084D01*
X26879346Y-10371732D01*
X26884062Y-10369650D01*
X26950000Y-10362000D01*
X27650000Y-10362000D01*
X27715938Y-10369650D01*
G37*
G36*
X29715938Y-10369650D02*
G01*
X29720653Y-10371732D01*
X29723326Y-10372084D01*
X29756770Y-10387679D01*
X29812759Y-10412401D01*
X29887599Y-10487241D01*
X29912330Y-10543251D01*
X29927915Y-10576673D01*
X29928266Y-10579343D01*
X29930350Y-10584062D01*
X29938000Y-10650000D01*
X29938000Y-11550000D01*
X29930350Y-11615938D01*
X29928266Y-11620656D01*
X29927915Y-11623326D01*
X29912338Y-11656730D01*
X29887599Y-11712759D01*
X29812759Y-11787599D01*
X29756730Y-11812338D01*
X29723326Y-11827915D01*
X29720656Y-11828266D01*
X29715938Y-11830350D01*
X29650000Y-11838000D01*
X28950000Y-11838000D01*
X28884062Y-11830350D01*
X28879343Y-11828266D01*
X28876673Y-11827915D01*
X28843251Y-11812330D01*
X28787241Y-11787599D01*
X28712401Y-11712759D01*
X28687679Y-11656770D01*
X28672084Y-11623326D01*
X28671732Y-11620653D01*
X28669650Y-11615938D01*
X28662000Y-11550000D01*
X28662000Y-10650000D01*
X28669650Y-10584062D01*
X28671732Y-10579346D01*
X28672084Y-10576673D01*
X28687687Y-10543210D01*
X28712401Y-10487241D01*
X28787241Y-10412401D01*
X28843210Y-10387687D01*
X28876673Y-10372084D01*
X28879346Y-10371732D01*
X28884062Y-10369650D01*
X28950000Y-10362000D01*
X29650000Y-10362000D01*
X29715938Y-10369650D01*
G37*
G36*
X9535938Y-10523260D02*
G01*
X9540653Y-10525342D01*
X9543326Y-10525694D01*
X9576770Y-10541289D01*
X9632759Y-10566011D01*
X9707599Y-10640851D01*
X9732330Y-10696861D01*
X9747915Y-10730283D01*
X9748266Y-10732953D01*
X9750350Y-10737672D01*
X9758000Y-10803610D01*
X9758000Y-11503610D01*
X9750350Y-11569548D01*
X9748266Y-11574266D01*
X9747915Y-11576936D01*
X9732338Y-11610340D01*
X9707599Y-11666369D01*
X9632759Y-11741209D01*
X9576730Y-11765948D01*
X9543326Y-11781525D01*
X9540656Y-11781876D01*
X9535938Y-11783960D01*
X9470000Y-11791610D01*
X8570000Y-11791610D01*
X8504062Y-11783960D01*
X8499343Y-11781876D01*
X8496673Y-11781525D01*
X8463251Y-11765940D01*
X8407241Y-11741209D01*
X8332401Y-11666369D01*
X8307679Y-11610380D01*
X8292084Y-11576936D01*
X8291732Y-11574263D01*
X8289650Y-11569548D01*
X8282000Y-11503610D01*
X8282000Y-10803610D01*
X8289650Y-10737672D01*
X8291732Y-10732956D01*
X8292084Y-10730283D01*
X8307687Y-10696820D01*
X8332401Y-10640851D01*
X8407241Y-10566011D01*
X8463210Y-10541297D01*
X8496673Y-10525694D01*
X8499346Y-10525342D01*
X8504062Y-10523260D01*
X8570000Y-10515610D01*
X9470000Y-10515610D01*
X9535938Y-10523260D01*
G37*
G36*
X17935938Y-10523260D02*
G01*
X17940653Y-10525342D01*
X17943326Y-10525694D01*
X17976770Y-10541289D01*
X18032759Y-10566011D01*
X18107599Y-10640851D01*
X18132330Y-10696861D01*
X18147915Y-10730283D01*
X18148266Y-10732953D01*
X18150350Y-10737672D01*
X18158000Y-10803610D01*
X18158000Y-11503610D01*
X18150350Y-11569548D01*
X18148266Y-11574266D01*
X18147915Y-11576936D01*
X18132338Y-11610340D01*
X18107599Y-11666369D01*
X18032759Y-11741209D01*
X17976730Y-11765948D01*
X17943326Y-11781525D01*
X17940656Y-11781876D01*
X17935938Y-11783960D01*
X17870000Y-11791610D01*
X16970000Y-11791610D01*
X16904062Y-11783960D01*
X16899343Y-11781876D01*
X16896673Y-11781525D01*
X16863251Y-11765940D01*
X16807241Y-11741209D01*
X16732401Y-11666369D01*
X16707679Y-11610380D01*
X16692084Y-11576936D01*
X16691732Y-11574263D01*
X16689650Y-11569548D01*
X16682000Y-11503610D01*
X16682000Y-10803610D01*
X16689650Y-10737672D01*
X16691732Y-10732956D01*
X16692084Y-10730283D01*
X16707687Y-10696820D01*
X16732401Y-10640851D01*
X16807241Y-10566011D01*
X16863210Y-10541297D01*
X16896673Y-10525694D01*
X16899346Y-10525342D01*
X16904062Y-10523260D01*
X16970000Y-10515610D01*
X17870000Y-10515610D01*
X17935938Y-10523260D01*
G37*
G36*
X22734444Y-11116311D02*
G01*
X22795436Y-11157064D01*
X22836189Y-11218056D01*
X22850500Y-11290000D01*
X22850500Y-11590000D01*
X22836189Y-11661944D01*
X22795436Y-11722936D01*
X22734444Y-11763689D01*
X22662500Y-11778000D01*
X21487500Y-11778000D01*
X21415556Y-11763689D01*
X21354564Y-11722936D01*
X21313811Y-11661944D01*
X21299500Y-11590000D01*
X21299500Y-11290000D01*
X21313811Y-11218056D01*
X21354564Y-11157064D01*
X21415556Y-11116311D01*
X21487500Y-11102000D01*
X22662500Y-11102000D01*
X22734444Y-11116311D01*
G37*
G36*
X39215938Y-9869650D02*
G01*
X39220653Y-9871732D01*
X39223326Y-9872084D01*
X39256770Y-9887679D01*
X39312759Y-9912401D01*
X39387599Y-9987241D01*
X39412330Y-10043251D01*
X39427915Y-10076673D01*
X39428266Y-10079343D01*
X39430350Y-10084062D01*
X39438000Y-10150000D01*
X39438000Y-10850000D01*
X39430350Y-10915938D01*
X39428266Y-10920656D01*
X39427915Y-10923326D01*
X39412338Y-10956730D01*
X39387599Y-11012759D01*
X39312759Y-11087599D01*
X39256730Y-11112338D01*
X39223326Y-11127915D01*
X39220656Y-11128266D01*
X39215938Y-11130350D01*
X39150000Y-11138000D01*
X38250000Y-11138000D01*
X38184062Y-11130350D01*
X38179343Y-11128266D01*
X38176673Y-11127915D01*
X38143251Y-11112330D01*
X38087241Y-11087599D01*
X38012401Y-11012759D01*
X37987679Y-10956770D01*
X37972084Y-10923326D01*
X37971732Y-10920653D01*
X37969650Y-10915938D01*
X37962000Y-10850000D01*
X37962000Y-10150000D01*
X37969650Y-10084062D01*
X37971732Y-10079346D01*
X37972084Y-10076673D01*
X37987687Y-10043210D01*
X38012401Y-9987241D01*
X38087241Y-9912401D01*
X38143210Y-9887687D01*
X38176673Y-9872084D01*
X38179346Y-9871732D01*
X38184062Y-9869650D01*
X38250000Y-9862000D01*
X39150000Y-9862000D01*
X39215938Y-9869650D01*
G37*
G36*
X37140938Y-9844650D02*
G01*
X37145653Y-9846732D01*
X37148326Y-9847084D01*
X37181770Y-9862679D01*
X37237759Y-9887401D01*
X37312599Y-9962241D01*
X37337330Y-10018251D01*
X37352915Y-10051673D01*
X37353266Y-10054343D01*
X37355350Y-10059062D01*
X37363000Y-10125000D01*
X37363000Y-10800000D01*
X37355350Y-10865938D01*
X37353266Y-10870656D01*
X37352915Y-10873326D01*
X37337338Y-10906730D01*
X37312599Y-10962759D01*
X37237759Y-11037599D01*
X37181730Y-11062338D01*
X37148326Y-11077915D01*
X37145656Y-11078266D01*
X37140938Y-11080350D01*
X37075000Y-11088000D01*
X36125000Y-11088000D01*
X36059062Y-11080350D01*
X36054343Y-11078266D01*
X36051673Y-11077915D01*
X36018251Y-11062330D01*
X35962241Y-11037599D01*
X35887401Y-10962759D01*
X35862679Y-10906770D01*
X35847084Y-10873326D01*
X35846732Y-10870653D01*
X35844650Y-10865938D01*
X35837000Y-10800000D01*
X35837000Y-10125000D01*
X35844650Y-10059062D01*
X35846732Y-10054346D01*
X35847084Y-10051673D01*
X35862687Y-10018210D01*
X35887401Y-9962241D01*
X35962241Y-9887401D01*
X36018210Y-9862687D01*
X36051673Y-9847084D01*
X36054346Y-9846732D01*
X36059062Y-9844650D01*
X36125000Y-9837000D01*
X37075000Y-9837000D01*
X37140938Y-9844650D01*
G37*
G36*
X3640938Y-9719650D02*
G01*
X3645653Y-9721732D01*
X3648326Y-9722084D01*
X3681770Y-9737679D01*
X3737759Y-9762401D01*
X3812599Y-9837241D01*
X3837330Y-9893251D01*
X3852915Y-9926673D01*
X3853266Y-9929343D01*
X3855350Y-9934062D01*
X3863000Y-10000000D01*
X3863000Y-10675000D01*
X3855350Y-10740938D01*
X3853266Y-10745656D01*
X3852915Y-10748326D01*
X3837338Y-10781730D01*
X3812599Y-10837759D01*
X3737759Y-10912599D01*
X3681730Y-10937338D01*
X3648326Y-10952915D01*
X3645656Y-10953266D01*
X3640938Y-10955350D01*
X3575000Y-10963000D01*
X2625000Y-10963000D01*
X2559062Y-10955350D01*
X2554343Y-10953266D01*
X2551673Y-10952915D01*
X2518251Y-10937330D01*
X2462241Y-10912599D01*
X2387401Y-10837759D01*
X2362679Y-10781770D01*
X2347084Y-10748326D01*
X2346732Y-10745653D01*
X2344650Y-10740938D01*
X2337000Y-10675000D01*
X2337000Y-10000000D01*
X2344650Y-9934062D01*
X2346732Y-9929346D01*
X2347084Y-9926673D01*
X2362687Y-9893210D01*
X2387401Y-9837241D01*
X2462241Y-9762401D01*
X2518210Y-9737687D01*
X2551673Y-9722084D01*
X2554346Y-9721732D01*
X2559062Y-9719650D01*
X2625000Y-9712000D01*
X3575000Y-9712000D01*
X3640938Y-9719650D01*
G37*
G36*
X5715938Y-9669650D02*
G01*
X5720653Y-9671732D01*
X5723326Y-9672084D01*
X5756770Y-9687679D01*
X5812759Y-9712401D01*
X5887599Y-9787241D01*
X5912330Y-9843251D01*
X5927915Y-9876673D01*
X5928266Y-9879343D01*
X5930350Y-9884062D01*
X5938000Y-9950000D01*
X5938000Y-10650000D01*
X5930350Y-10715938D01*
X5928266Y-10720656D01*
X5927915Y-10723326D01*
X5912338Y-10756730D01*
X5887599Y-10812759D01*
X5812759Y-10887599D01*
X5756730Y-10912338D01*
X5723326Y-10927915D01*
X5720656Y-10928266D01*
X5715938Y-10930350D01*
X5650000Y-10938000D01*
X4750000Y-10938000D01*
X4684062Y-10930350D01*
X4679343Y-10928266D01*
X4676673Y-10927915D01*
X4643251Y-10912330D01*
X4587241Y-10887599D01*
X4512401Y-10812759D01*
X4487679Y-10756770D01*
X4472084Y-10723326D01*
X4471732Y-10720653D01*
X4469650Y-10715938D01*
X4462000Y-10650000D01*
X4462000Y-9950000D01*
X4469650Y-9884062D01*
X4471732Y-9879346D01*
X4472084Y-9876673D01*
X4487687Y-9843210D01*
X4512401Y-9787241D01*
X4587241Y-9712401D01*
X4643210Y-9687687D01*
X4676673Y-9672084D01*
X4679346Y-9671732D01*
X4684062Y-9669650D01*
X4750000Y-9662000D01*
X5650000Y-9662000D01*
X5715938Y-9669650D01*
G37*
G36*
X20859444Y-10166311D02*
G01*
X20920436Y-10207064D01*
X20961189Y-10268056D01*
X20975500Y-10340000D01*
X20975500Y-10640000D01*
X20961189Y-10711944D01*
X20920436Y-10772936D01*
X20859444Y-10813689D01*
X20787500Y-10828000D01*
X19612500Y-10828000D01*
X19540556Y-10813689D01*
X19479564Y-10772936D01*
X19438811Y-10711944D01*
X19424500Y-10640000D01*
X19424500Y-10340000D01*
X19438811Y-10268056D01*
X19479564Y-10207064D01*
X19540556Y-10166311D01*
X19612500Y-10152000D01*
X20787500Y-10152000D01*
X20859444Y-10166311D01*
G37*
G36*
X24715938Y-9069650D02*
G01*
X24720653Y-9071732D01*
X24723326Y-9072084D01*
X24756770Y-9087679D01*
X24812759Y-9112401D01*
X24887599Y-9187241D01*
X24912330Y-9243251D01*
X24927915Y-9276673D01*
X24928266Y-9279343D01*
X24930350Y-9284062D01*
X24938000Y-9350000D01*
X24938000Y-10050000D01*
X24930350Y-10115938D01*
X24928266Y-10120656D01*
X24927915Y-10123326D01*
X24912338Y-10156730D01*
X24887599Y-10212759D01*
X24812759Y-10287599D01*
X24756730Y-10312338D01*
X24723326Y-10327915D01*
X24720656Y-10328266D01*
X24715938Y-10330350D01*
X24650000Y-10338000D01*
X23750000Y-10338000D01*
X23684062Y-10330350D01*
X23679343Y-10328266D01*
X23676673Y-10327915D01*
X23643251Y-10312330D01*
X23587241Y-10287599D01*
X23512401Y-10212759D01*
X23487679Y-10156770D01*
X23472084Y-10123326D01*
X23471732Y-10120653D01*
X23469650Y-10115938D01*
X23462000Y-10050000D01*
X23462000Y-9350000D01*
X23469650Y-9284062D01*
X23471732Y-9279346D01*
X23472084Y-9276673D01*
X23487687Y-9243210D01*
X23512401Y-9187241D01*
X23587241Y-9112401D01*
X23643210Y-9087687D01*
X23676673Y-9072084D01*
X23679346Y-9071732D01*
X23684062Y-9069650D01*
X23750000Y-9062000D01*
X24650000Y-9062000D01*
X24715938Y-9069650D01*
G37*
G36*
X32415938Y-8969650D02*
G01*
X32420653Y-8971732D01*
X32423326Y-8972084D01*
X32456770Y-8987679D01*
X32512759Y-9012401D01*
X32587599Y-9087241D01*
X32612330Y-9143251D01*
X32627915Y-9176673D01*
X32628266Y-9179343D01*
X32630350Y-9184062D01*
X32638000Y-9250000D01*
X32638000Y-9950000D01*
X32630350Y-10015938D01*
X32628266Y-10020656D01*
X32627915Y-10023326D01*
X32612338Y-10056730D01*
X32587599Y-10112759D01*
X32512759Y-10187599D01*
X32456730Y-10212338D01*
X32423326Y-10227915D01*
X32420656Y-10228266D01*
X32415938Y-10230350D01*
X32350000Y-10238000D01*
X31450000Y-10238000D01*
X31384062Y-10230350D01*
X31379343Y-10228266D01*
X31376673Y-10227915D01*
X31343251Y-10212330D01*
X31287241Y-10187599D01*
X31212401Y-10112759D01*
X31187679Y-10056770D01*
X31172084Y-10023326D01*
X31171732Y-10020653D01*
X31169650Y-10015938D01*
X31162000Y-9950000D01*
X31162000Y-9250000D01*
X31169650Y-9184062D01*
X31171732Y-9179346D01*
X31172084Y-9176673D01*
X31187687Y-9143210D01*
X31212401Y-9087241D01*
X31287241Y-9012401D01*
X31343210Y-8987687D01*
X31376673Y-8972084D01*
X31379346Y-8971732D01*
X31384062Y-8969650D01*
X31450000Y-8962000D01*
X32350000Y-8962000D01*
X32415938Y-8969650D01*
G37*
G36*
X22734444Y-9216311D02*
G01*
X22795436Y-9257064D01*
X22836189Y-9318056D01*
X22850500Y-9390000D01*
X22850500Y-9690000D01*
X22836189Y-9761944D01*
X22795436Y-9822936D01*
X22734444Y-9863689D01*
X22662500Y-9878000D01*
X21487500Y-9878000D01*
X21415556Y-9863689D01*
X21354564Y-9822936D01*
X21313811Y-9761944D01*
X21299500Y-9690000D01*
X21299500Y-9390000D01*
X21313811Y-9318056D01*
X21354564Y-9257064D01*
X21415556Y-9216311D01*
X21487500Y-9202000D01*
X22662500Y-9202000D01*
X22734444Y-9216311D01*
G37*
G36*
X10634542Y-8788503D02*
G01*
X10646870Y-8796740D01*
X10655107Y-8809068D01*
X10658000Y-8823610D01*
X10658000Y-9523610D01*
X10655107Y-9538152D01*
X10646870Y-9550480D01*
X10634542Y-9558717D01*
X10620000Y-9561610D01*
X10320000Y-9561610D01*
X10305458Y-9558717D01*
X10293130Y-9550480D01*
X10284893Y-9538152D01*
X10282000Y-9523610D01*
X10282000Y-8823610D01*
X10284893Y-8809068D01*
X10293130Y-8796740D01*
X10305458Y-8788503D01*
X10320000Y-8785610D01*
X10620000Y-8785610D01*
X10634542Y-8788503D01*
G37*
G36*
X11134542Y-8788503D02*
G01*
X11146870Y-8796740D01*
X11155107Y-8809068D01*
X11158000Y-8823610D01*
X11158000Y-9523610D01*
X11155107Y-9538152D01*
X11146870Y-9550480D01*
X11134542Y-9558717D01*
X11120000Y-9561610D01*
X10820000Y-9561610D01*
X10805458Y-9558717D01*
X10793130Y-9550480D01*
X10784893Y-9538152D01*
X10782000Y-9523610D01*
X10782000Y-8823610D01*
X10784893Y-8809068D01*
X10793130Y-8796740D01*
X10805458Y-8788503D01*
X10820000Y-8785610D01*
X11120000Y-8785610D01*
X11134542Y-8788503D01*
G37*
G36*
X11634542Y-8788503D02*
G01*
X11646870Y-8796740D01*
X11655107Y-8809068D01*
X11658000Y-8823610D01*
X11658000Y-9523610D01*
X11655107Y-9538152D01*
X11646870Y-9550480D01*
X11634542Y-9558717D01*
X11620000Y-9561610D01*
X11320000Y-9561610D01*
X11305458Y-9558717D01*
X11293130Y-9550480D01*
X11284893Y-9538152D01*
X11282000Y-9523610D01*
X11282000Y-8823610D01*
X11284893Y-8809068D01*
X11293130Y-8796740D01*
X11305458Y-8788503D01*
X11320000Y-8785610D01*
X11620000Y-8785610D01*
X11634542Y-8788503D01*
G37*
G36*
X12134542Y-8788503D02*
G01*
X12146870Y-8796740D01*
X12155107Y-8809068D01*
X12158000Y-8823610D01*
X12158000Y-9523610D01*
X12155107Y-9538152D01*
X12146870Y-9550480D01*
X12134542Y-9558717D01*
X12120000Y-9561610D01*
X11820000Y-9561610D01*
X11805458Y-9558717D01*
X11793130Y-9550480D01*
X11784893Y-9538152D01*
X11782000Y-9523610D01*
X11782000Y-8823610D01*
X11784893Y-8809068D01*
X11793130Y-8796740D01*
X11805458Y-8788503D01*
X11820000Y-8785610D01*
X12120000Y-8785610D01*
X12134542Y-8788503D01*
G37*
G36*
X12634542Y-8788503D02*
G01*
X12646870Y-8796740D01*
X12655107Y-8809068D01*
X12658000Y-8823610D01*
X12658000Y-9523610D01*
X12655107Y-9538152D01*
X12646870Y-9550480D01*
X12634542Y-9558717D01*
X12620000Y-9561610D01*
X12320000Y-9561610D01*
X12305458Y-9558717D01*
X12293130Y-9550480D01*
X12284893Y-9538152D01*
X12282000Y-9523610D01*
X12282000Y-8823610D01*
X12284893Y-8809068D01*
X12293130Y-8796740D01*
X12305458Y-8788503D01*
X12320000Y-8785610D01*
X12620000Y-8785610D01*
X12634542Y-8788503D01*
G37*
G36*
X13134542Y-8788503D02*
G01*
X13146870Y-8796740D01*
X13155107Y-8809068D01*
X13158000Y-8823610D01*
X13158000Y-9523610D01*
X13155107Y-9538152D01*
X13146870Y-9550480D01*
X13134542Y-9558717D01*
X13120000Y-9561610D01*
X12820000Y-9561610D01*
X12805458Y-9558717D01*
X12793130Y-9550480D01*
X12784893Y-9538152D01*
X12782000Y-9523610D01*
X12782000Y-8823610D01*
X12784893Y-8809068D01*
X12793130Y-8796740D01*
X12805458Y-8788503D01*
X12820000Y-8785610D01*
X13120000Y-8785610D01*
X13134542Y-8788503D01*
G37*
G36*
X13634542Y-8788503D02*
G01*
X13646870Y-8796740D01*
X13655107Y-8809068D01*
X13658000Y-8823610D01*
X13658000Y-9523610D01*
X13655107Y-9538152D01*
X13646870Y-9550480D01*
X13634542Y-9558717D01*
X13620000Y-9561610D01*
X13320000Y-9561610D01*
X13305458Y-9558717D01*
X13293130Y-9550480D01*
X13284893Y-9538152D01*
X13282000Y-9523610D01*
X13282000Y-8823610D01*
X13284893Y-8809068D01*
X13293130Y-8796740D01*
X13305458Y-8788503D01*
X13320000Y-8785610D01*
X13620000Y-8785610D01*
X13634542Y-8788503D01*
G37*
G36*
X14134542Y-8788503D02*
G01*
X14146870Y-8796740D01*
X14155107Y-8809068D01*
X14158000Y-8823610D01*
X14158000Y-9523610D01*
X14155107Y-9538152D01*
X14146870Y-9550480D01*
X14134542Y-9558717D01*
X14120000Y-9561610D01*
X13820000Y-9561610D01*
X13805458Y-9558717D01*
X13793130Y-9550480D01*
X13784893Y-9538152D01*
X13782000Y-9523610D01*
X13782000Y-8823610D01*
X13784893Y-8809068D01*
X13793130Y-8796740D01*
X13805458Y-8788503D01*
X13820000Y-8785610D01*
X14120000Y-8785610D01*
X14134542Y-8788503D01*
G37*
G36*
X14634542Y-8788503D02*
G01*
X14646870Y-8796740D01*
X14655107Y-8809068D01*
X14658000Y-8823610D01*
X14658000Y-9523610D01*
X14655107Y-9538152D01*
X14646870Y-9550480D01*
X14634542Y-9558717D01*
X14620000Y-9561610D01*
X14320000Y-9561610D01*
X14305458Y-9558717D01*
X14293130Y-9550480D01*
X14284893Y-9538152D01*
X14282000Y-9523610D01*
X14282000Y-8823610D01*
X14284893Y-8809068D01*
X14293130Y-8796740D01*
X14305458Y-8788503D01*
X14320000Y-8785610D01*
X14620000Y-8785610D01*
X14634542Y-8788503D01*
G37*
G36*
X15134542Y-8788503D02*
G01*
X15146870Y-8796740D01*
X15155107Y-8809068D01*
X15158000Y-8823610D01*
X15158000Y-9523610D01*
X15155107Y-9538152D01*
X15146870Y-9550480D01*
X15134542Y-9558717D01*
X15120000Y-9561610D01*
X14820000Y-9561610D01*
X14805458Y-9558717D01*
X14793130Y-9550480D01*
X14784893Y-9538152D01*
X14782000Y-9523610D01*
X14782000Y-8823610D01*
X14784893Y-8809068D01*
X14793130Y-8796740D01*
X14805458Y-8788503D01*
X14820000Y-8785610D01*
X15120000Y-8785610D01*
X15134542Y-8788503D01*
G37*
G36*
X15634542Y-8788503D02*
G01*
X15646870Y-8796740D01*
X15655107Y-8809068D01*
X15658000Y-8823610D01*
X15658000Y-9523610D01*
X15655107Y-9538152D01*
X15646870Y-9550480D01*
X15634542Y-9558717D01*
X15620000Y-9561610D01*
X15320000Y-9561610D01*
X15305458Y-9558717D01*
X15293130Y-9550480D01*
X15284893Y-9538152D01*
X15282000Y-9523610D01*
X15282000Y-8823610D01*
X15284893Y-8809068D01*
X15293130Y-8796740D01*
X15305458Y-8788503D01*
X15320000Y-8785610D01*
X15620000Y-8785610D01*
X15634542Y-8788503D01*
G37*
G36*
X16134542Y-8788503D02*
G01*
X16146870Y-8796740D01*
X16155107Y-8809068D01*
X16158000Y-8823610D01*
X16158000Y-9523610D01*
X16155107Y-9538152D01*
X16146870Y-9550480D01*
X16134542Y-9558717D01*
X16120000Y-9561610D01*
X15820000Y-9561610D01*
X15805458Y-9558717D01*
X15793130Y-9550480D01*
X15784893Y-9538152D01*
X15782000Y-9523610D01*
X15782000Y-8823610D01*
X15784893Y-8809068D01*
X15793130Y-8796740D01*
X15805458Y-8788503D01*
X15820000Y-8785610D01*
X16120000Y-8785610D01*
X16134542Y-8788503D01*
G37*
G36*
X9816317Y-8039660D02*
G01*
X9932295Y-8106620D01*
X10026990Y-8201315D01*
X10093950Y-8317293D01*
X10128611Y-8446650D01*
X10128611Y-8580570D01*
X10093950Y-8709927D01*
X10026990Y-8825905D01*
X9932295Y-8920600D01*
X9816317Y-8987560D01*
X9686960Y-9022221D01*
X9553040Y-9022221D01*
X9423683Y-8987560D01*
X9307705Y-8920600D01*
X9213010Y-8825905D01*
X9146050Y-8709927D01*
X9111389Y-8580570D01*
X9111389Y-8446650D01*
X9146050Y-8317293D01*
X9213010Y-8201315D01*
X9307705Y-8106620D01*
X9423683Y-8039660D01*
X9553040Y-8004999D01*
X9686960Y-8004999D01*
X9816317Y-8039660D01*
G37*
G36*
X5715938Y-7669650D02*
G01*
X5720653Y-7671732D01*
X5723326Y-7672084D01*
X5756770Y-7687679D01*
X5812759Y-7712401D01*
X5887599Y-7787241D01*
X5912330Y-7843251D01*
X5927915Y-7876673D01*
X5928266Y-7879343D01*
X5930350Y-7884062D01*
X5938000Y-7950000D01*
X5938000Y-8650000D01*
X5930350Y-8715938D01*
X5928266Y-8720656D01*
X5927915Y-8723326D01*
X5912338Y-8756730D01*
X5887599Y-8812759D01*
X5812759Y-8887599D01*
X5756730Y-8912338D01*
X5723326Y-8927915D01*
X5720656Y-8928266D01*
X5715938Y-8930350D01*
X5650000Y-8938000D01*
X4750000Y-8938000D01*
X4684062Y-8930350D01*
X4679343Y-8928266D01*
X4676673Y-8927915D01*
X4643251Y-8912330D01*
X4587241Y-8887599D01*
X4512401Y-8812759D01*
X4487679Y-8756770D01*
X4472084Y-8723326D01*
X4471732Y-8720653D01*
X4469650Y-8715938D01*
X4462000Y-8650000D01*
X4462000Y-7950000D01*
X4469650Y-7884062D01*
X4471732Y-7879346D01*
X4472084Y-7876673D01*
X4487687Y-7843210D01*
X4512401Y-7787241D01*
X4587241Y-7712401D01*
X4643210Y-7687687D01*
X4676673Y-7672084D01*
X4679346Y-7671732D01*
X4684062Y-7669650D01*
X4750000Y-7662000D01*
X5650000Y-7662000D01*
X5715938Y-7669650D01*
G37*
G36*
X3640938Y-7644650D02*
G01*
X3645653Y-7646732D01*
X3648326Y-7647084D01*
X3681770Y-7662679D01*
X3737759Y-7687401D01*
X3812599Y-7762241D01*
X3837330Y-7818251D01*
X3852915Y-7851673D01*
X3853266Y-7854343D01*
X3855350Y-7859062D01*
X3863000Y-7925000D01*
X3863000Y-8600000D01*
X3855350Y-8665938D01*
X3853266Y-8670656D01*
X3852915Y-8673326D01*
X3837338Y-8706730D01*
X3812599Y-8762759D01*
X3737759Y-8837599D01*
X3681730Y-8862338D01*
X3648326Y-8877915D01*
X3645656Y-8878266D01*
X3640938Y-8880350D01*
X3575000Y-8888000D01*
X2625000Y-8888000D01*
X2559062Y-8880350D01*
X2554343Y-8878266D01*
X2551673Y-8877915D01*
X2518251Y-8862330D01*
X2462241Y-8837599D01*
X2387401Y-8762759D01*
X2362679Y-8706770D01*
X2347084Y-8673326D01*
X2346732Y-8670653D01*
X2344650Y-8665938D01*
X2337000Y-8600000D01*
X2337000Y-7925000D01*
X2344650Y-7859062D01*
X2346732Y-7854346D01*
X2347084Y-7851673D01*
X2362687Y-7818210D01*
X2387401Y-7762241D01*
X2462241Y-7687401D01*
X2518210Y-7662687D01*
X2551673Y-7647084D01*
X2554346Y-7646732D01*
X2559062Y-7644650D01*
X2625000Y-7637000D01*
X3575000Y-7637000D01*
X3640938Y-7644650D01*
G37*
G36*
X16958914Y-8178242D02*
G01*
X17040980Y-8225623D01*
X17107987Y-8292630D01*
X17155368Y-8374696D01*
X17179894Y-8466229D01*
X17179894Y-8560991D01*
X17155368Y-8652524D01*
X17107987Y-8734590D01*
X17040980Y-8801597D01*
X16958914Y-8848978D01*
X16867381Y-8873504D01*
X16772619Y-8873504D01*
X16681086Y-8848978D01*
X16599020Y-8801597D01*
X16532013Y-8734590D01*
X16484632Y-8652524D01*
X16460106Y-8560991D01*
X16460106Y-8466229D01*
X16484632Y-8374696D01*
X16532013Y-8292630D01*
X16599020Y-8225623D01*
X16681086Y-8178242D01*
X16772619Y-8153716D01*
X16867381Y-8153716D01*
X16958914Y-8178242D01*
G37*
G36*
X24715938Y-7269650D02*
G01*
X24720653Y-7271732D01*
X24723326Y-7272084D01*
X24756770Y-7287679D01*
X24812759Y-7312401D01*
X24887599Y-7387241D01*
X24912330Y-7443251D01*
X24927915Y-7476673D01*
X24928266Y-7479343D01*
X24930350Y-7484062D01*
X24938000Y-7550000D01*
X24938000Y-8250000D01*
X24930350Y-8315938D01*
X24928266Y-8320656D01*
X24927915Y-8323326D01*
X24912338Y-8356730D01*
X24887599Y-8412759D01*
X24812759Y-8487599D01*
X24756730Y-8512338D01*
X24723326Y-8527915D01*
X24720656Y-8528266D01*
X24715938Y-8530350D01*
X24650000Y-8538000D01*
X23750000Y-8538000D01*
X23684062Y-8530350D01*
X23679343Y-8528266D01*
X23676673Y-8527915D01*
X23643251Y-8512330D01*
X23587241Y-8487599D01*
X23512401Y-8412759D01*
X23487679Y-8356770D01*
X23472084Y-8323326D01*
X23471732Y-8320653D01*
X23469650Y-8315938D01*
X23462000Y-8250000D01*
X23462000Y-7550000D01*
X23469650Y-7484062D01*
X23471732Y-7479346D01*
X23472084Y-7476673D01*
X23487687Y-7443210D01*
X23512401Y-7387241D01*
X23587241Y-7312401D01*
X23643210Y-7287687D01*
X23676673Y-7272084D01*
X23679346Y-7271732D01*
X23684062Y-7269650D01*
X23750000Y-7262000D01*
X24650000Y-7262000D01*
X24715938Y-7269650D01*
G37*
G36*
X22734444Y-7616311D02*
G01*
X22795436Y-7657064D01*
X22836189Y-7718056D01*
X22850500Y-7790000D01*
X22850500Y-8090000D01*
X22836189Y-8161944D01*
X22795436Y-8222936D01*
X22734444Y-8263689D01*
X22662500Y-8278000D01*
X21487500Y-8278000D01*
X21415556Y-8263689D01*
X21354564Y-8222936D01*
X21313811Y-8161944D01*
X21299500Y-8090000D01*
X21299500Y-7790000D01*
X21313811Y-7718056D01*
X21354564Y-7657064D01*
X21415556Y-7616311D01*
X21487500Y-7602000D01*
X22662500Y-7602000D01*
X22734444Y-7616311D01*
G37*
G36*
X27715938Y-6599650D02*
G01*
X27720653Y-6601732D01*
X27723326Y-6602084D01*
X27756770Y-6617679D01*
X27812759Y-6642401D01*
X27887599Y-6717241D01*
X27912330Y-6773251D01*
X27927915Y-6806673D01*
X27928266Y-6809343D01*
X27930350Y-6814062D01*
X27938000Y-6880000D01*
X27938000Y-7780000D01*
X27930350Y-7845938D01*
X27928266Y-7850656D01*
X27927915Y-7853326D01*
X27912338Y-7886730D01*
X27887599Y-7942759D01*
X27812759Y-8017599D01*
X27756730Y-8042338D01*
X27723326Y-8057915D01*
X27720656Y-8058266D01*
X27715938Y-8060350D01*
X27650000Y-8068000D01*
X26950000Y-8068000D01*
X26884062Y-8060350D01*
X26879343Y-8058266D01*
X26876673Y-8057915D01*
X26843251Y-8042330D01*
X26787241Y-8017599D01*
X26712401Y-7942759D01*
X26687679Y-7886770D01*
X26672084Y-7853326D01*
X26671732Y-7850653D01*
X26669650Y-7845938D01*
X26662000Y-7780000D01*
X26662000Y-6880000D01*
X26669650Y-6814062D01*
X26671732Y-6809346D01*
X26672084Y-6806673D01*
X26687687Y-6773210D01*
X26712401Y-6717241D01*
X26787241Y-6642401D01*
X26843210Y-6617687D01*
X26876673Y-6602084D01*
X26879346Y-6601732D01*
X26884062Y-6599650D01*
X26950000Y-6592000D01*
X27650000Y-6592000D01*
X27715938Y-6599650D01*
G37*
G36*
X29715938Y-6599650D02*
G01*
X29720653Y-6601732D01*
X29723326Y-6602084D01*
X29756770Y-6617679D01*
X29812759Y-6642401D01*
X29887599Y-6717241D01*
X29912330Y-6773251D01*
X29927915Y-6806673D01*
X29928266Y-6809343D01*
X29930350Y-6814062D01*
X29938000Y-6880000D01*
X29938000Y-7780000D01*
X29930350Y-7845938D01*
X29928266Y-7850656D01*
X29927915Y-7853326D01*
X29912338Y-7886730D01*
X29887599Y-7942759D01*
X29812759Y-8017599D01*
X29756730Y-8042338D01*
X29723326Y-8057915D01*
X29720656Y-8058266D01*
X29715938Y-8060350D01*
X29650000Y-8068000D01*
X28950000Y-8068000D01*
X28884062Y-8060350D01*
X28879343Y-8058266D01*
X28876673Y-8057915D01*
X28843251Y-8042330D01*
X28787241Y-8017599D01*
X28712401Y-7942759D01*
X28687679Y-7886770D01*
X28672084Y-7853326D01*
X28671732Y-7850653D01*
X28669650Y-7845938D01*
X28662000Y-7780000D01*
X28662000Y-6880000D01*
X28669650Y-6814062D01*
X28671732Y-6809346D01*
X28672084Y-6806673D01*
X28687687Y-6773210D01*
X28712401Y-6717241D01*
X28787241Y-6642401D01*
X28843210Y-6617687D01*
X28876673Y-6602084D01*
X28879346Y-6601732D01*
X28884062Y-6599650D01*
X28950000Y-6592000D01*
X29650000Y-6592000D01*
X29715938Y-6599650D01*
G37*
G36*
X9304230Y-6557388D02*
G01*
X9437891Y-6612752D01*
X9558182Y-6693128D01*
X9660482Y-6795428D01*
X9740858Y-6915719D01*
X9796222Y-7049380D01*
X9824446Y-7191273D01*
X9824446Y-7335947D01*
X9796222Y-7477840D01*
X9740858Y-7611501D01*
X9660482Y-7731792D01*
X9558182Y-7834092D01*
X9437891Y-7914468D01*
X9304230Y-7969832D01*
X9162337Y-7998056D01*
X9017663Y-7998056D01*
X8875770Y-7969832D01*
X8742109Y-7914468D01*
X8621818Y-7834092D01*
X8519518Y-7731792D01*
X8439142Y-7611501D01*
X8383778Y-7477840D01*
X8355554Y-7335947D01*
X8355554Y-7191273D01*
X8383778Y-7049380D01*
X8439142Y-6915719D01*
X8519518Y-6795428D01*
X8621818Y-6693128D01*
X8742109Y-6612752D01*
X8875770Y-6557388D01*
X9017663Y-6529164D01*
X9162337Y-6529164D01*
X9304230Y-6557388D01*
G37*
G36*
X17564230Y-6557388D02*
G01*
X17697891Y-6612752D01*
X17818182Y-6693128D01*
X17920482Y-6795428D01*
X18000858Y-6915719D01*
X18056222Y-7049380D01*
X18084446Y-7191273D01*
X18084446Y-7335947D01*
X18056222Y-7477840D01*
X18000858Y-7611501D01*
X17920482Y-7731792D01*
X17818182Y-7834092D01*
X17697891Y-7914468D01*
X17564230Y-7969832D01*
X17422337Y-7998056D01*
X17277663Y-7998056D01*
X17135770Y-7969832D01*
X17002109Y-7914468D01*
X16881818Y-7834092D01*
X16779518Y-7731792D01*
X16699142Y-7611501D01*
X16643778Y-7477840D01*
X16615554Y-7335947D01*
X16615554Y-7191273D01*
X16643778Y-7049380D01*
X16699142Y-6915719D01*
X16779518Y-6795428D01*
X16881818Y-6693128D01*
X17002109Y-6612752D01*
X17135770Y-6557388D01*
X17277663Y-6529164D01*
X17422337Y-6529164D01*
X17564230Y-6557388D01*
G37*
G36*
X10884542Y-7088503D02*
G01*
X10896870Y-7096740D01*
X10905107Y-7109068D01*
X10908000Y-7123610D01*
X10908000Y-7823610D01*
X10905107Y-7838152D01*
X10896870Y-7850480D01*
X10884542Y-7858717D01*
X10870000Y-7861610D01*
X10570000Y-7861610D01*
X10555458Y-7858717D01*
X10543130Y-7850480D01*
X10534893Y-7838152D01*
X10532000Y-7823610D01*
X10532000Y-7123610D01*
X10534893Y-7109068D01*
X10543130Y-7096740D01*
X10555458Y-7088503D01*
X10570000Y-7085610D01*
X10870000Y-7085610D01*
X10884542Y-7088503D01*
G37*
G36*
X11384542Y-7088503D02*
G01*
X11396870Y-7096740D01*
X11405107Y-7109068D01*
X11408000Y-7123610D01*
X11408000Y-7823610D01*
X11405107Y-7838152D01*
X11396870Y-7850480D01*
X11384542Y-7858717D01*
X11370000Y-7861610D01*
X11070000Y-7861610D01*
X11055458Y-7858717D01*
X11043130Y-7850480D01*
X11034893Y-7838152D01*
X11032000Y-7823610D01*
X11032000Y-7123610D01*
X11034893Y-7109068D01*
X11043130Y-7096740D01*
X11055458Y-7088503D01*
X11070000Y-7085610D01*
X11370000Y-7085610D01*
X11384542Y-7088503D01*
G37*
G36*
X11884542Y-7088503D02*
G01*
X11896870Y-7096740D01*
X11905107Y-7109068D01*
X11908000Y-7123610D01*
X11908000Y-7823610D01*
X11905107Y-7838152D01*
X11896870Y-7850480D01*
X11884542Y-7858717D01*
X11870000Y-7861610D01*
X11570000Y-7861610D01*
X11555458Y-7858717D01*
X11543130Y-7850480D01*
X11534893Y-7838152D01*
X11532000Y-7823610D01*
X11532000Y-7123610D01*
X11534893Y-7109068D01*
X11543130Y-7096740D01*
X11555458Y-7088503D01*
X11570000Y-7085610D01*
X11870000Y-7085610D01*
X11884542Y-7088503D01*
G37*
G36*
X12384542Y-7088503D02*
G01*
X12396870Y-7096740D01*
X12405107Y-7109068D01*
X12408000Y-7123610D01*
X12408000Y-7823610D01*
X12405107Y-7838152D01*
X12396870Y-7850480D01*
X12384542Y-7858717D01*
X12370000Y-7861610D01*
X12070000Y-7861610D01*
X12055458Y-7858717D01*
X12043130Y-7850480D01*
X12034893Y-7838152D01*
X12032000Y-7823610D01*
X12032000Y-7123610D01*
X12034893Y-7109068D01*
X12043130Y-7096740D01*
X12055458Y-7088503D01*
X12070000Y-7085610D01*
X12370000Y-7085610D01*
X12384542Y-7088503D01*
G37*
G36*
X12884542Y-7088503D02*
G01*
X12896870Y-7096740D01*
X12905107Y-7109068D01*
X12908000Y-7123610D01*
X12908000Y-7823610D01*
X12905107Y-7838152D01*
X12896870Y-7850480D01*
X12884542Y-7858717D01*
X12870000Y-7861610D01*
X12570000Y-7861610D01*
X12555458Y-7858717D01*
X12543130Y-7850480D01*
X12534893Y-7838152D01*
X12532000Y-7823610D01*
X12532000Y-7123610D01*
X12534893Y-7109068D01*
X12543130Y-7096740D01*
X12555458Y-7088503D01*
X12570000Y-7085610D01*
X12870000Y-7085610D01*
X12884542Y-7088503D01*
G37*
G36*
X13384542Y-7088503D02*
G01*
X13396870Y-7096740D01*
X13405107Y-7109068D01*
X13408000Y-7123610D01*
X13408000Y-7823610D01*
X13405107Y-7838152D01*
X13396870Y-7850480D01*
X13384542Y-7858717D01*
X13370000Y-7861610D01*
X13070000Y-7861610D01*
X13055458Y-7858717D01*
X13043130Y-7850480D01*
X13034893Y-7838152D01*
X13032000Y-7823610D01*
X13032000Y-7123610D01*
X13034893Y-7109068D01*
X13043130Y-7096740D01*
X13055458Y-7088503D01*
X13070000Y-7085610D01*
X13370000Y-7085610D01*
X13384542Y-7088503D01*
G37*
G36*
X13884542Y-7088503D02*
G01*
X13896870Y-7096740D01*
X13905107Y-7109068D01*
X13908000Y-7123610D01*
X13908000Y-7823610D01*
X13905107Y-7838152D01*
X13896870Y-7850480D01*
X13884542Y-7858717D01*
X13870000Y-7861610D01*
X13570000Y-7861610D01*
X13555458Y-7858717D01*
X13543130Y-7850480D01*
X13534893Y-7838152D01*
X13532000Y-7823610D01*
X13532000Y-7123610D01*
X13534893Y-7109068D01*
X13543130Y-7096740D01*
X13555458Y-7088503D01*
X13570000Y-7085610D01*
X13870000Y-7085610D01*
X13884542Y-7088503D01*
G37*
G36*
X14384542Y-7088503D02*
G01*
X14396870Y-7096740D01*
X14405107Y-7109068D01*
X14408000Y-7123610D01*
X14408000Y-7823610D01*
X14405107Y-7838152D01*
X14396870Y-7850480D01*
X14384542Y-7858717D01*
X14370000Y-7861610D01*
X14070000Y-7861610D01*
X14055458Y-7858717D01*
X14043130Y-7850480D01*
X14034893Y-7838152D01*
X14032000Y-7823610D01*
X14032000Y-7123610D01*
X14034893Y-7109068D01*
X14043130Y-7096740D01*
X14055458Y-7088503D01*
X14070000Y-7085610D01*
X14370000Y-7085610D01*
X14384542Y-7088503D01*
G37*
G36*
X14884542Y-7088503D02*
G01*
X14896870Y-7096740D01*
X14905107Y-7109068D01*
X14908000Y-7123610D01*
X14908000Y-7823610D01*
X14905107Y-7838152D01*
X14896870Y-7850480D01*
X14884542Y-7858717D01*
X14870000Y-7861610D01*
X14570000Y-7861610D01*
X14555458Y-7858717D01*
X14543130Y-7850480D01*
X14534893Y-7838152D01*
X14532000Y-7823610D01*
X14532000Y-7123610D01*
X14534893Y-7109068D01*
X14543130Y-7096740D01*
X14555458Y-7088503D01*
X14570000Y-7085610D01*
X14870000Y-7085610D01*
X14884542Y-7088503D01*
G37*
G36*
X15384542Y-7088503D02*
G01*
X15396870Y-7096740D01*
X15405107Y-7109068D01*
X15408000Y-7123610D01*
X15408000Y-7823610D01*
X15405107Y-7838152D01*
X15396870Y-7850480D01*
X15384542Y-7858717D01*
X15370000Y-7861610D01*
X15070000Y-7861610D01*
X15055458Y-7858717D01*
X15043130Y-7850480D01*
X15034893Y-7838152D01*
X15032000Y-7823610D01*
X15032000Y-7123610D01*
X15034893Y-7109068D01*
X15043130Y-7096740D01*
X15055458Y-7088503D01*
X15070000Y-7085610D01*
X15370000Y-7085610D01*
X15384542Y-7088503D01*
G37*
G36*
X15884542Y-7088503D02*
G01*
X15896870Y-7096740D01*
X15905107Y-7109068D01*
X15908000Y-7123610D01*
X15908000Y-7823610D01*
X15905107Y-7838152D01*
X15896870Y-7850480D01*
X15884542Y-7858717D01*
X15870000Y-7861610D01*
X15570000Y-7861610D01*
X15555458Y-7858717D01*
X15543130Y-7850480D01*
X15534893Y-7838152D01*
X15532000Y-7823610D01*
X15532000Y-7123610D01*
X15534893Y-7109068D01*
X15543130Y-7096740D01*
X15555458Y-7088503D01*
X15570000Y-7085610D01*
X15870000Y-7085610D01*
X15884542Y-7088503D01*
G37*
G36*
X16384542Y-7088503D02*
G01*
X16396870Y-7096740D01*
X16405107Y-7109068D01*
X16408000Y-7123610D01*
X16408000Y-7823610D01*
X16405107Y-7838152D01*
X16396870Y-7850480D01*
X16384542Y-7858717D01*
X16370000Y-7861610D01*
X16070000Y-7861610D01*
X16055458Y-7858717D01*
X16043130Y-7850480D01*
X16034893Y-7838152D01*
X16032000Y-7823610D01*
X16032000Y-7123610D01*
X16034893Y-7109068D01*
X16043130Y-7096740D01*
X16055458Y-7088503D01*
X16070000Y-7085610D01*
X16370000Y-7085610D01*
X16384542Y-7088503D01*
G37*
G36*
X20859444Y-6666311D02*
G01*
X20920436Y-6707064D01*
X20961189Y-6768056D01*
X20975500Y-6840000D01*
X20975500Y-7140000D01*
X20961189Y-7211944D01*
X20920436Y-7272936D01*
X20859444Y-7313689D01*
X20787500Y-7328000D01*
X19612500Y-7328000D01*
X19540556Y-7313689D01*
X19479564Y-7272936D01*
X19438811Y-7211944D01*
X19424500Y-7140000D01*
X19424500Y-6840000D01*
X19438811Y-6768056D01*
X19479564Y-6707064D01*
X19540556Y-6666311D01*
X19612500Y-6652000D01*
X20787500Y-6652000D01*
X20859444Y-6666311D01*
G37*
G36*
X4483758Y-1152804D02*
G01*
X4799501Y-1224871D01*
X5105190Y-1331836D01*
X5396980Y-1472355D01*
X5671203Y-1644660D01*
X5924409Y-1846585D01*
X6153415Y-2075591D01*
X6355340Y-2328797D01*
X6527645Y-2603020D01*
X6668164Y-2894810D01*
X6775129Y-3200499D01*
X6847196Y-3516242D01*
X6883457Y-3838069D01*
X6883457Y-4161931D01*
X6847196Y-4483758D01*
X6775129Y-4799501D01*
X6668164Y-5105190D01*
X6527645Y-5396980D01*
X6355340Y-5671203D01*
X6153415Y-5924409D01*
X5924409Y-6153415D01*
X5671203Y-6355340D01*
X5396980Y-6527645D01*
X5105190Y-6668164D01*
X4799501Y-6775129D01*
X4483758Y-6847196D01*
X4161931Y-6883457D01*
X3838069Y-6883457D01*
X3516242Y-6847196D01*
X3200499Y-6775129D01*
X2894810Y-6668164D01*
X2603020Y-6527645D01*
X2328797Y-6355340D01*
X2075591Y-6153415D01*
X1846585Y-5924409D01*
X1644660Y-5671203D01*
X1472355Y-5396980D01*
X1331836Y-5105190D01*
X1224871Y-4799501D01*
X1152804Y-4483758D01*
X1116543Y-4161931D01*
X1116543Y-3838069D01*
X1152804Y-3516242D01*
X1224871Y-3200499D01*
X1331836Y-2894810D01*
X1472355Y-2603020D01*
X1644660Y-2328797D01*
X1846585Y-2075591D01*
X2075591Y-1846585D01*
X2328797Y-1644660D01*
X2603020Y-1472355D01*
X2894810Y-1331836D01*
X3200499Y-1224871D01*
X3516242Y-1152804D01*
X3838069Y-1116543D01*
X4161931Y-1116543D01*
X4483758Y-1152804D01*
G37*
G36*
X24715938Y-5269650D02*
G01*
X24720653Y-5271732D01*
X24723326Y-5272084D01*
X24756770Y-5287679D01*
X24812759Y-5312401D01*
X24887599Y-5387241D01*
X24912330Y-5443251D01*
X24927915Y-5476673D01*
X24928266Y-5479343D01*
X24930350Y-5484062D01*
X24938000Y-5550000D01*
X24938000Y-6250000D01*
X24930350Y-6315938D01*
X24928266Y-6320656D01*
X24927915Y-6323326D01*
X24912338Y-6356730D01*
X24887599Y-6412759D01*
X24812759Y-6487599D01*
X24756730Y-6512338D01*
X24723326Y-6527915D01*
X24720656Y-6528266D01*
X24715938Y-6530350D01*
X24650000Y-6538000D01*
X23750000Y-6538000D01*
X23684062Y-6530350D01*
X23679343Y-6528266D01*
X23676673Y-6527915D01*
X23643251Y-6512330D01*
X23587241Y-6487599D01*
X23512401Y-6412759D01*
X23487679Y-6356770D01*
X23472084Y-6323326D01*
X23471732Y-6320653D01*
X23469650Y-6315938D01*
X23462000Y-6250000D01*
X23462000Y-5550000D01*
X23469650Y-5484062D01*
X23471732Y-5479346D01*
X23472084Y-5476673D01*
X23487687Y-5443210D01*
X23512401Y-5387241D01*
X23587241Y-5312401D01*
X23643210Y-5287687D01*
X23676673Y-5272084D01*
X23679346Y-5271732D01*
X23684062Y-5269650D01*
X23750000Y-5262000D01*
X24650000Y-5262000D01*
X24715938Y-5269650D01*
G37*
G36*
X22734444Y-5716311D02*
G01*
X22795436Y-5757064D01*
X22836189Y-5818056D01*
X22850500Y-5890000D01*
X22850500Y-6190000D01*
X22836189Y-6261944D01*
X22795436Y-6322936D01*
X22734444Y-6363689D01*
X22662500Y-6378000D01*
X21487500Y-6378000D01*
X21415556Y-6363689D01*
X21354564Y-6322936D01*
X21313811Y-6261944D01*
X21299500Y-6190000D01*
X21299500Y-5890000D01*
X21313811Y-5818056D01*
X21354564Y-5757064D01*
X21415556Y-5716311D01*
X21487500Y-5702000D01*
X22662500Y-5702000D01*
X22734444Y-5716311D01*
G37*
G36*
X37118025Y-2367049D02*
G01*
X37128516Y-2367049D01*
X37180176Y-2375231D01*
X37319536Y-2393578D01*
X37353540Y-2402689D01*
X37382384Y-2407258D01*
X37437857Y-2425282D01*
X37526480Y-2449029D01*
X37583022Y-2472449D01*
X37626835Y-2486685D01*
X37667877Y-2507597D01*
X37724426Y-2531020D01*
X37803892Y-2576900D01*
X37855853Y-2603375D01*
X37879474Y-2620537D01*
X37909962Y-2638139D01*
X38021487Y-2723715D01*
X38063796Y-2754455D01*
X38071212Y-2761871D01*
X38079933Y-2768563D01*
X38231436Y-2920066D01*
X38238127Y-2928786D01*
X38245545Y-2936204D01*
X38276288Y-2978518D01*
X38361860Y-3090037D01*
X38379460Y-3120522D01*
X38396625Y-3144147D01*
X38423103Y-3196113D01*
X38468979Y-3275573D01*
X38492399Y-3332116D01*
X38513315Y-3373165D01*
X38527552Y-3416983D01*
X38550970Y-3473519D01*
X38574713Y-3562129D01*
X38592742Y-3617616D01*
X38597311Y-3646465D01*
X38606421Y-3680463D01*
X38624767Y-3819815D01*
X38632951Y-3871484D01*
X38632951Y-3881974D01*
X38634386Y-3892874D01*
X38634386Y-4107125D01*
X38632951Y-4118024D01*
X38632951Y-4128516D01*
X38624766Y-4180188D01*
X38606421Y-4319536D01*
X38597311Y-4353531D01*
X38592742Y-4382384D01*
X38574711Y-4437875D01*
X38550970Y-4526480D01*
X38527554Y-4583011D01*
X38513315Y-4626835D01*
X38492397Y-4667887D01*
X38468979Y-4724426D01*
X38423107Y-4803878D01*
X38396625Y-4855853D01*
X38379458Y-4879481D01*
X38361860Y-4909962D01*
X38276301Y-5021462D01*
X38245545Y-5063796D01*
X38238124Y-5071216D01*
X38231436Y-5079933D01*
X38079933Y-5231436D01*
X38071216Y-5238124D01*
X38063796Y-5245545D01*
X38021462Y-5276301D01*
X37909962Y-5361860D01*
X37879481Y-5379458D01*
X37855853Y-5396625D01*
X37803878Y-5423107D01*
X37724426Y-5468979D01*
X37667887Y-5492397D01*
X37626835Y-5513315D01*
X37583011Y-5527554D01*
X37526480Y-5550970D01*
X37437875Y-5574711D01*
X37382384Y-5592742D01*
X37353531Y-5597311D01*
X37319536Y-5606421D01*
X37180188Y-5624766D01*
X37128516Y-5632951D01*
X37118025Y-5632951D01*
X37107125Y-5634386D01*
X36892875Y-5634386D01*
X36881975Y-5632951D01*
X36871484Y-5632951D01*
X36819812Y-5624767D01*
X36680463Y-5606421D01*
X36646465Y-5597311D01*
X36617616Y-5592742D01*
X36562129Y-5574713D01*
X36473519Y-5550970D01*
X36416983Y-5527552D01*
X36373165Y-5513315D01*
X36332116Y-5492399D01*
X36275573Y-5468979D01*
X36196113Y-5423103D01*
X36144147Y-5396625D01*
X36120522Y-5379460D01*
X36090037Y-5361860D01*
X35978518Y-5276288D01*
X35936204Y-5245545D01*
X35928786Y-5238127D01*
X35920066Y-5231436D01*
X35768563Y-5079933D01*
X35761871Y-5071212D01*
X35754455Y-5063796D01*
X35723715Y-5021487D01*
X35638139Y-4909962D01*
X35620537Y-4879474D01*
X35603375Y-4855853D01*
X35576900Y-4803892D01*
X35531020Y-4724426D01*
X35507597Y-4667877D01*
X35486685Y-4626835D01*
X35472449Y-4583022D01*
X35449029Y-4526480D01*
X35425282Y-4437857D01*
X35407258Y-4382384D01*
X35402689Y-4353540D01*
X35393578Y-4319536D01*
X35375231Y-4180176D01*
X35367049Y-4128516D01*
X35367049Y-4118025D01*
X35365614Y-4107125D01*
X35365614Y-3892874D01*
X35367049Y-3881973D01*
X35367049Y-3871484D01*
X35375230Y-3819828D01*
X35393578Y-3680463D01*
X35402690Y-3646456D01*
X35407258Y-3617616D01*
X35425280Y-3562147D01*
X35449029Y-3473519D01*
X35472451Y-3416972D01*
X35486685Y-3373165D01*
X35507594Y-3332126D01*
X35531020Y-3275573D01*
X35576904Y-3196098D01*
X35603375Y-3144147D01*
X35620534Y-3120529D01*
X35638139Y-3090037D01*
X35723729Y-2978493D01*
X35754455Y-2936204D01*
X35761868Y-2928790D01*
X35768563Y-2920066D01*
X35920066Y-2768563D01*
X35928790Y-2761868D01*
X35936204Y-2754455D01*
X35978493Y-2723729D01*
X36090037Y-2638139D01*
X36120529Y-2620534D01*
X36144147Y-2603375D01*
X36196098Y-2576904D01*
X36275573Y-2531020D01*
X36332126Y-2507594D01*
X36373165Y-2486685D01*
X36416972Y-2472451D01*
X36473519Y-2449029D01*
X36562147Y-2425280D01*
X36617616Y-2407258D01*
X36646456Y-2402690D01*
X36680463Y-2393578D01*
X36819825Y-2375230D01*
X36871484Y-2367049D01*
X36881975Y-2367049D01*
X36892875Y-2365614D01*
X37107125Y-2365614D01*
X37118025Y-2367049D01*
G37*
G36*
X20615938Y-3269650D02*
G01*
X20620653Y-3271732D01*
X20623326Y-3272084D01*
X20656770Y-3287679D01*
X20712759Y-3312401D01*
X20787599Y-3387241D01*
X20812330Y-3443251D01*
X20827915Y-3476673D01*
X20828266Y-3479343D01*
X20830350Y-3484062D01*
X20838000Y-3550000D01*
X20838000Y-4450000D01*
X20830350Y-4515938D01*
X20828266Y-4520656D01*
X20827915Y-4523326D01*
X20812338Y-4556730D01*
X20787599Y-4612759D01*
X20712759Y-4687599D01*
X20656730Y-4712338D01*
X20623326Y-4727915D01*
X20620656Y-4728266D01*
X20615938Y-4730350D01*
X20550000Y-4738000D01*
X19850000Y-4738000D01*
X19784062Y-4730350D01*
X19779343Y-4728266D01*
X19776673Y-4727915D01*
X19743251Y-4712330D01*
X19687241Y-4687599D01*
X19612401Y-4612759D01*
X19587679Y-4556770D01*
X19572084Y-4523326D01*
X19571732Y-4520653D01*
X19569650Y-4515938D01*
X19562000Y-4450000D01*
X19562000Y-3550000D01*
X19569650Y-3484062D01*
X19571732Y-3479346D01*
X19572084Y-3476673D01*
X19587687Y-3443210D01*
X19612401Y-3387241D01*
X19687241Y-3312401D01*
X19743210Y-3287687D01*
X19776673Y-3272084D01*
X19779346Y-3271732D01*
X19784062Y-3269650D01*
X19850000Y-3262000D01*
X20550000Y-3262000D01*
X20615938Y-3269650D01*
G37*
G36*
X22615938Y-3269650D02*
G01*
X22620653Y-3271732D01*
X22623326Y-3272084D01*
X22656770Y-3287679D01*
X22712759Y-3312401D01*
X22787599Y-3387241D01*
X22812330Y-3443251D01*
X22827915Y-3476673D01*
X22828266Y-3479343D01*
X22830350Y-3484062D01*
X22838000Y-3550000D01*
X22838000Y-4450000D01*
X22830350Y-4515938D01*
X22828266Y-4520656D01*
X22827915Y-4523326D01*
X22812338Y-4556730D01*
X22787599Y-4612759D01*
X22712759Y-4687599D01*
X22656730Y-4712338D01*
X22623326Y-4727915D01*
X22620656Y-4728266D01*
X22615938Y-4730350D01*
X22550000Y-4738000D01*
X21850000Y-4738000D01*
X21784062Y-4730350D01*
X21779343Y-4728266D01*
X21776673Y-4727915D01*
X21743251Y-4712330D01*
X21687241Y-4687599D01*
X21612401Y-4612759D01*
X21587679Y-4556770D01*
X21572084Y-4523326D01*
X21571732Y-4520653D01*
X21569650Y-4515938D01*
X21562000Y-4450000D01*
X21562000Y-3550000D01*
X21569650Y-3484062D01*
X21571732Y-3479346D01*
X21572084Y-3476673D01*
X21587687Y-3443210D01*
X21612401Y-3387241D01*
X21687241Y-3312401D01*
X21743210Y-3287687D01*
X21776673Y-3272084D01*
X21779346Y-3271732D01*
X21784062Y-3269650D01*
X21850000Y-3262000D01*
X22550000Y-3262000D01*
X22615938Y-3269650D01*
G37*
G36*
X33266828Y-888581D02*
G01*
X33437407Y-944006D01*
X33597216Y-1025432D01*
X33742319Y-1130856D01*
X33869144Y-1257681D01*
X33974568Y-1402784D01*
X34055994Y-1562593D01*
X34111419Y-1733172D01*
X34139477Y-1910321D01*
X34139477Y-2089679D01*
X34111419Y-2266828D01*
X34055994Y-2437407D01*
X33974568Y-2597216D01*
X33869144Y-2742319D01*
X33742319Y-2869144D01*
X33597216Y-2974568D01*
X33437407Y-3055994D01*
X33266828Y-3111419D01*
X33089679Y-3139477D01*
X32910321Y-3139477D01*
X32733172Y-3111419D01*
X32562593Y-3055994D01*
X32402784Y-2974568D01*
X32257681Y-2869144D01*
X32130856Y-2742319D01*
X32025432Y-2597216D01*
X31944006Y-2437407D01*
X31888581Y-2266828D01*
X31860523Y-2089679D01*
X31860523Y-1910321D01*
X31888581Y-1733172D01*
X31944006Y-1562593D01*
X32025432Y-1402784D01*
X32130856Y-1257681D01*
X32257681Y-1130856D01*
X32402784Y-1025432D01*
X32562593Y-944006D01*
X32733172Y-888581D01*
X32910321Y-860523D01*
X33089679Y-860523D01*
X33266828Y-888581D01*
G37*
G36*
X20565938Y-844650D02*
G01*
X20570653Y-846732D01*
X20573326Y-847084D01*
X20606770Y-862679D01*
X20662759Y-887401D01*
X20737599Y-962241D01*
X20762330Y-1018251D01*
X20777915Y-1051673D01*
X20778266Y-1054343D01*
X20780350Y-1059062D01*
X20788000Y-1125000D01*
X20788000Y-2075000D01*
X20780350Y-2140938D01*
X20778266Y-2145656D01*
X20777915Y-2148326D01*
X20762338Y-2181730D01*
X20737599Y-2237759D01*
X20662759Y-2312599D01*
X20606730Y-2337338D01*
X20573326Y-2352915D01*
X20570656Y-2353266D01*
X20565938Y-2355350D01*
X20500000Y-2363000D01*
X19825000Y-2363000D01*
X19759062Y-2355350D01*
X19754343Y-2353266D01*
X19751673Y-2352915D01*
X19718251Y-2337330D01*
X19662241Y-2312599D01*
X19587401Y-2237759D01*
X19562679Y-2181770D01*
X19547084Y-2148326D01*
X19546732Y-2145653D01*
X19544650Y-2140938D01*
X19537000Y-2075000D01*
X19537000Y-1125000D01*
X19544650Y-1059062D01*
X19546732Y-1054346D01*
X19547084Y-1051673D01*
X19562687Y-1018210D01*
X19587401Y-962241D01*
X19662241Y-887401D01*
X19718210Y-862687D01*
X19751673Y-847084D01*
X19754346Y-846732D01*
X19759062Y-844650D01*
X19825000Y-837000D01*
X20500000Y-837000D01*
X20565938Y-844650D01*
G37*
G36*
X22640938Y-844650D02*
G01*
X22645653Y-846732D01*
X22648326Y-847084D01*
X22681770Y-862679D01*
X22737759Y-887401D01*
X22812599Y-962241D01*
X22837330Y-1018251D01*
X22852915Y-1051673D01*
X22853266Y-1054343D01*
X22855350Y-1059062D01*
X22863000Y-1125000D01*
X22863000Y-2075000D01*
X22855350Y-2140938D01*
X22853266Y-2145656D01*
X22852915Y-2148326D01*
X22837338Y-2181730D01*
X22812599Y-2237759D01*
X22737759Y-2312599D01*
X22681730Y-2337338D01*
X22648326Y-2352915D01*
X22645656Y-2353266D01*
X22640938Y-2355350D01*
X22575000Y-2363000D01*
X21900000Y-2363000D01*
X21834062Y-2355350D01*
X21829343Y-2353266D01*
X21826673Y-2352915D01*
X21793251Y-2337330D01*
X21737241Y-2312599D01*
X21662401Y-2237759D01*
X21637679Y-2181770D01*
X21622084Y-2148326D01*
X21621732Y-2145653D01*
X21619650Y-2140938D01*
X21612000Y-2075000D01*
X21612000Y-1125000D01*
X21619650Y-1059062D01*
X21621732Y-1054346D01*
X21622084Y-1051673D01*
X21637687Y-1018210D01*
X21662401Y-962241D01*
X21737241Y-887401D01*
X21793210Y-862687D01*
X21826673Y-847084D01*
X21829346Y-846732D01*
X21834062Y-844650D01*
X21900000Y-837000D01*
X22575000Y-837000D01*
X22640938Y-844650D01*
G37*
G36*
X8944230Y-607388D02*
G01*
X9077891Y-662752D01*
X9198182Y-743128D01*
X9300482Y-845428D01*
X9380858Y-965719D01*
X9436222Y-1099380D01*
X9464446Y-1241273D01*
X9464446Y-1385947D01*
X9436222Y-1527840D01*
X9380858Y-1661501D01*
X9300482Y-1781792D01*
X9198182Y-1884092D01*
X9077891Y-1964468D01*
X8944230Y-2019832D01*
X8802337Y-2048056D01*
X8657663Y-2048056D01*
X8515770Y-2019832D01*
X8382109Y-1964468D01*
X8261818Y-1884092D01*
X8159518Y-1781792D01*
X8079142Y-1661501D01*
X8023778Y-1527840D01*
X7995554Y-1385947D01*
X7995554Y-1241273D01*
X8023778Y-1099380D01*
X8079142Y-965719D01*
X8159518Y-845428D01*
X8261818Y-743128D01*
X8382109Y-662752D01*
X8515770Y-607388D01*
X8657663Y-579164D01*
X8802337Y-579164D01*
X8944230Y-607388D01*
G37*
G36*
X17924230Y-607388D02*
G01*
X18057891Y-662752D01*
X18178182Y-743128D01*
X18280482Y-845428D01*
X18360858Y-965719D01*
X18416222Y-1099380D01*
X18444446Y-1241273D01*
X18444446Y-1385947D01*
X18416222Y-1527840D01*
X18360858Y-1661501D01*
X18280482Y-1781792D01*
X18178182Y-1884092D01*
X18057891Y-1964468D01*
X17924230Y-2019832D01*
X17782337Y-2048056D01*
X17637663Y-2048056D01*
X17495770Y-2019832D01*
X17362109Y-1964468D01*
X17241818Y-1884092D01*
X17139518Y-1781792D01*
X17059142Y-1661501D01*
X17003778Y-1527840D01*
X16975554Y-1385947D01*
X16975554Y-1241273D01*
X17003778Y-1099380D01*
X17059142Y-965719D01*
X17139518Y-845428D01*
X17241818Y-743128D01*
X17362109Y-662752D01*
X17495770Y-607388D01*
X17637663Y-579164D01*
X17782337Y-579164D01*
X17924230Y-607388D01*
G37*
M02*
