%TF.GenerationSoftware,KiCad,Pcbnew,9.0.1*%
%TF.CreationDate,2025-04-14T01:57:56-04:00*%
%TF.ProjectId,USB-3-2-splitter,5553422d-332d-4322-9d73-706c69747465,rev?*%
%TF.SameCoordinates,Original*%
%TF.FileFunction,Copper,L4,Bot*%
%TF.FilePolarity,Positive*%
%FSLAX46Y46*%
G04 Gerber Fmt 4.6, Leading zero omitted, Abs format (unit mm)*
G04 Created by KiCad (PCBNEW 9.0.1) date 2025-04-14 01:57:56*
%MOMM*%
%LPD*%
G01*
G04 APERTURE LIST*
%TA.AperFunction,ComponentPad*%
%ADD10C,5.700000*%
%TD*%
%TA.AperFunction,HeatsinkPad*%
%ADD11C,1.400000*%
%TD*%
%TA.AperFunction,HeatsinkPad*%
%ADD12O,1.000000X2.100000*%
%TD*%
%TA.AperFunction,HeatsinkPad*%
%ADD13O,1.000000X1.600000*%
%TD*%
%TA.AperFunction,ViaPad*%
%ADD14C,0.450000*%
%TD*%
%TA.AperFunction,ViaPad*%
%ADD15C,0.800000*%
%TD*%
%TA.AperFunction,ViaPad*%
%ADD16C,0.600000*%
%TD*%
%TA.AperFunction,Conductor*%
%ADD17C,0.250000*%
%TD*%
%TA.AperFunction,Conductor*%
%ADD18C,0.400000*%
%TD*%
%TA.AperFunction,Conductor*%
%ADD19C,0.500000*%
%TD*%
%TA.AperFunction,Conductor*%
%ADD20C,0.300000*%
%TD*%
G04 APERTURE END LIST*
D10*
%TO.P,H1,1,1*%
%TO.N,Net-(C4-Pad1)*%
X4000000Y-4000000D03*
%TD*%
D11*
%TO.P,J3,S1,SHIELD*%
%TO.N,Net-(J3-SHIELD)*%
X8730000Y-27493610D03*
X9090000Y-21543610D03*
X17350000Y-21543610D03*
X17710000Y-27493610D03*
%TD*%
%TO.P,J2,S1,SHIELD*%
%TO.N,Net-(J2-SHIELD)*%
X17710000Y-1313610D03*
X17350000Y-7263610D03*
X9090000Y-7263610D03*
X8730000Y-1313610D03*
%TD*%
D12*
%TO.P,J1,S1,SHIELD*%
%TO.N,Net-(J1-SHIELD)*%
X29900000Y-23023610D03*
D13*
X29900000Y-27203610D03*
D12*
X38540000Y-23023610D03*
D13*
X38540000Y-27203610D03*
%TD*%
D14*
%TO.N,GND*%
X14080000Y-22100000D03*
D15*
%TO.N,CC2_USB2*%
X25600000Y-22200000D03*
X35690000Y-19730000D03*
X30200000Y-13420000D03*
X24100000Y-24300000D03*
D16*
%TO.N,GND*%
X11050000Y-14470000D03*
D14*
X14600000Y-6693610D03*
X16000000Y-21950199D03*
D16*
X6500000Y-12500000D03*
D14*
X16450000Y-6550000D03*
D15*
X28000000Y-27500000D03*
D16*
X18000000Y-9500000D03*
X12900000Y-10400000D03*
D15*
X1500000Y-16500000D03*
X12900000Y-15600000D03*
D14*
X11920000Y-22100000D03*
D15*
X28100000Y-4360000D03*
D16*
X14200000Y-11400000D03*
D14*
X10060000Y-22100000D03*
D15*
X37500000Y-14500000D03*
D16*
X15800000Y-12600000D03*
X10320000Y-6853610D03*
D14*
X12400000Y-6717088D03*
D15*
X28100000Y-2110000D03*
%TO.N,Net-(J1-SHIELD)*%
X39400000Y-14000000D03*
%TO.N,VBUS_USB2*%
X32900000Y-18200000D03*
X32900000Y-16700000D03*
X35700000Y-18200000D03*
X35700000Y-16700000D03*
D14*
%TO.N,D+*%
X13160000Y-6853610D03*
D15*
X28900000Y-2770000D03*
D14*
X13480000Y-9893610D03*
%TO.N,D-*%
X13770000Y-6853610D03*
D15*
X28900000Y-3730000D03*
%TO.N,CC1_USB2*%
X24537500Y-18350000D03*
X32870000Y-19710000D03*
X24100000Y-22200000D03*
D14*
%TO.N,TX2+*%
X14720000Y-21943610D03*
X10990000Y-6750000D03*
%TO.N,TX1+*%
X12050000Y-15410000D03*
X15200000Y-12250000D03*
%TO.N,TX1-*%
X14790000Y-11780000D03*
X11550000Y-15000000D03*
%TO.N,RX1+*%
X15820000Y-6830107D03*
X11260000Y-21933610D03*
%TO.N,TX2-*%
X11750000Y-6800000D03*
X15330000Y-21980000D03*
%TO.N,CC1_UFP*%
X14150000Y-8320000D03*
D15*
X16200000Y-13400000D03*
D14*
%TO.N,CC2_UFP*%
X12720000Y-8253610D03*
D15*
X8900000Y-14600000D03*
D14*
%TO.N,RX1-*%
X15198957Y-6859560D03*
X10660000Y-21944832D03*
D15*
%TO.N,VBUS_USB3*%
X18400000Y-16560000D03*
X18500000Y-17500000D03*
X14000000Y-17500000D03*
X13690000Y-16560000D03*
X9100000Y-16200000D03*
D16*
%TO.N,CC1_USB3*%
X12600000Y-20500000D03*
D15*
X19000000Y-23880000D03*
%TO.N,CC2_USB3*%
X25800000Y-8200000D03*
D16*
X13400000Y-20500000D03*
D15*
X19570000Y-23000000D03*
X22900000Y-13100000D03*
%TD*%
D17*
%TO.N,CC2_USB3*%
X13400000Y-21140000D02*
X13400000Y-20500000D01*
X13001000Y-21539000D02*
X13400000Y-21140000D01*
X13001000Y-22933900D02*
X13001000Y-21539000D01*
X13877100Y-23810000D02*
X13001000Y-22933900D01*
X18050000Y-23810000D02*
X13877100Y-23810000D01*
X19570000Y-23000000D02*
X18860000Y-23000000D01*
X18860000Y-23000000D02*
X18050000Y-23810000D01*
%TO.N,CC1_USB3*%
X18660000Y-24220000D02*
X19000000Y-23880000D01*
X13720000Y-24220000D02*
X18660000Y-24220000D01*
X12600000Y-23100000D02*
X13720000Y-24220000D01*
X12600000Y-20500000D02*
X12600000Y-23100000D01*
D18*
%TO.N,D+*%
X13160000Y-7320000D02*
X13160000Y-6853610D01*
X13340000Y-7500000D02*
X13160000Y-7320000D01*
X13340000Y-8140000D02*
X13340000Y-7500000D01*
X13480000Y-8280000D02*
X13340000Y-8140000D01*
X13480000Y-9893610D02*
X13480000Y-8280000D01*
%TO.N,RX1-*%
X15219000Y-6839517D02*
X15198957Y-6859560D01*
X21650000Y-6327630D02*
X20095980Y-4773610D01*
X21650000Y-23625980D02*
X21650000Y-6327630D01*
X16414020Y-4773610D02*
X15219000Y-5968630D01*
X19515980Y-25760000D02*
X21650000Y-23625980D01*
X12524020Y-25760000D02*
X19515980Y-25760000D01*
X15219000Y-5968630D02*
X15219000Y-6839517D01*
X20095980Y-4773610D02*
X16414020Y-4773610D01*
X10674969Y-23910949D02*
X12524020Y-25760000D01*
D19*
%TO.N,CC2_USB2*%
X30200000Y-13420000D02*
X30200000Y-13600000D01*
X28700000Y-25400000D02*
X27600000Y-24300000D01*
X26337500Y-17462500D02*
X26337500Y-21462500D01*
X35690000Y-21910000D02*
X32500000Y-25100000D01*
X32200000Y-25400000D02*
X29400000Y-25400000D01*
X26337500Y-21462500D02*
X25600000Y-22200000D01*
X30200000Y-13600000D02*
X26337500Y-17462500D01*
X27600000Y-24300000D02*
X24100000Y-24300000D01*
X32500000Y-25100000D02*
X32200000Y-25400000D01*
X29400000Y-25400000D02*
X28700000Y-25400000D01*
X35690000Y-19730000D02*
X35690000Y-21910000D01*
%TO.N,Net-(J1-SHIELD)*%
X38540000Y-23023610D02*
X38540000Y-21160000D01*
X38540000Y-21160000D02*
X39900000Y-19800000D01*
X39900000Y-14500000D02*
X39400000Y-14000000D01*
X39900000Y-19800000D02*
X39900000Y-14500000D01*
D18*
%TO.N,D+*%
X28700000Y-2970000D02*
X28900000Y-2770000D01*
X13429000Y-9842610D02*
X13480000Y-9842610D01*
X13180000Y-5197630D02*
X15407630Y-2970000D01*
X15407630Y-2970000D02*
X28700000Y-2970000D01*
X13180000Y-6843610D02*
X13180000Y-5197630D01*
X13170000Y-6853610D02*
X13180000Y-6843610D01*
%TO.N,D-*%
X28700000Y-3530000D02*
X28900000Y-3730000D01*
X13750000Y-6853610D02*
X13740000Y-6843610D01*
X15639590Y-3530000D02*
X28700000Y-3530000D01*
X13740000Y-5429590D02*
X15639590Y-3530000D01*
X13740000Y-6843610D02*
X13740000Y-5429590D01*
D19*
%TO.N,CC1_USB2*%
X29100000Y-24600000D02*
X31800000Y-24600000D01*
X28000000Y-23500000D02*
X29100000Y-24600000D01*
X24500000Y-23500000D02*
X28000000Y-23500000D01*
X31800000Y-24600000D02*
X32870000Y-23530000D01*
X24100000Y-22200000D02*
X24100000Y-23100000D01*
X24537500Y-18350000D02*
X24537500Y-19862500D01*
X24537500Y-19862500D02*
X24100000Y-20300000D01*
X32870000Y-23530000D02*
X32870000Y-19710000D01*
X24100000Y-23100000D02*
X24500000Y-23500000D01*
X24100000Y-20300000D02*
X24100000Y-22200000D01*
D18*
%TO.N,TX2+*%
X10224020Y-10843610D02*
X8234020Y-10843610D01*
X14735000Y-20664590D02*
X14735000Y-21928610D01*
X10990000Y-6773610D02*
X11066919Y-6850529D01*
X11066919Y-10000711D02*
X10224020Y-10843610D01*
X7360000Y-16859590D02*
X8304020Y-17803610D01*
X8234020Y-10843610D02*
X7360000Y-11717630D01*
X11066919Y-6850529D02*
X11066919Y-10000711D01*
X14735000Y-21928610D02*
X14720000Y-21943610D01*
X11874020Y-17803610D02*
X14735000Y-20664590D01*
X7360000Y-11717630D02*
X7360000Y-16859590D01*
X8304020Y-17803610D02*
X11874020Y-17803610D01*
%TO.N,TX1+*%
X14540000Y-12863610D02*
X14540000Y-12860000D01*
X14540000Y-12860000D02*
X15200000Y-12200000D01*
X14540000Y-12863610D02*
X11995000Y-15408610D01*
%TO.N,TX1-*%
X14144020Y-12467630D02*
X14144020Y-12455980D01*
X14144020Y-12467630D02*
X11599020Y-15012630D01*
X14144020Y-12455980D02*
X14800000Y-11800000D01*
%TO.N,RX1+*%
X21090000Y-6559590D02*
X21090000Y-23394020D01*
X16645980Y-5333610D02*
X19864020Y-5333610D01*
X15793322Y-6825195D02*
X15793322Y-6186268D01*
X21090000Y-23394020D02*
X19284020Y-25200000D01*
X15798234Y-6830107D02*
X15793322Y-6825195D01*
D20*
X11240000Y-22733043D02*
X11234969Y-22738074D01*
D18*
X19864020Y-5333610D02*
X21090000Y-6559590D01*
X11427990Y-23872010D02*
X11234969Y-23678989D01*
X19284020Y-25200000D02*
X12755980Y-25200000D01*
X15793322Y-6186268D02*
X16645980Y-5333610D01*
D20*
X11240000Y-21933610D02*
X11240000Y-22733043D01*
D18*
X11234969Y-23678989D02*
X11234969Y-22738074D01*
X12755980Y-25200000D02*
X11234969Y-23678989D01*
%TO.N,TX2-*%
X11626919Y-10232671D02*
X10455980Y-11403610D01*
X11626919Y-6850528D02*
X11626919Y-10232671D01*
X8465980Y-11403610D02*
X7920000Y-11949590D01*
X7920000Y-16627630D02*
X8535980Y-17243610D01*
X15295000Y-21928610D02*
X15330000Y-21963610D01*
X11676906Y-6800541D02*
X11626919Y-6850528D01*
X8535980Y-17243610D02*
X12105980Y-17243610D01*
X15295000Y-20432630D02*
X15295000Y-21928610D01*
X7920000Y-11949590D02*
X7920000Y-16627630D01*
X12105980Y-17243610D02*
X15295000Y-20432630D01*
X10455980Y-11403610D02*
X8465980Y-11403610D01*
D20*
%TO.N,CC1_UFP*%
X16700000Y-12800000D02*
X16700000Y-12900000D01*
X14150000Y-8320000D02*
X14220000Y-8320000D01*
X14220000Y-8320000D02*
X16300000Y-10400000D01*
X16300000Y-10400000D02*
X16700000Y-10800000D01*
X16700000Y-12900000D02*
X16200000Y-13400000D01*
X16700000Y-10800000D02*
X16700000Y-12800000D01*
%TO.N,CC2_UFP*%
X8900000Y-12900000D02*
X9600000Y-12200000D01*
X12200000Y-8773610D02*
X12720000Y-8253610D01*
X9600000Y-12200000D02*
X10600000Y-12200000D01*
X12200000Y-10600000D02*
X12200000Y-8773610D01*
X10600000Y-12200000D02*
X12200000Y-10600000D01*
X8900000Y-14600000D02*
X8900000Y-12900000D01*
%TO.N,RX1-*%
X10690112Y-22722931D02*
X10674969Y-22738074D01*
D18*
X10674969Y-23910949D02*
X10674969Y-22738074D01*
D20*
X10690112Y-21944832D02*
X10690112Y-22722931D01*
D18*
X10690112Y-21944832D02*
X10680000Y-21954944D01*
X11032010Y-24267990D02*
X10674969Y-23910949D01*
D19*
%TO.N,VBUS_USB3*%
X9464610Y-16564610D02*
X9100000Y-16200000D01*
X13685390Y-16564610D02*
X9464610Y-16564610D01*
X13690000Y-16560000D02*
X13685390Y-16564610D01*
D20*
%TO.N,CC2_USB3*%
X24800000Y-13200000D02*
X23000000Y-13200000D01*
X23000000Y-13200000D02*
X22900000Y-13100000D01*
X25800000Y-8200000D02*
X25800000Y-12200000D01*
X25800000Y-12200000D02*
X24800000Y-13200000D01*
%TD*%
%TA.AperFunction,Conductor*%
%TO.N,VBUS_USB2*%
G36*
X35705134Y-16200675D02*
G01*
X35819101Y-16215679D01*
X35839019Y-16221017D01*
X35940387Y-16263005D01*
X35958247Y-16273316D01*
X36045301Y-16340115D01*
X36059884Y-16354698D01*
X36126683Y-16441752D01*
X36136994Y-16459612D01*
X36178982Y-16560980D01*
X36184320Y-16580900D01*
X36199324Y-16694864D01*
X36200000Y-16705176D01*
X36200000Y-18294823D01*
X36199324Y-18305134D01*
X36199324Y-18305135D01*
X36184320Y-18419099D01*
X36178982Y-18439019D01*
X36136994Y-18540387D01*
X36126683Y-18558247D01*
X36059884Y-18645301D01*
X36045301Y-18659884D01*
X35958247Y-18726683D01*
X35940387Y-18736994D01*
X35839019Y-18778982D01*
X35819099Y-18784320D01*
X35734865Y-18795409D01*
X35705133Y-18799324D01*
X35694824Y-18800000D01*
X32905176Y-18800000D01*
X32894866Y-18799324D01*
X32857090Y-18794350D01*
X32780900Y-18784320D01*
X32760980Y-18778982D01*
X32659612Y-18736994D01*
X32641752Y-18726683D01*
X32554698Y-18659884D01*
X32540115Y-18645301D01*
X32473316Y-18558247D01*
X32463005Y-18540387D01*
X32421017Y-18439019D01*
X32415679Y-18419101D01*
X32400676Y-18305134D01*
X32400000Y-18294823D01*
X32400000Y-16705176D01*
X32400676Y-16694865D01*
X32400676Y-16694864D01*
X32415680Y-16580897D01*
X32421015Y-16560984D01*
X32463007Y-16459608D01*
X32473316Y-16441752D01*
X32474089Y-16440743D01*
X32540118Y-16354694D01*
X32554694Y-16340118D01*
X32641752Y-16273316D01*
X32659608Y-16263007D01*
X32760984Y-16221015D01*
X32780897Y-16215680D01*
X32894865Y-16200675D01*
X32905176Y-16200000D01*
X35694824Y-16200000D01*
X35705134Y-16200675D01*
G37*
%TD.AperFunction*%
%TD*%
%TA.AperFunction,Conductor*%
%TO.N,GND*%
G36*
X8129668Y-518982D02*
G01*
X8156688Y-565782D01*
X8147304Y-619000D01*
X8134749Y-635361D01*
X8030540Y-739569D01*
X8030534Y-739576D01*
X7931988Y-887061D01*
X7931985Y-887066D01*
X7864106Y-1050941D01*
X7864105Y-1050943D01*
X7829500Y-1224919D01*
X7829500Y-1402300D01*
X7864105Y-1576276D01*
X7864106Y-1576278D01*
X7931985Y-1740153D01*
X7931987Y-1740157D01*
X7944525Y-1758921D01*
X8030534Y-1887643D01*
X8030540Y-1887650D01*
X8155959Y-2013069D01*
X8155965Y-2013074D01*
X8303453Y-2111623D01*
X8385393Y-2145563D01*
X8467331Y-2179503D01*
X8467333Y-2179504D01*
X8641309Y-2214110D01*
X8818691Y-2214110D01*
X8992666Y-2179504D01*
X8992668Y-2179503D01*
X9156547Y-2111623D01*
X9304035Y-2013074D01*
X9429464Y-1887645D01*
X9528013Y-1740157D01*
X9595894Y-1576276D01*
X9630500Y-1402301D01*
X9630500Y-1224919D01*
X9595894Y-1050944D01*
X9572965Y-995589D01*
X9547499Y-934108D01*
X9528013Y-887063D01*
X9429464Y-739575D01*
X9429459Y-739569D01*
X9325251Y-635361D01*
X9302413Y-586385D01*
X9316399Y-534187D01*
X9360665Y-503192D01*
X9381112Y-500500D01*
X17058888Y-500500D01*
X17109668Y-518982D01*
X17136688Y-565782D01*
X17127304Y-619000D01*
X17114749Y-635361D01*
X17010540Y-739569D01*
X17010534Y-739576D01*
X16911988Y-887061D01*
X16911985Y-887066D01*
X16844106Y-1050941D01*
X16844105Y-1050943D01*
X16809500Y-1224919D01*
X16809500Y-1402300D01*
X16844105Y-1576276D01*
X16844106Y-1576278D01*
X16911985Y-1740153D01*
X16911987Y-1740157D01*
X16924525Y-1758921D01*
X17010534Y-1887643D01*
X17010540Y-1887650D01*
X17135959Y-2013069D01*
X17135965Y-2013074D01*
X17283453Y-2111623D01*
X17365393Y-2145563D01*
X17447331Y-2179503D01*
X17447333Y-2179504D01*
X17621309Y-2214110D01*
X17798691Y-2214110D01*
X17972666Y-2179504D01*
X17972668Y-2179503D01*
X18136547Y-2111623D01*
X18284035Y-2013074D01*
X18378512Y-1918597D01*
X32173500Y-1918597D01*
X32173500Y-2081402D01*
X32203451Y-2231980D01*
X32205262Y-2241081D01*
X32267565Y-2391495D01*
X32267566Y-2391496D01*
X32358014Y-2526861D01*
X32358020Y-2526868D01*
X32473131Y-2641979D01*
X32473137Y-2641984D01*
X32608505Y-2732435D01*
X32758919Y-2794738D01*
X32918597Y-2826500D01*
X33081403Y-2826500D01*
X33241081Y-2794738D01*
X33391495Y-2732435D01*
X33526863Y-2641984D01*
X33641984Y-2526863D01*
X33732435Y-2391495D01*
X33794738Y-2241081D01*
X33826500Y-2081403D01*
X33826500Y-1918597D01*
X33794738Y-1758919D01*
X33732435Y-1608505D01*
X33641984Y-1473137D01*
X33641979Y-1473131D01*
X33526868Y-1358020D01*
X33526861Y-1358014D01*
X33391496Y-1267566D01*
X33391497Y-1267566D01*
X33391495Y-1267565D01*
X33241081Y-1205262D01*
X33241079Y-1205261D01*
X33241078Y-1205261D01*
X33081403Y-1173500D01*
X32918597Y-1173500D01*
X32758921Y-1205261D01*
X32608503Y-1267566D01*
X32473138Y-1358014D01*
X32473131Y-1358020D01*
X32358020Y-1473131D01*
X32358014Y-1473138D01*
X32267566Y-1608503D01*
X32205261Y-1758921D01*
X32173500Y-1918597D01*
X18378512Y-1918597D01*
X18409464Y-1887645D01*
X18508013Y-1740157D01*
X18575894Y-1576276D01*
X18610500Y-1402301D01*
X18610500Y-1224919D01*
X18575894Y-1050944D01*
X18552965Y-995589D01*
X18527499Y-934108D01*
X18508013Y-887063D01*
X18409464Y-739575D01*
X18409459Y-739569D01*
X18305251Y-635361D01*
X18282413Y-586385D01*
X18296399Y-534187D01*
X18340665Y-503192D01*
X18361112Y-500500D01*
X39934108Y-500500D01*
X39995565Y-500500D01*
X40004410Y-500997D01*
X40023891Y-503192D01*
X40102303Y-512027D01*
X40119547Y-515962D01*
X40208323Y-547026D01*
X40224261Y-554702D01*
X40303898Y-604741D01*
X40317729Y-615771D01*
X40384228Y-682270D01*
X40395258Y-696101D01*
X40445297Y-775738D01*
X40452973Y-791676D01*
X40484036Y-880450D01*
X40487972Y-897696D01*
X40499003Y-995589D01*
X40499500Y-1004435D01*
X40499500Y-14396703D01*
X40481018Y-14447483D01*
X40434218Y-14474503D01*
X40381000Y-14465119D01*
X40346264Y-14423723D01*
X40344192Y-14417150D01*
X40319799Y-14326114D01*
X40319799Y-14326113D01*
X40265339Y-14231785D01*
X40260490Y-14223386D01*
X40260489Y-14223385D01*
X40260488Y-14223383D01*
X40023639Y-13986534D01*
X40000801Y-13937558D01*
X40000500Y-13930673D01*
X40000500Y-13920945D01*
X40000500Y-13920943D01*
X39959577Y-13768216D01*
X39880520Y-13631284D01*
X39880519Y-13631283D01*
X39880518Y-13631281D01*
X39768718Y-13519481D01*
X39631785Y-13440423D01*
X39631783Y-13440422D01*
X39479057Y-13399500D01*
X39320943Y-13399500D01*
X39320942Y-13399500D01*
X39168216Y-13440422D01*
X39168214Y-13440423D01*
X39031281Y-13519481D01*
X38919481Y-13631281D01*
X38840423Y-13768214D01*
X38840422Y-13768216D01*
X38799500Y-13920942D01*
X38799500Y-14079057D01*
X38840422Y-14231783D01*
X38840423Y-14231785D01*
X38919481Y-14368718D01*
X39031281Y-14480518D01*
X39031283Y-14480519D01*
X39031284Y-14480520D01*
X39168216Y-14559577D01*
X39320943Y-14600500D01*
X39330673Y-14600500D01*
X39346878Y-14606398D01*
X39364059Y-14607901D01*
X39378186Y-14617793D01*
X39381453Y-14618982D01*
X39386534Y-14623638D01*
X39426361Y-14663464D01*
X39449199Y-14712440D01*
X39449500Y-14719326D01*
X39449500Y-19580674D01*
X39431018Y-19631454D01*
X39426361Y-19636535D01*
X38179512Y-20883383D01*
X38120200Y-20986113D01*
X38120201Y-20986113D01*
X38120201Y-20986114D01*
X38089500Y-21100690D01*
X38089500Y-21900731D01*
X38071018Y-21951511D01*
X38066361Y-21956592D01*
X37995890Y-22027062D01*
X37995884Y-22027069D01*
X37919225Y-22141798D01*
X37919222Y-22141804D01*
X37866420Y-22269279D01*
X37866419Y-22269281D01*
X37839500Y-22404617D01*
X37839500Y-23452516D01*
X37821018Y-23503296D01*
X37774218Y-23530316D01*
X37721000Y-23520932D01*
X37686264Y-23479536D01*
X37684192Y-23472962D01*
X37658376Y-23376616D01*
X37646281Y-23331475D01*
X37570515Y-23200245D01*
X37570514Y-23200244D01*
X37570513Y-23200242D01*
X37463367Y-23093096D01*
X37332136Y-23017329D01*
X37332132Y-23017328D01*
X37185768Y-22978110D01*
X37185766Y-22978110D01*
X37034234Y-22978110D01*
X37034231Y-22978110D01*
X36887867Y-23017328D01*
X36887863Y-23017329D01*
X36756632Y-23093096D01*
X36649486Y-23200242D01*
X36573719Y-23331473D01*
X36573718Y-23331477D01*
X36534500Y-23477841D01*
X36534500Y-23629378D01*
X36573718Y-23775742D01*
X36573719Y-23775746D01*
X36649486Y-23906977D01*
X36756632Y-24014123D01*
X36756634Y-24014124D01*
X36756635Y-24014125D01*
X36887865Y-24089891D01*
X37034234Y-24129110D01*
X37034236Y-24129110D01*
X37185764Y-24129110D01*
X37185766Y-24129110D01*
X37332135Y-24089891D01*
X37463365Y-24014125D01*
X37570515Y-23906975D01*
X37646281Y-23775745D01*
X37684784Y-23632047D01*
X37715779Y-23587781D01*
X37767977Y-23573795D01*
X37816953Y-23596632D01*
X37837055Y-23639132D01*
X37838743Y-23638797D01*
X37866419Y-23777938D01*
X37866420Y-23777940D01*
X37919222Y-23905415D01*
X37919225Y-23905421D01*
X37995884Y-24020150D01*
X37995890Y-24020157D01*
X38093452Y-24117719D01*
X38093459Y-24117725D01*
X38110498Y-24129110D01*
X38208189Y-24194385D01*
X38208194Y-24194387D01*
X38335669Y-24247189D01*
X38335671Y-24247190D01*
X38471007Y-24274110D01*
X38608993Y-24274110D01*
X38744328Y-24247190D01*
X38744330Y-24247189D01*
X38774404Y-24234732D01*
X38871811Y-24194385D01*
X38986542Y-24117724D01*
X39084114Y-24020152D01*
X39160775Y-23905421D01*
X39213580Y-23777938D01*
X39240500Y-23642603D01*
X39240500Y-22404617D01*
X39223765Y-22320483D01*
X39213580Y-22269281D01*
X39213579Y-22269279D01*
X39160777Y-22141804D01*
X39160774Y-22141798D01*
X39138089Y-22107848D01*
X39084114Y-22027068D01*
X39084109Y-22027062D01*
X39013639Y-21956592D01*
X38990801Y-21907616D01*
X38990500Y-21900731D01*
X38990500Y-21379325D01*
X39008982Y-21328545D01*
X39013639Y-21323464D01*
X40260487Y-20076616D01*
X40260489Y-20076614D01*
X40300904Y-20006613D01*
X40319799Y-19973886D01*
X40345036Y-19879699D01*
X40346131Y-19876645D01*
X40361443Y-19858211D01*
X40375187Y-19838583D01*
X40378481Y-19837700D01*
X40380661Y-19835077D01*
X40404239Y-19830798D01*
X40427385Y-19824597D01*
X40430475Y-19826038D01*
X40433832Y-19825429D01*
X40454645Y-19837308D01*
X40476361Y-19847434D01*
X40477802Y-19850525D01*
X40480765Y-19852216D01*
X40489073Y-19874695D01*
X40499199Y-19896410D01*
X40499480Y-19902854D01*
X40499499Y-19902904D01*
X40499486Y-19902979D01*
X40499500Y-19903296D01*
X40499500Y-27995564D01*
X40499003Y-28004410D01*
X40487972Y-28102303D01*
X40484036Y-28119549D01*
X40452973Y-28208323D01*
X40445297Y-28224261D01*
X40395258Y-28303898D01*
X40384228Y-28317729D01*
X40317729Y-28384228D01*
X40303898Y-28395258D01*
X40224261Y-28445297D01*
X40208323Y-28452973D01*
X40119549Y-28484036D01*
X40102303Y-28487972D01*
X40004411Y-28499003D01*
X39995565Y-28499500D01*
X18031846Y-28499500D01*
X17981066Y-28481018D01*
X17954046Y-28434218D01*
X17963430Y-28381000D01*
X18001614Y-28347514D01*
X18073521Y-28317729D01*
X18136547Y-28291623D01*
X18284035Y-28193074D01*
X18409464Y-28067645D01*
X18508013Y-27920157D01*
X18575894Y-27756276D01*
X18610500Y-27582301D01*
X18610500Y-27418597D01*
X25173500Y-27418597D01*
X25173500Y-27581403D01*
X25205262Y-27741081D01*
X25267565Y-27891495D01*
X25267566Y-27891496D01*
X25358014Y-28026861D01*
X25358020Y-28026868D01*
X25473131Y-28141979D01*
X25473137Y-28141984D01*
X25608505Y-28232435D01*
X25758919Y-28294738D01*
X25918597Y-28326500D01*
X26081403Y-28326500D01*
X26241081Y-28294738D01*
X26391495Y-28232435D01*
X26526863Y-28141984D01*
X26641984Y-28026863D01*
X26732435Y-27891495D01*
X26794738Y-27741081D01*
X26826500Y-27581403D01*
X26826500Y-27418597D01*
X26794738Y-27258919D01*
X26732435Y-27108505D01*
X26641984Y-26973137D01*
X26641979Y-26973131D01*
X26526868Y-26858020D01*
X26526861Y-26858014D01*
X26491845Y-26834617D01*
X29199500Y-26834617D01*
X29199500Y-27572603D01*
X29201429Y-27582300D01*
X29226419Y-27707938D01*
X29226420Y-27707940D01*
X29279222Y-27835415D01*
X29279225Y-27835421D01*
X29355884Y-27950150D01*
X29355890Y-27950157D01*
X29453452Y-28047719D01*
X29453458Y-28047724D01*
X29568189Y-28124385D01*
X29568194Y-28124387D01*
X29695669Y-28177189D01*
X29695671Y-28177190D01*
X29831007Y-28204110D01*
X29968993Y-28204110D01*
X30104328Y-28177190D01*
X30104330Y-28177189D01*
X30231811Y-28124385D01*
X30346542Y-28047724D01*
X30444114Y-27950152D01*
X30520775Y-27835421D01*
X30573580Y-27707938D01*
X30600500Y-27572603D01*
X30600500Y-26834617D01*
X37839500Y-26834617D01*
X37839500Y-27572603D01*
X37841429Y-27582300D01*
X37866419Y-27707938D01*
X37866420Y-27707940D01*
X37919222Y-27835415D01*
X37919225Y-27835421D01*
X37995884Y-27950150D01*
X37995890Y-27950157D01*
X38093452Y-28047719D01*
X38093458Y-28047724D01*
X38208189Y-28124385D01*
X38208194Y-28124387D01*
X38335669Y-28177189D01*
X38335671Y-28177190D01*
X38471007Y-28204110D01*
X38608993Y-28204110D01*
X38744328Y-28177190D01*
X38744330Y-28177189D01*
X38871811Y-28124385D01*
X38986542Y-28047724D01*
X39084114Y-27950152D01*
X39160775Y-27835421D01*
X39213580Y-27707938D01*
X39240500Y-27572603D01*
X39240500Y-26834617D01*
X39227163Y-26767566D01*
X39213580Y-26699281D01*
X39213579Y-26699279D01*
X39160777Y-26571804D01*
X39160774Y-26571798D01*
X39084115Y-26457069D01*
X39084109Y-26457062D01*
X38986547Y-26359500D01*
X38986540Y-26359494D01*
X38871811Y-26282835D01*
X38871805Y-26282832D01*
X38744330Y-26230030D01*
X38744328Y-26230029D01*
X38608993Y-26203110D01*
X38471007Y-26203110D01*
X38335671Y-26230029D01*
X38335669Y-26230030D01*
X38208194Y-26282832D01*
X38208188Y-26282835D01*
X38093459Y-26359494D01*
X38093452Y-26359500D01*
X37995890Y-26457062D01*
X37995884Y-26457069D01*
X37919225Y-26571798D01*
X37919222Y-26571804D01*
X37866420Y-26699279D01*
X37866419Y-26699281D01*
X37847550Y-26794146D01*
X37839500Y-26834617D01*
X30600500Y-26834617D01*
X30587163Y-26767566D01*
X30573580Y-26699281D01*
X30573579Y-26699279D01*
X30520777Y-26571804D01*
X30520774Y-26571798D01*
X30444115Y-26457069D01*
X30444109Y-26457062D01*
X30346547Y-26359500D01*
X30346540Y-26359494D01*
X30231811Y-26282835D01*
X30231805Y-26282832D01*
X30104330Y-26230030D01*
X30104328Y-26230029D01*
X29968993Y-26203110D01*
X29831007Y-26203110D01*
X29695671Y-26230029D01*
X29695669Y-26230030D01*
X29568194Y-26282832D01*
X29568188Y-26282835D01*
X29453459Y-26359494D01*
X29453452Y-26359500D01*
X29355890Y-26457062D01*
X29355884Y-26457069D01*
X29279225Y-26571798D01*
X29279222Y-26571804D01*
X29226420Y-26699279D01*
X29226419Y-26699281D01*
X29207550Y-26794146D01*
X29199500Y-26834617D01*
X26491845Y-26834617D01*
X26391496Y-26767566D01*
X26391497Y-26767566D01*
X26391495Y-26767565D01*
X26241081Y-26705262D01*
X26241079Y-26705261D01*
X26241078Y-26705261D01*
X26081403Y-26673500D01*
X25918597Y-26673500D01*
X25758921Y-26705261D01*
X25608503Y-26767566D01*
X25473138Y-26858014D01*
X25473131Y-26858020D01*
X25358020Y-26973131D01*
X25358014Y-26973138D01*
X25267566Y-27108503D01*
X25205261Y-27258921D01*
X25176221Y-27404919D01*
X25173500Y-27418597D01*
X18610500Y-27418597D01*
X18610500Y-27404919D01*
X18575894Y-27230944D01*
X18508013Y-27067063D01*
X18409464Y-26919575D01*
X18409459Y-26919569D01*
X18284040Y-26794150D01*
X18284033Y-26794144D01*
X18185709Y-26728446D01*
X18136547Y-26695597D01*
X18136544Y-26695596D01*
X18136543Y-26695595D01*
X17972668Y-26627716D01*
X17972666Y-26627715D01*
X17798691Y-26593110D01*
X17621309Y-26593110D01*
X17447333Y-26627715D01*
X17447331Y-26627716D01*
X17283456Y-26695595D01*
X17283451Y-26695598D01*
X17135966Y-26794144D01*
X17135959Y-26794150D01*
X17010540Y-26919569D01*
X17010534Y-26919576D01*
X16911988Y-27067061D01*
X16911985Y-27067066D01*
X16844106Y-27230941D01*
X16844105Y-27230943D01*
X16809500Y-27404919D01*
X16809500Y-27582300D01*
X16844105Y-27756276D01*
X16844106Y-27756278D01*
X16900115Y-27891495D01*
X16911987Y-27920157D01*
X16944836Y-27969319D01*
X17010534Y-28067643D01*
X17010540Y-28067650D01*
X17135959Y-28193069D01*
X17135966Y-28193075D01*
X17171361Y-28216725D01*
X17283453Y-28291623D01*
X17313088Y-28303898D01*
X17418386Y-28347514D01*
X17458228Y-28384022D01*
X17465281Y-28437599D01*
X17436246Y-28483175D01*
X17388154Y-28499500D01*
X9051846Y-28499500D01*
X9001066Y-28481018D01*
X8974046Y-28434218D01*
X8983430Y-28381000D01*
X9021614Y-28347514D01*
X9093521Y-28317729D01*
X9156547Y-28291623D01*
X9304035Y-28193074D01*
X9429464Y-28067645D01*
X9528013Y-27920157D01*
X9595894Y-27756276D01*
X9630500Y-27582301D01*
X9630500Y-27404919D01*
X9595894Y-27230944D01*
X9528013Y-27067063D01*
X9429464Y-26919575D01*
X9429459Y-26919569D01*
X9304040Y-26794150D01*
X9304033Y-26794144D01*
X9205709Y-26728446D01*
X9156547Y-26695597D01*
X9156544Y-26695596D01*
X9156543Y-26695595D01*
X8992668Y-26627716D01*
X8992666Y-26627715D01*
X8818691Y-26593110D01*
X8641309Y-26593110D01*
X8467333Y-26627715D01*
X8467331Y-26627716D01*
X8303456Y-26695595D01*
X8303451Y-26695598D01*
X8155966Y-26794144D01*
X8155959Y-26794150D01*
X8030540Y-26919569D01*
X8030534Y-26919576D01*
X7931988Y-27067061D01*
X7931985Y-27067066D01*
X7864106Y-27230941D01*
X7864105Y-27230943D01*
X7829500Y-27404919D01*
X7829500Y-27582300D01*
X7864105Y-27756276D01*
X7864106Y-27756278D01*
X7920115Y-27891495D01*
X7931987Y-27920157D01*
X7964836Y-27969319D01*
X8030534Y-28067643D01*
X8030540Y-28067650D01*
X8155959Y-28193069D01*
X8155966Y-28193075D01*
X8191361Y-28216725D01*
X8303453Y-28291623D01*
X8333088Y-28303898D01*
X8438386Y-28347514D01*
X8478228Y-28384022D01*
X8485281Y-28437599D01*
X8456246Y-28483175D01*
X8408154Y-28499500D01*
X1004435Y-28499500D01*
X995589Y-28499003D01*
X897696Y-28487972D01*
X880450Y-28484036D01*
X791676Y-28452973D01*
X775738Y-28445297D01*
X696101Y-28395258D01*
X682270Y-28384228D01*
X615771Y-28317729D01*
X604741Y-28303898D01*
X554702Y-28224261D01*
X547026Y-28208323D01*
X541690Y-28193074D01*
X515962Y-28119547D01*
X512027Y-28102302D01*
X500997Y-28004409D01*
X500500Y-27995564D01*
X500500Y-24621291D01*
X2149499Y-24621291D01*
X2181160Y-24861781D01*
X2243943Y-25096092D01*
X2243944Y-25096095D01*
X2336776Y-25320213D01*
X2458061Y-25530284D01*
X2458064Y-25530289D01*
X2552952Y-25653950D01*
X2605733Y-25722736D01*
X2605738Y-25722742D01*
X2777257Y-25894261D01*
X2777262Y-25894265D01*
X2969711Y-26041936D01*
X3179788Y-26163224D01*
X3403900Y-26256054D01*
X3638211Y-26318838D01*
X3638217Y-26318838D01*
X3638218Y-26318839D01*
X3878708Y-26350500D01*
X3878712Y-26350500D01*
X4121291Y-26350500D01*
X4361781Y-26318839D01*
X4361780Y-26318839D01*
X4361789Y-26318838D01*
X4596100Y-26256054D01*
X4820212Y-26163224D01*
X5030289Y-26041936D01*
X5222738Y-25894265D01*
X5394265Y-25722738D01*
X5541936Y-25530289D01*
X5663224Y-25320212D01*
X5756054Y-25096100D01*
X5818838Y-24861789D01*
X5850500Y-24621288D01*
X5850500Y-24378712D01*
X5850500Y-24378708D01*
X5818839Y-24138218D01*
X5818838Y-24138217D01*
X5818838Y-24138211D01*
X5763391Y-23931281D01*
X5756056Y-23903907D01*
X5756055Y-23903904D01*
X5756054Y-23903900D01*
X5663224Y-23679788D01*
X5639756Y-23639141D01*
X5593820Y-23559577D01*
X5541936Y-23469711D01*
X5394265Y-23277262D01*
X5394261Y-23277257D01*
X5222742Y-23105738D01*
X5222736Y-23105733D01*
X5126914Y-23032207D01*
X5030289Y-22958064D01*
X5030284Y-22958061D01*
X4820213Y-22836776D01*
X4596095Y-22743944D01*
X4596092Y-22743943D01*
X4377396Y-22685344D01*
X4361789Y-22681162D01*
X4361787Y-22681161D01*
X4361781Y-22681160D01*
X4121291Y-22649500D01*
X4121288Y-22649500D01*
X3878712Y-22649500D01*
X3878709Y-22649500D01*
X3638218Y-22681160D01*
X3403907Y-22743943D01*
X3403904Y-22743944D01*
X3179786Y-22836776D01*
X2969715Y-22958061D01*
X2777263Y-23105733D01*
X2777257Y-23105738D01*
X2605738Y-23277257D01*
X2605733Y-23277263D01*
X2458061Y-23469715D01*
X2336776Y-23679786D01*
X2243944Y-23903904D01*
X2243943Y-23903907D01*
X2181160Y-24138218D01*
X2149500Y-24378708D01*
X2149500Y-24378712D01*
X2149500Y-24621288D01*
X2149500Y-24621291D01*
X2149499Y-24621291D01*
X500500Y-24621291D01*
X500500Y-21454919D01*
X8189500Y-21454919D01*
X8189500Y-21632301D01*
X8191116Y-21640423D01*
X8224105Y-21806276D01*
X8224106Y-21806278D01*
X8291985Y-21970153D01*
X8291988Y-21970158D01*
X8390534Y-22117643D01*
X8390540Y-22117650D01*
X8515959Y-22243069D01*
X8515965Y-22243074D01*
X8663453Y-22341623D01*
X8729811Y-22369109D01*
X8827331Y-22409503D01*
X8827333Y-22409504D01*
X9001309Y-22444110D01*
X9178691Y-22444110D01*
X9352666Y-22409504D01*
X9352668Y-22409503D01*
X9516547Y-22341623D01*
X9664035Y-22243074D01*
X9789464Y-22117645D01*
X9888013Y-21970157D01*
X9955894Y-21806276D01*
X9990500Y-21632301D01*
X9990500Y-21454919D01*
X9975463Y-21379325D01*
X9955894Y-21280943D01*
X9955893Y-21280941D01*
X9888014Y-21117066D01*
X9888013Y-21117063D01*
X9800515Y-20986114D01*
X9789465Y-20969576D01*
X9789459Y-20969569D01*
X9787184Y-20967294D01*
X9764346Y-20918318D01*
X9778332Y-20866120D01*
X9822596Y-20835126D01*
X9842135Y-20829891D01*
X9973365Y-20754125D01*
X10080515Y-20646975D01*
X10156281Y-20515745D01*
X10195500Y-20369376D01*
X10195500Y-20217844D01*
X10156281Y-20071475D01*
X10080515Y-19940245D01*
X10080514Y-19940244D01*
X10080513Y-19940242D01*
X9973367Y-19833096D01*
X9842136Y-19757329D01*
X9842132Y-19757328D01*
X9695768Y-19718110D01*
X9695766Y-19718110D01*
X9544234Y-19718110D01*
X9544231Y-19718110D01*
X9397867Y-19757328D01*
X9397863Y-19757329D01*
X9266632Y-19833096D01*
X9159486Y-19940242D01*
X9083719Y-20071473D01*
X9083718Y-20071477D01*
X9044500Y-20217841D01*
X9044500Y-20369378D01*
X9083718Y-20515742D01*
X9083719Y-20515746D01*
X9088837Y-20524610D01*
X9098221Y-20577828D01*
X9071201Y-20624628D01*
X9020421Y-20643110D01*
X9001309Y-20643110D01*
X8827333Y-20677715D01*
X8827331Y-20677716D01*
X8663456Y-20745595D01*
X8663451Y-20745598D01*
X8515966Y-20844144D01*
X8515959Y-20844150D01*
X8390540Y-20969569D01*
X8390534Y-20969576D01*
X8291988Y-21117061D01*
X8291985Y-21117066D01*
X8224106Y-21280941D01*
X8224105Y-21280943D01*
X8189500Y-21454919D01*
X500500Y-21454919D01*
X500500Y-12918597D01*
X1173500Y-12918597D01*
X1173500Y-13081403D01*
X1180225Y-13115212D01*
X1192924Y-13179057D01*
X1205262Y-13241081D01*
X1267565Y-13391495D01*
X1267566Y-13391496D01*
X1358014Y-13526861D01*
X1358020Y-13526868D01*
X1473131Y-13641979D01*
X1473138Y-13641985D01*
X1487805Y-13651785D01*
X1608505Y-13732435D01*
X1758919Y-13794738D01*
X1918597Y-13826500D01*
X2081403Y-13826500D01*
X2241081Y-13794738D01*
X2391495Y-13732435D01*
X2526863Y-13641984D01*
X2641984Y-13526863D01*
X2732435Y-13391495D01*
X2794738Y-13241081D01*
X2826500Y-13081403D01*
X2826500Y-12918597D01*
X2794738Y-12758919D01*
X2732435Y-12608505D01*
X2667459Y-12511263D01*
X2641985Y-12473138D01*
X2641979Y-12473131D01*
X2526868Y-12358020D01*
X2526861Y-12358014D01*
X2391496Y-12267566D01*
X2391497Y-12267566D01*
X2391495Y-12267565D01*
X2241081Y-12205262D01*
X2241079Y-12205261D01*
X2241078Y-12205261D01*
X2081403Y-12173500D01*
X1918597Y-12173500D01*
X1758921Y-12205261D01*
X1608503Y-12267566D01*
X1473138Y-12358014D01*
X1473131Y-12358020D01*
X1358020Y-12473131D01*
X1358014Y-12473138D01*
X1267566Y-12608503D01*
X1205261Y-12758921D01*
X1183522Y-12868214D01*
X1173500Y-12918597D01*
X500500Y-12918597D01*
X500500Y-11664903D01*
X6959500Y-11664903D01*
X6959500Y-11668401D01*
X6959500Y-16912319D01*
X6986792Y-17014175D01*
X6986793Y-17014179D01*
X7039521Y-17105505D01*
X8058104Y-18124088D01*
X8058106Y-18124089D01*
X8058107Y-18124090D01*
X8149432Y-18176817D01*
X8251293Y-18204110D01*
X11675405Y-18204110D01*
X11726185Y-18222592D01*
X11731266Y-18227249D01*
X12574799Y-19070782D01*
X13370963Y-19866945D01*
X13393801Y-19915921D01*
X13379815Y-19968119D01*
X13335549Y-19999114D01*
X13335548Y-19999114D01*
X13206816Y-20033607D01*
X13206812Y-20033608D01*
X13092683Y-20099501D01*
X13055861Y-20136324D01*
X13006885Y-20159162D01*
X12954687Y-20145176D01*
X12944139Y-20136324D01*
X12907316Y-20099501D01*
X12793187Y-20033608D01*
X12793183Y-20033607D01*
X12665894Y-19999500D01*
X12665892Y-19999500D01*
X12534108Y-19999500D01*
X12534105Y-19999500D01*
X12406816Y-20033607D01*
X12406812Y-20033608D01*
X12292683Y-20099501D01*
X12199501Y-20192683D01*
X12133608Y-20306812D01*
X12133607Y-20306816D01*
X12099500Y-20434105D01*
X12099500Y-20565894D01*
X12133607Y-20693183D01*
X12133608Y-20693187D01*
X12163868Y-20745598D01*
X12199500Y-20807314D01*
X12251361Y-20859175D01*
X12274199Y-20908150D01*
X12274500Y-20915036D01*
X12274500Y-23142855D01*
X12296681Y-23225636D01*
X12296682Y-23225640D01*
X12339536Y-23299864D01*
X13520135Y-24480463D01*
X13520137Y-24480464D01*
X13520138Y-24480465D01*
X13594361Y-24523318D01*
X13677147Y-24545500D01*
X13677149Y-24545500D01*
X18702851Y-24545500D01*
X18702853Y-24545500D01*
X18785639Y-24523318D01*
X18850845Y-24485670D01*
X18904061Y-24476287D01*
X18910784Y-24477777D01*
X18920943Y-24480500D01*
X18920944Y-24480500D01*
X19079055Y-24480500D01*
X19079057Y-24480500D01*
X19231784Y-24439577D01*
X19294786Y-24403202D01*
X19348003Y-24393819D01*
X19394802Y-24420838D01*
X19413285Y-24471619D01*
X19394803Y-24522399D01*
X19390147Y-24527480D01*
X19141265Y-24776361D01*
X19092290Y-24799199D01*
X19085405Y-24799500D01*
X12954595Y-24799500D01*
X12903815Y-24781018D01*
X12898734Y-24776361D01*
X11658608Y-23536235D01*
X11635770Y-23487259D01*
X11635469Y-23480374D01*
X11635469Y-22685349D01*
X11635468Y-22685344D01*
X11608176Y-22583487D01*
X11601084Y-22571203D01*
X11590500Y-22531703D01*
X11590500Y-22233335D01*
X11601084Y-22193835D01*
X11629719Y-22144238D01*
X11656503Y-22097847D01*
X11685500Y-21989628D01*
X11685500Y-21877592D01*
X11656503Y-21769373D01*
X11643317Y-21746535D01*
X11627697Y-21719480D01*
X11600485Y-21672347D01*
X11600484Y-21672346D01*
X11600483Y-21672344D01*
X11521265Y-21593126D01*
X11424238Y-21537107D01*
X11424234Y-21537106D01*
X11316020Y-21508110D01*
X11316018Y-21508110D01*
X11203982Y-21508110D01*
X11203979Y-21508110D01*
X11095765Y-21537106D01*
X11095761Y-21537107D01*
X10994253Y-21595714D01*
X10993620Y-21594618D01*
X10947460Y-21609169D01*
X10911413Y-21598660D01*
X10824238Y-21548329D01*
X10824234Y-21548328D01*
X10716020Y-21519332D01*
X10716018Y-21519332D01*
X10603982Y-21519332D01*
X10603979Y-21519332D01*
X10495765Y-21548328D01*
X10495761Y-21548329D01*
X10398734Y-21604348D01*
X10319516Y-21683566D01*
X10263497Y-21780593D01*
X10263496Y-21780597D01*
X10234500Y-21888811D01*
X10234500Y-22000852D01*
X10263496Y-22109066D01*
X10263497Y-22109070D01*
X10283801Y-22144237D01*
X10318809Y-22204873D01*
X10319517Y-22206098D01*
X10322668Y-22210205D01*
X10320550Y-22211829D01*
X10339306Y-22251965D01*
X10339612Y-22258914D01*
X10339612Y-22496760D01*
X10329029Y-22536259D01*
X10301760Y-22583490D01*
X10274469Y-22685344D01*
X10274469Y-23963678D01*
X10301761Y-24065534D01*
X10301762Y-24065538D01*
X10354490Y-24156864D01*
X12278104Y-26080478D01*
X12278106Y-26080479D01*
X12278107Y-26080480D01*
X12369432Y-26133207D01*
X12471293Y-26160500D01*
X12471295Y-26160500D01*
X19568705Y-26160500D01*
X19568707Y-26160500D01*
X19670568Y-26133207D01*
X19761893Y-26080480D01*
X21970480Y-23871893D01*
X22023207Y-23780568D01*
X22050500Y-23678707D01*
X22050500Y-23573253D01*
X22050500Y-22120942D01*
X23499500Y-22120942D01*
X23499500Y-22279057D01*
X23540422Y-22431783D01*
X23540423Y-22431785D01*
X23600741Y-22536259D01*
X23619480Y-22568716D01*
X23626359Y-22575595D01*
X23649199Y-22624569D01*
X23649500Y-22631458D01*
X23649500Y-23159309D01*
X23666670Y-23223387D01*
X23666670Y-23223388D01*
X23680200Y-23273884D01*
X23680201Y-23273888D01*
X23739512Y-23376616D01*
X23956881Y-23593985D01*
X23979719Y-23642961D01*
X23965733Y-23695159D01*
X23921467Y-23726154D01*
X23868216Y-23740422D01*
X23868214Y-23740423D01*
X23731281Y-23819481D01*
X23619481Y-23931281D01*
X23540423Y-24068214D01*
X23540422Y-24068216D01*
X23499500Y-24220942D01*
X23499500Y-24379057D01*
X23540422Y-24531783D01*
X23540423Y-24531785D01*
X23619481Y-24668718D01*
X23731281Y-24780518D01*
X23731283Y-24780519D01*
X23731284Y-24780520D01*
X23868216Y-24859577D01*
X24020943Y-24900500D01*
X24020945Y-24900500D01*
X24179055Y-24900500D01*
X24179057Y-24900500D01*
X24331784Y-24859577D01*
X24468716Y-24780520D01*
X24468718Y-24780518D01*
X24475598Y-24773639D01*
X24524574Y-24750801D01*
X24531459Y-24750500D01*
X27380675Y-24750500D01*
X27431455Y-24768982D01*
X27436536Y-24773639D01*
X28423383Y-25760487D01*
X28423385Y-25760488D01*
X28423386Y-25760489D01*
X28526113Y-25819799D01*
X28550326Y-25826286D01*
X28640691Y-25850500D01*
X28640692Y-25850500D01*
X32259308Y-25850500D01*
X32259309Y-25850500D01*
X32334854Y-25830256D01*
X32349670Y-25826287D01*
X32349670Y-25826286D01*
X32349673Y-25826286D01*
X32373887Y-25819799D01*
X32476614Y-25760489D01*
X32860489Y-25376614D01*
X36050489Y-22186614D01*
X36109799Y-22083887D01*
X36125023Y-22027069D01*
X36127899Y-22016337D01*
X36127899Y-22016336D01*
X36132048Y-22000852D01*
X36140500Y-21969309D01*
X36140500Y-20161458D01*
X36158982Y-20110678D01*
X36163630Y-20105605D01*
X36170520Y-20098716D01*
X36249577Y-19961784D01*
X36290500Y-19809057D01*
X36290500Y-19650943D01*
X36249577Y-19498216D01*
X36170520Y-19361284D01*
X36170519Y-19361283D01*
X36170518Y-19361281D01*
X36058718Y-19249481D01*
X35921785Y-19170423D01*
X35921783Y-19170422D01*
X35824058Y-19144237D01*
X35779792Y-19113241D01*
X35765806Y-19061043D01*
X35788644Y-19012067D01*
X35834193Y-18989606D01*
X35845922Y-18988062D01*
X35872291Y-18982817D01*
X35892211Y-18977479D01*
X35917660Y-18968839D01*
X36019028Y-18926851D01*
X36043133Y-18914964D01*
X36060993Y-18904653D01*
X36083348Y-18889717D01*
X36170402Y-18822918D01*
X36190611Y-18805194D01*
X36205194Y-18790611D01*
X36222918Y-18770402D01*
X36289717Y-18683348D01*
X36304653Y-18660993D01*
X36314964Y-18643133D01*
X36326851Y-18619028D01*
X36368839Y-18517660D01*
X36377479Y-18492211D01*
X36382817Y-18472291D01*
X36388062Y-18445923D01*
X36403066Y-18331959D01*
X36404384Y-18318578D01*
X36405060Y-18308266D01*
X36405500Y-18294823D01*
X36405500Y-16705176D01*
X36405060Y-16691733D01*
X36404384Y-16681421D01*
X36403066Y-16668040D01*
X36388062Y-16554076D01*
X36382817Y-16527708D01*
X36377479Y-16507788D01*
X36368839Y-16482339D01*
X36326851Y-16380971D01*
X36314964Y-16356866D01*
X36304653Y-16339006D01*
X36289717Y-16316651D01*
X36260870Y-16279057D01*
X36222924Y-16229604D01*
X36222918Y-16229597D01*
X36205194Y-16209388D01*
X36205188Y-16209382D01*
X36205179Y-16209372D01*
X36190626Y-16194819D01*
X36190608Y-16194803D01*
X36170402Y-16177081D01*
X36170397Y-16177077D01*
X36170394Y-16177074D01*
X36083353Y-16110286D01*
X36083348Y-16110282D01*
X36068377Y-16100279D01*
X36060992Y-16095345D01*
X36054453Y-16091570D01*
X36043133Y-16085035D01*
X36043122Y-16085029D01*
X36043112Y-16085024D01*
X36019046Y-16073156D01*
X36019032Y-16073150D01*
X36019030Y-16073149D01*
X36019028Y-16073148D01*
X35917660Y-16031160D01*
X35892216Y-16022522D01*
X35872298Y-16017184D01*
X35872287Y-16017181D01*
X35845935Y-16011938D01*
X35731966Y-15996934D01*
X35731960Y-15996933D01*
X35731957Y-15996933D01*
X35729126Y-15996654D01*
X35718543Y-15995612D01*
X35708259Y-15994939D01*
X35698659Y-15994625D01*
X35694824Y-15994500D01*
X32905176Y-15994500D01*
X32901340Y-15994625D01*
X32891742Y-15994939D01*
X32881450Y-15995613D01*
X32868035Y-15996933D01*
X32754083Y-16011936D01*
X32754061Y-16011940D01*
X32727721Y-16017179D01*
X32707795Y-16022518D01*
X32682356Y-16031152D01*
X32682354Y-16031153D01*
X32682346Y-16031156D01*
X32682341Y-16031158D01*
X32654177Y-16042824D01*
X32580965Y-16073149D01*
X32556874Y-16085029D01*
X32556847Y-16085044D01*
X32539005Y-16095345D01*
X32539001Y-16095347D01*
X32516650Y-16110282D01*
X32429600Y-16177077D01*
X32409389Y-16194803D01*
X32409368Y-16194822D01*
X32394822Y-16209368D01*
X32394803Y-16209389D01*
X32377087Y-16229590D01*
X32377074Y-16229605D01*
X32339128Y-16279057D01*
X32311056Y-16315641D01*
X32311003Y-16315711D01*
X32310965Y-16315760D01*
X32310187Y-16316774D01*
X32295341Y-16339012D01*
X32285039Y-16356856D01*
X32285029Y-16356874D01*
X32273149Y-16380965D01*
X32252099Y-16431785D01*
X32234249Y-16474880D01*
X32231153Y-16482354D01*
X32231152Y-16482356D01*
X32222517Y-16507798D01*
X32217179Y-16527724D01*
X32217177Y-16527729D01*
X32211942Y-16554051D01*
X32211936Y-16554086D01*
X32196935Y-16668026D01*
X32195616Y-16681425D01*
X32194940Y-16691727D01*
X32194500Y-16705186D01*
X32194500Y-18294811D01*
X32194940Y-18308272D01*
X32195615Y-18318570D01*
X32196936Y-18331976D01*
X32211936Y-18445918D01*
X32214560Y-18459110D01*
X32217184Y-18472298D01*
X32222522Y-18492216D01*
X32231160Y-18517660D01*
X32273148Y-18619028D01*
X32273150Y-18619032D01*
X32273156Y-18619046D01*
X32285024Y-18643112D01*
X32285029Y-18643122D01*
X32285035Y-18643133D01*
X32295346Y-18660993D01*
X32310282Y-18683348D01*
X32310286Y-18683353D01*
X32377074Y-18770394D01*
X32377080Y-18770401D01*
X32377081Y-18770402D01*
X32386777Y-18781458D01*
X32394800Y-18790605D01*
X32394819Y-18790626D01*
X32409372Y-18805179D01*
X32409382Y-18805188D01*
X32409388Y-18805194D01*
X32409393Y-18805198D01*
X32429604Y-18822924D01*
X32483006Y-18863900D01*
X32516651Y-18889717D01*
X32539006Y-18904653D01*
X32556866Y-18914964D01*
X32556883Y-18914972D01*
X32556886Y-18914974D01*
X32580952Y-18926842D01*
X32580957Y-18926844D01*
X32580971Y-18926851D01*
X32682339Y-18968839D01*
X32707788Y-18977479D01*
X32710935Y-18978322D01*
X32755201Y-19009319D01*
X32769186Y-19061517D01*
X32746347Y-19110493D01*
X32710934Y-19130938D01*
X32638216Y-19150422D01*
X32638214Y-19150423D01*
X32501281Y-19229481D01*
X32389481Y-19341281D01*
X32310423Y-19478214D01*
X32310422Y-19478216D01*
X32269500Y-19630942D01*
X32269500Y-19789057D01*
X32310422Y-19941783D01*
X32310423Y-19941785D01*
X32389479Y-20078715D01*
X32389480Y-20078716D01*
X32396359Y-20085595D01*
X32419199Y-20134569D01*
X32419500Y-20141458D01*
X32419500Y-23310675D01*
X32401018Y-23361455D01*
X32396371Y-23366525D01*
X32203321Y-23559576D01*
X32030515Y-23732382D01*
X31981539Y-23755219D01*
X31929341Y-23741233D01*
X31898346Y-23696967D01*
X31898346Y-23656075D01*
X31905500Y-23629376D01*
X31905500Y-23477844D01*
X31866281Y-23331475D01*
X31790515Y-23200245D01*
X31790514Y-23200244D01*
X31790513Y-23200242D01*
X31683367Y-23093096D01*
X31552136Y-23017329D01*
X31552132Y-23017328D01*
X31405768Y-22978110D01*
X31405766Y-22978110D01*
X31254234Y-22978110D01*
X31254231Y-22978110D01*
X31107867Y-23017328D01*
X31107863Y-23017329D01*
X30976632Y-23093096D01*
X30869486Y-23200242D01*
X30793719Y-23331473D01*
X30793718Y-23331477D01*
X30755808Y-23472962D01*
X30724813Y-23517229D01*
X30672615Y-23531215D01*
X30623639Y-23508378D01*
X30600801Y-23459402D01*
X30600500Y-23452516D01*
X30600500Y-22404617D01*
X30573580Y-22269281D01*
X30573579Y-22269279D01*
X30520777Y-22141804D01*
X30520774Y-22141798D01*
X30498089Y-22107848D01*
X30444114Y-22027068D01*
X30444109Y-22027062D01*
X30346547Y-21929500D01*
X30346540Y-21929494D01*
X30231811Y-21852835D01*
X30231805Y-21852832D01*
X30104330Y-21800030D01*
X30104328Y-21800029D01*
X29968993Y-21773110D01*
X29831007Y-21773110D01*
X29695671Y-21800029D01*
X29695669Y-21800030D01*
X29568194Y-21852832D01*
X29568188Y-21852835D01*
X29453459Y-21929494D01*
X29453452Y-21929500D01*
X29355890Y-22027062D01*
X29355884Y-22027069D01*
X29279225Y-22141798D01*
X29279222Y-22141804D01*
X29226420Y-22269279D01*
X29226419Y-22269281D01*
X29199500Y-22404617D01*
X29199500Y-23642602D01*
X29226419Y-23777938D01*
X29226420Y-23777940D01*
X29279222Y-23905415D01*
X29279225Y-23905421D01*
X29310241Y-23951840D01*
X29323085Y-24004331D01*
X29299184Y-24052797D01*
X29249721Y-24074561D01*
X29197841Y-24059439D01*
X29188694Y-24051591D01*
X28276616Y-23139512D01*
X28173888Y-23080201D01*
X28173883Y-23080199D01*
X28148621Y-23073431D01*
X28148620Y-23073430D01*
X28148620Y-23073431D01*
X28059309Y-23049500D01*
X24719325Y-23049500D01*
X24703117Y-23043601D01*
X24685938Y-23042098D01*
X24671813Y-23032207D01*
X24668545Y-23031018D01*
X24663464Y-23026361D01*
X24573639Y-22936536D01*
X24550801Y-22887560D01*
X24550500Y-22880675D01*
X24550500Y-22631458D01*
X24568982Y-22580678D01*
X24573630Y-22575605D01*
X24580520Y-22568716D01*
X24659577Y-22431784D01*
X24700500Y-22279057D01*
X24700500Y-22120943D01*
X24700500Y-22120942D01*
X24999500Y-22120942D01*
X24999500Y-22279057D01*
X25040422Y-22431783D01*
X25040423Y-22431785D01*
X25119481Y-22568718D01*
X25231281Y-22680518D01*
X25231283Y-22680519D01*
X25231284Y-22680520D01*
X25259276Y-22696681D01*
X25341138Y-22743944D01*
X25368216Y-22759577D01*
X25520943Y-22800500D01*
X25520945Y-22800500D01*
X25679055Y-22800500D01*
X25679057Y-22800500D01*
X25831784Y-22759577D01*
X25968716Y-22680520D01*
X26080520Y-22568716D01*
X26159577Y-22431784D01*
X26200500Y-22279057D01*
X26200500Y-22269325D01*
X26218982Y-22218545D01*
X26223639Y-22213464D01*
X26697988Y-21739115D01*
X26697990Y-21739113D01*
X26757299Y-21636386D01*
X26758394Y-21632301D01*
X26788000Y-21521809D01*
X26788000Y-17681824D01*
X26806482Y-17631044D01*
X26811128Y-17625974D01*
X30485338Y-13951763D01*
X30501689Y-13939216D01*
X30568716Y-13900520D01*
X30680520Y-13788716D01*
X30759577Y-13651784D01*
X30800500Y-13499057D01*
X30800500Y-13340943D01*
X30759577Y-13188216D01*
X30757195Y-13184091D01*
X30730641Y-13138097D01*
X30680520Y-13051284D01*
X30680519Y-13051283D01*
X30680518Y-13051281D01*
X30568718Y-12939481D01*
X30431785Y-12860423D01*
X30431783Y-12860422D01*
X30279057Y-12819500D01*
X30120943Y-12819500D01*
X30120942Y-12819500D01*
X29968216Y-12860422D01*
X29968214Y-12860423D01*
X29831281Y-12939481D01*
X29719481Y-13051281D01*
X29640423Y-13188214D01*
X29640422Y-13188216D01*
X29599500Y-13340942D01*
X29599500Y-13499054D01*
X29599501Y-13499062D01*
X29601292Y-13505748D01*
X29596579Y-13559581D01*
X29580844Y-13582051D01*
X25977012Y-17185883D01*
X25917701Y-17288611D01*
X25917700Y-17288615D01*
X25914516Y-17300499D01*
X25914516Y-17300500D01*
X25887000Y-17403190D01*
X25887000Y-21243175D01*
X25868518Y-21293955D01*
X25863861Y-21299036D01*
X25586536Y-21576361D01*
X25537560Y-21599199D01*
X25530675Y-21599500D01*
X25520942Y-21599500D01*
X25368216Y-21640422D01*
X25368214Y-21640423D01*
X25231281Y-21719481D01*
X25119481Y-21831281D01*
X25040423Y-21968214D01*
X25040422Y-21968216D01*
X24999500Y-22120942D01*
X24700500Y-22120942D01*
X24659577Y-21968216D01*
X24649932Y-21951511D01*
X24592962Y-21852835D01*
X24580520Y-21831284D01*
X24580519Y-21831283D01*
X24580518Y-21831281D01*
X24573639Y-21824402D01*
X24550801Y-21775426D01*
X24550500Y-21768541D01*
X24550500Y-20519325D01*
X24568982Y-20468545D01*
X24573628Y-20463474D01*
X24897989Y-20139114D01*
X24897989Y-20139113D01*
X24897991Y-20139112D01*
X24952097Y-20045395D01*
X24957298Y-20036387D01*
X24957299Y-20036386D01*
X24988000Y-19921809D01*
X24988000Y-18781458D01*
X25006482Y-18730678D01*
X25011130Y-18725605D01*
X25018020Y-18718716D01*
X25097077Y-18581784D01*
X25138000Y-18429057D01*
X25138000Y-18270943D01*
X25097077Y-18118216D01*
X25018020Y-17981284D01*
X25018019Y-17981283D01*
X25018018Y-17981281D01*
X24906218Y-17869481D01*
X24769285Y-17790423D01*
X24769283Y-17790422D01*
X24616557Y-17749500D01*
X24458443Y-17749500D01*
X24458442Y-17749500D01*
X24305716Y-17790422D01*
X24305714Y-17790423D01*
X24168781Y-17869481D01*
X24056981Y-17981281D01*
X23977923Y-18118214D01*
X23977922Y-18118216D01*
X23937000Y-18270942D01*
X23937000Y-18429057D01*
X23977922Y-18581783D01*
X23977923Y-18581785D01*
X24036558Y-18683344D01*
X24056980Y-18718716D01*
X24063859Y-18725595D01*
X24086699Y-18774569D01*
X24087000Y-18781458D01*
X24087000Y-19643174D01*
X24068518Y-19693954D01*
X24063861Y-19699035D01*
X23739512Y-20023383D01*
X23680201Y-20126111D01*
X23680200Y-20126113D01*
X23676718Y-20139112D01*
X23676718Y-20139113D01*
X23649500Y-20240690D01*
X23649500Y-21768541D01*
X23631018Y-21819321D01*
X23626361Y-21824402D01*
X23619481Y-21831281D01*
X23540423Y-21968214D01*
X23540422Y-21968216D01*
X23499500Y-22120942D01*
X22050500Y-22120942D01*
X22050500Y-13020942D01*
X22299500Y-13020942D01*
X22299500Y-13179057D01*
X22340422Y-13331783D01*
X22340423Y-13331785D01*
X22419481Y-13468718D01*
X22531281Y-13580518D01*
X22531283Y-13580519D01*
X22531284Y-13580520D01*
X22668216Y-13659577D01*
X22820943Y-13700500D01*
X22820945Y-13700500D01*
X22979055Y-13700500D01*
X22979057Y-13700500D01*
X23131784Y-13659577D01*
X23268716Y-13580520D01*
X23268718Y-13580518D01*
X23275598Y-13573639D01*
X23324574Y-13550801D01*
X23331459Y-13550500D01*
X24846142Y-13550500D01*
X24846144Y-13550500D01*
X24935288Y-13526614D01*
X24947638Y-13519483D01*
X24947645Y-13519482D01*
X24947644Y-13519480D01*
X25015212Y-13480470D01*
X26080470Y-12415212D01*
X26126614Y-12335288D01*
X26150500Y-12246143D01*
X26150500Y-12153856D01*
X26150500Y-8731458D01*
X26168982Y-8680678D01*
X26173628Y-8675607D01*
X26280520Y-8568716D01*
X26359577Y-8431784D01*
X26400500Y-8279057D01*
X26400500Y-8120943D01*
X26359577Y-7968216D01*
X26356605Y-7963069D01*
X26317017Y-7894500D01*
X26280520Y-7831284D01*
X26280519Y-7831283D01*
X26280518Y-7831281D01*
X26168718Y-7719481D01*
X26031785Y-7640423D01*
X26031783Y-7640422D01*
X25879057Y-7599500D01*
X25720943Y-7599500D01*
X25720942Y-7599500D01*
X25568216Y-7640422D01*
X25568214Y-7640423D01*
X25431281Y-7719481D01*
X25319481Y-7831281D01*
X25240423Y-7968214D01*
X25240422Y-7968216D01*
X25199500Y-8120942D01*
X25199500Y-8279057D01*
X25240422Y-8431783D01*
X25240423Y-8431785D01*
X25269379Y-8481938D01*
X25319480Y-8568716D01*
X25426361Y-8675597D01*
X25449199Y-8724572D01*
X25449500Y-8731458D01*
X25449500Y-12022096D01*
X25431018Y-12072876D01*
X25426361Y-12077957D01*
X24677957Y-12826361D01*
X24628981Y-12849199D01*
X24622096Y-12849500D01*
X23494382Y-12849500D01*
X23443602Y-12831018D01*
X23425966Y-12810000D01*
X23403611Y-12771280D01*
X23380520Y-12731284D01*
X23380519Y-12731283D01*
X23380518Y-12731281D01*
X23268718Y-12619481D01*
X23131785Y-12540423D01*
X23131783Y-12540422D01*
X22979057Y-12499500D01*
X22820943Y-12499500D01*
X22820942Y-12499500D01*
X22668216Y-12540422D01*
X22668214Y-12540423D01*
X22531281Y-12619481D01*
X22419481Y-12731281D01*
X22340423Y-12868214D01*
X22340422Y-12868216D01*
X22299500Y-13020942D01*
X22050500Y-13020942D01*
X22050500Y-6274903D01*
X22034327Y-6214543D01*
X22023207Y-6173042D01*
X21970480Y-6081717D01*
X21970479Y-6081716D01*
X21970478Y-6081714D01*
X20341895Y-4453131D01*
X20250569Y-4400403D01*
X20250565Y-4400402D01*
X20148709Y-4373110D01*
X20148707Y-4373110D01*
X16361293Y-4373110D01*
X16361290Y-4373110D01*
X16259435Y-4400402D01*
X16259431Y-4400403D01*
X16168104Y-4453131D01*
X14898521Y-5722714D01*
X14845793Y-5814041D01*
X14843101Y-5824089D01*
X14818500Y-5915900D01*
X14818500Y-6646363D01*
X14807916Y-6685862D01*
X14802454Y-6695320D01*
X14802453Y-6695325D01*
X14773457Y-6803539D01*
X14773457Y-6915580D01*
X14802453Y-7023794D01*
X14802454Y-7023798D01*
X14858473Y-7120825D01*
X14937691Y-7200043D01*
X15024412Y-7250112D01*
X15034720Y-7256063D01*
X15142939Y-7285060D01*
X15142941Y-7285060D01*
X15254973Y-7285060D01*
X15254975Y-7285060D01*
X15363194Y-7256063D01*
X15460220Y-7200045D01*
X15472087Y-7188177D01*
X15521061Y-7165339D01*
X15567449Y-7175622D01*
X15609747Y-7200043D01*
X15655763Y-7226610D01*
X15763982Y-7255607D01*
X15763984Y-7255607D01*
X15876016Y-7255607D01*
X15876018Y-7255607D01*
X15984237Y-7226610D01*
X16081263Y-7170592D01*
X16160485Y-7091370D01*
X16216503Y-6994344D01*
X16245500Y-6886125D01*
X16245500Y-6774089D01*
X16216503Y-6665870D01*
X16204406Y-6644917D01*
X16193822Y-6605417D01*
X16193822Y-6384882D01*
X16212304Y-6334102D01*
X16216961Y-6329021D01*
X16788733Y-5757249D01*
X16837709Y-5734411D01*
X16844594Y-5734110D01*
X19665405Y-5734110D01*
X19716185Y-5752592D01*
X19721266Y-5757249D01*
X20666361Y-6702343D01*
X20689199Y-6751319D01*
X20689500Y-6758204D01*
X20689500Y-23195405D01*
X20671018Y-23246185D01*
X20666361Y-23251266D01*
X19647480Y-24270146D01*
X19598504Y-24292984D01*
X19546306Y-24278998D01*
X19515311Y-24234732D01*
X19520021Y-24180898D01*
X19523196Y-24174797D01*
X19559577Y-24111784D01*
X19600500Y-23959057D01*
X19600500Y-23800943D01*
X19573438Y-23699946D01*
X19578148Y-23646113D01*
X19616359Y-23607902D01*
X19643999Y-23601773D01*
X19643921Y-23601176D01*
X19649049Y-23600500D01*
X19649057Y-23600500D01*
X19801784Y-23559577D01*
X19938716Y-23480520D01*
X20050520Y-23368716D01*
X20129577Y-23231784D01*
X20170500Y-23079057D01*
X20170500Y-22920943D01*
X20129577Y-22768216D01*
X20050520Y-22631284D01*
X20050519Y-22631283D01*
X20050518Y-22631281D01*
X19938718Y-22519481D01*
X19801785Y-22440423D01*
X19801783Y-22440422D01*
X19649057Y-22399500D01*
X19490943Y-22399500D01*
X19490942Y-22399500D01*
X19338216Y-22440422D01*
X19338214Y-22440423D01*
X19201281Y-22519481D01*
X19089481Y-22631281D01*
X19087336Y-22634998D01*
X19045940Y-22669735D01*
X19018919Y-22674500D01*
X18817144Y-22674500D01*
X18734363Y-22696681D01*
X18734359Y-22696682D01*
X18660135Y-22739536D01*
X17938312Y-23461361D01*
X17889336Y-23484199D01*
X17882451Y-23484500D01*
X14044648Y-23484500D01*
X13993868Y-23466018D01*
X13988787Y-23461361D01*
X13349639Y-22822212D01*
X13326801Y-22773236D01*
X13326500Y-22766351D01*
X13326500Y-21706549D01*
X13344982Y-21655769D01*
X13349628Y-21650698D01*
X13660465Y-21339862D01*
X13703318Y-21265639D01*
X13725500Y-21182853D01*
X13725500Y-21097147D01*
X13725500Y-20915036D01*
X13743982Y-20864256D01*
X13748628Y-20859185D01*
X13800500Y-20807314D01*
X13866392Y-20693186D01*
X13900500Y-20565892D01*
X13900500Y-20565887D01*
X13900885Y-20564451D01*
X13931880Y-20520185D01*
X13984077Y-20506198D01*
X14033052Y-20529034D01*
X14033054Y-20529036D01*
X14311361Y-20807343D01*
X14334199Y-20856319D01*
X14334500Y-20863204D01*
X14334500Y-21739147D01*
X14325051Y-21774414D01*
X14325478Y-21774591D01*
X14324136Y-21777830D01*
X14323919Y-21778641D01*
X14323498Y-21779368D01*
X14323496Y-21779375D01*
X14294500Y-21887589D01*
X14294500Y-21999630D01*
X14323496Y-22107844D01*
X14323497Y-22107848D01*
X14379516Y-22204875D01*
X14458734Y-22284093D01*
X14458736Y-22284094D01*
X14458737Y-22284095D01*
X14555763Y-22340113D01*
X14663982Y-22369110D01*
X14663984Y-22369110D01*
X14776016Y-22369110D01*
X14776018Y-22369110D01*
X14884237Y-22340113D01*
X14961153Y-22295705D01*
X15014369Y-22286322D01*
X15056512Y-22308261D01*
X15068734Y-22320483D01*
X15068736Y-22320484D01*
X15068737Y-22320485D01*
X15165763Y-22376503D01*
X15273982Y-22405500D01*
X15273984Y-22405500D01*
X15386016Y-22405500D01*
X15386018Y-22405500D01*
X15494237Y-22376503D01*
X15591263Y-22320485D01*
X15670485Y-22241263D01*
X15726503Y-22144237D01*
X15755500Y-22036018D01*
X15755500Y-21923982D01*
X15726503Y-21815763D01*
X15706084Y-21780396D01*
X15695500Y-21740896D01*
X15695500Y-20379905D01*
X15695499Y-20379900D01*
X15692679Y-20369376D01*
X15668207Y-20278043D01*
X15635940Y-20222155D01*
X16094500Y-20222155D01*
X16094500Y-20365064D01*
X16122381Y-20505231D01*
X16122382Y-20505235D01*
X16177068Y-20637257D01*
X16177071Y-20637263D01*
X16256466Y-20756087D01*
X16256472Y-20756094D01*
X16357515Y-20857137D01*
X16357522Y-20857143D01*
X16375432Y-20869110D01*
X16476347Y-20936539D01*
X16541132Y-20963373D01*
X16580972Y-20999881D01*
X16588025Y-21053457D01*
X16576585Y-21080247D01*
X16551990Y-21117057D01*
X16551985Y-21117066D01*
X16484106Y-21280941D01*
X16484105Y-21280943D01*
X16449500Y-21454919D01*
X16449500Y-21632301D01*
X16451116Y-21640423D01*
X16484105Y-21806276D01*
X16484106Y-21806278D01*
X16551985Y-21970153D01*
X16551988Y-21970158D01*
X16650534Y-22117643D01*
X16650540Y-22117650D01*
X16775959Y-22243069D01*
X16775965Y-22243074D01*
X16923453Y-22341623D01*
X16989811Y-22369109D01*
X17087331Y-22409503D01*
X17087333Y-22409504D01*
X17261309Y-22444110D01*
X17438691Y-22444110D01*
X17612666Y-22409504D01*
X17612668Y-22409503D01*
X17776547Y-22341623D01*
X17924035Y-22243074D01*
X18049464Y-22117645D01*
X18148013Y-21970157D01*
X18215894Y-21806276D01*
X18250500Y-21632301D01*
X18250500Y-21454919D01*
X18235463Y-21379325D01*
X18215894Y-21280943D01*
X18215893Y-21280941D01*
X18148014Y-21117066D01*
X18148013Y-21117063D01*
X18060515Y-20986114D01*
X18049465Y-20969576D01*
X18049459Y-20969569D01*
X17924040Y-20844150D01*
X17924033Y-20844144D01*
X17825709Y-20778446D01*
X17776547Y-20745597D01*
X17776544Y-20745596D01*
X17776543Y-20745595D01*
X17612668Y-20677716D01*
X17553258Y-20665898D01*
X17507059Y-20637863D01*
X17489690Y-20586691D01*
X17495685Y-20558183D01*
X17507758Y-20529036D01*
X17517619Y-20505230D01*
X17545500Y-20365065D01*
X17545500Y-20222155D01*
X17517619Y-20081990D01*
X17516262Y-20078715D01*
X17467828Y-19961784D01*
X17462929Y-19949957D01*
X17423230Y-19890544D01*
X17383533Y-19831132D01*
X17383527Y-19831125D01*
X17282484Y-19730082D01*
X17282477Y-19730076D01*
X17163653Y-19650681D01*
X17163647Y-19650678D01*
X17031625Y-19595992D01*
X17031621Y-19595991D01*
X16891455Y-19568110D01*
X16748545Y-19568110D01*
X16608378Y-19595991D01*
X16608374Y-19595992D01*
X16476352Y-19650678D01*
X16476346Y-19650681D01*
X16357522Y-19730076D01*
X16357515Y-19730082D01*
X16256472Y-19831125D01*
X16256466Y-19831132D01*
X16177071Y-19949956D01*
X16177068Y-19949962D01*
X16122382Y-20081984D01*
X16122381Y-20081988D01*
X16094500Y-20222155D01*
X15635940Y-20222155D01*
X15615480Y-20186717D01*
X15540913Y-20112150D01*
X13869124Y-18440361D01*
X13846286Y-18391385D01*
X13860272Y-18339187D01*
X13904538Y-18308192D01*
X13924985Y-18305500D01*
X18594811Y-18305500D01*
X18594824Y-18305500D01*
X18614814Y-18304845D01*
X18625123Y-18304169D01*
X18645009Y-18302210D01*
X18645018Y-18302208D01*
X18645026Y-18302208D01*
X18673594Y-18298446D01*
X18758975Y-18287206D01*
X18798174Y-18279409D01*
X18818094Y-18274071D01*
X18855929Y-18261227D01*
X18957297Y-18219239D01*
X18993132Y-18201568D01*
X19010992Y-18191257D01*
X19044224Y-18169052D01*
X19131278Y-18102253D01*
X19161322Y-18075905D01*
X19175905Y-18061322D01*
X19202253Y-18031278D01*
X19269052Y-17944224D01*
X19291257Y-17910992D01*
X19301568Y-17893132D01*
X19319239Y-17857297D01*
X19361227Y-17755929D01*
X19374071Y-17718094D01*
X19379409Y-17698174D01*
X19387206Y-17658976D01*
X19402210Y-17545012D01*
X19404170Y-17525119D01*
X19404846Y-17514807D01*
X19405500Y-17494823D01*
X19405500Y-16505176D01*
X19404846Y-16485192D01*
X19404170Y-16474880D01*
X19402210Y-16454987D01*
X19387206Y-16341023D01*
X19379409Y-16301825D01*
X19374071Y-16281905D01*
X19361227Y-16244070D01*
X19319239Y-16142702D01*
X19301568Y-16106867D01*
X19291257Y-16089007D01*
X19269052Y-16055775D01*
X19269048Y-16055769D01*
X19202258Y-15968728D01*
X19202255Y-15968724D01*
X19202253Y-15968721D01*
X19175905Y-15938677D01*
X19175901Y-15938673D01*
X19175884Y-15938655D01*
X19161343Y-15924114D01*
X19161323Y-15924095D01*
X19131281Y-15897749D01*
X19131278Y-15897746D01*
X19118897Y-15888246D01*
X19044229Y-15830950D01*
X19010983Y-15808736D01*
X19000276Y-15802555D01*
X18993132Y-15798431D01*
X18957297Y-15780760D01*
X18873319Y-15745975D01*
X18855927Y-15738771D01*
X18844214Y-15734795D01*
X18818102Y-15725930D01*
X18798184Y-15720592D01*
X18798176Y-15720590D01*
X18798171Y-15720589D01*
X18771930Y-15715369D01*
X18758977Y-15712793D01*
X18677024Y-15702003D01*
X18645019Y-15697790D01*
X18645013Y-15697789D01*
X18645010Y-15697789D01*
X18640801Y-15697374D01*
X18625076Y-15695826D01*
X18614793Y-15695153D01*
X18601868Y-15694730D01*
X18594824Y-15694500D01*
X13705176Y-15694500D01*
X13698523Y-15694717D01*
X13685207Y-15695153D01*
X13674919Y-15695826D01*
X13654980Y-15697789D01*
X13560072Y-15710285D01*
X13541019Y-15712794D01*
X13541015Y-15712794D01*
X13540999Y-15712797D01*
X13501850Y-15720584D01*
X13501839Y-15720586D01*
X13481915Y-15725924D01*
X13481898Y-15725929D01*
X13444088Y-15738764D01*
X13444050Y-15738778D01*
X13342717Y-15780752D01*
X13342678Y-15780770D01*
X13306856Y-15798436D01*
X13289011Y-15808739D01*
X13255769Y-15830950D01*
X13168724Y-15897743D01*
X13168720Y-15897746D01*
X13138671Y-15924098D01*
X13138651Y-15924117D01*
X13124118Y-15938650D01*
X13124083Y-15938687D01*
X13097763Y-15968698D01*
X13097751Y-15968713D01*
X13049833Y-16031160D01*
X13031721Y-16054764D01*
X13031577Y-16054953D01*
X13030804Y-16055962D01*
X13015260Y-16079243D01*
X13015117Y-16079455D01*
X12993440Y-16095118D01*
X12971872Y-16110946D01*
X12971454Y-16111005D01*
X12971316Y-16111106D01*
X12970942Y-16111078D01*
X12949737Y-16114110D01*
X9759288Y-16114110D01*
X9708508Y-16095628D01*
X9682980Y-16055557D01*
X9659577Y-15968216D01*
X9659576Y-15968214D01*
X9618893Y-15897749D01*
X9580520Y-15831284D01*
X9580519Y-15831283D01*
X9580518Y-15831281D01*
X9468718Y-15719481D01*
X9331785Y-15640423D01*
X9331783Y-15640422D01*
X9179057Y-15599500D01*
X9020943Y-15599500D01*
X9020942Y-15599500D01*
X8868216Y-15640422D01*
X8868214Y-15640423D01*
X8731281Y-15719481D01*
X8619481Y-15831281D01*
X8540423Y-15968214D01*
X8540422Y-15968216D01*
X8499500Y-16120942D01*
X8499500Y-16279057D01*
X8540422Y-16431783D01*
X8540423Y-16431785D01*
X8581727Y-16503326D01*
X8591111Y-16556545D01*
X8564091Y-16603344D01*
X8513311Y-16621826D01*
X8462530Y-16603343D01*
X8457450Y-16598687D01*
X8343639Y-16484876D01*
X8320801Y-16435900D01*
X8320500Y-16429015D01*
X8320500Y-15060459D01*
X8338982Y-15009679D01*
X8385782Y-14982659D01*
X8439000Y-14992043D01*
X8455361Y-15004598D01*
X8531281Y-15080518D01*
X8531283Y-15080519D01*
X8531284Y-15080520D01*
X8668216Y-15159577D01*
X8820943Y-15200500D01*
X8820945Y-15200500D01*
X8979055Y-15200500D01*
X8979057Y-15200500D01*
X9131784Y-15159577D01*
X9268716Y-15080520D01*
X9380520Y-14968716D01*
X9394802Y-14943979D01*
X11124500Y-14943979D01*
X11124500Y-15056020D01*
X11153496Y-15164234D01*
X11153497Y-15164238D01*
X11209516Y-15261265D01*
X11288734Y-15340483D01*
X11288736Y-15340484D01*
X11288737Y-15340485D01*
X11385763Y-15396503D01*
X11493982Y-15425500D01*
X11524279Y-15425500D01*
X11575059Y-15443982D01*
X11600587Y-15484054D01*
X11621792Y-15563195D01*
X11621793Y-15563199D01*
X11674521Y-15654525D01*
X11749084Y-15729088D01*
X11749086Y-15729089D01*
X11749087Y-15729090D01*
X11840412Y-15781817D01*
X11840414Y-15781817D01*
X11844795Y-15783632D01*
X11854074Y-15788207D01*
X11885759Y-15806501D01*
X11885760Y-15806501D01*
X11885763Y-15806503D01*
X11993982Y-15835500D01*
X11993984Y-15835500D01*
X12106016Y-15835500D01*
X12106018Y-15835500D01*
X12214237Y-15806503D01*
X12311263Y-15750485D01*
X12390485Y-15671263D01*
X12446503Y-15574237D01*
X12459595Y-15525371D01*
X12480039Y-15489962D01*
X14785910Y-13184091D01*
X14785913Y-13184090D01*
X14860480Y-13109523D01*
X14865032Y-13101637D01*
X14871719Y-13094692D01*
X14872085Y-13094512D01*
X14872764Y-13093627D01*
X15288691Y-12677700D01*
X15324101Y-12657256D01*
X15364237Y-12646503D01*
X15461263Y-12590485D01*
X15540485Y-12511263D01*
X15596503Y-12414237D01*
X15625500Y-12306018D01*
X15625500Y-12193982D01*
X15596503Y-12085763D01*
X15578637Y-12054818D01*
X15573207Y-12045413D01*
X15573207Y-12045412D01*
X15520480Y-11954087D01*
X15520479Y-11954086D01*
X15520478Y-11954084D01*
X15445915Y-11879521D01*
X15354589Y-11826793D01*
X15354585Y-11826792D01*
X15274054Y-11805214D01*
X15229787Y-11774219D01*
X15215500Y-11728906D01*
X15215500Y-11723984D01*
X15215499Y-11723979D01*
X15199425Y-11663989D01*
X15186503Y-11615763D01*
X15130485Y-11518737D01*
X15130484Y-11518736D01*
X15130483Y-11518734D01*
X15051265Y-11439516D01*
X14954238Y-11383497D01*
X14954234Y-11383496D01*
X14846020Y-11354500D01*
X14846018Y-11354500D01*
X14733982Y-11354500D01*
X14733979Y-11354500D01*
X14625765Y-11383496D01*
X14625761Y-11383497D01*
X14528734Y-11439516D01*
X14449516Y-11518734D01*
X14393496Y-11615763D01*
X14393495Y-11615765D01*
X14390062Y-11628578D01*
X14369616Y-11663989D01*
X13823540Y-12210065D01*
X13812822Y-12228629D01*
X13800269Y-12244987D01*
X11477224Y-14568031D01*
X11441811Y-14588478D01*
X11385762Y-14603496D01*
X11288734Y-14659516D01*
X11209516Y-14738734D01*
X11153497Y-14835761D01*
X11153496Y-14835765D01*
X11124500Y-14943979D01*
X9394802Y-14943979D01*
X9459577Y-14831784D01*
X9500500Y-14679057D01*
X9500500Y-14520943D01*
X9459577Y-14368216D01*
X9380520Y-14231284D01*
X9380519Y-14231283D01*
X9380518Y-14231281D01*
X9273639Y-14124402D01*
X9250801Y-14075426D01*
X9250500Y-14068541D01*
X9250500Y-13077904D01*
X9268982Y-13027124D01*
X9273639Y-13022043D01*
X9722043Y-12573639D01*
X9771019Y-12550801D01*
X9777904Y-12550500D01*
X10646142Y-12550500D01*
X10646144Y-12550500D01*
X10735288Y-12526614D01*
X10747556Y-12519531D01*
X10815212Y-12480470D01*
X12480470Y-10815212D01*
X12526614Y-10735288D01*
X12526616Y-10735281D01*
X12528937Y-10726620D01*
X12528938Y-10726614D01*
X12550500Y-10646144D01*
X12550500Y-8951514D01*
X12568982Y-8900734D01*
X12573628Y-8895663D01*
X12780399Y-8688891D01*
X12815810Y-8668447D01*
X12884237Y-8650113D01*
X12961002Y-8605792D01*
X13014217Y-8596409D01*
X13061017Y-8623428D01*
X13079500Y-8674208D01*
X13079500Y-9625793D01*
X13068916Y-9665293D01*
X13055793Y-9688021D01*
X13055792Y-9688025D01*
X13028500Y-9789880D01*
X13028500Y-9895339D01*
X13055792Y-9997194D01*
X13055793Y-9997198D01*
X13071963Y-10025205D01*
X13079855Y-10044256D01*
X13083497Y-10057847D01*
X13139516Y-10154875D01*
X13218734Y-10234093D01*
X13218736Y-10234094D01*
X13218737Y-10234095D01*
X13315763Y-10290113D01*
X13423982Y-10319110D01*
X13423984Y-10319110D01*
X13536016Y-10319110D01*
X13536018Y-10319110D01*
X13644237Y-10290113D01*
X13741263Y-10234095D01*
X13820485Y-10154873D01*
X13876503Y-10057847D01*
X13905500Y-9949628D01*
X13905500Y-9837592D01*
X13883192Y-9754335D01*
X13880500Y-9733889D01*
X13880500Y-8791133D01*
X13898982Y-8740353D01*
X13945782Y-8713333D01*
X13980238Y-8717114D01*
X13980761Y-8715163D01*
X14018351Y-8725235D01*
X14093982Y-8745500D01*
X14117096Y-8745500D01*
X14167876Y-8763982D01*
X14172957Y-8768639D01*
X16326361Y-10922043D01*
X16349199Y-10971019D01*
X16349500Y-10977904D01*
X16349500Y-12720500D01*
X16331018Y-12771280D01*
X16284218Y-12798300D01*
X16270500Y-12799500D01*
X16120942Y-12799500D01*
X15968216Y-12840422D01*
X15968214Y-12840423D01*
X15831281Y-12919481D01*
X15719481Y-13031281D01*
X15640423Y-13168214D01*
X15640422Y-13168216D01*
X15599500Y-13320942D01*
X15599500Y-13479057D01*
X15640422Y-13631783D01*
X15640423Y-13631785D01*
X15719481Y-13768718D01*
X15831281Y-13880518D01*
X15831283Y-13880519D01*
X15831284Y-13880520D01*
X15901298Y-13920942D01*
X15954688Y-13951767D01*
X15968216Y-13959577D01*
X16120943Y-14000500D01*
X16120945Y-14000500D01*
X16279055Y-14000500D01*
X16279057Y-14000500D01*
X16431784Y-13959577D01*
X16568716Y-13880520D01*
X16680520Y-13768716D01*
X16759577Y-13631784D01*
X16800500Y-13479057D01*
X16800500Y-13327904D01*
X16818982Y-13277124D01*
X16823639Y-13272042D01*
X16854603Y-13241078D01*
X16980470Y-13115212D01*
X17026614Y-13035288D01*
X17050500Y-12946144D01*
X17050500Y-12853856D01*
X17050500Y-12753856D01*
X17050500Y-10753856D01*
X17026614Y-10664712D01*
X16980469Y-10584788D01*
X16915212Y-10519531D01*
X16915210Y-10519529D01*
X16915210Y-10519528D01*
X14833523Y-8437841D01*
X16244500Y-8437841D01*
X16244500Y-8589378D01*
X16283718Y-8735742D01*
X16283719Y-8735746D01*
X16359486Y-8866977D01*
X16466632Y-8974123D01*
X16466634Y-8974124D01*
X16466635Y-8974125D01*
X16597865Y-9049891D01*
X16744234Y-9089110D01*
X16744236Y-9089110D01*
X16895764Y-9089110D01*
X16895766Y-9089110D01*
X17042135Y-9049891D01*
X17173365Y-8974125D01*
X17280515Y-8866975D01*
X17356281Y-8735745D01*
X17395500Y-8589376D01*
X17395500Y-8437844D01*
X17356281Y-8291475D01*
X17351163Y-8282610D01*
X17341779Y-8229392D01*
X17368799Y-8182592D01*
X17419579Y-8164110D01*
X17438691Y-8164110D01*
X17612666Y-8129504D01*
X17612668Y-8129503D01*
X17776547Y-8061623D01*
X17924035Y-7963074D01*
X18049464Y-7837645D01*
X18148013Y-7690157D01*
X18215894Y-7526276D01*
X18250500Y-7352301D01*
X18250500Y-7174919D01*
X18227663Y-7060109D01*
X18215894Y-7000943D01*
X18215893Y-7000941D01*
X18148014Y-6837066D01*
X18148013Y-6837063D01*
X18082313Y-6738737D01*
X18049465Y-6689576D01*
X18049459Y-6689569D01*
X17924040Y-6564150D01*
X17924033Y-6564144D01*
X17809511Y-6487623D01*
X17776547Y-6465597D01*
X17776544Y-6465596D01*
X17776543Y-6465595D01*
X17612668Y-6397716D01*
X17612666Y-6397715D01*
X17438691Y-6363110D01*
X17261309Y-6363110D01*
X17087333Y-6397715D01*
X17087331Y-6397716D01*
X16923456Y-6465595D01*
X16923451Y-6465598D01*
X16775966Y-6564144D01*
X16775959Y-6564150D01*
X16650540Y-6689569D01*
X16650534Y-6689576D01*
X16551988Y-6837061D01*
X16551985Y-6837066D01*
X16484106Y-7000941D01*
X16484105Y-7000943D01*
X16449500Y-7174919D01*
X16449500Y-7352300D01*
X16484105Y-7526276D01*
X16484106Y-7526278D01*
X16551985Y-7690153D01*
X16551987Y-7690157D01*
X16571580Y-7719480D01*
X16650534Y-7837643D01*
X16650540Y-7837650D01*
X16652815Y-7839925D01*
X16675653Y-7888901D01*
X16661667Y-7941099D01*
X16617402Y-7972094D01*
X16597864Y-7977329D01*
X16597863Y-7977329D01*
X16466632Y-8053096D01*
X16359486Y-8160242D01*
X16283719Y-8291473D01*
X16283718Y-8291477D01*
X16244500Y-8437841D01*
X14833523Y-8437841D01*
X14547107Y-8151425D01*
X14534552Y-8135064D01*
X14531341Y-8129503D01*
X14490485Y-8058737D01*
X14490484Y-8058736D01*
X14490483Y-8058734D01*
X14411265Y-7979516D01*
X14314238Y-7923497D01*
X14314234Y-7923496D01*
X14206020Y-7894500D01*
X14206018Y-7894500D01*
X14093982Y-7894500D01*
X14093979Y-7894500D01*
X13985765Y-7923496D01*
X13985761Y-7923497D01*
X13888736Y-7979515D01*
X13875360Y-7992891D01*
X13826383Y-8015728D01*
X13774186Y-8001740D01*
X13743191Y-7957472D01*
X13740500Y-7937028D01*
X13740500Y-7447275D01*
X13740499Y-7447270D01*
X13722088Y-7378556D01*
X13726798Y-7324723D01*
X13765010Y-7286511D01*
X13798396Y-7279110D01*
X13826016Y-7279110D01*
X13826018Y-7279110D01*
X13934237Y-7250113D01*
X14031263Y-7194095D01*
X14110485Y-7114873D01*
X14166503Y-7017847D01*
X14195500Y-6909628D01*
X14195500Y-6797592D01*
X14168097Y-6695323D01*
X14166504Y-6689376D01*
X14166503Y-6689375D01*
X14166503Y-6689373D01*
X14151082Y-6662664D01*
X14140500Y-6623166D01*
X14140500Y-5628205D01*
X14158982Y-5577425D01*
X14163639Y-5572344D01*
X15782344Y-3953639D01*
X15831320Y-3930801D01*
X15838205Y-3930500D01*
X28276750Y-3930500D01*
X28327530Y-3948982D01*
X28345166Y-3970000D01*
X28419481Y-4098718D01*
X28531281Y-4210518D01*
X28531283Y-4210519D01*
X28531284Y-4210520D01*
X28668216Y-4289577D01*
X28820943Y-4330500D01*
X28820945Y-4330500D01*
X28979055Y-4330500D01*
X28979057Y-4330500D01*
X29131784Y-4289577D01*
X29268716Y-4210520D01*
X29357945Y-4121291D01*
X35149499Y-4121291D01*
X35181160Y-4361781D01*
X35181161Y-4361787D01*
X35181162Y-4361789D01*
X35190176Y-4395431D01*
X35243943Y-4596092D01*
X35243944Y-4596095D01*
X35336776Y-4820213D01*
X35412700Y-4951717D01*
X35458064Y-5030289D01*
X35502115Y-5087697D01*
X35605733Y-5222736D01*
X35605738Y-5222742D01*
X35777257Y-5394261D01*
X35777262Y-5394265D01*
X35969711Y-5541936D01*
X36179788Y-5663224D01*
X36403900Y-5756054D01*
X36403904Y-5756055D01*
X36403907Y-5756056D01*
X36433041Y-5763862D01*
X36638211Y-5818838D01*
X36638217Y-5818838D01*
X36638218Y-5818839D01*
X36878708Y-5850500D01*
X36878712Y-5850500D01*
X37121291Y-5850500D01*
X37361781Y-5818839D01*
X37361780Y-5818839D01*
X37361789Y-5818838D01*
X37596100Y-5756054D01*
X37820212Y-5663224D01*
X38030289Y-5541936D01*
X38222738Y-5394265D01*
X38394265Y-5222738D01*
X38541936Y-5030289D01*
X38663224Y-4820212D01*
X38756054Y-4596100D01*
X38818838Y-4361789D01*
X38838753Y-4210518D01*
X38850500Y-4121291D01*
X38850500Y-3878708D01*
X38818839Y-3638218D01*
X38818838Y-3638217D01*
X38818838Y-3638211D01*
X38756054Y-3403900D01*
X38663224Y-3179788D01*
X38541936Y-2969711D01*
X38394265Y-2777262D01*
X38394261Y-2777257D01*
X38222742Y-2605738D01*
X38222736Y-2605733D01*
X38119956Y-2526868D01*
X38030289Y-2458064D01*
X38030284Y-2458061D01*
X37820213Y-2336776D01*
X37596095Y-2243944D01*
X37596092Y-2243943D01*
X37395431Y-2190176D01*
X37361789Y-2181162D01*
X37361787Y-2181161D01*
X37361781Y-2181160D01*
X37121291Y-2149500D01*
X37121288Y-2149500D01*
X36878712Y-2149500D01*
X36878709Y-2149500D01*
X36638218Y-2181160D01*
X36403907Y-2243943D01*
X36403904Y-2243944D01*
X36179786Y-2336776D01*
X35969715Y-2458061D01*
X35777263Y-2605733D01*
X35777257Y-2605738D01*
X35605738Y-2777257D01*
X35605733Y-2777263D01*
X35458061Y-2969715D01*
X35336776Y-3179786D01*
X35243944Y-3403904D01*
X35243943Y-3403907D01*
X35181160Y-3638218D01*
X35149500Y-3878708D01*
X35149500Y-3878712D01*
X35149500Y-4121288D01*
X35149500Y-4121291D01*
X35149499Y-4121291D01*
X29357945Y-4121291D01*
X29380520Y-4098716D01*
X29459577Y-3961784D01*
X29500500Y-3809057D01*
X29500500Y-3650943D01*
X29459577Y-3498216D01*
X29380520Y-3361284D01*
X29325096Y-3305860D01*
X29302259Y-3256886D01*
X29316245Y-3204688D01*
X29325091Y-3194144D01*
X29380520Y-3138716D01*
X29459577Y-3001784D01*
X29500500Y-2849057D01*
X29500500Y-2690943D01*
X29459577Y-2538216D01*
X29453022Y-2526863D01*
X29380518Y-2401281D01*
X29268718Y-2289481D01*
X29131785Y-2210423D01*
X29131783Y-2210422D01*
X28979057Y-2169500D01*
X28820943Y-2169500D01*
X28820942Y-2169500D01*
X28668216Y-2210422D01*
X28668214Y-2210423D01*
X28531281Y-2289481D01*
X28419481Y-2401281D01*
X28345166Y-2530000D01*
X28303770Y-2564736D01*
X28276750Y-2569500D01*
X15465209Y-2569500D01*
X15465193Y-2569499D01*
X15460357Y-2569499D01*
X15354903Y-2569499D01*
X15354902Y-2569499D01*
X15255577Y-2596114D01*
X15254503Y-2596401D01*
X15253042Y-2596793D01*
X15161716Y-2649520D01*
X15124433Y-2686803D01*
X15087150Y-2724087D01*
X15087148Y-2724089D01*
X12859521Y-4951714D01*
X12806793Y-5043040D01*
X12806792Y-5043044D01*
X12794828Y-5087697D01*
X12779500Y-5144900D01*
X12779500Y-6640486D01*
X12768918Y-6679982D01*
X12763497Y-6689370D01*
X12763496Y-6689375D01*
X12734500Y-6797589D01*
X12734500Y-6797592D01*
X12734500Y-6909628D01*
X12749132Y-6964237D01*
X12756808Y-6992882D01*
X12759500Y-7013329D01*
X12759500Y-7372729D01*
X12786792Y-7474585D01*
X12786793Y-7474589D01*
X12839520Y-7565913D01*
X12916361Y-7642754D01*
X12923649Y-7658382D01*
X12934736Y-7671595D01*
X12937730Y-7688580D01*
X12939199Y-7691729D01*
X12939500Y-7698615D01*
X12939500Y-7768960D01*
X12921018Y-7819740D01*
X12874218Y-7846760D01*
X12840054Y-7845268D01*
X12776020Y-7828110D01*
X12776018Y-7828110D01*
X12663982Y-7828110D01*
X12663979Y-7828110D01*
X12555765Y-7857106D01*
X12555761Y-7857107D01*
X12458734Y-7913126D01*
X12379516Y-7992344D01*
X12323497Y-8089371D01*
X12323497Y-8089372D01*
X12305162Y-8157797D01*
X12284716Y-8193210D01*
X12162281Y-8315646D01*
X12113305Y-8338484D01*
X12061107Y-8324498D01*
X12030111Y-8280232D01*
X12027419Y-8259785D01*
X12027419Y-7157051D01*
X12045901Y-7106271D01*
X12050547Y-7101200D01*
X12090485Y-7061263D01*
X12146503Y-6964237D01*
X12175500Y-6856018D01*
X12175500Y-6743982D01*
X12146503Y-6635763D01*
X12090485Y-6538737D01*
X12090484Y-6538736D01*
X12090483Y-6538734D01*
X12011265Y-6459516D01*
X11914238Y-6403497D01*
X11914234Y-6403496D01*
X11806020Y-6374500D01*
X11806018Y-6374500D01*
X11693982Y-6374500D01*
X11693979Y-6374500D01*
X11585763Y-6403496D01*
X11572669Y-6411056D01*
X11553620Y-6418946D01*
X11522317Y-6427333D01*
X11430989Y-6480063D01*
X11426883Y-6483214D01*
X11425805Y-6481810D01*
X11383252Y-6501631D01*
X11331060Y-6487623D01*
X11320539Y-6478790D01*
X11251265Y-6409516D01*
X11154238Y-6353497D01*
X11154234Y-6353496D01*
X11046020Y-6324500D01*
X11046018Y-6324500D01*
X10933982Y-6324500D01*
X10933979Y-6324500D01*
X10825765Y-6353496D01*
X10825761Y-6353497D01*
X10728734Y-6409516D01*
X10649516Y-6488734D01*
X10593497Y-6585761D01*
X10593496Y-6585765D01*
X10564500Y-6693979D01*
X10564500Y-6806020D01*
X10593496Y-6914234D01*
X10593497Y-6914238D01*
X10649515Y-7011264D01*
X10650092Y-7012015D01*
X10650295Y-7012614D01*
X10652104Y-7015747D01*
X10651481Y-7016106D01*
X10666419Y-7060109D01*
X10666419Y-9802096D01*
X10647937Y-9852876D01*
X10643280Y-9857957D01*
X10081266Y-10419971D01*
X10032290Y-10442809D01*
X10025405Y-10443110D01*
X8181290Y-10443110D01*
X8079434Y-10470402D01*
X8079430Y-10470403D01*
X7988104Y-10523131D01*
X7039521Y-11471714D01*
X6986793Y-11563040D01*
X6986792Y-11563044D01*
X6964065Y-11647863D01*
X6964061Y-11647880D01*
X6963621Y-11649523D01*
X6959500Y-11664903D01*
X500500Y-11664903D01*
X500500Y-7174919D01*
X8189500Y-7174919D01*
X8189500Y-7352300D01*
X8224105Y-7526276D01*
X8224106Y-7526278D01*
X8291985Y-7690153D01*
X8291987Y-7690157D01*
X8311580Y-7719480D01*
X8390534Y-7837643D01*
X8390540Y-7837650D01*
X8515959Y-7963069D01*
X8515966Y-7963075D01*
X8540572Y-7979516D01*
X8663453Y-8061623D01*
X8730446Y-8089372D01*
X8806670Y-8120945D01*
X8827334Y-8129504D01*
X8886741Y-8141320D01*
X8932939Y-8169353D01*
X8950310Y-8220524D01*
X8944316Y-8249034D01*
X8922380Y-8301990D01*
X8895357Y-8437846D01*
X8894500Y-8442155D01*
X8894500Y-8585065D01*
X8898623Y-8605793D01*
X8922381Y-8725231D01*
X8922382Y-8725235D01*
X8977068Y-8857257D01*
X8977071Y-8857263D01*
X9056466Y-8976087D01*
X9056472Y-8976094D01*
X9157515Y-9077137D01*
X9157521Y-9077142D01*
X9276347Y-9156539D01*
X9276352Y-9156541D01*
X9408374Y-9211227D01*
X9408376Y-9211227D01*
X9408380Y-9211229D01*
X9548545Y-9239110D01*
X9691455Y-9239110D01*
X9831620Y-9211229D01*
X9963653Y-9156539D01*
X10082479Y-9077142D01*
X10183532Y-8976089D01*
X10262929Y-8857263D01*
X10317619Y-8725230D01*
X10345500Y-8585065D01*
X10345500Y-8442155D01*
X10317619Y-8301990D01*
X10313264Y-8291477D01*
X10262931Y-8169962D01*
X10262928Y-8169956D01*
X10256636Y-8160540D01*
X10223230Y-8110544D01*
X10183533Y-8051132D01*
X10183527Y-8051125D01*
X10082484Y-7950082D01*
X10082477Y-7950076D01*
X9963654Y-7870682D01*
X9963655Y-7870682D01*
X9963653Y-7870681D01*
X9898866Y-7843845D01*
X9859026Y-7807338D01*
X9851973Y-7753761D01*
X9863413Y-7726971D01*
X9888013Y-7690157D01*
X9955894Y-7526276D01*
X9990500Y-7352301D01*
X9990500Y-7174919D01*
X9967663Y-7060109D01*
X9955894Y-7000943D01*
X9955893Y-7000941D01*
X9888014Y-6837066D01*
X9888013Y-6837063D01*
X9822313Y-6738737D01*
X9789465Y-6689576D01*
X9789459Y-6689569D01*
X9664040Y-6564150D01*
X9664033Y-6564144D01*
X9549511Y-6487623D01*
X9516547Y-6465597D01*
X9516544Y-6465596D01*
X9516543Y-6465595D01*
X9352668Y-6397716D01*
X9352666Y-6397715D01*
X9178691Y-6363110D01*
X9001309Y-6363110D01*
X8827333Y-6397715D01*
X8827331Y-6397716D01*
X8663456Y-6465595D01*
X8663451Y-6465598D01*
X8515966Y-6564144D01*
X8515959Y-6564150D01*
X8390540Y-6689569D01*
X8390534Y-6689576D01*
X8291988Y-6837061D01*
X8291985Y-6837066D01*
X8224106Y-7000941D01*
X8224105Y-7000943D01*
X8189500Y-7174919D01*
X500500Y-7174919D01*
X500500Y-3828688D01*
X949500Y-3828688D01*
X949500Y-4171312D01*
X953918Y-4210520D01*
X987861Y-4511787D01*
X1064101Y-4845811D01*
X1064103Y-4845817D01*
X1177264Y-5169215D01*
X1271181Y-5364236D01*
X1325923Y-5477909D01*
X1325924Y-5477910D01*
X1501444Y-5757249D01*
X1508212Y-5768019D01*
X1721833Y-6035892D01*
X1721842Y-6035902D01*
X1964097Y-6278157D01*
X1964107Y-6278166D01*
X2231982Y-6491789D01*
X2522090Y-6674076D01*
X2830785Y-6822736D01*
X3154183Y-6935897D01*
X3488213Y-7012138D01*
X3488214Y-7012138D01*
X3488217Y-7012139D01*
X3828688Y-7050500D01*
X3828690Y-7050500D01*
X4171310Y-7050500D01*
X4171312Y-7050500D01*
X4511783Y-7012139D01*
X4845817Y-6935897D01*
X5169215Y-6822736D01*
X5477910Y-6674076D01*
X5768018Y-6491789D01*
X6035893Y-6278166D01*
X6278166Y-6035893D01*
X6491789Y-5768018D01*
X6674076Y-5477910D01*
X6822736Y-5169215D01*
X6935897Y-4845817D01*
X7012139Y-4511783D01*
X7050500Y-4171312D01*
X7050500Y-3828688D01*
X7012139Y-3488217D01*
X6935897Y-3154183D01*
X6822736Y-2830785D01*
X6674076Y-2522090D01*
X6491789Y-2231982D01*
X6278166Y-1964107D01*
X6278157Y-1964097D01*
X6035902Y-1721842D01*
X6035892Y-1721833D01*
X5768019Y-1508212D01*
X5768020Y-1508212D01*
X5768018Y-1508211D01*
X5599462Y-1402300D01*
X5477909Y-1325923D01*
X5356729Y-1267566D01*
X5169215Y-1177264D01*
X4845817Y-1064103D01*
X4845811Y-1064101D01*
X4511786Y-987861D01*
X4511788Y-987861D01*
X4268589Y-960460D01*
X4171312Y-949500D01*
X3828688Y-949500D01*
X3731410Y-960460D01*
X3488212Y-987861D01*
X3154188Y-1064101D01*
X3154182Y-1064103D01*
X2830790Y-1177262D01*
X2830788Y-1177262D01*
X2830785Y-1177264D01*
X2772649Y-1205261D01*
X2522090Y-1325923D01*
X2231980Y-1508212D01*
X1964107Y-1721833D01*
X1964097Y-1721842D01*
X1721842Y-1964097D01*
X1721833Y-1964107D01*
X1508212Y-2231980D01*
X1325923Y-2522090D01*
X1228647Y-2724087D01*
X1194624Y-2794738D01*
X1177262Y-2830790D01*
X1064103Y-3154182D01*
X1064101Y-3154188D01*
X987861Y-3488212D01*
X969526Y-3650945D01*
X949500Y-3828688D01*
X500500Y-3828688D01*
X500500Y-1004435D01*
X500997Y-995590D01*
X506190Y-949500D01*
X512027Y-897692D01*
X515961Y-880454D01*
X547027Y-791672D01*
X554702Y-775738D01*
X604741Y-696101D01*
X615767Y-682274D01*
X682274Y-615767D01*
X696101Y-604741D01*
X775738Y-554702D01*
X791672Y-547027D01*
X880454Y-515961D01*
X897694Y-512027D01*
X976109Y-503192D01*
X995590Y-500997D01*
X1004435Y-500500D01*
X1065892Y-500500D01*
X8078888Y-500500D01*
X8129668Y-518982D01*
G37*
%TD.AperFunction*%
%TD*%
%TA.AperFunction,Conductor*%
%TO.N,VBUS_USB3*%
G36*
X18605134Y-16000675D02*
G01*
X18719101Y-16015679D01*
X18739019Y-16021017D01*
X18840387Y-16063005D01*
X18858247Y-16073316D01*
X18945301Y-16140115D01*
X18959884Y-16154698D01*
X19026683Y-16241752D01*
X19036994Y-16259612D01*
X19078982Y-16360980D01*
X19084320Y-16380900D01*
X19099324Y-16494864D01*
X19100000Y-16505176D01*
X19100000Y-17494823D01*
X19099324Y-17505134D01*
X19099324Y-17505135D01*
X19084320Y-17619099D01*
X19078982Y-17639019D01*
X19036994Y-17740387D01*
X19026683Y-17758247D01*
X18959884Y-17845301D01*
X18945301Y-17859884D01*
X18858247Y-17926683D01*
X18840387Y-17936994D01*
X18739019Y-17978982D01*
X18719099Y-17984320D01*
X18634865Y-17995409D01*
X18605133Y-17999324D01*
X18594824Y-18000000D01*
X13705176Y-18000000D01*
X13694866Y-17999324D01*
X13670353Y-17996097D01*
X13580902Y-17984320D01*
X13560982Y-17978982D01*
X13555328Y-17976640D01*
X13529699Y-17959515D01*
X13240484Y-17670300D01*
X13223357Y-17644667D01*
X13221015Y-17639012D01*
X13215679Y-17619095D01*
X13200676Y-17505134D01*
X13200000Y-17494823D01*
X13200000Y-16505176D01*
X13200676Y-16494865D01*
X13200676Y-16494864D01*
X13215680Y-16380897D01*
X13221015Y-16360984D01*
X13263007Y-16259608D01*
X13273316Y-16241752D01*
X13274089Y-16240743D01*
X13340118Y-16154694D01*
X13354694Y-16140118D01*
X13441752Y-16073316D01*
X13459608Y-16063007D01*
X13560984Y-16021015D01*
X13580897Y-16015680D01*
X13694865Y-16000675D01*
X13705176Y-16000000D01*
X18594824Y-16000000D01*
X18605134Y-16000675D01*
G37*
%TD.AperFunction*%
%TD*%
M02*
