%TF.GenerationSoftware,KiCad,Pcbnew,9.0.1*%
%TF.CreationDate,2025-04-14T01:57:56-04:00*%
%TF.ProjectId,USB-3-2-splitter,5553422d-332d-4322-9d73-706c69747465,rev?*%
%TF.SameCoordinates,Original*%
%TF.FileFunction,Copper,L3,Inr*%
%TF.FilePolarity,Positive*%
%FSLAX46Y46*%
G04 Gerber Fmt 4.6, Leading zero omitted, Abs format (unit mm)*
G04 Created by KiCad (PCBNEW 9.0.1) date 2025-04-14 01:57:56*
%MOMM*%
%LPD*%
G01*
G04 APERTURE LIST*
%TA.AperFunction,ComponentPad*%
%ADD10C,5.700000*%
%TD*%
%TA.AperFunction,HeatsinkPad*%
%ADD11C,1.400000*%
%TD*%
%TA.AperFunction,HeatsinkPad*%
%ADD12O,1.000000X2.100000*%
%TD*%
%TA.AperFunction,HeatsinkPad*%
%ADD13O,1.000000X1.600000*%
%TD*%
%TA.AperFunction,ViaPad*%
%ADD14C,0.450000*%
%TD*%
%TA.AperFunction,ViaPad*%
%ADD15C,0.800000*%
%TD*%
%TA.AperFunction,ViaPad*%
%ADD16C,0.600000*%
%TD*%
G04 APERTURE END LIST*
D10*
%TO.N,Net-(C4-Pad1)*%
%TO.C,H1*%
X4000000Y-4000000D03*
%TD*%
D11*
%TO.N,Net-(J3-SHIELD)*%
%TO.C,J3*%
X8730000Y-27493610D03*
X9090000Y-21543610D03*
X17350000Y-21543610D03*
X17710000Y-27493610D03*
%TD*%
%TO.N,Net-(J2-SHIELD)*%
%TO.C,J2*%
X17710000Y-1313610D03*
X17350000Y-7263610D03*
X9090000Y-7263610D03*
X8730000Y-1313610D03*
%TD*%
D12*
%TO.N,Net-(J1-SHIELD)*%
%TO.C,J1*%
X29900000Y-23023610D03*
D13*
X29900000Y-27203610D03*
D12*
X38540000Y-23023610D03*
D13*
X38540000Y-27203610D03*
%TD*%
D14*
%TO.N,GND*%
X14080000Y-22100000D03*
D15*
%TO.N,CC2_USB2*%
X25600000Y-22200000D03*
X35690000Y-19730000D03*
X30200000Y-13420000D03*
X24100000Y-24300000D03*
D16*
%TO.N,GND*%
X11050000Y-14470000D03*
D14*
X14600000Y-6693610D03*
X16000000Y-21950199D03*
D16*
X6500000Y-12500000D03*
D14*
X16450000Y-6550000D03*
D15*
X28000000Y-27500000D03*
D16*
X18000000Y-9500000D03*
X12900000Y-10400000D03*
D15*
X1500000Y-16500000D03*
X12900000Y-15600000D03*
D14*
X11920000Y-22100000D03*
D15*
X28100000Y-4360000D03*
D16*
X14200000Y-11400000D03*
D14*
X10060000Y-22100000D03*
D15*
X37500000Y-14500000D03*
D16*
X15800000Y-12600000D03*
X10320000Y-6853610D03*
D14*
X12400000Y-6717088D03*
D15*
X28100000Y-2110000D03*
%TO.N,Net-(J1-SHIELD)*%
X39400000Y-14000000D03*
%TO.N,VBUS_USB2*%
X32900000Y-18200000D03*
X32900000Y-16700000D03*
X35700000Y-18200000D03*
X35700000Y-16700000D03*
D14*
%TO.N,D+*%
X13160000Y-6853610D03*
D15*
X28900000Y-2770000D03*
D14*
X13480000Y-9893610D03*
%TO.N,D-*%
X13770000Y-6853610D03*
D15*
X28900000Y-3730000D03*
%TO.N,CC1_USB2*%
X24537500Y-18350000D03*
X32870000Y-19710000D03*
X24100000Y-22200000D03*
D14*
%TO.N,TX2+*%
X14720000Y-21943610D03*
X10990000Y-6750000D03*
%TO.N,TX1+*%
X12050000Y-15410000D03*
X15200000Y-12250000D03*
%TO.N,TX1-*%
X14790000Y-11780000D03*
X11550000Y-15000000D03*
%TO.N,RX1+*%
X15820000Y-6830107D03*
X11260000Y-21933610D03*
%TO.N,TX2-*%
X11750000Y-6800000D03*
X15330000Y-21980000D03*
%TO.N,CC1_UFP*%
X14150000Y-8320000D03*
D15*
X16200000Y-13400000D03*
D14*
%TO.N,CC2_UFP*%
X12720000Y-8253610D03*
D15*
X8900000Y-14600000D03*
D14*
%TO.N,RX1-*%
X15198957Y-6859560D03*
X10660000Y-21944832D03*
D15*
%TO.N,VBUS_USB3*%
X18400000Y-16560000D03*
X18500000Y-17500000D03*
X14000000Y-17500000D03*
X13690000Y-16560000D03*
X9100000Y-16200000D03*
D16*
%TO.N,CC1_USB3*%
X12600000Y-20500000D03*
D15*
X19000000Y-23880000D03*
%TO.N,CC2_USB3*%
X25800000Y-8200000D03*
D16*
X13400000Y-20500000D03*
D15*
X19570000Y-23000000D03*
X22900000Y-13100000D03*
%TD*%
%TA.AperFunction,Conductor*%
%TO.N,GND*%
G36*
X8129668Y-518982D02*
G01*
X8156688Y-565782D01*
X8147304Y-619000D01*
X8134749Y-635361D01*
X8030540Y-739569D01*
X8030534Y-739576D01*
X7931988Y-887061D01*
X7931985Y-887066D01*
X7864106Y-1050941D01*
X7864105Y-1050943D01*
X7829500Y-1224919D01*
X7829500Y-1402300D01*
X7864105Y-1576276D01*
X7864106Y-1576278D01*
X7931985Y-1740153D01*
X7931987Y-1740157D01*
X7944525Y-1758921D01*
X8030534Y-1887643D01*
X8030540Y-1887650D01*
X8155959Y-2013069D01*
X8155965Y-2013074D01*
X8303453Y-2111623D01*
X8385393Y-2145563D01*
X8467331Y-2179503D01*
X8467333Y-2179504D01*
X8641309Y-2214110D01*
X8818691Y-2214110D01*
X8992666Y-2179504D01*
X8992668Y-2179503D01*
X9156547Y-2111623D01*
X9304035Y-2013074D01*
X9429464Y-1887645D01*
X9528013Y-1740157D01*
X9595894Y-1576276D01*
X9630500Y-1402301D01*
X9630500Y-1224919D01*
X9595894Y-1050944D01*
X9572965Y-995589D01*
X9547499Y-934108D01*
X9528013Y-887063D01*
X9429464Y-739575D01*
X9429459Y-739569D01*
X9325251Y-635361D01*
X9302413Y-586385D01*
X9316399Y-534187D01*
X9360665Y-503192D01*
X9381112Y-500500D01*
X17058888Y-500500D01*
X17109668Y-518982D01*
X17136688Y-565782D01*
X17127304Y-619000D01*
X17114749Y-635361D01*
X17010540Y-739569D01*
X17010534Y-739576D01*
X16911988Y-887061D01*
X16911985Y-887066D01*
X16844106Y-1050941D01*
X16844105Y-1050943D01*
X16809500Y-1224919D01*
X16809500Y-1402300D01*
X16844105Y-1576276D01*
X16844106Y-1576278D01*
X16911985Y-1740153D01*
X16911987Y-1740157D01*
X16924525Y-1758921D01*
X17010534Y-1887643D01*
X17010540Y-1887650D01*
X17135959Y-2013069D01*
X17135965Y-2013074D01*
X17283453Y-2111623D01*
X17365393Y-2145563D01*
X17447331Y-2179503D01*
X17447333Y-2179504D01*
X17621309Y-2214110D01*
X17798691Y-2214110D01*
X17972666Y-2179504D01*
X17972668Y-2179503D01*
X18136547Y-2111623D01*
X18284035Y-2013074D01*
X18378512Y-1918597D01*
X32173500Y-1918597D01*
X32173500Y-2081402D01*
X32203451Y-2231980D01*
X32205262Y-2241081D01*
X32267565Y-2391495D01*
X32267566Y-2391496D01*
X32358014Y-2526861D01*
X32358020Y-2526868D01*
X32473131Y-2641979D01*
X32473137Y-2641984D01*
X32608505Y-2732435D01*
X32758919Y-2794738D01*
X32918597Y-2826500D01*
X33081403Y-2826500D01*
X33241081Y-2794738D01*
X33391495Y-2732435D01*
X33526863Y-2641984D01*
X33641984Y-2526863D01*
X33732435Y-2391495D01*
X33794738Y-2241081D01*
X33826500Y-2081403D01*
X33826500Y-1918597D01*
X33794738Y-1758919D01*
X33732435Y-1608505D01*
X33641984Y-1473137D01*
X33641979Y-1473131D01*
X33526868Y-1358020D01*
X33526861Y-1358014D01*
X33391496Y-1267566D01*
X33391497Y-1267566D01*
X33391495Y-1267565D01*
X33241081Y-1205262D01*
X33241079Y-1205261D01*
X33241078Y-1205261D01*
X33081403Y-1173500D01*
X32918597Y-1173500D01*
X32758921Y-1205261D01*
X32608503Y-1267566D01*
X32473138Y-1358014D01*
X32473131Y-1358020D01*
X32358020Y-1473131D01*
X32358014Y-1473138D01*
X32267566Y-1608503D01*
X32205261Y-1758921D01*
X32173500Y-1918597D01*
X18378512Y-1918597D01*
X18409464Y-1887645D01*
X18508013Y-1740157D01*
X18575894Y-1576276D01*
X18610500Y-1402301D01*
X18610500Y-1224919D01*
X18575894Y-1050944D01*
X18552965Y-995589D01*
X18527499Y-934108D01*
X18508013Y-887063D01*
X18409464Y-739575D01*
X18409459Y-739569D01*
X18305251Y-635361D01*
X18282413Y-586385D01*
X18296399Y-534187D01*
X18340665Y-503192D01*
X18361112Y-500500D01*
X39934108Y-500500D01*
X39995565Y-500500D01*
X40004410Y-500997D01*
X40023891Y-503192D01*
X40102303Y-512027D01*
X40119547Y-515962D01*
X40208323Y-547026D01*
X40224261Y-554702D01*
X40303898Y-604741D01*
X40317729Y-615771D01*
X40384228Y-682270D01*
X40395258Y-696101D01*
X40445297Y-775738D01*
X40452973Y-791676D01*
X40484036Y-880450D01*
X40487972Y-897696D01*
X40499003Y-995589D01*
X40499500Y-1004435D01*
X40499500Y-27995564D01*
X40499003Y-28004410D01*
X40487972Y-28102303D01*
X40484036Y-28119549D01*
X40452973Y-28208323D01*
X40445297Y-28224261D01*
X40395258Y-28303898D01*
X40384228Y-28317729D01*
X40317729Y-28384228D01*
X40303898Y-28395258D01*
X40224261Y-28445297D01*
X40208323Y-28452973D01*
X40119549Y-28484036D01*
X40102303Y-28487972D01*
X40004411Y-28499003D01*
X39995565Y-28499500D01*
X18031846Y-28499500D01*
X17981066Y-28481018D01*
X17954046Y-28434218D01*
X17963430Y-28381000D01*
X18001614Y-28347514D01*
X18073521Y-28317729D01*
X18136547Y-28291623D01*
X18284035Y-28193074D01*
X18409464Y-28067645D01*
X18508013Y-27920157D01*
X18575894Y-27756276D01*
X18610500Y-27582301D01*
X18610500Y-27418597D01*
X25173500Y-27418597D01*
X25173500Y-27581403D01*
X25205262Y-27741081D01*
X25267565Y-27891495D01*
X25267566Y-27891496D01*
X25358014Y-28026861D01*
X25358020Y-28026868D01*
X25473131Y-28141979D01*
X25473137Y-28141984D01*
X25608505Y-28232435D01*
X25758919Y-28294738D01*
X25918597Y-28326500D01*
X26081403Y-28326500D01*
X26241081Y-28294738D01*
X26391495Y-28232435D01*
X26526863Y-28141984D01*
X26641984Y-28026863D01*
X26732435Y-27891495D01*
X26794738Y-27741081D01*
X26826500Y-27581403D01*
X26826500Y-27418597D01*
X26794738Y-27258919D01*
X26732435Y-27108505D01*
X26641984Y-26973137D01*
X26641979Y-26973131D01*
X26526868Y-26858020D01*
X26526861Y-26858014D01*
X26491845Y-26834617D01*
X29199500Y-26834617D01*
X29199500Y-27572603D01*
X29201429Y-27582300D01*
X29226419Y-27707938D01*
X29226420Y-27707940D01*
X29279222Y-27835415D01*
X29279225Y-27835421D01*
X29355884Y-27950150D01*
X29355890Y-27950157D01*
X29453452Y-28047719D01*
X29453458Y-28047724D01*
X29568189Y-28124385D01*
X29568194Y-28124387D01*
X29695669Y-28177189D01*
X29695671Y-28177190D01*
X29831007Y-28204110D01*
X29968993Y-28204110D01*
X30104328Y-28177190D01*
X30104330Y-28177189D01*
X30231811Y-28124385D01*
X30346542Y-28047724D01*
X30444114Y-27950152D01*
X30520775Y-27835421D01*
X30573580Y-27707938D01*
X30600500Y-27572603D01*
X30600500Y-26834617D01*
X37839500Y-26834617D01*
X37839500Y-27572603D01*
X37841429Y-27582300D01*
X37866419Y-27707938D01*
X37866420Y-27707940D01*
X37919222Y-27835415D01*
X37919225Y-27835421D01*
X37995884Y-27950150D01*
X37995890Y-27950157D01*
X38093452Y-28047719D01*
X38093458Y-28047724D01*
X38208189Y-28124385D01*
X38208194Y-28124387D01*
X38335669Y-28177189D01*
X38335671Y-28177190D01*
X38471007Y-28204110D01*
X38608993Y-28204110D01*
X38744328Y-28177190D01*
X38744330Y-28177189D01*
X38871811Y-28124385D01*
X38986542Y-28047724D01*
X39084114Y-27950152D01*
X39160775Y-27835421D01*
X39213580Y-27707938D01*
X39240500Y-27572603D01*
X39240500Y-26834617D01*
X39227163Y-26767566D01*
X39213580Y-26699281D01*
X39213579Y-26699279D01*
X39160777Y-26571804D01*
X39160774Y-26571798D01*
X39084115Y-26457069D01*
X39084109Y-26457062D01*
X38986547Y-26359500D01*
X38986540Y-26359494D01*
X38871811Y-26282835D01*
X38871805Y-26282832D01*
X38744330Y-26230030D01*
X38744328Y-26230029D01*
X38608993Y-26203110D01*
X38471007Y-26203110D01*
X38335671Y-26230029D01*
X38335669Y-26230030D01*
X38208194Y-26282832D01*
X38208188Y-26282835D01*
X38093459Y-26359494D01*
X38093452Y-26359500D01*
X37995890Y-26457062D01*
X37995884Y-26457069D01*
X37919225Y-26571798D01*
X37919222Y-26571804D01*
X37866420Y-26699279D01*
X37866419Y-26699281D01*
X37847550Y-26794146D01*
X37839500Y-26834617D01*
X30600500Y-26834617D01*
X30587163Y-26767566D01*
X30573580Y-26699281D01*
X30573579Y-26699279D01*
X30520777Y-26571804D01*
X30520774Y-26571798D01*
X30444115Y-26457069D01*
X30444109Y-26457062D01*
X30346547Y-26359500D01*
X30346540Y-26359494D01*
X30231811Y-26282835D01*
X30231805Y-26282832D01*
X30104330Y-26230030D01*
X30104328Y-26230029D01*
X29968993Y-26203110D01*
X29831007Y-26203110D01*
X29695671Y-26230029D01*
X29695669Y-26230030D01*
X29568194Y-26282832D01*
X29568188Y-26282835D01*
X29453459Y-26359494D01*
X29453452Y-26359500D01*
X29355890Y-26457062D01*
X29355884Y-26457069D01*
X29279225Y-26571798D01*
X29279222Y-26571804D01*
X29226420Y-26699279D01*
X29226419Y-26699281D01*
X29207550Y-26794146D01*
X29199500Y-26834617D01*
X26491845Y-26834617D01*
X26391496Y-26767566D01*
X26391497Y-26767566D01*
X26391495Y-26767565D01*
X26241081Y-26705262D01*
X26241079Y-26705261D01*
X26241078Y-26705261D01*
X26081403Y-26673500D01*
X25918597Y-26673500D01*
X25758921Y-26705261D01*
X25608503Y-26767566D01*
X25473138Y-26858014D01*
X25473131Y-26858020D01*
X25358020Y-26973131D01*
X25358014Y-26973138D01*
X25267566Y-27108503D01*
X25205261Y-27258921D01*
X25176221Y-27404919D01*
X25173500Y-27418597D01*
X18610500Y-27418597D01*
X18610500Y-27404919D01*
X18575894Y-27230944D01*
X18508013Y-27067063D01*
X18409464Y-26919575D01*
X18409459Y-26919569D01*
X18284040Y-26794150D01*
X18284033Y-26794144D01*
X18185709Y-26728446D01*
X18136547Y-26695597D01*
X18136544Y-26695596D01*
X18136543Y-26695595D01*
X17972668Y-26627716D01*
X17972666Y-26627715D01*
X17798691Y-26593110D01*
X17621309Y-26593110D01*
X17447333Y-26627715D01*
X17447331Y-26627716D01*
X17283456Y-26695595D01*
X17283451Y-26695598D01*
X17135966Y-26794144D01*
X17135959Y-26794150D01*
X17010540Y-26919569D01*
X17010534Y-26919576D01*
X16911988Y-27067061D01*
X16911985Y-27067066D01*
X16844106Y-27230941D01*
X16844105Y-27230943D01*
X16809500Y-27404919D01*
X16809500Y-27582300D01*
X16844105Y-27756276D01*
X16844106Y-27756278D01*
X16900115Y-27891495D01*
X16911987Y-27920157D01*
X16944836Y-27969319D01*
X17010534Y-28067643D01*
X17010540Y-28067650D01*
X17135959Y-28193069D01*
X17135966Y-28193075D01*
X17171361Y-28216725D01*
X17283453Y-28291623D01*
X17313088Y-28303898D01*
X17418386Y-28347514D01*
X17458228Y-28384022D01*
X17465281Y-28437599D01*
X17436246Y-28483175D01*
X17388154Y-28499500D01*
X9051846Y-28499500D01*
X9001066Y-28481018D01*
X8974046Y-28434218D01*
X8983430Y-28381000D01*
X9021614Y-28347514D01*
X9093521Y-28317729D01*
X9156547Y-28291623D01*
X9304035Y-28193074D01*
X9429464Y-28067645D01*
X9528013Y-27920157D01*
X9595894Y-27756276D01*
X9630500Y-27582301D01*
X9630500Y-27404919D01*
X9595894Y-27230944D01*
X9528013Y-27067063D01*
X9429464Y-26919575D01*
X9429459Y-26919569D01*
X9304040Y-26794150D01*
X9304033Y-26794144D01*
X9205709Y-26728446D01*
X9156547Y-26695597D01*
X9156544Y-26695596D01*
X9156543Y-26695595D01*
X8992668Y-26627716D01*
X8992666Y-26627715D01*
X8818691Y-26593110D01*
X8641309Y-26593110D01*
X8467333Y-26627715D01*
X8467331Y-26627716D01*
X8303456Y-26695595D01*
X8303451Y-26695598D01*
X8155966Y-26794144D01*
X8155959Y-26794150D01*
X8030540Y-26919569D01*
X8030534Y-26919576D01*
X7931988Y-27067061D01*
X7931985Y-27067066D01*
X7864106Y-27230941D01*
X7864105Y-27230943D01*
X7829500Y-27404919D01*
X7829500Y-27582300D01*
X7864105Y-27756276D01*
X7864106Y-27756278D01*
X7920115Y-27891495D01*
X7931987Y-27920157D01*
X7964836Y-27969319D01*
X8030534Y-28067643D01*
X8030540Y-28067650D01*
X8155959Y-28193069D01*
X8155966Y-28193075D01*
X8191361Y-28216725D01*
X8303453Y-28291623D01*
X8333088Y-28303898D01*
X8438386Y-28347514D01*
X8478228Y-28384022D01*
X8485281Y-28437599D01*
X8456246Y-28483175D01*
X8408154Y-28499500D01*
X1004435Y-28499500D01*
X995589Y-28499003D01*
X897696Y-28487972D01*
X880450Y-28484036D01*
X791676Y-28452973D01*
X775738Y-28445297D01*
X696101Y-28395258D01*
X682270Y-28384228D01*
X615771Y-28317729D01*
X604741Y-28303898D01*
X554702Y-28224261D01*
X547026Y-28208323D01*
X541690Y-28193074D01*
X515962Y-28119547D01*
X512027Y-28102302D01*
X500997Y-28004409D01*
X500500Y-27995564D01*
X500500Y-24621291D01*
X2149499Y-24621291D01*
X2181160Y-24861781D01*
X2243943Y-25096092D01*
X2243944Y-25096095D01*
X2336776Y-25320213D01*
X2458061Y-25530284D01*
X2458064Y-25530289D01*
X2552952Y-25653950D01*
X2605733Y-25722736D01*
X2605738Y-25722742D01*
X2777257Y-25894261D01*
X2777262Y-25894265D01*
X2969711Y-26041936D01*
X3179788Y-26163224D01*
X3403900Y-26256054D01*
X3638211Y-26318838D01*
X3638217Y-26318838D01*
X3638218Y-26318839D01*
X3878708Y-26350500D01*
X3878712Y-26350500D01*
X4121291Y-26350500D01*
X4361781Y-26318839D01*
X4361780Y-26318839D01*
X4361789Y-26318838D01*
X4596100Y-26256054D01*
X4820212Y-26163224D01*
X5030289Y-26041936D01*
X5222738Y-25894265D01*
X5394265Y-25722738D01*
X5541936Y-25530289D01*
X5663224Y-25320212D01*
X5756054Y-25096100D01*
X5818838Y-24861789D01*
X5850500Y-24621288D01*
X5850500Y-24378712D01*
X5850500Y-24378708D01*
X5818839Y-24138218D01*
X5818838Y-24138217D01*
X5818838Y-24138211D01*
X5763391Y-23931281D01*
X5756056Y-23903907D01*
X5756055Y-23903904D01*
X5756054Y-23903900D01*
X5713408Y-23800942D01*
X18399500Y-23800942D01*
X18399500Y-23959057D01*
X18440422Y-24111783D01*
X18440423Y-24111785D01*
X18519481Y-24248718D01*
X18631281Y-24360518D01*
X18631283Y-24360519D01*
X18631284Y-24360520D01*
X18768216Y-24439577D01*
X18920943Y-24480500D01*
X18920945Y-24480500D01*
X19079055Y-24480500D01*
X19079057Y-24480500D01*
X19231784Y-24439577D01*
X19368716Y-24360520D01*
X19480520Y-24248716D01*
X19496555Y-24220942D01*
X23499500Y-24220942D01*
X23499500Y-24379057D01*
X23540422Y-24531783D01*
X23540423Y-24531785D01*
X23619481Y-24668718D01*
X23731281Y-24780518D01*
X23731283Y-24780519D01*
X23731284Y-24780520D01*
X23868216Y-24859577D01*
X24020943Y-24900500D01*
X24020945Y-24900500D01*
X24179055Y-24900500D01*
X24179057Y-24900500D01*
X24331784Y-24859577D01*
X24468716Y-24780520D01*
X24580520Y-24668716D01*
X24659577Y-24531784D01*
X24700500Y-24379057D01*
X24700500Y-24220943D01*
X24659577Y-24068216D01*
X24580520Y-23931284D01*
X24580519Y-23931283D01*
X24580518Y-23931281D01*
X24468718Y-23819481D01*
X24331785Y-23740423D01*
X24331783Y-23740422D01*
X24179057Y-23699500D01*
X24020943Y-23699500D01*
X24020942Y-23699500D01*
X23868216Y-23740422D01*
X23868214Y-23740423D01*
X23731281Y-23819481D01*
X23619481Y-23931281D01*
X23540423Y-24068214D01*
X23540422Y-24068216D01*
X23499500Y-24220942D01*
X19496555Y-24220942D01*
X19559577Y-24111784D01*
X19600500Y-23959057D01*
X19600500Y-23800943D01*
X19573438Y-23699946D01*
X19578148Y-23646113D01*
X19616359Y-23607902D01*
X19643999Y-23601773D01*
X19643921Y-23601176D01*
X19649049Y-23600500D01*
X19649057Y-23600500D01*
X19801784Y-23559577D01*
X19938716Y-23480520D01*
X20050520Y-23368716D01*
X20129577Y-23231784D01*
X20170500Y-23079057D01*
X20170500Y-22920943D01*
X20129577Y-22768216D01*
X20050520Y-22631284D01*
X20050519Y-22631283D01*
X20050518Y-22631281D01*
X19938718Y-22519481D01*
X19801785Y-22440423D01*
X19801783Y-22440422D01*
X19649057Y-22399500D01*
X19490943Y-22399500D01*
X19490942Y-22399500D01*
X19338216Y-22440422D01*
X19338214Y-22440423D01*
X19201281Y-22519481D01*
X19089481Y-22631281D01*
X19010423Y-22768214D01*
X19010422Y-22768216D01*
X18969500Y-22920942D01*
X18969500Y-23079057D01*
X18996562Y-23180053D01*
X18991852Y-23233887D01*
X18953641Y-23272098D01*
X18926000Y-23278226D01*
X18926079Y-23278824D01*
X18920942Y-23279500D01*
X18768216Y-23320422D01*
X18768214Y-23320423D01*
X18631281Y-23399481D01*
X18519481Y-23511281D01*
X18440423Y-23648214D01*
X18440422Y-23648216D01*
X18399500Y-23800942D01*
X5713408Y-23800942D01*
X5663224Y-23679788D01*
X5639756Y-23639141D01*
X5593820Y-23559577D01*
X5541936Y-23469711D01*
X5394265Y-23277262D01*
X5394261Y-23277257D01*
X5222742Y-23105738D01*
X5222736Y-23105733D01*
X5153950Y-23052952D01*
X5030289Y-22958064D01*
X4965992Y-22920942D01*
X4820213Y-22836776D01*
X4596095Y-22743944D01*
X4596092Y-22743943D01*
X4395431Y-22690176D01*
X4361789Y-22681162D01*
X4361787Y-22681161D01*
X4361781Y-22681160D01*
X4121291Y-22649500D01*
X4121288Y-22649500D01*
X3878712Y-22649500D01*
X3878709Y-22649500D01*
X3638218Y-22681160D01*
X3403907Y-22743943D01*
X3403904Y-22743944D01*
X3179786Y-22836776D01*
X2969715Y-22958061D01*
X2777263Y-23105733D01*
X2777257Y-23105738D01*
X2605738Y-23277257D01*
X2605733Y-23277263D01*
X2458061Y-23469715D01*
X2336776Y-23679786D01*
X2243944Y-23903904D01*
X2243943Y-23903907D01*
X2181160Y-24138218D01*
X2149500Y-24378708D01*
X2149500Y-24378712D01*
X2149500Y-24621288D01*
X2149500Y-24621291D01*
X2149499Y-24621291D01*
X500500Y-24621291D01*
X500500Y-21454919D01*
X8189500Y-21454919D01*
X8189500Y-21632301D01*
X8191116Y-21640423D01*
X8224105Y-21806276D01*
X8224106Y-21806278D01*
X8291985Y-21970153D01*
X8291988Y-21970158D01*
X8390534Y-22117643D01*
X8390540Y-22117650D01*
X8515959Y-22243069D01*
X8515965Y-22243074D01*
X8663453Y-22341623D01*
X8705671Y-22359110D01*
X8827331Y-22409503D01*
X8827333Y-22409504D01*
X9001309Y-22444110D01*
X9178691Y-22444110D01*
X9352666Y-22409504D01*
X9352668Y-22409503D01*
X9516547Y-22341623D01*
X9664035Y-22243074D01*
X9789464Y-22117645D01*
X9888013Y-21970157D01*
X9921707Y-21888811D01*
X10234500Y-21888811D01*
X10234500Y-22000852D01*
X10263496Y-22109066D01*
X10263497Y-22109070D01*
X10319516Y-22206097D01*
X10398734Y-22285315D01*
X10398736Y-22285316D01*
X10398737Y-22285317D01*
X10438477Y-22308261D01*
X10493644Y-22340112D01*
X10495763Y-22341335D01*
X10603982Y-22370332D01*
X10603984Y-22370332D01*
X10716016Y-22370332D01*
X10716018Y-22370332D01*
X10824237Y-22341335D01*
X10921263Y-22285317D01*
X10921263Y-22285316D01*
X10925747Y-22282728D01*
X10926381Y-22283827D01*
X10972516Y-22269271D01*
X11008584Y-22279780D01*
X11095763Y-22330113D01*
X11203982Y-22359110D01*
X11203984Y-22359110D01*
X11316016Y-22359110D01*
X11316018Y-22359110D01*
X11424237Y-22330113D01*
X11521263Y-22274095D01*
X11600485Y-22194873D01*
X11656503Y-22097847D01*
X11685500Y-21989628D01*
X11685500Y-21887589D01*
X14294500Y-21887589D01*
X14294500Y-21999630D01*
X14323496Y-22107844D01*
X14323497Y-22107848D01*
X14379516Y-22204875D01*
X14458734Y-22284093D01*
X14458736Y-22284094D01*
X14458737Y-22284095D01*
X14555763Y-22340113D01*
X14663982Y-22369110D01*
X14663984Y-22369110D01*
X14776016Y-22369110D01*
X14776018Y-22369110D01*
X14884237Y-22340113D01*
X14961153Y-22295705D01*
X15014369Y-22286322D01*
X15056512Y-22308261D01*
X15068734Y-22320483D01*
X15068736Y-22320484D01*
X15068737Y-22320485D01*
X15102732Y-22340112D01*
X15155074Y-22370332D01*
X15165763Y-22376503D01*
X15273982Y-22405500D01*
X15273984Y-22405500D01*
X15386016Y-22405500D01*
X15386018Y-22405500D01*
X15494237Y-22376503D01*
X15591263Y-22320485D01*
X15670485Y-22241263D01*
X15726503Y-22144237D01*
X15755500Y-22036018D01*
X15755500Y-21923982D01*
X15726503Y-21815763D01*
X15670485Y-21718737D01*
X15670484Y-21718736D01*
X15670483Y-21718734D01*
X15591265Y-21639516D01*
X15494238Y-21583497D01*
X15494234Y-21583496D01*
X15386020Y-21554500D01*
X15386018Y-21554500D01*
X15273982Y-21554500D01*
X15273979Y-21554500D01*
X15165765Y-21583496D01*
X15165761Y-21583497D01*
X15088848Y-21627903D01*
X15035629Y-21637287D01*
X14993487Y-21615348D01*
X14981265Y-21603126D01*
X14884238Y-21547107D01*
X14884234Y-21547106D01*
X14776020Y-21518110D01*
X14776018Y-21518110D01*
X14663982Y-21518110D01*
X14663979Y-21518110D01*
X14555765Y-21547106D01*
X14555761Y-21547107D01*
X14458734Y-21603126D01*
X14379516Y-21682344D01*
X14323497Y-21779371D01*
X14323496Y-21779375D01*
X14294500Y-21887589D01*
X11685500Y-21887589D01*
X11685500Y-21877592D01*
X11656503Y-21769373D01*
X11600485Y-21672347D01*
X11600484Y-21672346D01*
X11600483Y-21672344D01*
X11521265Y-21593126D01*
X11424238Y-21537107D01*
X11424234Y-21537106D01*
X11316020Y-21508110D01*
X11316018Y-21508110D01*
X11203982Y-21508110D01*
X11203979Y-21508110D01*
X11095765Y-21537106D01*
X11095761Y-21537107D01*
X10994253Y-21595714D01*
X10993620Y-21594618D01*
X10947460Y-21609169D01*
X10911413Y-21598660D01*
X10824238Y-21548329D01*
X10824234Y-21548328D01*
X10716020Y-21519332D01*
X10716018Y-21519332D01*
X10603982Y-21519332D01*
X10603979Y-21519332D01*
X10495765Y-21548328D01*
X10495761Y-21548329D01*
X10398734Y-21604348D01*
X10319516Y-21683566D01*
X10263497Y-21780593D01*
X10263496Y-21780597D01*
X10234500Y-21888811D01*
X9921707Y-21888811D01*
X9955894Y-21806276D01*
X9990500Y-21632301D01*
X9990500Y-21454919D01*
X9955894Y-21280944D01*
X9888013Y-21117063D01*
X9789464Y-20969575D01*
X9789459Y-20969569D01*
X9787184Y-20967294D01*
X9764346Y-20918318D01*
X9778332Y-20866120D01*
X9822596Y-20835126D01*
X9842135Y-20829891D01*
X9973365Y-20754125D01*
X10080515Y-20646975D01*
X10156281Y-20515745D01*
X10178156Y-20434105D01*
X12099500Y-20434105D01*
X12099500Y-20565894D01*
X12133607Y-20693183D01*
X12133608Y-20693187D01*
X12199501Y-20807316D01*
X12292683Y-20900498D01*
X12292685Y-20900499D01*
X12292686Y-20900500D01*
X12406814Y-20966392D01*
X12534108Y-21000500D01*
X12534110Y-21000500D01*
X12665890Y-21000500D01*
X12665892Y-21000500D01*
X12793186Y-20966392D01*
X12907314Y-20900500D01*
X12944139Y-20863674D01*
X12993114Y-20840837D01*
X13045312Y-20854822D01*
X13055855Y-20863669D01*
X13092686Y-20900500D01*
X13206814Y-20966392D01*
X13334108Y-21000500D01*
X13334110Y-21000500D01*
X13465890Y-21000500D01*
X13465892Y-21000500D01*
X13593186Y-20966392D01*
X13707314Y-20900500D01*
X13800500Y-20807314D01*
X13866392Y-20693186D01*
X13900500Y-20565892D01*
X13900500Y-20434108D01*
X13866392Y-20306814D01*
X13817514Y-20222155D01*
X16094500Y-20222155D01*
X16094500Y-20365064D01*
X16122381Y-20505231D01*
X16122382Y-20505235D01*
X16177068Y-20637257D01*
X16177071Y-20637263D01*
X16256466Y-20756087D01*
X16256472Y-20756094D01*
X16357515Y-20857137D01*
X16357522Y-20857143D01*
X16375432Y-20869110D01*
X16476347Y-20936539D01*
X16541132Y-20963373D01*
X16580972Y-20999881D01*
X16588025Y-21053457D01*
X16576585Y-21080247D01*
X16551990Y-21117057D01*
X16551985Y-21117066D01*
X16484106Y-21280941D01*
X16484105Y-21280943D01*
X16449500Y-21454919D01*
X16449500Y-21632301D01*
X16451116Y-21640423D01*
X16484105Y-21806276D01*
X16484106Y-21806278D01*
X16551985Y-21970153D01*
X16551988Y-21970158D01*
X16650534Y-22117643D01*
X16650540Y-22117650D01*
X16775959Y-22243069D01*
X16775965Y-22243074D01*
X16923453Y-22341623D01*
X16965671Y-22359110D01*
X17087331Y-22409503D01*
X17087333Y-22409504D01*
X17261309Y-22444110D01*
X17438691Y-22444110D01*
X17612666Y-22409504D01*
X17612668Y-22409503D01*
X17776547Y-22341623D01*
X17924035Y-22243074D01*
X18046167Y-22120942D01*
X23499500Y-22120942D01*
X23499500Y-22279057D01*
X23540422Y-22431783D01*
X23540423Y-22431785D01*
X23619481Y-22568718D01*
X23731281Y-22680518D01*
X23841138Y-22743944D01*
X23868216Y-22759577D01*
X24020943Y-22800500D01*
X24020945Y-22800500D01*
X24179055Y-22800500D01*
X24179057Y-22800500D01*
X24331784Y-22759577D01*
X24468716Y-22680520D01*
X24580520Y-22568716D01*
X24659577Y-22431784D01*
X24700500Y-22279057D01*
X24700500Y-22120943D01*
X24700500Y-22120942D01*
X24999500Y-22120942D01*
X24999500Y-22279057D01*
X25040422Y-22431783D01*
X25040423Y-22431785D01*
X25119481Y-22568718D01*
X25231281Y-22680518D01*
X25341138Y-22743944D01*
X25368216Y-22759577D01*
X25520943Y-22800500D01*
X25520945Y-22800500D01*
X25679055Y-22800500D01*
X25679057Y-22800500D01*
X25831784Y-22759577D01*
X25968716Y-22680520D01*
X26080520Y-22568716D01*
X26159577Y-22431784D01*
X26166856Y-22404617D01*
X29199500Y-22404617D01*
X29199500Y-23642602D01*
X29226419Y-23777938D01*
X29226420Y-23777940D01*
X29279222Y-23905415D01*
X29279225Y-23905421D01*
X29355884Y-24020150D01*
X29355890Y-24020157D01*
X29453452Y-24117719D01*
X29453459Y-24117725D01*
X29470498Y-24129110D01*
X29568189Y-24194385D01*
X29568194Y-24194387D01*
X29695669Y-24247189D01*
X29695671Y-24247190D01*
X29831007Y-24274110D01*
X29968993Y-24274110D01*
X30104328Y-24247190D01*
X30104330Y-24247189D01*
X30231811Y-24194385D01*
X30346542Y-24117724D01*
X30444114Y-24020152D01*
X30520775Y-23905421D01*
X30573580Y-23777938D01*
X30600500Y-23642603D01*
X30600500Y-23642602D01*
X30601257Y-23638797D01*
X30602989Y-23639141D01*
X30623628Y-23596056D01*
X30672839Y-23573727D01*
X30724889Y-23588255D01*
X30755215Y-23632047D01*
X30793718Y-23775744D01*
X30793719Y-23775746D01*
X30869486Y-23906977D01*
X30976632Y-24014123D01*
X30976634Y-24014124D01*
X30976635Y-24014125D01*
X31107865Y-24089891D01*
X31254234Y-24129110D01*
X31254236Y-24129110D01*
X31405764Y-24129110D01*
X31405766Y-24129110D01*
X31552135Y-24089891D01*
X31683365Y-24014125D01*
X31790515Y-23906975D01*
X31866281Y-23775745D01*
X31905500Y-23629376D01*
X31905500Y-23477844D01*
X31905499Y-23477841D01*
X36534500Y-23477841D01*
X36534500Y-23629378D01*
X36573718Y-23775742D01*
X36573719Y-23775746D01*
X36649486Y-23906977D01*
X36756632Y-24014123D01*
X36756634Y-24014124D01*
X36756635Y-24014125D01*
X36887865Y-24089891D01*
X37034234Y-24129110D01*
X37034236Y-24129110D01*
X37185764Y-24129110D01*
X37185766Y-24129110D01*
X37332135Y-24089891D01*
X37463365Y-24014125D01*
X37570515Y-23906975D01*
X37646281Y-23775745D01*
X37684784Y-23632047D01*
X37715779Y-23587781D01*
X37767977Y-23573795D01*
X37816953Y-23596632D01*
X37837055Y-23639132D01*
X37838743Y-23638797D01*
X37866419Y-23777938D01*
X37866420Y-23777940D01*
X37919222Y-23905415D01*
X37919225Y-23905421D01*
X37995884Y-24020150D01*
X37995890Y-24020157D01*
X38093452Y-24117719D01*
X38093459Y-24117725D01*
X38110498Y-24129110D01*
X38208189Y-24194385D01*
X38208194Y-24194387D01*
X38335669Y-24247189D01*
X38335671Y-24247190D01*
X38471007Y-24274110D01*
X38608993Y-24274110D01*
X38744328Y-24247190D01*
X38744330Y-24247189D01*
X38871811Y-24194385D01*
X38986542Y-24117724D01*
X39084114Y-24020152D01*
X39160775Y-23905421D01*
X39213580Y-23777938D01*
X39240500Y-23642603D01*
X39240500Y-22404617D01*
X39223765Y-22320483D01*
X39213580Y-22269281D01*
X39213579Y-22269279D01*
X39160777Y-22141804D01*
X39160774Y-22141798D01*
X39138089Y-22107848D01*
X39084114Y-22027068D01*
X39084109Y-22027062D01*
X38986547Y-21929500D01*
X38986540Y-21929494D01*
X38871811Y-21852835D01*
X38871805Y-21852832D01*
X38744330Y-21800030D01*
X38744328Y-21800029D01*
X38608993Y-21773110D01*
X38471007Y-21773110D01*
X38335671Y-21800029D01*
X38335669Y-21800030D01*
X38208194Y-21852832D01*
X38208188Y-21852835D01*
X38093459Y-21929494D01*
X38093452Y-21929500D01*
X37995890Y-22027062D01*
X37995884Y-22027069D01*
X37919225Y-22141798D01*
X37919222Y-22141804D01*
X37866420Y-22269279D01*
X37866419Y-22269281D01*
X37839500Y-22404617D01*
X37839500Y-23452516D01*
X37821018Y-23503296D01*
X37774218Y-23530316D01*
X37721000Y-23520932D01*
X37686264Y-23479536D01*
X37684192Y-23472962D01*
X37664503Y-23399481D01*
X37646281Y-23331475D01*
X37570515Y-23200245D01*
X37570514Y-23200244D01*
X37570513Y-23200242D01*
X37463367Y-23093096D01*
X37332136Y-23017329D01*
X37332132Y-23017328D01*
X37185768Y-22978110D01*
X37185766Y-22978110D01*
X37034234Y-22978110D01*
X37034231Y-22978110D01*
X36887867Y-23017328D01*
X36887863Y-23017329D01*
X36756632Y-23093096D01*
X36649486Y-23200242D01*
X36573719Y-23331473D01*
X36573718Y-23331477D01*
X36534500Y-23477841D01*
X31905499Y-23477841D01*
X31866281Y-23331475D01*
X31790515Y-23200245D01*
X31790514Y-23200244D01*
X31790513Y-23200242D01*
X31683367Y-23093096D01*
X31552136Y-23017329D01*
X31552132Y-23017328D01*
X31405768Y-22978110D01*
X31405766Y-22978110D01*
X31254234Y-22978110D01*
X31254231Y-22978110D01*
X31107867Y-23017328D01*
X31107863Y-23017329D01*
X30976632Y-23093096D01*
X30869486Y-23200242D01*
X30793719Y-23331473D01*
X30793718Y-23331477D01*
X30755808Y-23472962D01*
X30724813Y-23517229D01*
X30672615Y-23531215D01*
X30623639Y-23508378D01*
X30600801Y-23459402D01*
X30600500Y-23452516D01*
X30600500Y-22404617D01*
X30573580Y-22269281D01*
X30573579Y-22269279D01*
X30520777Y-22141804D01*
X30520774Y-22141798D01*
X30498089Y-22107848D01*
X30444114Y-22027068D01*
X30444109Y-22027062D01*
X30346547Y-21929500D01*
X30346540Y-21929494D01*
X30231811Y-21852835D01*
X30231805Y-21852832D01*
X30104330Y-21800030D01*
X30104328Y-21800029D01*
X29968993Y-21773110D01*
X29831007Y-21773110D01*
X29695671Y-21800029D01*
X29695669Y-21800030D01*
X29568194Y-21852832D01*
X29568188Y-21852835D01*
X29453459Y-21929494D01*
X29453452Y-21929500D01*
X29355890Y-22027062D01*
X29355884Y-22027069D01*
X29279225Y-22141798D01*
X29279222Y-22141804D01*
X29226420Y-22269279D01*
X29226419Y-22269281D01*
X29199500Y-22404617D01*
X26166856Y-22404617D01*
X26200500Y-22279057D01*
X26200500Y-22120943D01*
X26159577Y-21968216D01*
X26080520Y-21831284D01*
X26080519Y-21831283D01*
X26080518Y-21831281D01*
X25968718Y-21719481D01*
X25831785Y-21640423D01*
X25831783Y-21640422D01*
X25679057Y-21599500D01*
X25520943Y-21599500D01*
X25520942Y-21599500D01*
X25368216Y-21640422D01*
X25368214Y-21640423D01*
X25231281Y-21719481D01*
X25119481Y-21831281D01*
X25040423Y-21968214D01*
X25040422Y-21968216D01*
X24999500Y-22120942D01*
X24700500Y-22120942D01*
X24659577Y-21968216D01*
X24580520Y-21831284D01*
X24580519Y-21831283D01*
X24580518Y-21831281D01*
X24468718Y-21719481D01*
X24331785Y-21640423D01*
X24331783Y-21640422D01*
X24179057Y-21599500D01*
X24020943Y-21599500D01*
X24020942Y-21599500D01*
X23868216Y-21640422D01*
X23868214Y-21640423D01*
X23731281Y-21719481D01*
X23619481Y-21831281D01*
X23540423Y-21968214D01*
X23540422Y-21968216D01*
X23499500Y-22120942D01*
X18046167Y-22120942D01*
X18049464Y-22117645D01*
X18148013Y-21970157D01*
X18215894Y-21806276D01*
X18250500Y-21632301D01*
X18250500Y-21454919D01*
X18215894Y-21280944D01*
X18148013Y-21117063D01*
X18049464Y-20969575D01*
X18049459Y-20969569D01*
X17924040Y-20844150D01*
X17924033Y-20844144D01*
X17825709Y-20778446D01*
X17776547Y-20745597D01*
X17776544Y-20745596D01*
X17776543Y-20745595D01*
X17612668Y-20677716D01*
X17553258Y-20665898D01*
X17507059Y-20637863D01*
X17489690Y-20586691D01*
X17495685Y-20558183D01*
X17517619Y-20505230D01*
X17545500Y-20365065D01*
X17545500Y-20222155D01*
X17517619Y-20081990D01*
X17513264Y-20071477D01*
X17467828Y-19961784D01*
X17462929Y-19949957D01*
X17384845Y-19833096D01*
X17383533Y-19831132D01*
X17383527Y-19831125D01*
X17282484Y-19730082D01*
X17282477Y-19730076D01*
X17224670Y-19691451D01*
X17163653Y-19650681D01*
X17163647Y-19650678D01*
X17116001Y-19630942D01*
X32269500Y-19630942D01*
X32269500Y-19789057D01*
X32310422Y-19941783D01*
X32310423Y-19941785D01*
X32389481Y-20078718D01*
X32501281Y-20190518D01*
X32501283Y-20190519D01*
X32501284Y-20190520D01*
X32638216Y-20269577D01*
X32790943Y-20310500D01*
X32790945Y-20310500D01*
X32949055Y-20310500D01*
X32949057Y-20310500D01*
X33101784Y-20269577D01*
X33238716Y-20190520D01*
X33350520Y-20078716D01*
X33429577Y-19941784D01*
X33470500Y-19789057D01*
X33470500Y-19650942D01*
X35089500Y-19650942D01*
X35089500Y-19809057D01*
X35130422Y-19961783D01*
X35130423Y-19961785D01*
X35209481Y-20098718D01*
X35321281Y-20210518D01*
X35321283Y-20210519D01*
X35321284Y-20210520D01*
X35458216Y-20289577D01*
X35610943Y-20330500D01*
X35610945Y-20330500D01*
X35769055Y-20330500D01*
X35769057Y-20330500D01*
X35921784Y-20289577D01*
X36058716Y-20210520D01*
X36170520Y-20098716D01*
X36249577Y-19961784D01*
X36290500Y-19809057D01*
X36290500Y-19650943D01*
X36249577Y-19498216D01*
X36170520Y-19361284D01*
X36170519Y-19361283D01*
X36170518Y-19361281D01*
X36058718Y-19249481D01*
X35921785Y-19170423D01*
X35921783Y-19170422D01*
X35769057Y-19129500D01*
X35610943Y-19129500D01*
X35610942Y-19129500D01*
X35458216Y-19170422D01*
X35458214Y-19170423D01*
X35321281Y-19249481D01*
X35209481Y-19361281D01*
X35130423Y-19498214D01*
X35130422Y-19498216D01*
X35089500Y-19650942D01*
X33470500Y-19650942D01*
X33470500Y-19630943D01*
X33429577Y-19478216D01*
X33350520Y-19341284D01*
X33350519Y-19341283D01*
X33350518Y-19341281D01*
X33238718Y-19229481D01*
X33101785Y-19150423D01*
X33101783Y-19150422D01*
X32949057Y-19109500D01*
X32790943Y-19109500D01*
X32790942Y-19109500D01*
X32638216Y-19150422D01*
X32638214Y-19150423D01*
X32501281Y-19229481D01*
X32389481Y-19341281D01*
X32310423Y-19478214D01*
X32310422Y-19478216D01*
X32269500Y-19630942D01*
X17116001Y-19630942D01*
X17031625Y-19595992D01*
X17031621Y-19595991D01*
X16891455Y-19568110D01*
X16748545Y-19568110D01*
X16608378Y-19595991D01*
X16608374Y-19595992D01*
X16476352Y-19650678D01*
X16476346Y-19650681D01*
X16357522Y-19730076D01*
X16357515Y-19730082D01*
X16256472Y-19831125D01*
X16256466Y-19831132D01*
X16177071Y-19949956D01*
X16177068Y-19949962D01*
X16122382Y-20081984D01*
X16122381Y-20081988D01*
X16094500Y-20222155D01*
X13817514Y-20222155D01*
X13800500Y-20192686D01*
X13800499Y-20192685D01*
X13800498Y-20192683D01*
X13707316Y-20099501D01*
X13593187Y-20033608D01*
X13593183Y-20033607D01*
X13465894Y-19999500D01*
X13465892Y-19999500D01*
X13334108Y-19999500D01*
X13334105Y-19999500D01*
X13206816Y-20033607D01*
X13206812Y-20033608D01*
X13092683Y-20099501D01*
X13055861Y-20136324D01*
X13006885Y-20159162D01*
X12954687Y-20145176D01*
X12944139Y-20136324D01*
X12907316Y-20099501D01*
X12793187Y-20033608D01*
X12793183Y-20033607D01*
X12665894Y-19999500D01*
X12665892Y-19999500D01*
X12534108Y-19999500D01*
X12534105Y-19999500D01*
X12406816Y-20033607D01*
X12406812Y-20033608D01*
X12292683Y-20099501D01*
X12199501Y-20192683D01*
X12133608Y-20306812D01*
X12133607Y-20306816D01*
X12099500Y-20434105D01*
X10178156Y-20434105D01*
X10195500Y-20369376D01*
X10195500Y-20217844D01*
X10156281Y-20071475D01*
X10080515Y-19940245D01*
X10080514Y-19940244D01*
X10080513Y-19940242D01*
X9973367Y-19833096D01*
X9842136Y-19757329D01*
X9842132Y-19757328D01*
X9695768Y-19718110D01*
X9695766Y-19718110D01*
X9544234Y-19718110D01*
X9544231Y-19718110D01*
X9397867Y-19757328D01*
X9397863Y-19757329D01*
X9266632Y-19833096D01*
X9159486Y-19940242D01*
X9083719Y-20071473D01*
X9083718Y-20071477D01*
X9044500Y-20217841D01*
X9044500Y-20369378D01*
X9083718Y-20515742D01*
X9083719Y-20515746D01*
X9088837Y-20524610D01*
X9098221Y-20577828D01*
X9071201Y-20624628D01*
X9020421Y-20643110D01*
X9001309Y-20643110D01*
X8827333Y-20677715D01*
X8827331Y-20677716D01*
X8663456Y-20745595D01*
X8663451Y-20745598D01*
X8515966Y-20844144D01*
X8515959Y-20844150D01*
X8390540Y-20969569D01*
X8390534Y-20969576D01*
X8291988Y-21117061D01*
X8291985Y-21117066D01*
X8224106Y-21280941D01*
X8224105Y-21280943D01*
X8189500Y-21454919D01*
X500500Y-21454919D01*
X500500Y-18270942D01*
X23937000Y-18270942D01*
X23937000Y-18429057D01*
X23977922Y-18581783D01*
X23977923Y-18581785D01*
X24056981Y-18718718D01*
X24168781Y-18830518D01*
X24168783Y-18830519D01*
X24168784Y-18830520D01*
X24305716Y-18909577D01*
X24458443Y-18950500D01*
X24458445Y-18950500D01*
X24616555Y-18950500D01*
X24616557Y-18950500D01*
X24769284Y-18909577D01*
X24906216Y-18830520D01*
X25018020Y-18718716D01*
X25097077Y-18581784D01*
X25138000Y-18429057D01*
X25138000Y-18270943D01*
X25097807Y-18120942D01*
X32299500Y-18120942D01*
X32299500Y-18279057D01*
X32340422Y-18431783D01*
X32340423Y-18431785D01*
X32419481Y-18568718D01*
X32531281Y-18680518D01*
X32531283Y-18680519D01*
X32531284Y-18680520D01*
X32668216Y-18759577D01*
X32820943Y-18800500D01*
X32820945Y-18800500D01*
X32979055Y-18800500D01*
X32979057Y-18800500D01*
X33131784Y-18759577D01*
X33268716Y-18680520D01*
X33380520Y-18568716D01*
X33459577Y-18431784D01*
X33500500Y-18279057D01*
X33500500Y-18120943D01*
X33500500Y-18120942D01*
X35099500Y-18120942D01*
X35099500Y-18279057D01*
X35140422Y-18431783D01*
X35140423Y-18431785D01*
X35219481Y-18568718D01*
X35331281Y-18680518D01*
X35331283Y-18680519D01*
X35331284Y-18680520D01*
X35468216Y-18759577D01*
X35620943Y-18800500D01*
X35620945Y-18800500D01*
X35779055Y-18800500D01*
X35779057Y-18800500D01*
X35931784Y-18759577D01*
X36068716Y-18680520D01*
X36180520Y-18568716D01*
X36259577Y-18431784D01*
X36300500Y-18279057D01*
X36300500Y-18120943D01*
X36259577Y-17968216D01*
X36180520Y-17831284D01*
X36180519Y-17831283D01*
X36180518Y-17831281D01*
X36068718Y-17719481D01*
X35931785Y-17640423D01*
X35931783Y-17640422D01*
X35779057Y-17599500D01*
X35620943Y-17599500D01*
X35620942Y-17599500D01*
X35468216Y-17640422D01*
X35468214Y-17640423D01*
X35331281Y-17719481D01*
X35219481Y-17831281D01*
X35140423Y-17968214D01*
X35140422Y-17968216D01*
X35099500Y-18120942D01*
X33500500Y-18120942D01*
X33459577Y-17968216D01*
X33380520Y-17831284D01*
X33380519Y-17831283D01*
X33380518Y-17831281D01*
X33268718Y-17719481D01*
X33131785Y-17640423D01*
X33131783Y-17640422D01*
X32979057Y-17599500D01*
X32820943Y-17599500D01*
X32820942Y-17599500D01*
X32668216Y-17640422D01*
X32668214Y-17640423D01*
X32531281Y-17719481D01*
X32419481Y-17831281D01*
X32340423Y-17968214D01*
X32340422Y-17968216D01*
X32299500Y-18120942D01*
X25097807Y-18120942D01*
X25097077Y-18118216D01*
X25018020Y-17981284D01*
X25018019Y-17981283D01*
X25018018Y-17981281D01*
X24906218Y-17869481D01*
X24769285Y-17790423D01*
X24769283Y-17790422D01*
X24616557Y-17749500D01*
X24458443Y-17749500D01*
X24458442Y-17749500D01*
X24305716Y-17790422D01*
X24305714Y-17790423D01*
X24168781Y-17869481D01*
X24056981Y-17981281D01*
X23977923Y-18118214D01*
X23977922Y-18118216D01*
X23937000Y-18270942D01*
X500500Y-18270942D01*
X500500Y-16120942D01*
X8499500Y-16120942D01*
X8499500Y-16279057D01*
X8540422Y-16431783D01*
X8540423Y-16431785D01*
X8619481Y-16568718D01*
X8731281Y-16680518D01*
X8731283Y-16680519D01*
X8731284Y-16680520D01*
X8868216Y-16759577D01*
X9020943Y-16800500D01*
X9020945Y-16800500D01*
X9179055Y-16800500D01*
X9179057Y-16800500D01*
X9331784Y-16759577D01*
X9468716Y-16680520D01*
X9580520Y-16568716D01*
X9631196Y-16480942D01*
X13089500Y-16480942D01*
X13089500Y-16639057D01*
X13130422Y-16791783D01*
X13130423Y-16791785D01*
X13209481Y-16928718D01*
X13321282Y-17040519D01*
X13440816Y-17109531D01*
X13475553Y-17150927D01*
X13475553Y-17204966D01*
X13469734Y-17217445D01*
X13440423Y-17268215D01*
X13440422Y-17268216D01*
X13399500Y-17420942D01*
X13399500Y-17579057D01*
X13440422Y-17731783D01*
X13440423Y-17731785D01*
X13519481Y-17868718D01*
X13631281Y-17980518D01*
X13631283Y-17980519D01*
X13631284Y-17980520D01*
X13768216Y-18059577D01*
X13920943Y-18100500D01*
X13920945Y-18100500D01*
X14079055Y-18100500D01*
X14079057Y-18100500D01*
X14231784Y-18059577D01*
X14368716Y-17980520D01*
X14480520Y-17868716D01*
X14559577Y-17731784D01*
X14600500Y-17579057D01*
X14600500Y-17420943D01*
X14559577Y-17268216D01*
X14559576Y-17268214D01*
X14480518Y-17131281D01*
X14368718Y-17019481D01*
X14249182Y-16950467D01*
X14214446Y-16909071D01*
X14214446Y-16855031D01*
X14220260Y-16842562D01*
X14249577Y-16791784D01*
X14290500Y-16639057D01*
X14290500Y-16480943D01*
X14290500Y-16480942D01*
X17799500Y-16480942D01*
X17799500Y-16639057D01*
X17840422Y-16791783D01*
X17840423Y-16791785D01*
X17919481Y-16928718D01*
X18015022Y-17024259D01*
X18037860Y-17073235D01*
X18023874Y-17125433D01*
X18021842Y-17128204D01*
X18019483Y-17131279D01*
X17940423Y-17268214D01*
X17940422Y-17268216D01*
X17899500Y-17420942D01*
X17899500Y-17579057D01*
X17940422Y-17731783D01*
X17940423Y-17731785D01*
X18019481Y-17868718D01*
X18131281Y-17980518D01*
X18131283Y-17980519D01*
X18131284Y-17980520D01*
X18268216Y-18059577D01*
X18420943Y-18100500D01*
X18420945Y-18100500D01*
X18579055Y-18100500D01*
X18579057Y-18100500D01*
X18731784Y-18059577D01*
X18868716Y-17980520D01*
X18980520Y-17868716D01*
X19059577Y-17731784D01*
X19100500Y-17579057D01*
X19100500Y-17420943D01*
X19059577Y-17268216D01*
X19059576Y-17268214D01*
X18980518Y-17131281D01*
X18884977Y-17035740D01*
X18862139Y-16986764D01*
X18876125Y-16934566D01*
X18878165Y-16931785D01*
X18880519Y-16928717D01*
X18923062Y-16855031D01*
X18959577Y-16791784D01*
X19000500Y-16639057D01*
X19000500Y-16620942D01*
X32299500Y-16620942D01*
X32299500Y-16779057D01*
X32340422Y-16931783D01*
X32340423Y-16931785D01*
X32419481Y-17068718D01*
X32531281Y-17180518D01*
X32531283Y-17180519D01*
X32531284Y-17180520D01*
X32668216Y-17259577D01*
X32820943Y-17300500D01*
X32820945Y-17300500D01*
X32979055Y-17300500D01*
X32979057Y-17300500D01*
X33131784Y-17259577D01*
X33268716Y-17180520D01*
X33380520Y-17068716D01*
X33459577Y-16931784D01*
X33500500Y-16779057D01*
X33500500Y-16620943D01*
X33500500Y-16620942D01*
X35099500Y-16620942D01*
X35099500Y-16779057D01*
X35140422Y-16931783D01*
X35140423Y-16931785D01*
X35219481Y-17068718D01*
X35331281Y-17180518D01*
X35331283Y-17180519D01*
X35331284Y-17180520D01*
X35468216Y-17259577D01*
X35620943Y-17300500D01*
X35620945Y-17300500D01*
X35779055Y-17300500D01*
X35779057Y-17300500D01*
X35931784Y-17259577D01*
X36068716Y-17180520D01*
X36180520Y-17068716D01*
X36259577Y-16931784D01*
X36300500Y-16779057D01*
X36300500Y-16620943D01*
X36259577Y-16468216D01*
X36180520Y-16331284D01*
X36180519Y-16331283D01*
X36180518Y-16331281D01*
X36068718Y-16219481D01*
X35931785Y-16140423D01*
X35931783Y-16140422D01*
X35779057Y-16099500D01*
X35620943Y-16099500D01*
X35620942Y-16099500D01*
X35468216Y-16140422D01*
X35468214Y-16140423D01*
X35331281Y-16219481D01*
X35219481Y-16331281D01*
X35140423Y-16468214D01*
X35140422Y-16468216D01*
X35099500Y-16620942D01*
X33500500Y-16620942D01*
X33459577Y-16468216D01*
X33380520Y-16331284D01*
X33380519Y-16331283D01*
X33380518Y-16331281D01*
X33268718Y-16219481D01*
X33131785Y-16140423D01*
X33131783Y-16140422D01*
X32979057Y-16099500D01*
X32820943Y-16099500D01*
X32820942Y-16099500D01*
X32668216Y-16140422D01*
X32668214Y-16140423D01*
X32531281Y-16219481D01*
X32419481Y-16331281D01*
X32340423Y-16468214D01*
X32340422Y-16468216D01*
X32299500Y-16620942D01*
X19000500Y-16620942D01*
X19000500Y-16480943D01*
X18959577Y-16328216D01*
X18880520Y-16191284D01*
X18880519Y-16191283D01*
X18880518Y-16191281D01*
X18768718Y-16079481D01*
X18631785Y-16000423D01*
X18631783Y-16000422D01*
X18479057Y-15959500D01*
X18320943Y-15959500D01*
X18320942Y-15959500D01*
X18168216Y-16000422D01*
X18168214Y-16000423D01*
X18031281Y-16079481D01*
X17919481Y-16191281D01*
X17840423Y-16328214D01*
X17840422Y-16328216D01*
X17799500Y-16480942D01*
X14290500Y-16480942D01*
X14249577Y-16328216D01*
X14170520Y-16191284D01*
X14170519Y-16191283D01*
X14170518Y-16191281D01*
X14058718Y-16079481D01*
X13921785Y-16000423D01*
X13921783Y-16000422D01*
X13769057Y-15959500D01*
X13610943Y-15959500D01*
X13610942Y-15959500D01*
X13458216Y-16000422D01*
X13458214Y-16000423D01*
X13321281Y-16079481D01*
X13209481Y-16191281D01*
X13130423Y-16328214D01*
X13130422Y-16328216D01*
X13089500Y-16480942D01*
X9631196Y-16480942D01*
X9659577Y-16431784D01*
X9700500Y-16279057D01*
X9700500Y-16120943D01*
X9659577Y-15968216D01*
X9580520Y-15831284D01*
X9580519Y-15831283D01*
X9580518Y-15831281D01*
X9468718Y-15719481D01*
X9331785Y-15640423D01*
X9331783Y-15640422D01*
X9179057Y-15599500D01*
X9020943Y-15599500D01*
X9020942Y-15599500D01*
X8868216Y-15640422D01*
X8868214Y-15640423D01*
X8731281Y-15719481D01*
X8619481Y-15831281D01*
X8540423Y-15968214D01*
X8540422Y-15968216D01*
X8499500Y-16120942D01*
X500500Y-16120942D01*
X500500Y-14520942D01*
X8299500Y-14520942D01*
X8299500Y-14679057D01*
X8340422Y-14831783D01*
X8340423Y-14831785D01*
X8419481Y-14968718D01*
X8531281Y-15080518D01*
X8531283Y-15080519D01*
X8531284Y-15080520D01*
X8668216Y-15159577D01*
X8820943Y-15200500D01*
X8820945Y-15200500D01*
X8979055Y-15200500D01*
X8979057Y-15200500D01*
X9131784Y-15159577D01*
X9268716Y-15080520D01*
X9380520Y-14968716D01*
X9394802Y-14943979D01*
X11124500Y-14943979D01*
X11124500Y-15056020D01*
X11153496Y-15164234D01*
X11153497Y-15164238D01*
X11209516Y-15261265D01*
X11288734Y-15340483D01*
X11288736Y-15340484D01*
X11288737Y-15340485D01*
X11385763Y-15396503D01*
X11493982Y-15425500D01*
X11493984Y-15425500D01*
X11553025Y-15425500D01*
X11603805Y-15443982D01*
X11629333Y-15484054D01*
X11653496Y-15574234D01*
X11653497Y-15574238D01*
X11709516Y-15671265D01*
X11788734Y-15750483D01*
X11788736Y-15750484D01*
X11788737Y-15750485D01*
X11885763Y-15806503D01*
X11993982Y-15835500D01*
X11993984Y-15835500D01*
X12106016Y-15835500D01*
X12106018Y-15835500D01*
X12214237Y-15806503D01*
X12311263Y-15750485D01*
X12390485Y-15671263D01*
X12446503Y-15574237D01*
X12475500Y-15466018D01*
X12475500Y-15353982D01*
X12446503Y-15245763D01*
X12390485Y-15148737D01*
X12390484Y-15148736D01*
X12390483Y-15148734D01*
X12311265Y-15069516D01*
X12214238Y-15013497D01*
X12214234Y-15013496D01*
X12106020Y-14984500D01*
X12106018Y-14984500D01*
X12046975Y-14984500D01*
X11996195Y-14966018D01*
X11970667Y-14925946D01*
X11946503Y-14835763D01*
X11890485Y-14738737D01*
X11890484Y-14738736D01*
X11890483Y-14738734D01*
X11811265Y-14659516D01*
X11714238Y-14603497D01*
X11714234Y-14603496D01*
X11606020Y-14574500D01*
X11606018Y-14574500D01*
X11493982Y-14574500D01*
X11493979Y-14574500D01*
X11385765Y-14603496D01*
X11385761Y-14603497D01*
X11288734Y-14659516D01*
X11209516Y-14738734D01*
X11153497Y-14835761D01*
X11153496Y-14835765D01*
X11124500Y-14943979D01*
X9394802Y-14943979D01*
X9459577Y-14831784D01*
X9500500Y-14679057D01*
X9500500Y-14520943D01*
X9459577Y-14368216D01*
X9380520Y-14231284D01*
X9380519Y-14231283D01*
X9380518Y-14231281D01*
X9268718Y-14119481D01*
X9131785Y-14040423D01*
X9131783Y-14040422D01*
X8979057Y-13999500D01*
X8820943Y-13999500D01*
X8820942Y-13999500D01*
X8668216Y-14040422D01*
X8668214Y-14040423D01*
X8531281Y-14119481D01*
X8419481Y-14231281D01*
X8340423Y-14368214D01*
X8340422Y-14368216D01*
X8299500Y-14520942D01*
X500500Y-14520942D01*
X500500Y-12918597D01*
X1173500Y-12918597D01*
X1173500Y-13081402D01*
X1192924Y-13179057D01*
X1205262Y-13241081D01*
X1267565Y-13391495D01*
X1267566Y-13391496D01*
X1358014Y-13526861D01*
X1358020Y-13526868D01*
X1473131Y-13641979D01*
X1473138Y-13641985D01*
X1487805Y-13651785D01*
X1608505Y-13732435D01*
X1758919Y-13794738D01*
X1918597Y-13826500D01*
X2081403Y-13826500D01*
X2241081Y-13794738D01*
X2391495Y-13732435D01*
X2526863Y-13641984D01*
X2641984Y-13526863D01*
X2732435Y-13391495D01*
X2761659Y-13320942D01*
X15599500Y-13320942D01*
X15599500Y-13479057D01*
X15640422Y-13631783D01*
X15640423Y-13631785D01*
X15719481Y-13768718D01*
X15831281Y-13880518D01*
X15831283Y-13880519D01*
X15831284Y-13880520D01*
X15968216Y-13959577D01*
X16120943Y-14000500D01*
X16120945Y-14000500D01*
X16279055Y-14000500D01*
X16279057Y-14000500D01*
X16431784Y-13959577D01*
X16568716Y-13880520D01*
X16680520Y-13768716D01*
X16759577Y-13631784D01*
X16800500Y-13479057D01*
X16800500Y-13320943D01*
X16759577Y-13168216D01*
X16680520Y-13031284D01*
X16680519Y-13031283D01*
X16680518Y-13031281D01*
X16670179Y-13020942D01*
X22299500Y-13020942D01*
X22299500Y-13179057D01*
X22340422Y-13331783D01*
X22340423Y-13331785D01*
X22419481Y-13468718D01*
X22531281Y-13580518D01*
X22531283Y-13580519D01*
X22531284Y-13580520D01*
X22668216Y-13659577D01*
X22820943Y-13700500D01*
X22820945Y-13700500D01*
X22979055Y-13700500D01*
X22979057Y-13700500D01*
X23131784Y-13659577D01*
X23268716Y-13580520D01*
X23380520Y-13468716D01*
X23454290Y-13340942D01*
X29599500Y-13340942D01*
X29599500Y-13499057D01*
X29640422Y-13651783D01*
X29640423Y-13651785D01*
X29719481Y-13788718D01*
X29831281Y-13900518D01*
X29831283Y-13900519D01*
X29831284Y-13900520D01*
X29968216Y-13979577D01*
X30120943Y-14020500D01*
X30120945Y-14020500D01*
X30279055Y-14020500D01*
X30279057Y-14020500D01*
X30431784Y-13979577D01*
X30533344Y-13920942D01*
X38799500Y-13920942D01*
X38799500Y-14079057D01*
X38840422Y-14231783D01*
X38840423Y-14231785D01*
X38919481Y-14368718D01*
X39031281Y-14480518D01*
X39031283Y-14480519D01*
X39031284Y-14480520D01*
X39168216Y-14559577D01*
X39320943Y-14600500D01*
X39320945Y-14600500D01*
X39479055Y-14600500D01*
X39479057Y-14600500D01*
X39631784Y-14559577D01*
X39768716Y-14480520D01*
X39880520Y-14368716D01*
X39959577Y-14231784D01*
X40000500Y-14079057D01*
X40000500Y-13920943D01*
X39959577Y-13768216D01*
X39880520Y-13631284D01*
X39880519Y-13631283D01*
X39880518Y-13631281D01*
X39768718Y-13519481D01*
X39631785Y-13440423D01*
X39631783Y-13440422D01*
X39479057Y-13399500D01*
X39320943Y-13399500D01*
X39320942Y-13399500D01*
X39168216Y-13440422D01*
X39168214Y-13440423D01*
X39031281Y-13519481D01*
X38919481Y-13631281D01*
X38840423Y-13768214D01*
X38840422Y-13768216D01*
X38799500Y-13920942D01*
X30533344Y-13920942D01*
X30568716Y-13900520D01*
X30588718Y-13880518D01*
X30609333Y-13859904D01*
X30680518Y-13788718D01*
X30680520Y-13788716D01*
X30759577Y-13651784D01*
X30800500Y-13499057D01*
X30800500Y-13340943D01*
X30759577Y-13188216D01*
X30680520Y-13051284D01*
X30680519Y-13051283D01*
X30680518Y-13051281D01*
X30568718Y-12939481D01*
X30431785Y-12860423D01*
X30431783Y-12860422D01*
X30279057Y-12819500D01*
X30120943Y-12819500D01*
X30120942Y-12819500D01*
X29968216Y-12860422D01*
X29968214Y-12860423D01*
X29831281Y-12939481D01*
X29719481Y-13051281D01*
X29640423Y-13188214D01*
X29640422Y-13188216D01*
X29599500Y-13340942D01*
X23454290Y-13340942D01*
X23459577Y-13331784D01*
X23500500Y-13179057D01*
X23500500Y-13020943D01*
X23459577Y-12868216D01*
X23380520Y-12731284D01*
X23380519Y-12731283D01*
X23380518Y-12731281D01*
X23268718Y-12619481D01*
X23131785Y-12540423D01*
X23131783Y-12540422D01*
X22979057Y-12499500D01*
X22820943Y-12499500D01*
X22820942Y-12499500D01*
X22668216Y-12540422D01*
X22668214Y-12540423D01*
X22531281Y-12619481D01*
X22419481Y-12731281D01*
X22340423Y-12868214D01*
X22340422Y-12868216D01*
X22299500Y-13020942D01*
X16670179Y-13020942D01*
X16568718Y-12919481D01*
X16431785Y-12840423D01*
X16431783Y-12840422D01*
X16279057Y-12799500D01*
X16120943Y-12799500D01*
X16120942Y-12799500D01*
X15968216Y-12840422D01*
X15968214Y-12840423D01*
X15831281Y-12919481D01*
X15719481Y-13031281D01*
X15640423Y-13168214D01*
X15640422Y-13168216D01*
X15599500Y-13320942D01*
X2761659Y-13320942D01*
X2794738Y-13241081D01*
X2826500Y-13081403D01*
X2826500Y-12918597D01*
X2794738Y-12758919D01*
X2732435Y-12608505D01*
X2667459Y-12511263D01*
X2641985Y-12473138D01*
X2641979Y-12473131D01*
X2526868Y-12358020D01*
X2526861Y-12358014D01*
X2391496Y-12267566D01*
X2391497Y-12267566D01*
X2391495Y-12267565D01*
X2241081Y-12205262D01*
X2241079Y-12205261D01*
X2241078Y-12205261D01*
X2081403Y-12173500D01*
X1918597Y-12173500D01*
X1758921Y-12205261D01*
X1608503Y-12267566D01*
X1473138Y-12358014D01*
X1473131Y-12358020D01*
X1358020Y-12473131D01*
X1358014Y-12473138D01*
X1267566Y-12608503D01*
X1205261Y-12758921D01*
X1173500Y-12918597D01*
X500500Y-12918597D01*
X500500Y-11723979D01*
X14364500Y-11723979D01*
X14364500Y-11836020D01*
X14393496Y-11944234D01*
X14393497Y-11944238D01*
X14449516Y-12041265D01*
X14528734Y-12120483D01*
X14620561Y-12173500D01*
X14625763Y-12176503D01*
X14715946Y-12200667D01*
X14760213Y-12231662D01*
X14774500Y-12276975D01*
X14774500Y-12306020D01*
X14803496Y-12414234D01*
X14803497Y-12414238D01*
X14859516Y-12511265D01*
X14938734Y-12590483D01*
X14938736Y-12590484D01*
X14938737Y-12590485D01*
X15035763Y-12646503D01*
X15143982Y-12675500D01*
X15143984Y-12675500D01*
X15256016Y-12675500D01*
X15256018Y-12675500D01*
X15364237Y-12646503D01*
X15461263Y-12590485D01*
X15540485Y-12511263D01*
X15596503Y-12414237D01*
X15625500Y-12306018D01*
X15625500Y-12193982D01*
X15596503Y-12085763D01*
X15540485Y-11988737D01*
X15540484Y-11988736D01*
X15540483Y-11988734D01*
X15461265Y-11909516D01*
X15364238Y-11853497D01*
X15364236Y-11853496D01*
X15274053Y-11829332D01*
X15229787Y-11798336D01*
X15215500Y-11753024D01*
X15215500Y-11723984D01*
X15215499Y-11723979D01*
X15186503Y-11615763D01*
X15130485Y-11518737D01*
X15130484Y-11518736D01*
X15130483Y-11518734D01*
X15051265Y-11439516D01*
X14954238Y-11383497D01*
X14954234Y-11383496D01*
X14846020Y-11354500D01*
X14846018Y-11354500D01*
X14733982Y-11354500D01*
X14733979Y-11354500D01*
X14625765Y-11383496D01*
X14625761Y-11383497D01*
X14528734Y-11439516D01*
X14449516Y-11518734D01*
X14393497Y-11615761D01*
X14393496Y-11615765D01*
X14364500Y-11723979D01*
X500500Y-11723979D01*
X500500Y-9837589D01*
X13054500Y-9837589D01*
X13054500Y-9949630D01*
X13083496Y-10057844D01*
X13083497Y-10057848D01*
X13139516Y-10154875D01*
X13218734Y-10234093D01*
X13218736Y-10234094D01*
X13218737Y-10234095D01*
X13315763Y-10290113D01*
X13423982Y-10319110D01*
X13423984Y-10319110D01*
X13536016Y-10319110D01*
X13536018Y-10319110D01*
X13644237Y-10290113D01*
X13741263Y-10234095D01*
X13820485Y-10154873D01*
X13876503Y-10057847D01*
X13905500Y-9949628D01*
X13905500Y-9837592D01*
X13876503Y-9729373D01*
X13820485Y-9632347D01*
X13820484Y-9632346D01*
X13820483Y-9632344D01*
X13741265Y-9553126D01*
X13644238Y-9497107D01*
X13644234Y-9497106D01*
X13536020Y-9468110D01*
X13536018Y-9468110D01*
X13423982Y-9468110D01*
X13423979Y-9468110D01*
X13315765Y-9497106D01*
X13315761Y-9497107D01*
X13218734Y-9553126D01*
X13139516Y-9632344D01*
X13083497Y-9729371D01*
X13083496Y-9729375D01*
X13054500Y-9837589D01*
X500500Y-9837589D01*
X500500Y-7174919D01*
X8189500Y-7174919D01*
X8189500Y-7352300D01*
X8224105Y-7526276D01*
X8224106Y-7526278D01*
X8291985Y-7690153D01*
X8291988Y-7690158D01*
X8390534Y-7837643D01*
X8390540Y-7837650D01*
X8515959Y-7963069D01*
X8515966Y-7963075D01*
X8540572Y-7979516D01*
X8663453Y-8061623D01*
X8730448Y-8089373D01*
X8806670Y-8120945D01*
X8827334Y-8129504D01*
X8886741Y-8141320D01*
X8932939Y-8169353D01*
X8950310Y-8220524D01*
X8944316Y-8249034D01*
X8922380Y-8301990D01*
X8894500Y-8442155D01*
X8894500Y-8585064D01*
X8922381Y-8725231D01*
X8922382Y-8725235D01*
X8977068Y-8857257D01*
X8977071Y-8857263D01*
X9056466Y-8976087D01*
X9056472Y-8976094D01*
X9157515Y-9077137D01*
X9157521Y-9077142D01*
X9276347Y-9156539D01*
X9276352Y-9156541D01*
X9408374Y-9211227D01*
X9408376Y-9211227D01*
X9408380Y-9211229D01*
X9548545Y-9239110D01*
X9691455Y-9239110D01*
X9831620Y-9211229D01*
X9963653Y-9156539D01*
X10082479Y-9077142D01*
X10183532Y-8976089D01*
X10262929Y-8857263D01*
X10317619Y-8725230D01*
X10345500Y-8585065D01*
X10345500Y-8442155D01*
X10317619Y-8301990D01*
X10274375Y-8197589D01*
X12294500Y-8197589D01*
X12294500Y-8309630D01*
X12323496Y-8417844D01*
X12323497Y-8417848D01*
X12379516Y-8514875D01*
X12458734Y-8594093D01*
X12458736Y-8594094D01*
X12458737Y-8594095D01*
X12555763Y-8650113D01*
X12663982Y-8679110D01*
X12663984Y-8679110D01*
X12776016Y-8679110D01*
X12776018Y-8679110D01*
X12884237Y-8650113D01*
X12981263Y-8594095D01*
X13060485Y-8514873D01*
X13116503Y-8417847D01*
X13145500Y-8309628D01*
X13145500Y-8263979D01*
X13724500Y-8263979D01*
X13724500Y-8376020D01*
X13753496Y-8484234D01*
X13753497Y-8484238D01*
X13809516Y-8581265D01*
X13888734Y-8660483D01*
X13888736Y-8660484D01*
X13888737Y-8660485D01*
X13985763Y-8716503D01*
X14093982Y-8745500D01*
X14093984Y-8745500D01*
X14206016Y-8745500D01*
X14206018Y-8745500D01*
X14314237Y-8716503D01*
X14411263Y-8660485D01*
X14490485Y-8581263D01*
X14546503Y-8484237D01*
X14558935Y-8437841D01*
X16244500Y-8437841D01*
X16244500Y-8589378D01*
X16283718Y-8735742D01*
X16283719Y-8735746D01*
X16359486Y-8866977D01*
X16466632Y-8974123D01*
X16466634Y-8974124D01*
X16466635Y-8974125D01*
X16597865Y-9049891D01*
X16744234Y-9089110D01*
X16744236Y-9089110D01*
X16895764Y-9089110D01*
X16895766Y-9089110D01*
X17042135Y-9049891D01*
X17173365Y-8974125D01*
X17280515Y-8866975D01*
X17356281Y-8735745D01*
X17395500Y-8589376D01*
X17395500Y-8437844D01*
X17356281Y-8291475D01*
X17351163Y-8282610D01*
X17341779Y-8229392D01*
X17368799Y-8182592D01*
X17419579Y-8164110D01*
X17438691Y-8164110D01*
X17612666Y-8129504D01*
X17612668Y-8129503D01*
X17633336Y-8120942D01*
X25199500Y-8120942D01*
X25199500Y-8279057D01*
X25240422Y-8431783D01*
X25240423Y-8431785D01*
X25319481Y-8568718D01*
X25431281Y-8680518D01*
X25431283Y-8680519D01*
X25431284Y-8680520D01*
X25568216Y-8759577D01*
X25720943Y-8800500D01*
X25720945Y-8800500D01*
X25879055Y-8800500D01*
X25879057Y-8800500D01*
X26031784Y-8759577D01*
X26168716Y-8680520D01*
X26280520Y-8568716D01*
X26359577Y-8431784D01*
X26400500Y-8279057D01*
X26400500Y-8120943D01*
X26359577Y-7968216D01*
X26356605Y-7963069D01*
X26280518Y-7831281D01*
X26168718Y-7719481D01*
X26031785Y-7640423D01*
X26031783Y-7640422D01*
X25879057Y-7599500D01*
X25720943Y-7599500D01*
X25720942Y-7599500D01*
X25568216Y-7640422D01*
X25568214Y-7640423D01*
X25431281Y-7719481D01*
X25319481Y-7831281D01*
X25240423Y-7968214D01*
X25240422Y-7968216D01*
X25199500Y-8120942D01*
X17633336Y-8120942D01*
X17776547Y-8061623D01*
X17924035Y-7963074D01*
X18049464Y-7837645D01*
X18148013Y-7690157D01*
X18215894Y-7526276D01*
X18250500Y-7352301D01*
X18250500Y-7174919D01*
X18248594Y-7165339D01*
X18215894Y-7000943D01*
X18215893Y-7000941D01*
X18148014Y-6837066D01*
X18148013Y-6837063D01*
X18053305Y-6695323D01*
X18049465Y-6689576D01*
X18049459Y-6689569D01*
X17924040Y-6564150D01*
X17924033Y-6564144D01*
X17776548Y-6465598D01*
X17776547Y-6465597D01*
X17776544Y-6465596D01*
X17776543Y-6465595D01*
X17612668Y-6397716D01*
X17612666Y-6397715D01*
X17438691Y-6363110D01*
X17261309Y-6363110D01*
X17087333Y-6397715D01*
X17087331Y-6397716D01*
X16923456Y-6465595D01*
X16923451Y-6465598D01*
X16775966Y-6564144D01*
X16775959Y-6564150D01*
X16650540Y-6689569D01*
X16650534Y-6689576D01*
X16551988Y-6837061D01*
X16551985Y-6837066D01*
X16484106Y-7000941D01*
X16484105Y-7000943D01*
X16449500Y-7174919D01*
X16449500Y-7352300D01*
X16484105Y-7526276D01*
X16484106Y-7526278D01*
X16551985Y-7690153D01*
X16551988Y-7690158D01*
X16650534Y-7837643D01*
X16650540Y-7837650D01*
X16652815Y-7839925D01*
X16675653Y-7888901D01*
X16661667Y-7941099D01*
X16617402Y-7972094D01*
X16597864Y-7977329D01*
X16597863Y-7977329D01*
X16466632Y-8053096D01*
X16359486Y-8160242D01*
X16283719Y-8291473D01*
X16283718Y-8291477D01*
X16244500Y-8437841D01*
X14558935Y-8437841D01*
X14575500Y-8376018D01*
X14575500Y-8263982D01*
X14546503Y-8155763D01*
X14490485Y-8058737D01*
X14490484Y-8058736D01*
X14490483Y-8058734D01*
X14411265Y-7979516D01*
X14314238Y-7923497D01*
X14314234Y-7923496D01*
X14206020Y-7894500D01*
X14206018Y-7894500D01*
X14093982Y-7894500D01*
X14093979Y-7894500D01*
X13985765Y-7923496D01*
X13985761Y-7923497D01*
X13888734Y-7979516D01*
X13809516Y-8058734D01*
X13753497Y-8155761D01*
X13753496Y-8155765D01*
X13724500Y-8263979D01*
X13145500Y-8263979D01*
X13145500Y-8197592D01*
X13116503Y-8089373D01*
X13060485Y-7992347D01*
X13060484Y-7992346D01*
X13060483Y-7992344D01*
X12981265Y-7913126D01*
X12884238Y-7857107D01*
X12884234Y-7857106D01*
X12776020Y-7828110D01*
X12776018Y-7828110D01*
X12663982Y-7828110D01*
X12663979Y-7828110D01*
X12555765Y-7857106D01*
X12555761Y-7857107D01*
X12458734Y-7913126D01*
X12379516Y-7992344D01*
X12323497Y-8089371D01*
X12323496Y-8089375D01*
X12294500Y-8197589D01*
X10274375Y-8197589D01*
X10262929Y-8169957D01*
X10209086Y-8089375D01*
X10183533Y-8051132D01*
X10183527Y-8051125D01*
X10082484Y-7950082D01*
X10082477Y-7950076D01*
X9963654Y-7870682D01*
X9963655Y-7870682D01*
X9963653Y-7870681D01*
X9898866Y-7843845D01*
X9859026Y-7807338D01*
X9851973Y-7753761D01*
X9863413Y-7726971D01*
X9888013Y-7690157D01*
X9955894Y-7526276D01*
X9990500Y-7352301D01*
X9990500Y-7174919D01*
X9988594Y-7165339D01*
X9955894Y-7000943D01*
X9955893Y-7000941D01*
X9888014Y-6837066D01*
X9888013Y-6837063D01*
X9792407Y-6693979D01*
X10564500Y-6693979D01*
X10564500Y-6806020D01*
X10593496Y-6914234D01*
X10593497Y-6914238D01*
X10649516Y-7011265D01*
X10728734Y-7090483D01*
X10728736Y-7090484D01*
X10728737Y-7090485D01*
X10770978Y-7114873D01*
X10815339Y-7140485D01*
X10825763Y-7146503D01*
X10933982Y-7175500D01*
X10933984Y-7175500D01*
X11046016Y-7175500D01*
X11046018Y-7175500D01*
X11154237Y-7146503D01*
X11251263Y-7090485D01*
X11289796Y-7051951D01*
X11338771Y-7029114D01*
X11390969Y-7043099D01*
X11408334Y-7059724D01*
X11409517Y-7061266D01*
X11488734Y-7140483D01*
X11488736Y-7140484D01*
X11488737Y-7140485D01*
X11585763Y-7196503D01*
X11693982Y-7225500D01*
X11693984Y-7225500D01*
X11806016Y-7225500D01*
X11806018Y-7225500D01*
X11914237Y-7196503D01*
X12011263Y-7140485D01*
X12090485Y-7061263D01*
X12146503Y-6964237D01*
X12175500Y-6856018D01*
X12175500Y-6797589D01*
X12734500Y-6797589D01*
X12734500Y-6909630D01*
X12763496Y-7017844D01*
X12763497Y-7017848D01*
X12819516Y-7114875D01*
X12898734Y-7194093D01*
X12898736Y-7194094D01*
X12898737Y-7194095D01*
X12995763Y-7250113D01*
X13103982Y-7279110D01*
X13103984Y-7279110D01*
X13216016Y-7279110D01*
X13216018Y-7279110D01*
X13324237Y-7250113D01*
X13421263Y-7194095D01*
X13421264Y-7194093D01*
X13425500Y-7191648D01*
X13478718Y-7182264D01*
X13504500Y-7191648D01*
X13508735Y-7194093D01*
X13508737Y-7194095D01*
X13605763Y-7250113D01*
X13713982Y-7279110D01*
X13713984Y-7279110D01*
X13826016Y-7279110D01*
X13826018Y-7279110D01*
X13934237Y-7250113D01*
X14031263Y-7194095D01*
X14110485Y-7114873D01*
X14166503Y-7017847D01*
X14195500Y-6909628D01*
X14195500Y-6803539D01*
X14773457Y-6803539D01*
X14773457Y-6915580D01*
X14802453Y-7023794D01*
X14802454Y-7023798D01*
X14858473Y-7120825D01*
X14937691Y-7200043D01*
X15024412Y-7250112D01*
X15034720Y-7256063D01*
X15142939Y-7285060D01*
X15142941Y-7285060D01*
X15254973Y-7285060D01*
X15254975Y-7285060D01*
X15363194Y-7256063D01*
X15460220Y-7200045D01*
X15472087Y-7188177D01*
X15521061Y-7165339D01*
X15567449Y-7175622D01*
X15653838Y-7225499D01*
X15655763Y-7226610D01*
X15763982Y-7255607D01*
X15763984Y-7255607D01*
X15876016Y-7255607D01*
X15876018Y-7255607D01*
X15984237Y-7226610D01*
X16081263Y-7170592D01*
X16160485Y-7091370D01*
X16216503Y-6994344D01*
X16245500Y-6886125D01*
X16245500Y-6774089D01*
X16216503Y-6665870D01*
X16160485Y-6568844D01*
X16160484Y-6568843D01*
X16160483Y-6568841D01*
X16081265Y-6489623D01*
X15984238Y-6433604D01*
X15984234Y-6433603D01*
X15876020Y-6404607D01*
X15876018Y-6404607D01*
X15763982Y-6404607D01*
X15763979Y-6404607D01*
X15655765Y-6433603D01*
X15655761Y-6433604D01*
X15558736Y-6489622D01*
X15546867Y-6501491D01*
X15497890Y-6524328D01*
X15451507Y-6514044D01*
X15363195Y-6463057D01*
X15363191Y-6463056D01*
X15254977Y-6434060D01*
X15254975Y-6434060D01*
X15142939Y-6434060D01*
X15142936Y-6434060D01*
X15034722Y-6463056D01*
X15034718Y-6463057D01*
X14937691Y-6519076D01*
X14858473Y-6598294D01*
X14802454Y-6695321D01*
X14802453Y-6695325D01*
X14773457Y-6803539D01*
X14195500Y-6803539D01*
X14195500Y-6797592D01*
X14166503Y-6689373D01*
X14110485Y-6592347D01*
X14110484Y-6592346D01*
X14110483Y-6592344D01*
X14031265Y-6513126D01*
X13934238Y-6457107D01*
X13934234Y-6457106D01*
X13826020Y-6428110D01*
X13826018Y-6428110D01*
X13713982Y-6428110D01*
X13713979Y-6428110D01*
X13605765Y-6457106D01*
X13605761Y-6457107D01*
X13504500Y-6515571D01*
X13451282Y-6524955D01*
X13425500Y-6515571D01*
X13324238Y-6457107D01*
X13324234Y-6457106D01*
X13216020Y-6428110D01*
X13216018Y-6428110D01*
X13103982Y-6428110D01*
X13103979Y-6428110D01*
X12995765Y-6457106D01*
X12995761Y-6457107D01*
X12898734Y-6513126D01*
X12819516Y-6592344D01*
X12763497Y-6689371D01*
X12763496Y-6689375D01*
X12734500Y-6797589D01*
X12175500Y-6797589D01*
X12175500Y-6743982D01*
X12146503Y-6635763D01*
X12090485Y-6538737D01*
X12090484Y-6538736D01*
X12090483Y-6538734D01*
X12011265Y-6459516D01*
X11914238Y-6403497D01*
X11914234Y-6403496D01*
X11806020Y-6374500D01*
X11806018Y-6374500D01*
X11693982Y-6374500D01*
X11693979Y-6374500D01*
X11585765Y-6403496D01*
X11585761Y-6403497D01*
X11488736Y-6459515D01*
X11450203Y-6498048D01*
X11401226Y-6520885D01*
X11349029Y-6506898D01*
X11331664Y-6490274D01*
X11330480Y-6488731D01*
X11251265Y-6409516D01*
X11154238Y-6353497D01*
X11154234Y-6353496D01*
X11046020Y-6324500D01*
X11046018Y-6324500D01*
X10933982Y-6324500D01*
X10933979Y-6324500D01*
X10825765Y-6353496D01*
X10825761Y-6353497D01*
X10728734Y-6409516D01*
X10649516Y-6488734D01*
X10593497Y-6585761D01*
X10593496Y-6585765D01*
X10564500Y-6693979D01*
X9792407Y-6693979D01*
X9789464Y-6689575D01*
X9789461Y-6689572D01*
X9789459Y-6689569D01*
X9664040Y-6564150D01*
X9664033Y-6564144D01*
X9516548Y-6465598D01*
X9516547Y-6465597D01*
X9516544Y-6465596D01*
X9516543Y-6465595D01*
X9352668Y-6397716D01*
X9352666Y-6397715D01*
X9178691Y-6363110D01*
X9001309Y-6363110D01*
X8827333Y-6397715D01*
X8827331Y-6397716D01*
X8663456Y-6465595D01*
X8663451Y-6465598D01*
X8515966Y-6564144D01*
X8515959Y-6564150D01*
X8390540Y-6689569D01*
X8390534Y-6689576D01*
X8291988Y-6837061D01*
X8291985Y-6837066D01*
X8224106Y-7000941D01*
X8224105Y-7000943D01*
X8189500Y-7174919D01*
X500500Y-7174919D01*
X500500Y-3828688D01*
X949500Y-3828688D01*
X949500Y-4171312D01*
X953918Y-4210520D01*
X987861Y-4511787D01*
X1064101Y-4845811D01*
X1064103Y-4845817D01*
X1177264Y-5169215D01*
X1271181Y-5364236D01*
X1325923Y-5477909D01*
X1508212Y-5768019D01*
X1721833Y-6035892D01*
X1721842Y-6035902D01*
X1964097Y-6278157D01*
X1964107Y-6278166D01*
X2231982Y-6491789D01*
X2522090Y-6674076D01*
X2830785Y-6822736D01*
X3154183Y-6935897D01*
X3488213Y-7012138D01*
X3488214Y-7012138D01*
X3488217Y-7012139D01*
X3828688Y-7050500D01*
X3828690Y-7050500D01*
X4171310Y-7050500D01*
X4171312Y-7050500D01*
X4511783Y-7012139D01*
X4845817Y-6935897D01*
X5169215Y-6822736D01*
X5477910Y-6674076D01*
X5768018Y-6491789D01*
X6035893Y-6278166D01*
X6278166Y-6035893D01*
X6491789Y-5768018D01*
X6674076Y-5477910D01*
X6822736Y-5169215D01*
X6935897Y-4845817D01*
X7012139Y-4511783D01*
X7050500Y-4171312D01*
X7050500Y-3828688D01*
X7012139Y-3488217D01*
X6935897Y-3154183D01*
X6822736Y-2830785D01*
X6820672Y-2826500D01*
X6769406Y-2720045D01*
X6755391Y-2690942D01*
X28299500Y-2690942D01*
X28299500Y-2849057D01*
X28340422Y-3001783D01*
X28340423Y-3001785D01*
X28419481Y-3138718D01*
X28474902Y-3194139D01*
X28497740Y-3243115D01*
X28483754Y-3295313D01*
X28474902Y-3305861D01*
X28419481Y-3361281D01*
X28340423Y-3498214D01*
X28340422Y-3498216D01*
X28299500Y-3650942D01*
X28299500Y-3809057D01*
X28340422Y-3961783D01*
X28340423Y-3961785D01*
X28419481Y-4098718D01*
X28531281Y-4210518D01*
X28531283Y-4210519D01*
X28531284Y-4210520D01*
X28668216Y-4289577D01*
X28820943Y-4330500D01*
X28820945Y-4330500D01*
X28979055Y-4330500D01*
X28979057Y-4330500D01*
X29131784Y-4289577D01*
X29268716Y-4210520D01*
X29357945Y-4121291D01*
X35149499Y-4121291D01*
X35181160Y-4361781D01*
X35243943Y-4596092D01*
X35243944Y-4596095D01*
X35336776Y-4820213D01*
X35351559Y-4845817D01*
X35458064Y-5030289D01*
X35552952Y-5153950D01*
X35605733Y-5222736D01*
X35605738Y-5222742D01*
X35777257Y-5394261D01*
X35777262Y-5394265D01*
X35969711Y-5541936D01*
X36179788Y-5663224D01*
X36403900Y-5756054D01*
X36638211Y-5818838D01*
X36638217Y-5818838D01*
X36638218Y-5818839D01*
X36878708Y-5850500D01*
X36878712Y-5850500D01*
X37121291Y-5850500D01*
X37361781Y-5818839D01*
X37361780Y-5818839D01*
X37361789Y-5818838D01*
X37596100Y-5756054D01*
X37820212Y-5663224D01*
X38030289Y-5541936D01*
X38222738Y-5394265D01*
X38394265Y-5222738D01*
X38541936Y-5030289D01*
X38663224Y-4820212D01*
X38756054Y-4596100D01*
X38818838Y-4361789D01*
X38838753Y-4210518D01*
X38850500Y-4121291D01*
X38850500Y-3878708D01*
X38818839Y-3638218D01*
X38818838Y-3638217D01*
X38818838Y-3638211D01*
X38756054Y-3403900D01*
X38663224Y-3179788D01*
X38541936Y-2969711D01*
X38394265Y-2777262D01*
X38394261Y-2777257D01*
X38222742Y-2605738D01*
X38222736Y-2605733D01*
X38119956Y-2526868D01*
X38030289Y-2458064D01*
X38030284Y-2458061D01*
X37820213Y-2336776D01*
X37596095Y-2243944D01*
X37596092Y-2243943D01*
X37395431Y-2190176D01*
X37361789Y-2181162D01*
X37361787Y-2181161D01*
X37361781Y-2181160D01*
X37121291Y-2149500D01*
X37121288Y-2149500D01*
X36878712Y-2149500D01*
X36878709Y-2149500D01*
X36638218Y-2181160D01*
X36403907Y-2243943D01*
X36403904Y-2243944D01*
X36179786Y-2336776D01*
X35969715Y-2458061D01*
X35777263Y-2605733D01*
X35777257Y-2605738D01*
X35605738Y-2777257D01*
X35605733Y-2777263D01*
X35458061Y-2969715D01*
X35336776Y-3179786D01*
X35243944Y-3403904D01*
X35243943Y-3403907D01*
X35181160Y-3638218D01*
X35149500Y-3878708D01*
X35149500Y-3878712D01*
X35149500Y-4121288D01*
X35149500Y-4121291D01*
X35149499Y-4121291D01*
X29357945Y-4121291D01*
X29380520Y-4098716D01*
X29459577Y-3961784D01*
X29500500Y-3809057D01*
X29500500Y-3650943D01*
X29459577Y-3498216D01*
X29380520Y-3361284D01*
X29325096Y-3305860D01*
X29302259Y-3256886D01*
X29316245Y-3204688D01*
X29325091Y-3194144D01*
X29380520Y-3138716D01*
X29459577Y-3001784D01*
X29500500Y-2849057D01*
X29500500Y-2690943D01*
X29459577Y-2538216D01*
X29453022Y-2526863D01*
X29380518Y-2401281D01*
X29268718Y-2289481D01*
X29131785Y-2210423D01*
X29131783Y-2210422D01*
X28979057Y-2169500D01*
X28820943Y-2169500D01*
X28820942Y-2169500D01*
X28668216Y-2210422D01*
X28668214Y-2210423D01*
X28531281Y-2289481D01*
X28419481Y-2401281D01*
X28340423Y-2538214D01*
X28340422Y-2538216D01*
X28299500Y-2690942D01*
X6755391Y-2690942D01*
X6674076Y-2522090D01*
X6491789Y-2231982D01*
X6278166Y-1964107D01*
X6278157Y-1964097D01*
X6035902Y-1721842D01*
X6035892Y-1721833D01*
X5768019Y-1508212D01*
X5768020Y-1508212D01*
X5768018Y-1508211D01*
X5599462Y-1402300D01*
X5477909Y-1325923D01*
X5356729Y-1267566D01*
X5169215Y-1177264D01*
X4845817Y-1064103D01*
X4845811Y-1064101D01*
X4511786Y-987861D01*
X4511788Y-987861D01*
X4268589Y-960460D01*
X4171312Y-949500D01*
X3828688Y-949500D01*
X3731410Y-960460D01*
X3488212Y-987861D01*
X3154188Y-1064101D01*
X3154182Y-1064103D01*
X2830790Y-1177262D01*
X2830788Y-1177262D01*
X2830785Y-1177264D01*
X2772649Y-1205261D01*
X2522090Y-1325923D01*
X2231980Y-1508212D01*
X1964107Y-1721833D01*
X1964097Y-1721842D01*
X1721842Y-1964097D01*
X1721833Y-1964107D01*
X1508212Y-2231980D01*
X1325923Y-2522090D01*
X1230595Y-2720042D01*
X1177267Y-2830780D01*
X1177262Y-2830790D01*
X1064103Y-3154182D01*
X1064101Y-3154188D01*
X987861Y-3488212D01*
X969526Y-3650945D01*
X949500Y-3828688D01*
X500500Y-3828688D01*
X500500Y-1004435D01*
X500997Y-995590D01*
X506190Y-949500D01*
X512027Y-897692D01*
X515961Y-880454D01*
X547027Y-791672D01*
X554702Y-775738D01*
X604741Y-696101D01*
X615767Y-682274D01*
X682274Y-615767D01*
X696101Y-604741D01*
X775738Y-554702D01*
X791672Y-547027D01*
X880454Y-515961D01*
X897694Y-512027D01*
X976109Y-503192D01*
X995590Y-500997D01*
X1004435Y-500500D01*
X1065892Y-500500D01*
X8078888Y-500500D01*
X8129668Y-518982D01*
G37*
%TD.AperFunction*%
%TD*%
M02*
