%TF.GenerationSoftware,KiCad,Pcbnew,9.0.1*%
%TF.CreationDate,2025-04-14T01:12:43-04:00*%
%TF.ProjectId,USB-3-2-splitter,5553422d-332d-4322-9d73-706c69747465,rev?*%
%TF.SameCoordinates,Original*%
%TF.FileFunction,Soldermask,Bot*%
%TF.FilePolarity,Negative*%
%FSLAX46Y46*%
G04 Gerber Fmt 4.6, Leading zero omitted, Abs format (unit mm)*
G04 Created by KiCad (PCBNEW 9.0.1) date 2025-04-14 01:12:43*
%MOMM*%
%LPD*%
G01*
G04 APERTURE LIST*
G04 APERTURE END LIST*
G36*
X26266828Y-26388581D02*
G01*
X26437407Y-26444006D01*
X26597216Y-26525432D01*
X26742319Y-26630856D01*
X26869144Y-26757681D01*
X26974568Y-26902784D01*
X27055994Y-27062593D01*
X27111419Y-27233172D01*
X27139477Y-27410321D01*
X27139477Y-27589679D01*
X27111419Y-27766828D01*
X27055994Y-27937407D01*
X26974568Y-28097216D01*
X26869144Y-28242319D01*
X26742319Y-28369144D01*
X26597216Y-28474568D01*
X26437407Y-28555994D01*
X26266828Y-28611419D01*
X26089679Y-28639477D01*
X25910321Y-28639477D01*
X25733172Y-28611419D01*
X25562593Y-28555994D01*
X25402784Y-28474568D01*
X25257681Y-28369144D01*
X25130856Y-28242319D01*
X25025432Y-28097216D01*
X24944006Y-27937407D01*
X24888581Y-27766828D01*
X24860523Y-27589679D01*
X24860523Y-27410321D01*
X24888581Y-27233172D01*
X24944006Y-27062593D01*
X25025432Y-26902784D01*
X25130856Y-26757681D01*
X25257681Y-26630856D01*
X25402784Y-26525432D01*
X25562593Y-26444006D01*
X25733172Y-26388581D01*
X25910321Y-26360523D01*
X26089679Y-26360523D01*
X26266828Y-26388581D01*
G37*
G36*
X8944230Y-26787388D02*
G01*
X9077891Y-26842752D01*
X9198182Y-26923128D01*
X9300482Y-27025428D01*
X9380858Y-27145719D01*
X9436222Y-27279380D01*
X9464446Y-27421273D01*
X9464446Y-27565947D01*
X9436222Y-27707840D01*
X9380858Y-27841501D01*
X9300482Y-27961792D01*
X9198182Y-28064092D01*
X9077891Y-28144468D01*
X8944230Y-28199832D01*
X8802337Y-28228056D01*
X8657663Y-28228056D01*
X8515770Y-28199832D01*
X8382109Y-28144468D01*
X8261818Y-28064092D01*
X8159518Y-27961792D01*
X8079142Y-27841501D01*
X8023778Y-27707840D01*
X7995554Y-27565947D01*
X7995554Y-27421273D01*
X8023778Y-27279380D01*
X8079142Y-27145719D01*
X8159518Y-27025428D01*
X8261818Y-26923128D01*
X8382109Y-26842752D01*
X8515770Y-26787388D01*
X8657663Y-26759164D01*
X8802337Y-26759164D01*
X8944230Y-26787388D01*
G37*
G36*
X17924230Y-26787388D02*
G01*
X18057891Y-26842752D01*
X18178182Y-26923128D01*
X18280482Y-27025428D01*
X18360858Y-27145719D01*
X18416222Y-27279380D01*
X18444446Y-27421273D01*
X18444446Y-27565947D01*
X18416222Y-27707840D01*
X18360858Y-27841501D01*
X18280482Y-27961792D01*
X18178182Y-28064092D01*
X18057891Y-28144468D01*
X17924230Y-28199832D01*
X17782337Y-28228056D01*
X17637663Y-28228056D01*
X17495770Y-28199832D01*
X17362109Y-28144468D01*
X17241818Y-28064092D01*
X17139518Y-27961792D01*
X17059142Y-27841501D01*
X17003778Y-27707840D01*
X16975554Y-27565947D01*
X16975554Y-27421273D01*
X17003778Y-27279380D01*
X17059142Y-27145719D01*
X17139518Y-27025428D01*
X17241818Y-26923128D01*
X17362109Y-26842752D01*
X17495770Y-26787388D01*
X17637663Y-26759164D01*
X17782337Y-26759164D01*
X17924230Y-26787388D01*
G37*
G36*
X30105884Y-26406563D02*
G01*
X30227514Y-26476786D01*
X30326824Y-26576096D01*
X30397047Y-26697726D01*
X30433397Y-26833387D01*
X30438000Y-26903610D01*
X30438000Y-27503610D01*
X30433397Y-27573833D01*
X30397047Y-27709494D01*
X30326824Y-27831124D01*
X30227514Y-27930434D01*
X30105884Y-28000657D01*
X29970223Y-28037007D01*
X29829777Y-28037007D01*
X29694116Y-28000657D01*
X29572486Y-27930434D01*
X29473176Y-27831124D01*
X29402953Y-27709494D01*
X29366603Y-27573833D01*
X29362000Y-27503610D01*
X29362000Y-26903610D01*
X29366603Y-26833387D01*
X29402953Y-26697726D01*
X29473176Y-26576096D01*
X29572486Y-26476786D01*
X29694116Y-26406563D01*
X29829777Y-26370213D01*
X29970223Y-26370213D01*
X30105884Y-26406563D01*
G37*
G36*
X38745884Y-26406563D02*
G01*
X38867514Y-26476786D01*
X38966824Y-26576096D01*
X39037047Y-26697726D01*
X39073397Y-26833387D01*
X39078000Y-26903610D01*
X39078000Y-27503610D01*
X39073397Y-27573833D01*
X39037047Y-27709494D01*
X38966824Y-27831124D01*
X38867514Y-27930434D01*
X38745884Y-28000657D01*
X38610223Y-28037007D01*
X38469777Y-28037007D01*
X38334116Y-28000657D01*
X38212486Y-27930434D01*
X38113176Y-27831124D01*
X38042953Y-27709494D01*
X38006603Y-27573833D01*
X38002000Y-27503610D01*
X38002000Y-26903610D01*
X38006603Y-26833387D01*
X38042953Y-26697726D01*
X38113176Y-26576096D01*
X38212486Y-26476786D01*
X38334116Y-26406563D01*
X38469777Y-26370213D01*
X38610223Y-26370213D01*
X38745884Y-26406563D01*
G37*
G36*
X4118025Y-22867049D02*
G01*
X4128516Y-22867049D01*
X4180176Y-22875231D01*
X4319536Y-22893578D01*
X4353540Y-22902689D01*
X4382384Y-22907258D01*
X4437857Y-22925282D01*
X4526480Y-22949029D01*
X4583022Y-22972449D01*
X4626835Y-22986685D01*
X4667877Y-23007597D01*
X4724426Y-23031020D01*
X4803892Y-23076900D01*
X4855853Y-23103375D01*
X4879474Y-23120537D01*
X4909962Y-23138139D01*
X5021487Y-23223715D01*
X5063796Y-23254455D01*
X5071212Y-23261871D01*
X5079933Y-23268563D01*
X5231436Y-23420066D01*
X5238127Y-23428786D01*
X5245545Y-23436204D01*
X5276288Y-23478518D01*
X5361860Y-23590037D01*
X5379460Y-23620522D01*
X5396625Y-23644147D01*
X5423103Y-23696113D01*
X5468979Y-23775573D01*
X5492399Y-23832116D01*
X5513315Y-23873165D01*
X5527552Y-23916983D01*
X5550970Y-23973519D01*
X5574713Y-24062129D01*
X5592742Y-24117616D01*
X5597311Y-24146465D01*
X5606421Y-24180463D01*
X5624767Y-24319815D01*
X5632951Y-24371484D01*
X5632951Y-24381974D01*
X5634386Y-24392874D01*
X5634386Y-24607125D01*
X5632951Y-24618024D01*
X5632951Y-24628516D01*
X5624766Y-24680188D01*
X5606421Y-24819536D01*
X5597311Y-24853531D01*
X5592742Y-24882384D01*
X5574711Y-24937875D01*
X5550970Y-25026480D01*
X5527554Y-25083011D01*
X5513315Y-25126835D01*
X5492397Y-25167887D01*
X5468979Y-25224426D01*
X5423107Y-25303878D01*
X5396625Y-25355853D01*
X5379458Y-25379481D01*
X5361860Y-25409962D01*
X5276301Y-25521462D01*
X5245545Y-25563796D01*
X5238124Y-25571216D01*
X5231436Y-25579933D01*
X5079933Y-25731436D01*
X5071216Y-25738124D01*
X5063796Y-25745545D01*
X5021462Y-25776301D01*
X4909962Y-25861860D01*
X4879481Y-25879458D01*
X4855853Y-25896625D01*
X4803878Y-25923107D01*
X4724426Y-25968979D01*
X4667887Y-25992397D01*
X4626835Y-26013315D01*
X4583011Y-26027554D01*
X4526480Y-26050970D01*
X4437875Y-26074711D01*
X4382384Y-26092742D01*
X4353531Y-26097311D01*
X4319536Y-26106421D01*
X4180188Y-26124766D01*
X4128516Y-26132951D01*
X4118025Y-26132951D01*
X4107125Y-26134386D01*
X3892875Y-26134386D01*
X3881975Y-26132951D01*
X3871484Y-26132951D01*
X3819812Y-26124767D01*
X3680463Y-26106421D01*
X3646465Y-26097311D01*
X3617616Y-26092742D01*
X3562129Y-26074713D01*
X3473519Y-26050970D01*
X3416983Y-26027552D01*
X3373165Y-26013315D01*
X3332116Y-25992399D01*
X3275573Y-25968979D01*
X3196113Y-25923103D01*
X3144147Y-25896625D01*
X3120522Y-25879460D01*
X3090037Y-25861860D01*
X2978518Y-25776288D01*
X2936204Y-25745545D01*
X2928786Y-25738127D01*
X2920066Y-25731436D01*
X2768563Y-25579933D01*
X2761871Y-25571212D01*
X2754455Y-25563796D01*
X2723715Y-25521487D01*
X2638139Y-25409962D01*
X2620537Y-25379474D01*
X2603375Y-25355853D01*
X2576900Y-25303892D01*
X2531020Y-25224426D01*
X2507597Y-25167877D01*
X2486685Y-25126835D01*
X2472449Y-25083022D01*
X2449029Y-25026480D01*
X2425282Y-24937857D01*
X2407258Y-24882384D01*
X2402689Y-24853540D01*
X2393578Y-24819536D01*
X2375231Y-24680176D01*
X2367049Y-24628516D01*
X2367049Y-24618025D01*
X2365614Y-24607125D01*
X2365614Y-24392874D01*
X2367049Y-24381973D01*
X2367049Y-24371484D01*
X2375230Y-24319828D01*
X2393578Y-24180463D01*
X2402690Y-24146456D01*
X2407258Y-24117616D01*
X2425280Y-24062147D01*
X2449029Y-23973519D01*
X2472451Y-23916972D01*
X2486685Y-23873165D01*
X2507594Y-23832126D01*
X2531020Y-23775573D01*
X2576904Y-23696098D01*
X2603375Y-23644147D01*
X2620534Y-23620529D01*
X2638139Y-23590037D01*
X2723729Y-23478493D01*
X2754455Y-23436204D01*
X2761868Y-23428790D01*
X2768563Y-23420066D01*
X2920066Y-23268563D01*
X2928790Y-23261868D01*
X2936204Y-23254455D01*
X2978493Y-23223729D01*
X3090037Y-23138139D01*
X3120529Y-23120534D01*
X3144147Y-23103375D01*
X3196098Y-23076904D01*
X3275573Y-23031020D01*
X3332126Y-23007594D01*
X3373165Y-22986685D01*
X3416972Y-22972451D01*
X3473519Y-22949029D01*
X3562147Y-22925280D01*
X3617616Y-22907258D01*
X3646456Y-22902690D01*
X3680463Y-22893578D01*
X3819825Y-22875230D01*
X3871484Y-22867049D01*
X3881975Y-22867049D01*
X3892875Y-22865614D01*
X4107125Y-22865614D01*
X4118025Y-22867049D01*
G37*
G36*
X30105884Y-21976563D02*
G01*
X30227514Y-22046786D01*
X30326824Y-22146096D01*
X30397047Y-22267726D01*
X30433397Y-22403387D01*
X30438000Y-22473610D01*
X30438000Y-23573610D01*
X30433397Y-23643833D01*
X30397047Y-23779494D01*
X30326824Y-23901124D01*
X30227514Y-24000434D01*
X30105884Y-24070657D01*
X29970223Y-24107007D01*
X29829777Y-24107007D01*
X29694116Y-24070657D01*
X29572486Y-24000434D01*
X29473176Y-23901124D01*
X29402953Y-23779494D01*
X29366603Y-23643833D01*
X29362000Y-23573610D01*
X29362000Y-22473610D01*
X29366603Y-22403387D01*
X29402953Y-22267726D01*
X29473176Y-22146096D01*
X29572486Y-22046786D01*
X29694116Y-21976563D01*
X29829777Y-21940213D01*
X29970223Y-21940213D01*
X30105884Y-21976563D01*
G37*
G36*
X38745884Y-21976563D02*
G01*
X38867514Y-22046786D01*
X38966824Y-22146096D01*
X39037047Y-22267726D01*
X39073397Y-22403387D01*
X39078000Y-22473610D01*
X39078000Y-23573610D01*
X39073397Y-23643833D01*
X39037047Y-23779494D01*
X38966824Y-23901124D01*
X38867514Y-24000434D01*
X38745884Y-24070657D01*
X38610223Y-24107007D01*
X38469777Y-24107007D01*
X38334116Y-24070657D01*
X38212486Y-24000434D01*
X38113176Y-23901124D01*
X38042953Y-23779494D01*
X38006603Y-23643833D01*
X38002000Y-23573610D01*
X38002000Y-22473610D01*
X38006603Y-22403387D01*
X38042953Y-22267726D01*
X38113176Y-22146096D01*
X38212486Y-22046786D01*
X38334116Y-21976563D01*
X38469777Y-21940213D01*
X38610223Y-21940213D01*
X38745884Y-21976563D01*
G37*
G36*
X31468914Y-23218242D02*
G01*
X31550980Y-23265623D01*
X31617987Y-23332630D01*
X31665368Y-23414696D01*
X31689894Y-23506229D01*
X31689894Y-23600991D01*
X31665368Y-23692524D01*
X31617987Y-23774590D01*
X31550980Y-23841597D01*
X31468914Y-23888978D01*
X31377381Y-23913504D01*
X31282619Y-23913504D01*
X31191086Y-23888978D01*
X31109020Y-23841597D01*
X31042013Y-23774590D01*
X30994632Y-23692524D01*
X30970106Y-23600991D01*
X30970106Y-23506229D01*
X30994632Y-23414696D01*
X31042013Y-23332630D01*
X31109020Y-23265623D01*
X31191086Y-23218242D01*
X31282619Y-23193716D01*
X31377381Y-23193716D01*
X31468914Y-23218242D01*
G37*
G36*
X37248914Y-23218242D02*
G01*
X37330980Y-23265623D01*
X37397987Y-23332630D01*
X37445368Y-23414696D01*
X37469894Y-23506229D01*
X37469894Y-23600991D01*
X37445368Y-23692524D01*
X37397987Y-23774590D01*
X37330980Y-23841597D01*
X37248914Y-23888978D01*
X37157381Y-23913504D01*
X37062619Y-23913504D01*
X36971086Y-23888978D01*
X36889020Y-23841597D01*
X36822013Y-23774590D01*
X36774632Y-23692524D01*
X36750106Y-23600991D01*
X36750106Y-23506229D01*
X36774632Y-23414696D01*
X36822013Y-23332630D01*
X36889020Y-23265623D01*
X36971086Y-23218242D01*
X37062619Y-23193716D01*
X37157381Y-23193716D01*
X37248914Y-23218242D01*
G37*
G36*
X9304230Y-20837388D02*
G01*
X9437891Y-20892752D01*
X9558182Y-20973128D01*
X9660482Y-21075428D01*
X9740858Y-21195719D01*
X9796222Y-21329380D01*
X9824446Y-21471273D01*
X9824446Y-21615947D01*
X9796222Y-21757840D01*
X9740858Y-21891501D01*
X9660482Y-22011792D01*
X9558182Y-22114092D01*
X9437891Y-22194468D01*
X9304230Y-22249832D01*
X9162337Y-22278056D01*
X9017663Y-22278056D01*
X8875770Y-22249832D01*
X8742109Y-22194468D01*
X8621818Y-22114092D01*
X8519518Y-22011792D01*
X8439142Y-21891501D01*
X8383778Y-21757840D01*
X8355554Y-21615947D01*
X8355554Y-21471273D01*
X8383778Y-21329380D01*
X8439142Y-21195719D01*
X8519518Y-21075428D01*
X8621818Y-20973128D01*
X8742109Y-20892752D01*
X8875770Y-20837388D01*
X9017663Y-20809164D01*
X9162337Y-20809164D01*
X9304230Y-20837388D01*
G37*
G36*
X17564230Y-20837388D02*
G01*
X17697891Y-20892752D01*
X17818182Y-20973128D01*
X17920482Y-21075428D01*
X18000858Y-21195719D01*
X18056222Y-21329380D01*
X18084446Y-21471273D01*
X18084446Y-21615947D01*
X18056222Y-21757840D01*
X18000858Y-21891501D01*
X17920482Y-22011792D01*
X17818182Y-22114092D01*
X17697891Y-22194468D01*
X17564230Y-22249832D01*
X17422337Y-22278056D01*
X17277663Y-22278056D01*
X17135770Y-22249832D01*
X17002109Y-22194468D01*
X16881818Y-22114092D01*
X16779518Y-22011792D01*
X16699142Y-21891501D01*
X16643778Y-21757840D01*
X16615554Y-21615947D01*
X16615554Y-21471273D01*
X16643778Y-21329380D01*
X16699142Y-21195719D01*
X16779518Y-21075428D01*
X16881818Y-20973128D01*
X17002109Y-20892752D01*
X17135770Y-20837388D01*
X17277663Y-20809164D01*
X17422337Y-20809164D01*
X17564230Y-20837388D01*
G37*
G36*
X17016317Y-19819660D02*
G01*
X17132295Y-19886620D01*
X17226990Y-19981315D01*
X17293950Y-20097293D01*
X17328611Y-20226650D01*
X17328611Y-20360570D01*
X17293950Y-20489927D01*
X17226990Y-20605905D01*
X17132295Y-20700600D01*
X17016317Y-20767560D01*
X16886960Y-20802221D01*
X16753040Y-20802221D01*
X16623683Y-20767560D01*
X16507705Y-20700600D01*
X16413010Y-20605905D01*
X16346050Y-20489927D01*
X16311389Y-20360570D01*
X16311389Y-20226650D01*
X16346050Y-20097293D01*
X16413010Y-19981315D01*
X16507705Y-19886620D01*
X16623683Y-19819660D01*
X16753040Y-19784999D01*
X16886960Y-19784999D01*
X17016317Y-19819660D01*
G37*
G36*
X9758914Y-19958242D02*
G01*
X9840980Y-20005623D01*
X9907987Y-20072630D01*
X9955368Y-20154696D01*
X9979894Y-20246229D01*
X9979894Y-20340991D01*
X9955368Y-20432524D01*
X9907987Y-20514590D01*
X9840980Y-20581597D01*
X9758914Y-20628978D01*
X9667381Y-20653504D01*
X9572619Y-20653504D01*
X9481086Y-20628978D01*
X9399020Y-20581597D01*
X9332013Y-20514590D01*
X9284632Y-20432524D01*
X9260106Y-20340991D01*
X9260106Y-20246229D01*
X9284632Y-20154696D01*
X9332013Y-20072630D01*
X9399020Y-20005623D01*
X9481086Y-19958242D01*
X9572619Y-19933716D01*
X9667381Y-19933716D01*
X9758914Y-19958242D01*
G37*
G36*
X2266828Y-11888581D02*
G01*
X2437407Y-11944006D01*
X2597216Y-12025432D01*
X2742319Y-12130856D01*
X2869144Y-12257681D01*
X2974568Y-12402784D01*
X3055994Y-12562593D01*
X3111419Y-12733172D01*
X3139477Y-12910321D01*
X3139477Y-13089679D01*
X3111419Y-13266828D01*
X3055994Y-13437407D01*
X2974568Y-13597216D01*
X2869144Y-13742319D01*
X2742319Y-13869144D01*
X2597216Y-13974568D01*
X2437407Y-14055994D01*
X2266828Y-14111419D01*
X2089679Y-14139477D01*
X1910321Y-14139477D01*
X1733172Y-14111419D01*
X1562593Y-14055994D01*
X1402784Y-13974568D01*
X1257681Y-13869144D01*
X1130856Y-13742319D01*
X1025432Y-13597216D01*
X944006Y-13437407D01*
X888581Y-13266828D01*
X860523Y-13089679D01*
X860523Y-12910321D01*
X888581Y-12733172D01*
X944006Y-12562593D01*
X1025432Y-12402784D01*
X1130856Y-12257681D01*
X1257681Y-12130856D01*
X1402784Y-12025432D01*
X1562593Y-11944006D01*
X1733172Y-11888581D01*
X1910321Y-11860523D01*
X2089679Y-11860523D01*
X2266828Y-11888581D01*
G37*
G36*
X9816317Y-8039660D02*
G01*
X9932295Y-8106620D01*
X10026990Y-8201315D01*
X10093950Y-8317293D01*
X10128611Y-8446650D01*
X10128611Y-8580570D01*
X10093950Y-8709927D01*
X10026990Y-8825905D01*
X9932295Y-8920600D01*
X9816317Y-8987560D01*
X9686960Y-9022221D01*
X9553040Y-9022221D01*
X9423683Y-8987560D01*
X9307705Y-8920600D01*
X9213010Y-8825905D01*
X9146050Y-8709927D01*
X9111389Y-8580570D01*
X9111389Y-8446650D01*
X9146050Y-8317293D01*
X9213010Y-8201315D01*
X9307705Y-8106620D01*
X9423683Y-8039660D01*
X9553040Y-8004999D01*
X9686960Y-8004999D01*
X9816317Y-8039660D01*
G37*
G36*
X16958914Y-8178242D02*
G01*
X17040980Y-8225623D01*
X17107987Y-8292630D01*
X17155368Y-8374696D01*
X17179894Y-8466229D01*
X17179894Y-8560991D01*
X17155368Y-8652524D01*
X17107987Y-8734590D01*
X17040980Y-8801597D01*
X16958914Y-8848978D01*
X16867381Y-8873504D01*
X16772619Y-8873504D01*
X16681086Y-8848978D01*
X16599020Y-8801597D01*
X16532013Y-8734590D01*
X16484632Y-8652524D01*
X16460106Y-8560991D01*
X16460106Y-8466229D01*
X16484632Y-8374696D01*
X16532013Y-8292630D01*
X16599020Y-8225623D01*
X16681086Y-8178242D01*
X16772619Y-8153716D01*
X16867381Y-8153716D01*
X16958914Y-8178242D01*
G37*
G36*
X9304230Y-6557388D02*
G01*
X9437891Y-6612752D01*
X9558182Y-6693128D01*
X9660482Y-6795428D01*
X9740858Y-6915719D01*
X9796222Y-7049380D01*
X9824446Y-7191273D01*
X9824446Y-7335947D01*
X9796222Y-7477840D01*
X9740858Y-7611501D01*
X9660482Y-7731792D01*
X9558182Y-7834092D01*
X9437891Y-7914468D01*
X9304230Y-7969832D01*
X9162337Y-7998056D01*
X9017663Y-7998056D01*
X8875770Y-7969832D01*
X8742109Y-7914468D01*
X8621818Y-7834092D01*
X8519518Y-7731792D01*
X8439142Y-7611501D01*
X8383778Y-7477840D01*
X8355554Y-7335947D01*
X8355554Y-7191273D01*
X8383778Y-7049380D01*
X8439142Y-6915719D01*
X8519518Y-6795428D01*
X8621818Y-6693128D01*
X8742109Y-6612752D01*
X8875770Y-6557388D01*
X9017663Y-6529164D01*
X9162337Y-6529164D01*
X9304230Y-6557388D01*
G37*
G36*
X17564230Y-6557388D02*
G01*
X17697891Y-6612752D01*
X17818182Y-6693128D01*
X17920482Y-6795428D01*
X18000858Y-6915719D01*
X18056222Y-7049380D01*
X18084446Y-7191273D01*
X18084446Y-7335947D01*
X18056222Y-7477840D01*
X18000858Y-7611501D01*
X17920482Y-7731792D01*
X17818182Y-7834092D01*
X17697891Y-7914468D01*
X17564230Y-7969832D01*
X17422337Y-7998056D01*
X17277663Y-7998056D01*
X17135770Y-7969832D01*
X17002109Y-7914468D01*
X16881818Y-7834092D01*
X16779518Y-7731792D01*
X16699142Y-7611501D01*
X16643778Y-7477840D01*
X16615554Y-7335947D01*
X16615554Y-7191273D01*
X16643778Y-7049380D01*
X16699142Y-6915719D01*
X16779518Y-6795428D01*
X16881818Y-6693128D01*
X17002109Y-6612752D01*
X17135770Y-6557388D01*
X17277663Y-6529164D01*
X17422337Y-6529164D01*
X17564230Y-6557388D01*
G37*
G36*
X4483758Y-1152804D02*
G01*
X4799501Y-1224871D01*
X5105190Y-1331836D01*
X5396980Y-1472355D01*
X5671203Y-1644660D01*
X5924409Y-1846585D01*
X6153415Y-2075591D01*
X6355340Y-2328797D01*
X6527645Y-2603020D01*
X6668164Y-2894810D01*
X6775129Y-3200499D01*
X6847196Y-3516242D01*
X6883457Y-3838069D01*
X6883457Y-4161931D01*
X6847196Y-4483758D01*
X6775129Y-4799501D01*
X6668164Y-5105190D01*
X6527645Y-5396980D01*
X6355340Y-5671203D01*
X6153415Y-5924409D01*
X5924409Y-6153415D01*
X5671203Y-6355340D01*
X5396980Y-6527645D01*
X5105190Y-6668164D01*
X4799501Y-6775129D01*
X4483758Y-6847196D01*
X4161931Y-6883457D01*
X3838069Y-6883457D01*
X3516242Y-6847196D01*
X3200499Y-6775129D01*
X2894810Y-6668164D01*
X2603020Y-6527645D01*
X2328797Y-6355340D01*
X2075591Y-6153415D01*
X1846585Y-5924409D01*
X1644660Y-5671203D01*
X1472355Y-5396980D01*
X1331836Y-5105190D01*
X1224871Y-4799501D01*
X1152804Y-4483758D01*
X1116543Y-4161931D01*
X1116543Y-3838069D01*
X1152804Y-3516242D01*
X1224871Y-3200499D01*
X1331836Y-2894810D01*
X1472355Y-2603020D01*
X1644660Y-2328797D01*
X1846585Y-2075591D01*
X2075591Y-1846585D01*
X2328797Y-1644660D01*
X2603020Y-1472355D01*
X2894810Y-1331836D01*
X3200499Y-1224871D01*
X3516242Y-1152804D01*
X3838069Y-1116543D01*
X4161931Y-1116543D01*
X4483758Y-1152804D01*
G37*
G36*
X37118025Y-2367049D02*
G01*
X37128516Y-2367049D01*
X37180176Y-2375231D01*
X37319536Y-2393578D01*
X37353540Y-2402689D01*
X37382384Y-2407258D01*
X37437857Y-2425282D01*
X37526480Y-2449029D01*
X37583022Y-2472449D01*
X37626835Y-2486685D01*
X37667877Y-2507597D01*
X37724426Y-2531020D01*
X37803892Y-2576900D01*
X37855853Y-2603375D01*
X37879474Y-2620537D01*
X37909962Y-2638139D01*
X38021487Y-2723715D01*
X38063796Y-2754455D01*
X38071212Y-2761871D01*
X38079933Y-2768563D01*
X38231436Y-2920066D01*
X38238127Y-2928786D01*
X38245545Y-2936204D01*
X38276288Y-2978518D01*
X38361860Y-3090037D01*
X38379460Y-3120522D01*
X38396625Y-3144147D01*
X38423103Y-3196113D01*
X38468979Y-3275573D01*
X38492399Y-3332116D01*
X38513315Y-3373165D01*
X38527552Y-3416983D01*
X38550970Y-3473519D01*
X38574713Y-3562129D01*
X38592742Y-3617616D01*
X38597311Y-3646465D01*
X38606421Y-3680463D01*
X38624767Y-3819815D01*
X38632951Y-3871484D01*
X38632951Y-3881974D01*
X38634386Y-3892874D01*
X38634386Y-4107125D01*
X38632951Y-4118024D01*
X38632951Y-4128516D01*
X38624766Y-4180188D01*
X38606421Y-4319536D01*
X38597311Y-4353531D01*
X38592742Y-4382384D01*
X38574711Y-4437875D01*
X38550970Y-4526480D01*
X38527554Y-4583011D01*
X38513315Y-4626835D01*
X38492397Y-4667887D01*
X38468979Y-4724426D01*
X38423107Y-4803878D01*
X38396625Y-4855853D01*
X38379458Y-4879481D01*
X38361860Y-4909962D01*
X38276301Y-5021462D01*
X38245545Y-5063796D01*
X38238124Y-5071216D01*
X38231436Y-5079933D01*
X38079933Y-5231436D01*
X38071216Y-5238124D01*
X38063796Y-5245545D01*
X38021462Y-5276301D01*
X37909962Y-5361860D01*
X37879481Y-5379458D01*
X37855853Y-5396625D01*
X37803878Y-5423107D01*
X37724426Y-5468979D01*
X37667887Y-5492397D01*
X37626835Y-5513315D01*
X37583011Y-5527554D01*
X37526480Y-5550970D01*
X37437875Y-5574711D01*
X37382384Y-5592742D01*
X37353531Y-5597311D01*
X37319536Y-5606421D01*
X37180188Y-5624766D01*
X37128516Y-5632951D01*
X37118025Y-5632951D01*
X37107125Y-5634386D01*
X36892875Y-5634386D01*
X36881975Y-5632951D01*
X36871484Y-5632951D01*
X36819812Y-5624767D01*
X36680463Y-5606421D01*
X36646465Y-5597311D01*
X36617616Y-5592742D01*
X36562129Y-5574713D01*
X36473519Y-5550970D01*
X36416983Y-5527552D01*
X36373165Y-5513315D01*
X36332116Y-5492399D01*
X36275573Y-5468979D01*
X36196113Y-5423103D01*
X36144147Y-5396625D01*
X36120522Y-5379460D01*
X36090037Y-5361860D01*
X35978518Y-5276288D01*
X35936204Y-5245545D01*
X35928786Y-5238127D01*
X35920066Y-5231436D01*
X35768563Y-5079933D01*
X35761871Y-5071212D01*
X35754455Y-5063796D01*
X35723715Y-5021487D01*
X35638139Y-4909962D01*
X35620537Y-4879474D01*
X35603375Y-4855853D01*
X35576900Y-4803892D01*
X35531020Y-4724426D01*
X35507597Y-4667877D01*
X35486685Y-4626835D01*
X35472449Y-4583022D01*
X35449029Y-4526480D01*
X35425282Y-4437857D01*
X35407258Y-4382384D01*
X35402689Y-4353540D01*
X35393578Y-4319536D01*
X35375231Y-4180176D01*
X35367049Y-4128516D01*
X35367049Y-4118025D01*
X35365614Y-4107125D01*
X35365614Y-3892874D01*
X35367049Y-3881973D01*
X35367049Y-3871484D01*
X35375230Y-3819828D01*
X35393578Y-3680463D01*
X35402690Y-3646456D01*
X35407258Y-3617616D01*
X35425280Y-3562147D01*
X35449029Y-3473519D01*
X35472451Y-3416972D01*
X35486685Y-3373165D01*
X35507594Y-3332126D01*
X35531020Y-3275573D01*
X35576904Y-3196098D01*
X35603375Y-3144147D01*
X35620534Y-3120529D01*
X35638139Y-3090037D01*
X35723729Y-2978493D01*
X35754455Y-2936204D01*
X35761868Y-2928790D01*
X35768563Y-2920066D01*
X35920066Y-2768563D01*
X35928790Y-2761868D01*
X35936204Y-2754455D01*
X35978493Y-2723729D01*
X36090037Y-2638139D01*
X36120529Y-2620534D01*
X36144147Y-2603375D01*
X36196098Y-2576904D01*
X36275573Y-2531020D01*
X36332126Y-2507594D01*
X36373165Y-2486685D01*
X36416972Y-2472451D01*
X36473519Y-2449029D01*
X36562147Y-2425280D01*
X36617616Y-2407258D01*
X36646456Y-2402690D01*
X36680463Y-2393578D01*
X36819825Y-2375230D01*
X36871484Y-2367049D01*
X36881975Y-2367049D01*
X36892875Y-2365614D01*
X37107125Y-2365614D01*
X37118025Y-2367049D01*
G37*
G36*
X33266828Y-888581D02*
G01*
X33437407Y-944006D01*
X33597216Y-1025432D01*
X33742319Y-1130856D01*
X33869144Y-1257681D01*
X33974568Y-1402784D01*
X34055994Y-1562593D01*
X34111419Y-1733172D01*
X34139477Y-1910321D01*
X34139477Y-2089679D01*
X34111419Y-2266828D01*
X34055994Y-2437407D01*
X33974568Y-2597216D01*
X33869144Y-2742319D01*
X33742319Y-2869144D01*
X33597216Y-2974568D01*
X33437407Y-3055994D01*
X33266828Y-3111419D01*
X33089679Y-3139477D01*
X32910321Y-3139477D01*
X32733172Y-3111419D01*
X32562593Y-3055994D01*
X32402784Y-2974568D01*
X32257681Y-2869144D01*
X32130856Y-2742319D01*
X32025432Y-2597216D01*
X31944006Y-2437407D01*
X31888581Y-2266828D01*
X31860523Y-2089679D01*
X31860523Y-1910321D01*
X31888581Y-1733172D01*
X31944006Y-1562593D01*
X32025432Y-1402784D01*
X32130856Y-1257681D01*
X32257681Y-1130856D01*
X32402784Y-1025432D01*
X32562593Y-944006D01*
X32733172Y-888581D01*
X32910321Y-860523D01*
X33089679Y-860523D01*
X33266828Y-888581D01*
G37*
G36*
X8944230Y-607388D02*
G01*
X9077891Y-662752D01*
X9198182Y-743128D01*
X9300482Y-845428D01*
X9380858Y-965719D01*
X9436222Y-1099380D01*
X9464446Y-1241273D01*
X9464446Y-1385947D01*
X9436222Y-1527840D01*
X9380858Y-1661501D01*
X9300482Y-1781792D01*
X9198182Y-1884092D01*
X9077891Y-1964468D01*
X8944230Y-2019832D01*
X8802337Y-2048056D01*
X8657663Y-2048056D01*
X8515770Y-2019832D01*
X8382109Y-1964468D01*
X8261818Y-1884092D01*
X8159518Y-1781792D01*
X8079142Y-1661501D01*
X8023778Y-1527840D01*
X7995554Y-1385947D01*
X7995554Y-1241273D01*
X8023778Y-1099380D01*
X8079142Y-965719D01*
X8159518Y-845428D01*
X8261818Y-743128D01*
X8382109Y-662752D01*
X8515770Y-607388D01*
X8657663Y-579164D01*
X8802337Y-579164D01*
X8944230Y-607388D01*
G37*
G36*
X17924230Y-607388D02*
G01*
X18057891Y-662752D01*
X18178182Y-743128D01*
X18280482Y-845428D01*
X18360858Y-965719D01*
X18416222Y-1099380D01*
X18444446Y-1241273D01*
X18444446Y-1385947D01*
X18416222Y-1527840D01*
X18360858Y-1661501D01*
X18280482Y-1781792D01*
X18178182Y-1884092D01*
X18057891Y-1964468D01*
X17924230Y-2019832D01*
X17782337Y-2048056D01*
X17637663Y-2048056D01*
X17495770Y-2019832D01*
X17362109Y-1964468D01*
X17241818Y-1884092D01*
X17139518Y-1781792D01*
X17059142Y-1661501D01*
X17003778Y-1527840D01*
X16975554Y-1385947D01*
X16975554Y-1241273D01*
X17003778Y-1099380D01*
X17059142Y-965719D01*
X17139518Y-845428D01*
X17241818Y-743128D01*
X17362109Y-662752D01*
X17495770Y-607388D01*
X17637663Y-579164D01*
X17782337Y-579164D01*
X17924230Y-607388D01*
G37*
M02*
