%TF.GenerationSoftware,KiCad,Pcbnew,9.0.1*%
%TF.CreationDate,2025-04-14T01:57:56-04:00*%
%TF.ProjectId,USB-3-2-splitter,5553422d-332d-4322-9d73-706c69747465,rev?*%
%TF.SameCoordinates,Original*%
%TF.FileFunction,Legend,Bot*%
%TF.FilePolarity,Positive*%
%FSLAX46Y46*%
G04 Gerber Fmt 4.6, Leading zero omitted, Abs format (unit mm)*
G04 Created by KiCad (PCBNEW 9.0.1) date 2025-04-14 01:57:56*
%MOMM*%
%LPD*%
G01*
G04 APERTURE LIST*
%ADD10C,0.200000*%
%ADD11C,0.300000*%
G04 APERTURE END LIST*
D10*
X23739850Y-3142742D02*
X23739850Y-3999885D01*
X23739850Y-3999885D02*
X23796993Y-4171314D01*
X23796993Y-4171314D02*
X23911279Y-4285600D01*
X23911279Y-4285600D02*
X24082707Y-4342742D01*
X24082707Y-4342742D02*
X24196993Y-4342742D01*
X22596993Y-4342742D02*
X23168421Y-4342742D01*
X23168421Y-4342742D02*
X23168421Y-3142742D01*
X21511278Y-4228457D02*
X21568421Y-4285600D01*
X21568421Y-4285600D02*
X21739849Y-4342742D01*
X21739849Y-4342742D02*
X21854135Y-4342742D01*
X21854135Y-4342742D02*
X22025564Y-4285600D01*
X22025564Y-4285600D02*
X22139849Y-4171314D01*
X22139849Y-4171314D02*
X22196992Y-4057028D01*
X22196992Y-4057028D02*
X22254135Y-3828457D01*
X22254135Y-3828457D02*
X22254135Y-3657028D01*
X22254135Y-3657028D02*
X22196992Y-3428457D01*
X22196992Y-3428457D02*
X22139849Y-3314171D01*
X22139849Y-3314171D02*
X22025564Y-3199885D01*
X22025564Y-3199885D02*
X21854135Y-3142742D01*
X21854135Y-3142742D02*
X21739849Y-3142742D01*
X21739849Y-3142742D02*
X21568421Y-3199885D01*
X21568421Y-3199885D02*
X21511278Y-3257028D01*
X20654135Y-3142742D02*
X20654135Y-3999885D01*
X20654135Y-3999885D02*
X20711278Y-4171314D01*
X20711278Y-4171314D02*
X20825564Y-4285600D01*
X20825564Y-4285600D02*
X20996992Y-4342742D01*
X20996992Y-4342742D02*
X21111278Y-4342742D01*
X19511278Y-4342742D02*
X20082706Y-4342742D01*
X20082706Y-4342742D02*
X20082706Y-3142742D01*
X18425563Y-4228457D02*
X18482706Y-4285600D01*
X18482706Y-4285600D02*
X18654134Y-4342742D01*
X18654134Y-4342742D02*
X18768420Y-4342742D01*
X18768420Y-4342742D02*
X18939849Y-4285600D01*
X18939849Y-4285600D02*
X19054134Y-4171314D01*
X19054134Y-4171314D02*
X19111277Y-4057028D01*
X19111277Y-4057028D02*
X19168420Y-3828457D01*
X19168420Y-3828457D02*
X19168420Y-3657028D01*
X19168420Y-3657028D02*
X19111277Y-3428457D01*
X19111277Y-3428457D02*
X19054134Y-3314171D01*
X19054134Y-3314171D02*
X18939849Y-3199885D01*
X18939849Y-3199885D02*
X18768420Y-3142742D01*
X18768420Y-3142742D02*
X18654134Y-3142742D01*
X18654134Y-3142742D02*
X18482706Y-3199885D01*
X18482706Y-3199885D02*
X18425563Y-3257028D01*
X17568420Y-3142742D02*
X17568420Y-3999885D01*
X17568420Y-3999885D02*
X17625563Y-4171314D01*
X17625563Y-4171314D02*
X17739849Y-4285600D01*
X17739849Y-4285600D02*
X17911277Y-4342742D01*
X17911277Y-4342742D02*
X18025563Y-4342742D01*
X16425563Y-4342742D02*
X16996991Y-4342742D01*
X16996991Y-4342742D02*
X16996991Y-3142742D01*
X15339848Y-4228457D02*
X15396991Y-4285600D01*
X15396991Y-4285600D02*
X15568419Y-4342742D01*
X15568419Y-4342742D02*
X15682705Y-4342742D01*
X15682705Y-4342742D02*
X15854134Y-4285600D01*
X15854134Y-4285600D02*
X15968419Y-4171314D01*
X15968419Y-4171314D02*
X16025562Y-4057028D01*
X16025562Y-4057028D02*
X16082705Y-3828457D01*
X16082705Y-3828457D02*
X16082705Y-3657028D01*
X16082705Y-3657028D02*
X16025562Y-3428457D01*
X16025562Y-3428457D02*
X15968419Y-3314171D01*
X15968419Y-3314171D02*
X15854134Y-3199885D01*
X15854134Y-3199885D02*
X15682705Y-3142742D01*
X15682705Y-3142742D02*
X15568419Y-3142742D01*
X15568419Y-3142742D02*
X15396991Y-3199885D01*
X15396991Y-3199885D02*
X15339848Y-3257028D01*
X14482705Y-3142742D02*
X14482705Y-3999885D01*
X14482705Y-3999885D02*
X14539848Y-4171314D01*
X14539848Y-4171314D02*
X14654134Y-4285600D01*
X14654134Y-4285600D02*
X14825562Y-4342742D01*
X14825562Y-4342742D02*
X14939848Y-4342742D01*
X13339848Y-4342742D02*
X13911276Y-4342742D01*
X13911276Y-4342742D02*
X13911276Y-3142742D01*
X12254133Y-4228457D02*
X12311276Y-4285600D01*
X12311276Y-4285600D02*
X12482704Y-4342742D01*
X12482704Y-4342742D02*
X12596990Y-4342742D01*
X12596990Y-4342742D02*
X12768419Y-4285600D01*
X12768419Y-4285600D02*
X12882704Y-4171314D01*
X12882704Y-4171314D02*
X12939847Y-4057028D01*
X12939847Y-4057028D02*
X12996990Y-3828457D01*
X12996990Y-3828457D02*
X12996990Y-3657028D01*
X12996990Y-3657028D02*
X12939847Y-3428457D01*
X12939847Y-3428457D02*
X12882704Y-3314171D01*
X12882704Y-3314171D02*
X12768419Y-3199885D01*
X12768419Y-3199885D02*
X12596990Y-3142742D01*
X12596990Y-3142742D02*
X12482704Y-3142742D01*
X12482704Y-3142742D02*
X12311276Y-3199885D01*
X12311276Y-3199885D02*
X12254133Y-3257028D01*
X35754136Y-15278876D02*
X35068422Y-15278876D01*
X35411279Y-16478876D02*
X35411279Y-15278876D01*
X34668421Y-16478876D02*
X34668421Y-15278876D01*
X34154136Y-16478876D02*
X34154136Y-15850305D01*
X34154136Y-15850305D02*
X34211278Y-15736019D01*
X34211278Y-15736019D02*
X34325564Y-15678876D01*
X34325564Y-15678876D02*
X34496993Y-15678876D01*
X34496993Y-15678876D02*
X34611278Y-15736019D01*
X34611278Y-15736019D02*
X34668421Y-15793162D01*
X33582707Y-16478876D02*
X33582707Y-15678876D01*
X33582707Y-15278876D02*
X33639850Y-15336019D01*
X33639850Y-15336019D02*
X33582707Y-15393162D01*
X33582707Y-15393162D02*
X33525564Y-15336019D01*
X33525564Y-15336019D02*
X33582707Y-15278876D01*
X33582707Y-15278876D02*
X33582707Y-15393162D01*
X33068421Y-16421734D02*
X32954135Y-16478876D01*
X32954135Y-16478876D02*
X32725564Y-16478876D01*
X32725564Y-16478876D02*
X32611278Y-16421734D01*
X32611278Y-16421734D02*
X32554135Y-16307448D01*
X32554135Y-16307448D02*
X32554135Y-16250305D01*
X32554135Y-16250305D02*
X32611278Y-16136019D01*
X32611278Y-16136019D02*
X32725564Y-16078876D01*
X32725564Y-16078876D02*
X32896993Y-16078876D01*
X32896993Y-16078876D02*
X33011278Y-16021734D01*
X33011278Y-16021734D02*
X33068421Y-15907448D01*
X33068421Y-15907448D02*
X33068421Y-15850305D01*
X33068421Y-15850305D02*
X33011278Y-15736019D01*
X33011278Y-15736019D02*
X32896993Y-15678876D01*
X32896993Y-15678876D02*
X32725564Y-15678876D01*
X32725564Y-15678876D02*
X32611278Y-15736019D01*
X31296992Y-15678876D02*
X30839849Y-15678876D01*
X31125563Y-15278876D02*
X31125563Y-16307448D01*
X31125563Y-16307448D02*
X31068420Y-16421734D01*
X31068420Y-16421734D02*
X30954135Y-16478876D01*
X30954135Y-16478876D02*
X30839849Y-16478876D01*
X29925564Y-16478876D02*
X29925564Y-15850305D01*
X29925564Y-15850305D02*
X29982706Y-15736019D01*
X29982706Y-15736019D02*
X30096992Y-15678876D01*
X30096992Y-15678876D02*
X30325564Y-15678876D01*
X30325564Y-15678876D02*
X30439849Y-15736019D01*
X29925564Y-16421734D02*
X30039849Y-16478876D01*
X30039849Y-16478876D02*
X30325564Y-16478876D01*
X30325564Y-16478876D02*
X30439849Y-16421734D01*
X30439849Y-16421734D02*
X30496992Y-16307448D01*
X30496992Y-16307448D02*
X30496992Y-16193162D01*
X30496992Y-16193162D02*
X30439849Y-16078876D01*
X30439849Y-16078876D02*
X30325564Y-16021734D01*
X30325564Y-16021734D02*
X30039849Y-16021734D01*
X30039849Y-16021734D02*
X29925564Y-15964591D01*
X29354135Y-16478876D02*
X29354135Y-15278876D01*
X29239850Y-16021734D02*
X28896992Y-16478876D01*
X28896992Y-15678876D02*
X29354135Y-16136019D01*
X27925563Y-16421734D02*
X28039849Y-16478876D01*
X28039849Y-16478876D02*
X28268421Y-16478876D01*
X28268421Y-16478876D02*
X28382706Y-16421734D01*
X28382706Y-16421734D02*
X28439849Y-16307448D01*
X28439849Y-16307448D02*
X28439849Y-15850305D01*
X28439849Y-15850305D02*
X28382706Y-15736019D01*
X28382706Y-15736019D02*
X28268421Y-15678876D01*
X28268421Y-15678876D02*
X28039849Y-15678876D01*
X28039849Y-15678876D02*
X27925563Y-15736019D01*
X27925563Y-15736019D02*
X27868421Y-15850305D01*
X27868421Y-15850305D02*
X27868421Y-15964591D01*
X27868421Y-15964591D02*
X28439849Y-16078876D01*
X27411278Y-16421734D02*
X27296992Y-16478876D01*
X27296992Y-16478876D02*
X27068421Y-16478876D01*
X27068421Y-16478876D02*
X26954135Y-16421734D01*
X26954135Y-16421734D02*
X26896992Y-16307448D01*
X26896992Y-16307448D02*
X26896992Y-16250305D01*
X26896992Y-16250305D02*
X26954135Y-16136019D01*
X26954135Y-16136019D02*
X27068421Y-16078876D01*
X27068421Y-16078876D02*
X27239850Y-16078876D01*
X27239850Y-16078876D02*
X27354135Y-16021734D01*
X27354135Y-16021734D02*
X27411278Y-15907448D01*
X27411278Y-15907448D02*
X27411278Y-15850305D01*
X27411278Y-15850305D02*
X27354135Y-15736019D01*
X27354135Y-15736019D02*
X27239850Y-15678876D01*
X27239850Y-15678876D02*
X27068421Y-15678876D01*
X27068421Y-15678876D02*
X26954135Y-15736019D01*
X24954135Y-16478876D02*
X24954135Y-15850305D01*
X24954135Y-15850305D02*
X25011277Y-15736019D01*
X25011277Y-15736019D02*
X25125563Y-15678876D01*
X25125563Y-15678876D02*
X25354135Y-15678876D01*
X25354135Y-15678876D02*
X25468420Y-15736019D01*
X24954135Y-16421734D02*
X25068420Y-16478876D01*
X25068420Y-16478876D02*
X25354135Y-16478876D01*
X25354135Y-16478876D02*
X25468420Y-16421734D01*
X25468420Y-16421734D02*
X25525563Y-16307448D01*
X25525563Y-16307448D02*
X25525563Y-16193162D01*
X25525563Y-16193162D02*
X25468420Y-16078876D01*
X25468420Y-16078876D02*
X25354135Y-16021734D01*
X25354135Y-16021734D02*
X25068420Y-16021734D01*
X25068420Y-16021734D02*
X24954135Y-15964591D01*
X23468420Y-15278876D02*
X23468420Y-16250305D01*
X23468420Y-16250305D02*
X23411277Y-16364591D01*
X23411277Y-16364591D02*
X23354135Y-16421734D01*
X23354135Y-16421734D02*
X23239849Y-16478876D01*
X23239849Y-16478876D02*
X23011277Y-16478876D01*
X23011277Y-16478876D02*
X22896992Y-16421734D01*
X22896992Y-16421734D02*
X22839849Y-16364591D01*
X22839849Y-16364591D02*
X22782706Y-16250305D01*
X22782706Y-16250305D02*
X22782706Y-15278876D01*
X22268420Y-16421734D02*
X22096992Y-16478876D01*
X22096992Y-16478876D02*
X21811277Y-16478876D01*
X21811277Y-16478876D02*
X21696992Y-16421734D01*
X21696992Y-16421734D02*
X21639849Y-16364591D01*
X21639849Y-16364591D02*
X21582706Y-16250305D01*
X21582706Y-16250305D02*
X21582706Y-16136019D01*
X21582706Y-16136019D02*
X21639849Y-16021734D01*
X21639849Y-16021734D02*
X21696992Y-15964591D01*
X21696992Y-15964591D02*
X21811277Y-15907448D01*
X21811277Y-15907448D02*
X22039849Y-15850305D01*
X22039849Y-15850305D02*
X22154134Y-15793162D01*
X22154134Y-15793162D02*
X22211277Y-15736019D01*
X22211277Y-15736019D02*
X22268420Y-15621734D01*
X22268420Y-15621734D02*
X22268420Y-15507448D01*
X22268420Y-15507448D02*
X22211277Y-15393162D01*
X22211277Y-15393162D02*
X22154134Y-15336019D01*
X22154134Y-15336019D02*
X22039849Y-15278876D01*
X22039849Y-15278876D02*
X21754134Y-15278876D01*
X21754134Y-15278876D02*
X21582706Y-15336019D01*
X20668420Y-15850305D02*
X20496992Y-15907448D01*
X20496992Y-15907448D02*
X20439849Y-15964591D01*
X20439849Y-15964591D02*
X20382706Y-16078876D01*
X20382706Y-16078876D02*
X20382706Y-16250305D01*
X20382706Y-16250305D02*
X20439849Y-16364591D01*
X20439849Y-16364591D02*
X20496992Y-16421734D01*
X20496992Y-16421734D02*
X20611277Y-16478876D01*
X20611277Y-16478876D02*
X21068420Y-16478876D01*
X21068420Y-16478876D02*
X21068420Y-15278876D01*
X21068420Y-15278876D02*
X20668420Y-15278876D01*
X20668420Y-15278876D02*
X20554135Y-15336019D01*
X20554135Y-15336019D02*
X20496992Y-15393162D01*
X20496992Y-15393162D02*
X20439849Y-15507448D01*
X20439849Y-15507448D02*
X20439849Y-15621734D01*
X20439849Y-15621734D02*
X20496992Y-15736019D01*
X20496992Y-15736019D02*
X20554135Y-15793162D01*
X20554135Y-15793162D02*
X20668420Y-15850305D01*
X20668420Y-15850305D02*
X21068420Y-15850305D01*
X19068420Y-15278876D02*
X18325563Y-15278876D01*
X18325563Y-15278876D02*
X18725563Y-15736019D01*
X18725563Y-15736019D02*
X18554134Y-15736019D01*
X18554134Y-15736019D02*
X18439849Y-15793162D01*
X18439849Y-15793162D02*
X18382706Y-15850305D01*
X18382706Y-15850305D02*
X18325563Y-15964591D01*
X18325563Y-15964591D02*
X18325563Y-16250305D01*
X18325563Y-16250305D02*
X18382706Y-16364591D01*
X18382706Y-16364591D02*
X18439849Y-16421734D01*
X18439849Y-16421734D02*
X18554134Y-16478876D01*
X18554134Y-16478876D02*
X18896991Y-16478876D01*
X18896991Y-16478876D02*
X19011277Y-16421734D01*
X19011277Y-16421734D02*
X19068420Y-16364591D01*
X16896991Y-16478876D02*
X16896991Y-15678876D01*
X16896991Y-15278876D02*
X16954134Y-15336019D01*
X16954134Y-15336019D02*
X16896991Y-15393162D01*
X16896991Y-15393162D02*
X16839848Y-15336019D01*
X16839848Y-15336019D02*
X16896991Y-15278876D01*
X16896991Y-15278876D02*
X16896991Y-15393162D01*
X16325562Y-15678876D02*
X16325562Y-16478876D01*
X16325562Y-15793162D02*
X16268419Y-15736019D01*
X16268419Y-15736019D02*
X16154134Y-15678876D01*
X16154134Y-15678876D02*
X15982705Y-15678876D01*
X15982705Y-15678876D02*
X15868419Y-15736019D01*
X15868419Y-15736019D02*
X15811277Y-15850305D01*
X15811277Y-15850305D02*
X15811277Y-16478876D01*
X15239848Y-15678876D02*
X15239848Y-16878876D01*
X15239848Y-15736019D02*
X15125563Y-15678876D01*
X15125563Y-15678876D02*
X14896991Y-15678876D01*
X14896991Y-15678876D02*
X14782705Y-15736019D01*
X14782705Y-15736019D02*
X14725563Y-15793162D01*
X14725563Y-15793162D02*
X14668420Y-15907448D01*
X14668420Y-15907448D02*
X14668420Y-16250305D01*
X14668420Y-16250305D02*
X14725563Y-16364591D01*
X14725563Y-16364591D02*
X14782705Y-16421734D01*
X14782705Y-16421734D02*
X14896991Y-16478876D01*
X14896991Y-16478876D02*
X15125563Y-16478876D01*
X15125563Y-16478876D02*
X15239848Y-16421734D01*
X13639849Y-15678876D02*
X13639849Y-16478876D01*
X14154134Y-15678876D02*
X14154134Y-16307448D01*
X14154134Y-16307448D02*
X14096991Y-16421734D01*
X14096991Y-16421734D02*
X13982706Y-16478876D01*
X13982706Y-16478876D02*
X13811277Y-16478876D01*
X13811277Y-16478876D02*
X13696991Y-16421734D01*
X13696991Y-16421734D02*
X13639849Y-16364591D01*
X13239849Y-15678876D02*
X12782706Y-15678876D01*
X13068420Y-15278876D02*
X13068420Y-16307448D01*
X13068420Y-16307448D02*
X13011277Y-16421734D01*
X13011277Y-16421734D02*
X12896992Y-16478876D01*
X12896992Y-16478876D02*
X12782706Y-16478876D01*
X11125563Y-16936019D02*
X11182706Y-16878876D01*
X11182706Y-16878876D02*
X11296992Y-16707448D01*
X11296992Y-16707448D02*
X11354135Y-16593162D01*
X11354135Y-16593162D02*
X11411277Y-16421734D01*
X11411277Y-16421734D02*
X11468420Y-16136019D01*
X11468420Y-16136019D02*
X11468420Y-15907448D01*
X11468420Y-15907448D02*
X11411277Y-15621734D01*
X11411277Y-15621734D02*
X11354135Y-15450305D01*
X11354135Y-15450305D02*
X11296992Y-15336019D01*
X11296992Y-15336019D02*
X11182706Y-15164591D01*
X11182706Y-15164591D02*
X11125563Y-15107448D01*
X10325563Y-15278876D02*
X10325563Y-16136019D01*
X10325563Y-16136019D02*
X10382706Y-16307448D01*
X10382706Y-16307448D02*
X10496992Y-16421734D01*
X10496992Y-16421734D02*
X10668420Y-16478876D01*
X10668420Y-16478876D02*
X10782706Y-16478876D01*
X9811277Y-15393162D02*
X9754134Y-15336019D01*
X9754134Y-15336019D02*
X9639849Y-15278876D01*
X9639849Y-15278876D02*
X9354134Y-15278876D01*
X9354134Y-15278876D02*
X9239849Y-15336019D01*
X9239849Y-15336019D02*
X9182706Y-15393162D01*
X9182706Y-15393162D02*
X9125563Y-15507448D01*
X9125563Y-15507448D02*
X9125563Y-15621734D01*
X9125563Y-15621734D02*
X9182706Y-15793162D01*
X9182706Y-15793162D02*
X9868420Y-16478876D01*
X9868420Y-16478876D02*
X9125563Y-16478876D01*
X8725563Y-16936019D02*
X8668420Y-16878876D01*
X8668420Y-16878876D02*
X8554134Y-16707448D01*
X8554134Y-16707448D02*
X8496992Y-16593162D01*
X8496992Y-16593162D02*
X8439849Y-16421734D01*
X8439849Y-16421734D02*
X8382706Y-16136019D01*
X8382706Y-16136019D02*
X8382706Y-15907448D01*
X8382706Y-15907448D02*
X8439849Y-15621734D01*
X8439849Y-15621734D02*
X8496992Y-15450305D01*
X8496992Y-15450305D02*
X8554134Y-15336019D01*
X8554134Y-15336019D02*
X8668420Y-15164591D01*
X8668420Y-15164591D02*
X8725563Y-15107448D01*
X6382706Y-16478876D02*
X6382706Y-15850305D01*
X6382706Y-15850305D02*
X6439848Y-15736019D01*
X6439848Y-15736019D02*
X6554134Y-15678876D01*
X6554134Y-15678876D02*
X6782706Y-15678876D01*
X6782706Y-15678876D02*
X6896991Y-15736019D01*
X6382706Y-16421734D02*
X6496991Y-16478876D01*
X6496991Y-16478876D02*
X6782706Y-16478876D01*
X6782706Y-16478876D02*
X6896991Y-16421734D01*
X6896991Y-16421734D02*
X6954134Y-16307448D01*
X6954134Y-16307448D02*
X6954134Y-16193162D01*
X6954134Y-16193162D02*
X6896991Y-16078876D01*
X6896991Y-16078876D02*
X6782706Y-16021734D01*
X6782706Y-16021734D02*
X6496991Y-16021734D01*
X6496991Y-16021734D02*
X6382706Y-15964591D01*
X5811277Y-15678876D02*
X5811277Y-16478876D01*
X5811277Y-15793162D02*
X5754134Y-15736019D01*
X5754134Y-15736019D02*
X5639849Y-15678876D01*
X5639849Y-15678876D02*
X5468420Y-15678876D01*
X5468420Y-15678876D02*
X5354134Y-15736019D01*
X5354134Y-15736019D02*
X5296992Y-15850305D01*
X5296992Y-15850305D02*
X5296992Y-16478876D01*
X4211278Y-16478876D02*
X4211278Y-15278876D01*
X4211278Y-16421734D02*
X4325563Y-16478876D01*
X4325563Y-16478876D02*
X4554135Y-16478876D01*
X4554135Y-16478876D02*
X4668420Y-16421734D01*
X4668420Y-16421734D02*
X4725563Y-16364591D01*
X4725563Y-16364591D02*
X4782706Y-16250305D01*
X4782706Y-16250305D02*
X4782706Y-15907448D01*
X4782706Y-15907448D02*
X4725563Y-15793162D01*
X4725563Y-15793162D02*
X4668420Y-15736019D01*
X4668420Y-15736019D02*
X4554135Y-15678876D01*
X4554135Y-15678876D02*
X4325563Y-15678876D01*
X4325563Y-15678876D02*
X4211278Y-15736019D01*
X35582707Y-18410809D02*
X35582707Y-17210809D01*
X35582707Y-17667952D02*
X35468422Y-17610809D01*
X35468422Y-17610809D02*
X35239850Y-17610809D01*
X35239850Y-17610809D02*
X35125564Y-17667952D01*
X35125564Y-17667952D02*
X35068422Y-17725095D01*
X35068422Y-17725095D02*
X35011279Y-17839381D01*
X35011279Y-17839381D02*
X35011279Y-18182238D01*
X35011279Y-18182238D02*
X35068422Y-18296524D01*
X35068422Y-18296524D02*
X35125564Y-18353667D01*
X35125564Y-18353667D02*
X35239850Y-18410809D01*
X35239850Y-18410809D02*
X35468422Y-18410809D01*
X35468422Y-18410809D02*
X35582707Y-18353667D01*
X34496993Y-18410809D02*
X34496993Y-17610809D01*
X34496993Y-17839381D02*
X34439850Y-17725095D01*
X34439850Y-17725095D02*
X34382708Y-17667952D01*
X34382708Y-17667952D02*
X34268422Y-17610809D01*
X34268422Y-17610809D02*
X34154136Y-17610809D01*
X33296993Y-18353667D02*
X33411279Y-18410809D01*
X33411279Y-18410809D02*
X33639851Y-18410809D01*
X33639851Y-18410809D02*
X33754136Y-18353667D01*
X33754136Y-18353667D02*
X33811279Y-18239381D01*
X33811279Y-18239381D02*
X33811279Y-17782238D01*
X33811279Y-17782238D02*
X33754136Y-17667952D01*
X33754136Y-17667952D02*
X33639851Y-17610809D01*
X33639851Y-17610809D02*
X33411279Y-17610809D01*
X33411279Y-17610809D02*
X33296993Y-17667952D01*
X33296993Y-17667952D02*
X33239851Y-17782238D01*
X33239851Y-17782238D02*
X33239851Y-17896524D01*
X33239851Y-17896524D02*
X33811279Y-18010809D01*
X32211280Y-18410809D02*
X32211280Y-17782238D01*
X32211280Y-17782238D02*
X32268422Y-17667952D01*
X32268422Y-17667952D02*
X32382708Y-17610809D01*
X32382708Y-17610809D02*
X32611280Y-17610809D01*
X32611280Y-17610809D02*
X32725565Y-17667952D01*
X32211280Y-18353667D02*
X32325565Y-18410809D01*
X32325565Y-18410809D02*
X32611280Y-18410809D01*
X32611280Y-18410809D02*
X32725565Y-18353667D01*
X32725565Y-18353667D02*
X32782708Y-18239381D01*
X32782708Y-18239381D02*
X32782708Y-18125095D01*
X32782708Y-18125095D02*
X32725565Y-18010809D01*
X32725565Y-18010809D02*
X32611280Y-17953667D01*
X32611280Y-17953667D02*
X32325565Y-17953667D01*
X32325565Y-17953667D02*
X32211280Y-17896524D01*
X31639851Y-18410809D02*
X31639851Y-17210809D01*
X31525566Y-17953667D02*
X31182708Y-18410809D01*
X31182708Y-17610809D02*
X31639851Y-18067952D01*
X30725565Y-18353667D02*
X30611279Y-18410809D01*
X30611279Y-18410809D02*
X30382708Y-18410809D01*
X30382708Y-18410809D02*
X30268422Y-18353667D01*
X30268422Y-18353667D02*
X30211279Y-18239381D01*
X30211279Y-18239381D02*
X30211279Y-18182238D01*
X30211279Y-18182238D02*
X30268422Y-18067952D01*
X30268422Y-18067952D02*
X30382708Y-18010809D01*
X30382708Y-18010809D02*
X30554137Y-18010809D01*
X30554137Y-18010809D02*
X30668422Y-17953667D01*
X30668422Y-17953667D02*
X30725565Y-17839381D01*
X30725565Y-17839381D02*
X30725565Y-17782238D01*
X30725565Y-17782238D02*
X30668422Y-17667952D01*
X30668422Y-17667952D02*
X30554137Y-17610809D01*
X30554137Y-17610809D02*
X30382708Y-17610809D01*
X30382708Y-17610809D02*
X30268422Y-17667952D01*
X28611279Y-18410809D02*
X28725564Y-18353667D01*
X28725564Y-18353667D02*
X28782707Y-18296524D01*
X28782707Y-18296524D02*
X28839850Y-18182238D01*
X28839850Y-18182238D02*
X28839850Y-17839381D01*
X28839850Y-17839381D02*
X28782707Y-17725095D01*
X28782707Y-17725095D02*
X28725564Y-17667952D01*
X28725564Y-17667952D02*
X28611279Y-17610809D01*
X28611279Y-17610809D02*
X28439850Y-17610809D01*
X28439850Y-17610809D02*
X28325564Y-17667952D01*
X28325564Y-17667952D02*
X28268422Y-17725095D01*
X28268422Y-17725095D02*
X28211279Y-17839381D01*
X28211279Y-17839381D02*
X28211279Y-18182238D01*
X28211279Y-18182238D02*
X28268422Y-18296524D01*
X28268422Y-18296524D02*
X28325564Y-18353667D01*
X28325564Y-18353667D02*
X28439850Y-18410809D01*
X28439850Y-18410809D02*
X28611279Y-18410809D01*
X27182708Y-17610809D02*
X27182708Y-18410809D01*
X27696993Y-17610809D02*
X27696993Y-18239381D01*
X27696993Y-18239381D02*
X27639850Y-18353667D01*
X27639850Y-18353667D02*
X27525565Y-18410809D01*
X27525565Y-18410809D02*
X27354136Y-18410809D01*
X27354136Y-18410809D02*
X27239850Y-18353667D01*
X27239850Y-18353667D02*
X27182708Y-18296524D01*
X26782708Y-17610809D02*
X26325565Y-17610809D01*
X26611279Y-17210809D02*
X26611279Y-18239381D01*
X26611279Y-18239381D02*
X26554136Y-18353667D01*
X26554136Y-18353667D02*
X26439851Y-18410809D01*
X26439851Y-18410809D02*
X26325565Y-18410809D01*
X25182708Y-17610809D02*
X24725565Y-17610809D01*
X25011279Y-17210809D02*
X25011279Y-18239381D01*
X25011279Y-18239381D02*
X24954136Y-18353667D01*
X24954136Y-18353667D02*
X24839851Y-18410809D01*
X24839851Y-18410809D02*
X24725565Y-18410809D01*
X24325565Y-18410809D02*
X24325565Y-17210809D01*
X23811280Y-18410809D02*
X23811280Y-17782238D01*
X23811280Y-17782238D02*
X23868422Y-17667952D01*
X23868422Y-17667952D02*
X23982708Y-17610809D01*
X23982708Y-17610809D02*
X24154137Y-17610809D01*
X24154137Y-17610809D02*
X24268422Y-17667952D01*
X24268422Y-17667952D02*
X24325565Y-17725095D01*
X22782708Y-18353667D02*
X22896994Y-18410809D01*
X22896994Y-18410809D02*
X23125566Y-18410809D01*
X23125566Y-18410809D02*
X23239851Y-18353667D01*
X23239851Y-18353667D02*
X23296994Y-18239381D01*
X23296994Y-18239381D02*
X23296994Y-17782238D01*
X23296994Y-17782238D02*
X23239851Y-17667952D01*
X23239851Y-17667952D02*
X23125566Y-17610809D01*
X23125566Y-17610809D02*
X22896994Y-17610809D01*
X22896994Y-17610809D02*
X22782708Y-17667952D01*
X22782708Y-17667952D02*
X22725566Y-17782238D01*
X22725566Y-17782238D02*
X22725566Y-17896524D01*
X22725566Y-17896524D02*
X23296994Y-18010809D01*
X21296994Y-17210809D02*
X21296994Y-18182238D01*
X21296994Y-18182238D02*
X21239851Y-18296524D01*
X21239851Y-18296524D02*
X21182709Y-18353667D01*
X21182709Y-18353667D02*
X21068423Y-18410809D01*
X21068423Y-18410809D02*
X20839851Y-18410809D01*
X20839851Y-18410809D02*
X20725566Y-18353667D01*
X20725566Y-18353667D02*
X20668423Y-18296524D01*
X20668423Y-18296524D02*
X20611280Y-18182238D01*
X20611280Y-18182238D02*
X20611280Y-17210809D01*
X20096994Y-18353667D02*
X19925566Y-18410809D01*
X19925566Y-18410809D02*
X19639851Y-18410809D01*
X19639851Y-18410809D02*
X19525566Y-18353667D01*
X19525566Y-18353667D02*
X19468423Y-18296524D01*
X19468423Y-18296524D02*
X19411280Y-18182238D01*
X19411280Y-18182238D02*
X19411280Y-18067952D01*
X19411280Y-18067952D02*
X19468423Y-17953667D01*
X19468423Y-17953667D02*
X19525566Y-17896524D01*
X19525566Y-17896524D02*
X19639851Y-17839381D01*
X19639851Y-17839381D02*
X19868423Y-17782238D01*
X19868423Y-17782238D02*
X19982708Y-17725095D01*
X19982708Y-17725095D02*
X20039851Y-17667952D01*
X20039851Y-17667952D02*
X20096994Y-17553667D01*
X20096994Y-17553667D02*
X20096994Y-17439381D01*
X20096994Y-17439381D02*
X20039851Y-17325095D01*
X20039851Y-17325095D02*
X19982708Y-17267952D01*
X19982708Y-17267952D02*
X19868423Y-17210809D01*
X19868423Y-17210809D02*
X19582708Y-17210809D01*
X19582708Y-17210809D02*
X19411280Y-17267952D01*
X18496994Y-17782238D02*
X18325566Y-17839381D01*
X18325566Y-17839381D02*
X18268423Y-17896524D01*
X18268423Y-17896524D02*
X18211280Y-18010809D01*
X18211280Y-18010809D02*
X18211280Y-18182238D01*
X18211280Y-18182238D02*
X18268423Y-18296524D01*
X18268423Y-18296524D02*
X18325566Y-18353667D01*
X18325566Y-18353667D02*
X18439851Y-18410809D01*
X18439851Y-18410809D02*
X18896994Y-18410809D01*
X18896994Y-18410809D02*
X18896994Y-17210809D01*
X18896994Y-17210809D02*
X18496994Y-17210809D01*
X18496994Y-17210809D02*
X18382709Y-17267952D01*
X18382709Y-17267952D02*
X18325566Y-17325095D01*
X18325566Y-17325095D02*
X18268423Y-17439381D01*
X18268423Y-17439381D02*
X18268423Y-17553667D01*
X18268423Y-17553667D02*
X18325566Y-17667952D01*
X18325566Y-17667952D02*
X18382709Y-17725095D01*
X18382709Y-17725095D02*
X18496994Y-17782238D01*
X18496994Y-17782238D02*
X18896994Y-17782238D01*
X17754137Y-17325095D02*
X17696994Y-17267952D01*
X17696994Y-17267952D02*
X17582709Y-17210809D01*
X17582709Y-17210809D02*
X17296994Y-17210809D01*
X17296994Y-17210809D02*
X17182709Y-17267952D01*
X17182709Y-17267952D02*
X17125566Y-17325095D01*
X17125566Y-17325095D02*
X17068423Y-17439381D01*
X17068423Y-17439381D02*
X17068423Y-17553667D01*
X17068423Y-17553667D02*
X17125566Y-17725095D01*
X17125566Y-17725095D02*
X17811280Y-18410809D01*
X17811280Y-18410809D02*
X17068423Y-18410809D01*
X15468423Y-18410809D02*
X15582708Y-18353667D01*
X15582708Y-18353667D02*
X15639851Y-18239381D01*
X15639851Y-18239381D02*
X15639851Y-17210809D01*
X15011280Y-18410809D02*
X15011280Y-17610809D01*
X15011280Y-17210809D02*
X15068423Y-17267952D01*
X15068423Y-17267952D02*
X15011280Y-17325095D01*
X15011280Y-17325095D02*
X14954137Y-17267952D01*
X14954137Y-17267952D02*
X15011280Y-17210809D01*
X15011280Y-17210809D02*
X15011280Y-17325095D01*
X14439851Y-17610809D02*
X14439851Y-18410809D01*
X14439851Y-17725095D02*
X14382708Y-17667952D01*
X14382708Y-17667952D02*
X14268423Y-17610809D01*
X14268423Y-17610809D02*
X14096994Y-17610809D01*
X14096994Y-17610809D02*
X13982708Y-17667952D01*
X13982708Y-17667952D02*
X13925566Y-17782238D01*
X13925566Y-17782238D02*
X13925566Y-18410809D01*
X12896994Y-18353667D02*
X13011280Y-18410809D01*
X13011280Y-18410809D02*
X13239852Y-18410809D01*
X13239852Y-18410809D02*
X13354137Y-18353667D01*
X13354137Y-18353667D02*
X13411280Y-18239381D01*
X13411280Y-18239381D02*
X13411280Y-17782238D01*
X13411280Y-17782238D02*
X13354137Y-17667952D01*
X13354137Y-17667952D02*
X13239852Y-17610809D01*
X13239852Y-17610809D02*
X13011280Y-17610809D01*
X13011280Y-17610809D02*
X12896994Y-17667952D01*
X12896994Y-17667952D02*
X12839852Y-17782238D01*
X12839852Y-17782238D02*
X12839852Y-17896524D01*
X12839852Y-17896524D02*
X13411280Y-18010809D01*
X12382709Y-18353667D02*
X12268423Y-18410809D01*
X12268423Y-18410809D02*
X12039852Y-18410809D01*
X12039852Y-18410809D02*
X11925566Y-18353667D01*
X11925566Y-18353667D02*
X11868423Y-18239381D01*
X11868423Y-18239381D02*
X11868423Y-18182238D01*
X11868423Y-18182238D02*
X11925566Y-18067952D01*
X11925566Y-18067952D02*
X12039852Y-18010809D01*
X12039852Y-18010809D02*
X12211281Y-18010809D01*
X12211281Y-18010809D02*
X12325566Y-17953667D01*
X12325566Y-17953667D02*
X12382709Y-17839381D01*
X12382709Y-17839381D02*
X12382709Y-17782238D01*
X12382709Y-17782238D02*
X12325566Y-17667952D01*
X12325566Y-17667952D02*
X12211281Y-17610809D01*
X12211281Y-17610809D02*
X12039852Y-17610809D01*
X12039852Y-17610809D02*
X11925566Y-17667952D01*
X10611280Y-17610809D02*
X10154137Y-17610809D01*
X10439851Y-17210809D02*
X10439851Y-18239381D01*
X10439851Y-18239381D02*
X10382708Y-18353667D01*
X10382708Y-18353667D02*
X10268423Y-18410809D01*
X10268423Y-18410809D02*
X10154137Y-18410809D01*
X9582709Y-18410809D02*
X9696994Y-18353667D01*
X9696994Y-18353667D02*
X9754137Y-18296524D01*
X9754137Y-18296524D02*
X9811280Y-18182238D01*
X9811280Y-18182238D02*
X9811280Y-17839381D01*
X9811280Y-17839381D02*
X9754137Y-17725095D01*
X9754137Y-17725095D02*
X9696994Y-17667952D01*
X9696994Y-17667952D02*
X9582709Y-17610809D01*
X9582709Y-17610809D02*
X9411280Y-17610809D01*
X9411280Y-17610809D02*
X9296994Y-17667952D01*
X9296994Y-17667952D02*
X9239852Y-17725095D01*
X9239852Y-17725095D02*
X9182709Y-17839381D01*
X9182709Y-17839381D02*
X9182709Y-18182238D01*
X9182709Y-18182238D02*
X9239852Y-18296524D01*
X9239852Y-18296524D02*
X9296994Y-18353667D01*
X9296994Y-18353667D02*
X9411280Y-18410809D01*
X9411280Y-18410809D02*
X9582709Y-18410809D01*
X7411280Y-17210809D02*
X7411280Y-18067952D01*
X7411280Y-18067952D02*
X7468423Y-18239381D01*
X7468423Y-18239381D02*
X7582709Y-18353667D01*
X7582709Y-18353667D02*
X7754137Y-18410809D01*
X7754137Y-18410809D02*
X7868423Y-18410809D01*
X6211280Y-18410809D02*
X6896994Y-18410809D01*
X6554137Y-18410809D02*
X6554137Y-17210809D01*
X6554137Y-17210809D02*
X6668423Y-17382238D01*
X6668423Y-17382238D02*
X6782708Y-17496524D01*
X6782708Y-17496524D02*
X6896994Y-17553667D01*
X35068422Y-20342742D02*
X35068422Y-19714171D01*
X35068422Y-19714171D02*
X35125564Y-19599885D01*
X35125564Y-19599885D02*
X35239850Y-19542742D01*
X35239850Y-19542742D02*
X35468422Y-19542742D01*
X35468422Y-19542742D02*
X35582707Y-19599885D01*
X35068422Y-20285600D02*
X35182707Y-20342742D01*
X35182707Y-20342742D02*
X35468422Y-20342742D01*
X35468422Y-20342742D02*
X35582707Y-20285600D01*
X35582707Y-20285600D02*
X35639850Y-20171314D01*
X35639850Y-20171314D02*
X35639850Y-20057028D01*
X35639850Y-20057028D02*
X35582707Y-19942742D01*
X35582707Y-19942742D02*
X35468422Y-19885600D01*
X35468422Y-19885600D02*
X35182707Y-19885600D01*
X35182707Y-19885600D02*
X35068422Y-19828457D01*
X34496993Y-19542742D02*
X34496993Y-20342742D01*
X34496993Y-19657028D02*
X34439850Y-19599885D01*
X34439850Y-19599885D02*
X34325565Y-19542742D01*
X34325565Y-19542742D02*
X34154136Y-19542742D01*
X34154136Y-19542742D02*
X34039850Y-19599885D01*
X34039850Y-19599885D02*
X33982708Y-19714171D01*
X33982708Y-19714171D02*
X33982708Y-20342742D01*
X32896994Y-20342742D02*
X32896994Y-19142742D01*
X32896994Y-20285600D02*
X33011279Y-20342742D01*
X33011279Y-20342742D02*
X33239851Y-20342742D01*
X33239851Y-20342742D02*
X33354136Y-20285600D01*
X33354136Y-20285600D02*
X33411279Y-20228457D01*
X33411279Y-20228457D02*
X33468422Y-20114171D01*
X33468422Y-20114171D02*
X33468422Y-19771314D01*
X33468422Y-19771314D02*
X33411279Y-19657028D01*
X33411279Y-19657028D02*
X33354136Y-19599885D01*
X33354136Y-19599885D02*
X33239851Y-19542742D01*
X33239851Y-19542742D02*
X33011279Y-19542742D01*
X33011279Y-19542742D02*
X32896994Y-19599885D01*
X31582708Y-19542742D02*
X31125565Y-19542742D01*
X31411279Y-19142742D02*
X31411279Y-20171314D01*
X31411279Y-20171314D02*
X31354136Y-20285600D01*
X31354136Y-20285600D02*
X31239851Y-20342742D01*
X31239851Y-20342742D02*
X31125565Y-20342742D01*
X30725565Y-20342742D02*
X30725565Y-19142742D01*
X30211280Y-20342742D02*
X30211280Y-19714171D01*
X30211280Y-19714171D02*
X30268422Y-19599885D01*
X30268422Y-19599885D02*
X30382708Y-19542742D01*
X30382708Y-19542742D02*
X30554137Y-19542742D01*
X30554137Y-19542742D02*
X30668422Y-19599885D01*
X30668422Y-19599885D02*
X30725565Y-19657028D01*
X29182708Y-20285600D02*
X29296994Y-20342742D01*
X29296994Y-20342742D02*
X29525566Y-20342742D01*
X29525566Y-20342742D02*
X29639851Y-20285600D01*
X29639851Y-20285600D02*
X29696994Y-20171314D01*
X29696994Y-20171314D02*
X29696994Y-19714171D01*
X29696994Y-19714171D02*
X29639851Y-19599885D01*
X29639851Y-19599885D02*
X29525566Y-19542742D01*
X29525566Y-19542742D02*
X29296994Y-19542742D01*
X29296994Y-19542742D02*
X29182708Y-19599885D01*
X29182708Y-19599885D02*
X29125566Y-19714171D01*
X29125566Y-19714171D02*
X29125566Y-19828457D01*
X29125566Y-19828457D02*
X29696994Y-19942742D01*
X27696994Y-19142742D02*
X27696994Y-20114171D01*
X27696994Y-20114171D02*
X27639851Y-20228457D01*
X27639851Y-20228457D02*
X27582709Y-20285600D01*
X27582709Y-20285600D02*
X27468423Y-20342742D01*
X27468423Y-20342742D02*
X27239851Y-20342742D01*
X27239851Y-20342742D02*
X27125566Y-20285600D01*
X27125566Y-20285600D02*
X27068423Y-20228457D01*
X27068423Y-20228457D02*
X27011280Y-20114171D01*
X27011280Y-20114171D02*
X27011280Y-19142742D01*
X26496994Y-20285600D02*
X26325566Y-20342742D01*
X26325566Y-20342742D02*
X26039851Y-20342742D01*
X26039851Y-20342742D02*
X25925566Y-20285600D01*
X25925566Y-20285600D02*
X25868423Y-20228457D01*
X25868423Y-20228457D02*
X25811280Y-20114171D01*
X25811280Y-20114171D02*
X25811280Y-19999885D01*
X25811280Y-19999885D02*
X25868423Y-19885600D01*
X25868423Y-19885600D02*
X25925566Y-19828457D01*
X25925566Y-19828457D02*
X26039851Y-19771314D01*
X26039851Y-19771314D02*
X26268423Y-19714171D01*
X26268423Y-19714171D02*
X26382708Y-19657028D01*
X26382708Y-19657028D02*
X26439851Y-19599885D01*
X26439851Y-19599885D02*
X26496994Y-19485600D01*
X26496994Y-19485600D02*
X26496994Y-19371314D01*
X26496994Y-19371314D02*
X26439851Y-19257028D01*
X26439851Y-19257028D02*
X26382708Y-19199885D01*
X26382708Y-19199885D02*
X26268423Y-19142742D01*
X26268423Y-19142742D02*
X25982708Y-19142742D01*
X25982708Y-19142742D02*
X25811280Y-19199885D01*
X24896994Y-19714171D02*
X24725566Y-19771314D01*
X24725566Y-19771314D02*
X24668423Y-19828457D01*
X24668423Y-19828457D02*
X24611280Y-19942742D01*
X24611280Y-19942742D02*
X24611280Y-20114171D01*
X24611280Y-20114171D02*
X24668423Y-20228457D01*
X24668423Y-20228457D02*
X24725566Y-20285600D01*
X24725566Y-20285600D02*
X24839851Y-20342742D01*
X24839851Y-20342742D02*
X25296994Y-20342742D01*
X25296994Y-20342742D02*
X25296994Y-19142742D01*
X25296994Y-19142742D02*
X24896994Y-19142742D01*
X24896994Y-19142742D02*
X24782709Y-19199885D01*
X24782709Y-19199885D02*
X24725566Y-19257028D01*
X24725566Y-19257028D02*
X24668423Y-19371314D01*
X24668423Y-19371314D02*
X24668423Y-19485600D01*
X24668423Y-19485600D02*
X24725566Y-19599885D01*
X24725566Y-19599885D02*
X24782709Y-19657028D01*
X24782709Y-19657028D02*
X24896994Y-19714171D01*
X24896994Y-19714171D02*
X25296994Y-19714171D01*
X24211280Y-19142742D02*
X23468423Y-19142742D01*
X23468423Y-19142742D02*
X23868423Y-19599885D01*
X23868423Y-19599885D02*
X23696994Y-19599885D01*
X23696994Y-19599885D02*
X23582709Y-19657028D01*
X23582709Y-19657028D02*
X23525566Y-19714171D01*
X23525566Y-19714171D02*
X23468423Y-19828457D01*
X23468423Y-19828457D02*
X23468423Y-20114171D01*
X23468423Y-20114171D02*
X23525566Y-20228457D01*
X23525566Y-20228457D02*
X23582709Y-20285600D01*
X23582709Y-20285600D02*
X23696994Y-20342742D01*
X23696994Y-20342742D02*
X24039851Y-20342742D01*
X24039851Y-20342742D02*
X24154137Y-20285600D01*
X24154137Y-20285600D02*
X24211280Y-20228457D01*
X22954137Y-19885600D02*
X22039852Y-19885600D01*
X21296995Y-20342742D02*
X21411280Y-20285600D01*
X21411280Y-20285600D02*
X21468423Y-20228457D01*
X21468423Y-20228457D02*
X21525566Y-20114171D01*
X21525566Y-20114171D02*
X21525566Y-19771314D01*
X21525566Y-19771314D02*
X21468423Y-19657028D01*
X21468423Y-19657028D02*
X21411280Y-19599885D01*
X21411280Y-19599885D02*
X21296995Y-19542742D01*
X21296995Y-19542742D02*
X21125566Y-19542742D01*
X21125566Y-19542742D02*
X21011280Y-19599885D01*
X21011280Y-19599885D02*
X20954138Y-19657028D01*
X20954138Y-19657028D02*
X20896995Y-19771314D01*
X20896995Y-19771314D02*
X20896995Y-20114171D01*
X20896995Y-20114171D02*
X20954138Y-20228457D01*
X20954138Y-20228457D02*
X21011280Y-20285600D01*
X21011280Y-20285600D02*
X21125566Y-20342742D01*
X21125566Y-20342742D02*
X21296995Y-20342742D01*
X20382709Y-19542742D02*
X20382709Y-20342742D01*
X20382709Y-19657028D02*
X20325566Y-19599885D01*
X20325566Y-19599885D02*
X20211281Y-19542742D01*
X20211281Y-19542742D02*
X20039852Y-19542742D01*
X20039852Y-19542742D02*
X19925566Y-19599885D01*
X19925566Y-19599885D02*
X19868424Y-19714171D01*
X19868424Y-19714171D02*
X19868424Y-20342742D01*
X19125567Y-20342742D02*
X19239852Y-20285600D01*
X19239852Y-20285600D02*
X19296995Y-20171314D01*
X19296995Y-20171314D02*
X19296995Y-19142742D01*
X18782710Y-19542742D02*
X18496996Y-20342742D01*
X18211281Y-19542742D02*
X18496996Y-20342742D01*
X18496996Y-20342742D02*
X18611281Y-20628457D01*
X18611281Y-20628457D02*
X18668424Y-20685600D01*
X18668424Y-20685600D02*
X18782710Y-20742742D01*
X16668424Y-20342742D02*
X16782709Y-20285600D01*
X16782709Y-20285600D02*
X16839852Y-20171314D01*
X16839852Y-20171314D02*
X16839852Y-19142742D01*
X16211281Y-20342742D02*
X16211281Y-19542742D01*
X16211281Y-19142742D02*
X16268424Y-19199885D01*
X16268424Y-19199885D02*
X16211281Y-19257028D01*
X16211281Y-19257028D02*
X16154138Y-19199885D01*
X16154138Y-19199885D02*
X16211281Y-19142742D01*
X16211281Y-19142742D02*
X16211281Y-19257028D01*
X15639852Y-19542742D02*
X15639852Y-20342742D01*
X15639852Y-19657028D02*
X15582709Y-19599885D01*
X15582709Y-19599885D02*
X15468424Y-19542742D01*
X15468424Y-19542742D02*
X15296995Y-19542742D01*
X15296995Y-19542742D02*
X15182709Y-19599885D01*
X15182709Y-19599885D02*
X15125567Y-19714171D01*
X15125567Y-19714171D02*
X15125567Y-20342742D01*
X14096995Y-20285600D02*
X14211281Y-20342742D01*
X14211281Y-20342742D02*
X14439853Y-20342742D01*
X14439853Y-20342742D02*
X14554138Y-20285600D01*
X14554138Y-20285600D02*
X14611281Y-20171314D01*
X14611281Y-20171314D02*
X14611281Y-19714171D01*
X14611281Y-19714171D02*
X14554138Y-19599885D01*
X14554138Y-19599885D02*
X14439853Y-19542742D01*
X14439853Y-19542742D02*
X14211281Y-19542742D01*
X14211281Y-19542742D02*
X14096995Y-19599885D01*
X14096995Y-19599885D02*
X14039853Y-19714171D01*
X14039853Y-19714171D02*
X14039853Y-19828457D01*
X14039853Y-19828457D02*
X14611281Y-19942742D01*
X13582710Y-20285600D02*
X13468424Y-20342742D01*
X13468424Y-20342742D02*
X13239853Y-20342742D01*
X13239853Y-20342742D02*
X13125567Y-20285600D01*
X13125567Y-20285600D02*
X13068424Y-20171314D01*
X13068424Y-20171314D02*
X13068424Y-20114171D01*
X13068424Y-20114171D02*
X13125567Y-19999885D01*
X13125567Y-19999885D02*
X13239853Y-19942742D01*
X13239853Y-19942742D02*
X13411282Y-19942742D01*
X13411282Y-19942742D02*
X13525567Y-19885600D01*
X13525567Y-19885600D02*
X13582710Y-19771314D01*
X13582710Y-19771314D02*
X13582710Y-19714171D01*
X13582710Y-19714171D02*
X13525567Y-19599885D01*
X13525567Y-19599885D02*
X13411282Y-19542742D01*
X13411282Y-19542742D02*
X13239853Y-19542742D01*
X13239853Y-19542742D02*
X13125567Y-19599885D01*
X11811281Y-19542742D02*
X11354138Y-19542742D01*
X11639852Y-19142742D02*
X11639852Y-20171314D01*
X11639852Y-20171314D02*
X11582709Y-20285600D01*
X11582709Y-20285600D02*
X11468424Y-20342742D01*
X11468424Y-20342742D02*
X11354138Y-20342742D01*
X10782710Y-20342742D02*
X10896995Y-20285600D01*
X10896995Y-20285600D02*
X10954138Y-20228457D01*
X10954138Y-20228457D02*
X11011281Y-20114171D01*
X11011281Y-20114171D02*
X11011281Y-19771314D01*
X11011281Y-19771314D02*
X10954138Y-19657028D01*
X10954138Y-19657028D02*
X10896995Y-19599885D01*
X10896995Y-19599885D02*
X10782710Y-19542742D01*
X10782710Y-19542742D02*
X10611281Y-19542742D01*
X10611281Y-19542742D02*
X10496995Y-19599885D01*
X10496995Y-19599885D02*
X10439853Y-19657028D01*
X10439853Y-19657028D02*
X10382710Y-19771314D01*
X10382710Y-19771314D02*
X10382710Y-20114171D01*
X10382710Y-20114171D02*
X10439853Y-20228457D01*
X10439853Y-20228457D02*
X10496995Y-20285600D01*
X10496995Y-20285600D02*
X10611281Y-20342742D01*
X10611281Y-20342742D02*
X10782710Y-20342742D01*
X8611281Y-19142742D02*
X8611281Y-19999885D01*
X8611281Y-19999885D02*
X8668424Y-20171314D01*
X8668424Y-20171314D02*
X8782710Y-20285600D01*
X8782710Y-20285600D02*
X8954138Y-20342742D01*
X8954138Y-20342742D02*
X9068424Y-20342742D01*
X8154138Y-19142742D02*
X7411281Y-19142742D01*
X7411281Y-19142742D02*
X7811281Y-19599885D01*
X7811281Y-19599885D02*
X7639852Y-19599885D01*
X7639852Y-19599885D02*
X7525567Y-19657028D01*
X7525567Y-19657028D02*
X7468424Y-19714171D01*
X7468424Y-19714171D02*
X7411281Y-19828457D01*
X7411281Y-19828457D02*
X7411281Y-20114171D01*
X7411281Y-20114171D02*
X7468424Y-20228457D01*
X7468424Y-20228457D02*
X7525567Y-20285600D01*
X7525567Y-20285600D02*
X7639852Y-20342742D01*
X7639852Y-20342742D02*
X7982709Y-20342742D01*
X7982709Y-20342742D02*
X8096995Y-20285600D01*
X8096995Y-20285600D02*
X8154138Y-20228457D01*
D11*
X30445489Y-9885912D02*
X30445489Y-11100198D01*
X30445489Y-11100198D02*
X30374060Y-11243055D01*
X30374060Y-11243055D02*
X30302632Y-11314484D01*
X30302632Y-11314484D02*
X30159774Y-11385912D01*
X30159774Y-11385912D02*
X29874060Y-11385912D01*
X29874060Y-11385912D02*
X29731203Y-11314484D01*
X29731203Y-11314484D02*
X29659774Y-11243055D01*
X29659774Y-11243055D02*
X29588346Y-11100198D01*
X29588346Y-11100198D02*
X29588346Y-9885912D01*
X28945488Y-11314484D02*
X28731203Y-11385912D01*
X28731203Y-11385912D02*
X28374060Y-11385912D01*
X28374060Y-11385912D02*
X28231203Y-11314484D01*
X28231203Y-11314484D02*
X28159774Y-11243055D01*
X28159774Y-11243055D02*
X28088345Y-11100198D01*
X28088345Y-11100198D02*
X28088345Y-10957341D01*
X28088345Y-10957341D02*
X28159774Y-10814484D01*
X28159774Y-10814484D02*
X28231203Y-10743055D01*
X28231203Y-10743055D02*
X28374060Y-10671626D01*
X28374060Y-10671626D02*
X28659774Y-10600198D01*
X28659774Y-10600198D02*
X28802631Y-10528769D01*
X28802631Y-10528769D02*
X28874060Y-10457341D01*
X28874060Y-10457341D02*
X28945488Y-10314484D01*
X28945488Y-10314484D02*
X28945488Y-10171626D01*
X28945488Y-10171626D02*
X28874060Y-10028769D01*
X28874060Y-10028769D02*
X28802631Y-9957341D01*
X28802631Y-9957341D02*
X28659774Y-9885912D01*
X28659774Y-9885912D02*
X28302631Y-9885912D01*
X28302631Y-9885912D02*
X28088345Y-9957341D01*
X26945489Y-10600198D02*
X26731203Y-10671626D01*
X26731203Y-10671626D02*
X26659774Y-10743055D01*
X26659774Y-10743055D02*
X26588346Y-10885912D01*
X26588346Y-10885912D02*
X26588346Y-11100198D01*
X26588346Y-11100198D02*
X26659774Y-11243055D01*
X26659774Y-11243055D02*
X26731203Y-11314484D01*
X26731203Y-11314484D02*
X26874060Y-11385912D01*
X26874060Y-11385912D02*
X27445489Y-11385912D01*
X27445489Y-11385912D02*
X27445489Y-9885912D01*
X27445489Y-9885912D02*
X26945489Y-9885912D01*
X26945489Y-9885912D02*
X26802632Y-9957341D01*
X26802632Y-9957341D02*
X26731203Y-10028769D01*
X26731203Y-10028769D02*
X26659774Y-10171626D01*
X26659774Y-10171626D02*
X26659774Y-10314484D01*
X26659774Y-10314484D02*
X26731203Y-10457341D01*
X26731203Y-10457341D02*
X26802632Y-10528769D01*
X26802632Y-10528769D02*
X26945489Y-10600198D01*
X26945489Y-10600198D02*
X27445489Y-10600198D01*
X25945489Y-10814484D02*
X24802632Y-10814484D01*
X24231203Y-9885912D02*
X23302631Y-9885912D01*
X23302631Y-9885912D02*
X23802631Y-10457341D01*
X23802631Y-10457341D02*
X23588346Y-10457341D01*
X23588346Y-10457341D02*
X23445489Y-10528769D01*
X23445489Y-10528769D02*
X23374060Y-10600198D01*
X23374060Y-10600198D02*
X23302631Y-10743055D01*
X23302631Y-10743055D02*
X23302631Y-11100198D01*
X23302631Y-11100198D02*
X23374060Y-11243055D01*
X23374060Y-11243055D02*
X23445489Y-11314484D01*
X23445489Y-11314484D02*
X23588346Y-11385912D01*
X23588346Y-11385912D02*
X24016917Y-11385912D01*
X24016917Y-11385912D02*
X24159774Y-11314484D01*
X24159774Y-11314484D02*
X24231203Y-11243055D01*
X22659775Y-10814484D02*
X21516918Y-10814484D01*
X20874060Y-10028769D02*
X20802632Y-9957341D01*
X20802632Y-9957341D02*
X20659775Y-9885912D01*
X20659775Y-9885912D02*
X20302632Y-9885912D01*
X20302632Y-9885912D02*
X20159775Y-9957341D01*
X20159775Y-9957341D02*
X20088346Y-10028769D01*
X20088346Y-10028769D02*
X20016917Y-10171626D01*
X20016917Y-10171626D02*
X20016917Y-10314484D01*
X20016917Y-10314484D02*
X20088346Y-10528769D01*
X20088346Y-10528769D02*
X20945489Y-11385912D01*
X20945489Y-11385912D02*
X20016917Y-11385912D01*
X18302632Y-11314484D02*
X18159775Y-11385912D01*
X18159775Y-11385912D02*
X17874061Y-11385912D01*
X17874061Y-11385912D02*
X17731204Y-11314484D01*
X17731204Y-11314484D02*
X17659775Y-11171626D01*
X17659775Y-11171626D02*
X17659775Y-11100198D01*
X17659775Y-11100198D02*
X17731204Y-10957341D01*
X17731204Y-10957341D02*
X17874061Y-10885912D01*
X17874061Y-10885912D02*
X18088347Y-10885912D01*
X18088347Y-10885912D02*
X18231204Y-10814484D01*
X18231204Y-10814484D02*
X18302632Y-10671626D01*
X18302632Y-10671626D02*
X18302632Y-10600198D01*
X18302632Y-10600198D02*
X18231204Y-10457341D01*
X18231204Y-10457341D02*
X18088347Y-10385912D01*
X18088347Y-10385912D02*
X17874061Y-10385912D01*
X17874061Y-10385912D02*
X17731204Y-10457341D01*
X17016918Y-10385912D02*
X17016918Y-11885912D01*
X17016918Y-10457341D02*
X16874061Y-10385912D01*
X16874061Y-10385912D02*
X16588346Y-10385912D01*
X16588346Y-10385912D02*
X16445489Y-10457341D01*
X16445489Y-10457341D02*
X16374061Y-10528769D01*
X16374061Y-10528769D02*
X16302632Y-10671626D01*
X16302632Y-10671626D02*
X16302632Y-11100198D01*
X16302632Y-11100198D02*
X16374061Y-11243055D01*
X16374061Y-11243055D02*
X16445489Y-11314484D01*
X16445489Y-11314484D02*
X16588346Y-11385912D01*
X16588346Y-11385912D02*
X16874061Y-11385912D01*
X16874061Y-11385912D02*
X17016918Y-11314484D01*
X15445489Y-11385912D02*
X15588346Y-11314484D01*
X15588346Y-11314484D02*
X15659775Y-11171626D01*
X15659775Y-11171626D02*
X15659775Y-9885912D01*
X14874061Y-11385912D02*
X14874061Y-10385912D01*
X14874061Y-9885912D02*
X14945489Y-9957341D01*
X14945489Y-9957341D02*
X14874061Y-10028769D01*
X14874061Y-10028769D02*
X14802632Y-9957341D01*
X14802632Y-9957341D02*
X14874061Y-9885912D01*
X14874061Y-9885912D02*
X14874061Y-10028769D01*
X14374060Y-10385912D02*
X13802632Y-10385912D01*
X14159775Y-9885912D02*
X14159775Y-11171626D01*
X14159775Y-11171626D02*
X14088346Y-11314484D01*
X14088346Y-11314484D02*
X13945489Y-11385912D01*
X13945489Y-11385912D02*
X13802632Y-11385912D01*
X13516917Y-10385912D02*
X12945489Y-10385912D01*
X13302632Y-9885912D02*
X13302632Y-11171626D01*
X13302632Y-11171626D02*
X13231203Y-11314484D01*
X13231203Y-11314484D02*
X13088346Y-11385912D01*
X13088346Y-11385912D02*
X12945489Y-11385912D01*
X11874060Y-11314484D02*
X12016917Y-11385912D01*
X12016917Y-11385912D02*
X12302632Y-11385912D01*
X12302632Y-11385912D02*
X12445489Y-11314484D01*
X12445489Y-11314484D02*
X12516917Y-11171626D01*
X12516917Y-11171626D02*
X12516917Y-10600198D01*
X12516917Y-10600198D02*
X12445489Y-10457341D01*
X12445489Y-10457341D02*
X12302632Y-10385912D01*
X12302632Y-10385912D02*
X12016917Y-10385912D01*
X12016917Y-10385912D02*
X11874060Y-10457341D01*
X11874060Y-10457341D02*
X11802632Y-10600198D01*
X11802632Y-10600198D02*
X11802632Y-10743055D01*
X11802632Y-10743055D02*
X12516917Y-10885912D01*
X11159775Y-11385912D02*
X11159775Y-10385912D01*
X11159775Y-10671626D02*
X11088346Y-10528769D01*
X11088346Y-10528769D02*
X11016918Y-10457341D01*
X11016918Y-10457341D02*
X10874060Y-10385912D01*
X10874060Y-10385912D02*
X10731203Y-10385912D01*
X30445489Y-13800828D02*
X30445489Y-12300828D01*
X30445489Y-12300828D02*
X29874060Y-12300828D01*
X29874060Y-12300828D02*
X29731203Y-12372257D01*
X29731203Y-12372257D02*
X29659774Y-12443685D01*
X29659774Y-12443685D02*
X29588346Y-12586542D01*
X29588346Y-12586542D02*
X29588346Y-12800828D01*
X29588346Y-12800828D02*
X29659774Y-12943685D01*
X29659774Y-12943685D02*
X29731203Y-13015114D01*
X29731203Y-13015114D02*
X29874060Y-13086542D01*
X29874060Y-13086542D02*
X30445489Y-13086542D01*
X29088346Y-12800828D02*
X28731203Y-13800828D01*
X28374060Y-12800828D02*
X28731203Y-13800828D01*
X28731203Y-13800828D02*
X28874060Y-14157971D01*
X28874060Y-14157971D02*
X28945489Y-14229400D01*
X28945489Y-14229400D02*
X29088346Y-14300828D01*
X27588346Y-13800828D02*
X27731203Y-13729400D01*
X27731203Y-13729400D02*
X27802632Y-13586542D01*
X27802632Y-13586542D02*
X27802632Y-12300828D01*
X26802632Y-13800828D02*
X26945489Y-13729400D01*
X26945489Y-13729400D02*
X27016918Y-13657971D01*
X27016918Y-13657971D02*
X27088346Y-13515114D01*
X27088346Y-13515114D02*
X27088346Y-13086542D01*
X27088346Y-13086542D02*
X27016918Y-12943685D01*
X27016918Y-12943685D02*
X26945489Y-12872257D01*
X26945489Y-12872257D02*
X26802632Y-12800828D01*
X26802632Y-12800828D02*
X26588346Y-12800828D01*
X26588346Y-12800828D02*
X26445489Y-12872257D01*
X26445489Y-12872257D02*
X26374061Y-12943685D01*
X26374061Y-12943685D02*
X26302632Y-13086542D01*
X26302632Y-13086542D02*
X26302632Y-13515114D01*
X26302632Y-13515114D02*
X26374061Y-13657971D01*
X26374061Y-13657971D02*
X26445489Y-13729400D01*
X26445489Y-13729400D02*
X26588346Y-13800828D01*
X26588346Y-13800828D02*
X26802632Y-13800828D01*
X25659775Y-12800828D02*
X25659775Y-13800828D01*
X25659775Y-12943685D02*
X25588346Y-12872257D01*
X25588346Y-12872257D02*
X25445489Y-12800828D01*
X25445489Y-12800828D02*
X25231203Y-12800828D01*
X25231203Y-12800828D02*
X25088346Y-12872257D01*
X25088346Y-12872257D02*
X25016918Y-13015114D01*
X25016918Y-13015114D02*
X25016918Y-13800828D01*
X23231203Y-13372257D02*
X22516918Y-13372257D01*
X23374060Y-13800828D02*
X22874060Y-12300828D01*
X22874060Y-12300828D02*
X22374060Y-13800828D01*
X21874061Y-12800828D02*
X21874061Y-14300828D01*
X21874061Y-12872257D02*
X21731204Y-12800828D01*
X21731204Y-12800828D02*
X21445489Y-12800828D01*
X21445489Y-12800828D02*
X21302632Y-12872257D01*
X21302632Y-12872257D02*
X21231204Y-12943685D01*
X21231204Y-12943685D02*
X21159775Y-13086542D01*
X21159775Y-13086542D02*
X21159775Y-13515114D01*
X21159775Y-13515114D02*
X21231204Y-13657971D01*
X21231204Y-13657971D02*
X21302632Y-13729400D01*
X21302632Y-13729400D02*
X21445489Y-13800828D01*
X21445489Y-13800828D02*
X21731204Y-13800828D01*
X21731204Y-13800828D02*
X21874061Y-13729400D01*
X20516918Y-13800828D02*
X20516918Y-12800828D01*
X20516918Y-13086542D02*
X20445489Y-12943685D01*
X20445489Y-12943685D02*
X20374061Y-12872257D01*
X20374061Y-12872257D02*
X20231203Y-12800828D01*
X20231203Y-12800828D02*
X20088346Y-12800828D01*
X19588347Y-13800828D02*
X19588347Y-12800828D01*
X19588347Y-12300828D02*
X19659775Y-12372257D01*
X19659775Y-12372257D02*
X19588347Y-12443685D01*
X19588347Y-12443685D02*
X19516918Y-12372257D01*
X19516918Y-12372257D02*
X19588347Y-12300828D01*
X19588347Y-12300828D02*
X19588347Y-12443685D01*
X18659775Y-13800828D02*
X18802632Y-13729400D01*
X18802632Y-13729400D02*
X18874061Y-13586542D01*
X18874061Y-13586542D02*
X18874061Y-12300828D01*
X16159775Y-13800828D02*
X17016918Y-13800828D01*
X16588347Y-13800828D02*
X16588347Y-12300828D01*
X16588347Y-12300828D02*
X16731204Y-12515114D01*
X16731204Y-12515114D02*
X16874061Y-12657971D01*
X16874061Y-12657971D02*
X17016918Y-12729400D01*
X15659776Y-12300828D02*
X14731204Y-12300828D01*
X14731204Y-12300828D02*
X15231204Y-12872257D01*
X15231204Y-12872257D02*
X15016919Y-12872257D01*
X15016919Y-12872257D02*
X14874062Y-12943685D01*
X14874062Y-12943685D02*
X14802633Y-13015114D01*
X14802633Y-13015114D02*
X14731204Y-13157971D01*
X14731204Y-13157971D02*
X14731204Y-13515114D01*
X14731204Y-13515114D02*
X14802633Y-13657971D01*
X14802633Y-13657971D02*
X14874062Y-13729400D01*
X14874062Y-13729400D02*
X15016919Y-13800828D01*
X15016919Y-13800828D02*
X15445490Y-13800828D01*
X15445490Y-13800828D02*
X15588347Y-13729400D01*
X15588347Y-13729400D02*
X15659776Y-13657971D01*
X14016919Y-13729400D02*
X14016919Y-13800828D01*
X14016919Y-13800828D02*
X14088348Y-13943685D01*
X14088348Y-13943685D02*
X14159776Y-14015114D01*
X12302633Y-12443685D02*
X12231205Y-12372257D01*
X12231205Y-12372257D02*
X12088348Y-12300828D01*
X12088348Y-12300828D02*
X11731205Y-12300828D01*
X11731205Y-12300828D02*
X11588348Y-12372257D01*
X11588348Y-12372257D02*
X11516919Y-12443685D01*
X11516919Y-12443685D02*
X11445490Y-12586542D01*
X11445490Y-12586542D02*
X11445490Y-12729400D01*
X11445490Y-12729400D02*
X11516919Y-12943685D01*
X11516919Y-12943685D02*
X12374062Y-13800828D01*
X12374062Y-13800828D02*
X11445490Y-13800828D01*
X10516919Y-12300828D02*
X10374062Y-12300828D01*
X10374062Y-12300828D02*
X10231205Y-12372257D01*
X10231205Y-12372257D02*
X10159777Y-12443685D01*
X10159777Y-12443685D02*
X10088348Y-12586542D01*
X10088348Y-12586542D02*
X10016919Y-12872257D01*
X10016919Y-12872257D02*
X10016919Y-13229400D01*
X10016919Y-13229400D02*
X10088348Y-13515114D01*
X10088348Y-13515114D02*
X10159777Y-13657971D01*
X10159777Y-13657971D02*
X10231205Y-13729400D01*
X10231205Y-13729400D02*
X10374062Y-13800828D01*
X10374062Y-13800828D02*
X10516919Y-13800828D01*
X10516919Y-13800828D02*
X10659777Y-13729400D01*
X10659777Y-13729400D02*
X10731205Y-13657971D01*
X10731205Y-13657971D02*
X10802634Y-13515114D01*
X10802634Y-13515114D02*
X10874062Y-13229400D01*
X10874062Y-13229400D02*
X10874062Y-12872257D01*
X10874062Y-12872257D02*
X10802634Y-12586542D01*
X10802634Y-12586542D02*
X10731205Y-12443685D01*
X10731205Y-12443685D02*
X10659777Y-12372257D01*
X10659777Y-12372257D02*
X10516919Y-12300828D01*
X9445491Y-12443685D02*
X9374063Y-12372257D01*
X9374063Y-12372257D02*
X9231206Y-12300828D01*
X9231206Y-12300828D02*
X8874063Y-12300828D01*
X8874063Y-12300828D02*
X8731206Y-12372257D01*
X8731206Y-12372257D02*
X8659777Y-12443685D01*
X8659777Y-12443685D02*
X8588348Y-12586542D01*
X8588348Y-12586542D02*
X8588348Y-12729400D01*
X8588348Y-12729400D02*
X8659777Y-12943685D01*
X8659777Y-12943685D02*
X9516920Y-13800828D01*
X9516920Y-13800828D02*
X8588348Y-13800828D01*
X7231206Y-12300828D02*
X7945492Y-12300828D01*
X7945492Y-12300828D02*
X8016920Y-13015114D01*
X8016920Y-13015114D02*
X7945492Y-12943685D01*
X7945492Y-12943685D02*
X7802635Y-12872257D01*
X7802635Y-12872257D02*
X7445492Y-12872257D01*
X7445492Y-12872257D02*
X7302635Y-12943685D01*
X7302635Y-12943685D02*
X7231206Y-13015114D01*
X7231206Y-13015114D02*
X7159777Y-13157971D01*
X7159777Y-13157971D02*
X7159777Y-13515114D01*
X7159777Y-13515114D02*
X7231206Y-13657971D01*
X7231206Y-13657971D02*
X7302635Y-13729400D01*
X7302635Y-13729400D02*
X7445492Y-13800828D01*
X7445492Y-13800828D02*
X7802635Y-13800828D01*
X7802635Y-13800828D02*
X7945492Y-13729400D01*
X7945492Y-13729400D02*
X8016920Y-13657971D01*
M02*
