M48
; DRILL file {KiCad 9.0.1} date 2025-04-14T01:12:48-0400
; FORMAT={-:-/ absolute / metric / decimal}
; #@! TF.CreationDate,2025-04-14T01:12:48-04:00
; #@! TF.GenerationSoftware,Kicad,Pcbnew,9.0.1
; #@! TF.FileFunction,Plated,1,4,PTH
FMAT,2
METRIC
; #@! TA.AperFunction,Plated,PTH,ViaDrill
T1C0.200
; #@! TA.AperFunction,Plated,PTH,ViaDrill
T2C0.300
; #@! TA.AperFunction,Plated,PTH,ViaDrill
T3C0.400
; #@! TA.AperFunction,Plated,PTH,ComponentDrill
T4C0.600
; #@! TA.AperFunction,Plated,PTH,ComponentDrill
T5C1.100
; #@! TA.AperFunction,Plated,PTH,ComponentDrill
T6C3.200
%
G90
G05
T1
X10.1Y-22.1
X10.69Y-21.945
X10.99Y-6.774
X11.24Y-21.934
X11.599Y-15.013
X11.677Y-6.801
X11.9Y-22.1
X11.995Y-15.409
X12.324Y-6.717
X12.72Y-8.254
X13.17Y-6.854
X13.48Y-9.894
X13.75Y-6.854
X14.1Y-22.049
X14.15Y-8.32
X14.6Y-6.694
X14.72Y-21.944
X14.8Y-11.8
X15.199Y-6.86
X15.2Y-12.2
X15.33Y-21.964
X15.798Y-6.83
X16.0Y-21.95
X16.389Y-6.728
T2
X6.5Y-12.5
X10.32Y-6.854
X11.1Y-14.5
X12.6Y-20.5
X12.9Y-10.4
X13.4Y-20.5
X14.2Y-11.4
X15.8Y-12.6
X18.0Y-9.5
T3
X1.5Y-16.5
X8.9Y-14.6
X9.1Y-16.2
X12.9Y-15.6
X13.69Y-16.56
X14.0Y-17.5
X16.2Y-13.4
X18.4Y-16.56
X18.5Y-17.5
X19.0Y-23.88
X19.57Y-23.0
X22.9Y-13.1
X24.1Y-22.2
X24.1Y-24.3
X24.537Y-18.35
X25.6Y-22.2
X25.8Y-8.2
X28.0Y-27.5
X28.1Y-2.11
X28.1Y-4.36
X28.9Y-2.77
X28.9Y-3.73
X30.2Y-13.42
X32.87Y-19.71
X32.9Y-16.7
X32.9Y-18.2
X35.69Y-19.73
X35.7Y-16.7
X35.7Y-18.2
X37.5Y-14.5
X39.4Y-14.0
T5
X8.73Y-1.314
X8.73Y-27.494
X9.09Y-7.264
X9.09Y-21.544
X17.35Y-7.264
X17.35Y-21.544
X17.71Y-1.314
X17.71Y-27.494
T6
X4.0Y-4.0
T4
G00X29.9Y-22.474
M15
G01X29.9Y-23.574
M16
G05
G00X29.9Y-26.904
M15
G01X29.9Y-27.504
M16
G05
G00X38.54Y-22.474
M15
G01X38.54Y-23.574
M16
G05
G00X38.54Y-26.904
M15
G01X38.54Y-27.504
M16
G05
M30
