%TF.GenerationSoftware,KiCad,Pcbnew,9.0.1*%
%TF.CreationDate,2025-04-14T01:57:55-04:00*%
%TF.ProjectId,USB-3-2-splitter,5553422d-332d-4322-9d73-706c69747465,rev?*%
%TF.SameCoordinates,Original*%
%TF.FileFunction,Copper,L1,Top*%
%TF.FilePolarity,Positive*%
%FSLAX46Y46*%
G04 Gerber Fmt 4.6, Leading zero omitted, Abs format (unit mm)*
G04 Created by KiCad (PCBNEW 9.0.1) date 2025-04-14 01:57:55*
%MOMM*%
%LPD*%
G01*
G04 APERTURE LIST*
G04 Aperture macros list*
%AMRoundRect*
0 Rectangle with rounded corners*
0 $1 Rounding radius*
0 $2 $3 $4 $5 $6 $7 $8 $9 X,Y pos of 4 corners*
0 Add a 4 corners polygon primitive as box body*
4,1,4,$2,$3,$4,$5,$6,$7,$8,$9,$2,$3,0*
0 Add four circle primitives for the rounded corners*
1,1,$1+$1,$2,$3*
1,1,$1+$1,$4,$5*
1,1,$1+$1,$6,$7*
1,1,$1+$1,$8,$9*
0 Add four rect primitives between the rounded corners*
20,1,$1+$1,$2,$3,$4,$5,0*
20,1,$1+$1,$4,$5,$6,$7,0*
20,1,$1+$1,$6,$7,$8,$9,0*
20,1,$1+$1,$8,$9,$2,$3,0*%
G04 Aperture macros list end*
%TA.AperFunction,SMDPad,CuDef*%
%ADD10RoundRect,0.250000X-0.475000X0.337500X-0.475000X-0.337500X0.475000X-0.337500X0.475000X0.337500X0*%
%TD*%
%TA.AperFunction,SMDPad,CuDef*%
%ADD11RoundRect,0.250000X-0.450000X0.350000X-0.450000X-0.350000X0.450000X-0.350000X0.450000X0.350000X0*%
%TD*%
%TA.AperFunction,SMDPad,CuDef*%
%ADD12RoundRect,0.150000X-0.587500X-0.150000X0.587500X-0.150000X0.587500X0.150000X-0.587500X0.150000X0*%
%TD*%
%TA.AperFunction,SMDPad,CuDef*%
%ADD13RoundRect,0.150000X0.150000X-0.512500X0.150000X0.512500X-0.150000X0.512500X-0.150000X-0.512500X0*%
%TD*%
%TA.AperFunction,SMDPad,CuDef*%
%ADD14RoundRect,0.150000X0.587500X0.150000X-0.587500X0.150000X-0.587500X-0.150000X0.587500X-0.150000X0*%
%TD*%
%TA.AperFunction,ComponentPad*%
%ADD15C,5.700000*%
%TD*%
%TA.AperFunction,SMDPad,CuDef*%
%ADD16RoundRect,0.250000X0.450000X-0.350000X0.450000X0.350000X-0.450000X0.350000X-0.450000X-0.350000X0*%
%TD*%
%TA.AperFunction,SMDPad,CuDef*%
%ADD17R,0.300000X0.700000*%
%TD*%
%TA.AperFunction,HeatsinkPad*%
%ADD18C,1.400000*%
%TD*%
%TA.AperFunction,SMDPad,CuDef*%
%ADD19RoundRect,0.250000X-0.337500X-0.475000X0.337500X-0.475000X0.337500X0.475000X-0.337500X0.475000X0*%
%TD*%
%TA.AperFunction,SMDPad,CuDef*%
%ADD20RoundRect,0.250000X-0.350000X-0.450000X0.350000X-0.450000X0.350000X0.450000X-0.350000X0.450000X0*%
%TD*%
%TA.AperFunction,SMDPad,CuDef*%
%ADD21RoundRect,0.250000X0.475000X-0.337500X0.475000X0.337500X-0.475000X0.337500X-0.475000X-0.337500X0*%
%TD*%
%TA.AperFunction,SMDPad,CuDef*%
%ADD22RoundRect,0.250000X-0.400000X-1.450000X0.400000X-1.450000X0.400000X1.450000X-0.400000X1.450000X0*%
%TD*%
%TA.AperFunction,SMDPad,CuDef*%
%ADD23RoundRect,0.250000X-0.650000X0.412500X-0.650000X-0.412500X0.650000X-0.412500X0.650000X0.412500X0*%
%TD*%
%TA.AperFunction,SMDPad,CuDef*%
%ADD24RoundRect,0.250000X0.350000X0.450000X-0.350000X0.450000X-0.350000X-0.450000X0.350000X-0.450000X0*%
%TD*%
%TA.AperFunction,SMDPad,CuDef*%
%ADD25RoundRect,0.250000X0.650000X-0.412500X0.650000X0.412500X-0.650000X0.412500X-0.650000X-0.412500X0*%
%TD*%
%TA.AperFunction,SMDPad,CuDef*%
%ADD26R,0.600000X1.450000*%
%TD*%
%TA.AperFunction,SMDPad,CuDef*%
%ADD27R,0.300000X1.450000*%
%TD*%
%TA.AperFunction,HeatsinkPad*%
%ADD28O,1.000000X2.100000*%
%TD*%
%TA.AperFunction,HeatsinkPad*%
%ADD29O,1.000000X1.600000*%
%TD*%
%TA.AperFunction,ViaPad*%
%ADD30C,0.450000*%
%TD*%
%TA.AperFunction,ViaPad*%
%ADD31C,0.800000*%
%TD*%
%TA.AperFunction,ViaPad*%
%ADD32C,0.600000*%
%TD*%
%TA.AperFunction,Conductor*%
%ADD33C,0.300000*%
%TD*%
%TA.AperFunction,Conductor*%
%ADD34C,0.250000*%
%TD*%
%TA.AperFunction,Conductor*%
%ADD35C,0.500000*%
%TD*%
%TA.AperFunction,Conductor*%
%ADD36C,0.200000*%
%TD*%
%TA.AperFunction,Conductor*%
%ADD37C,0.400000*%
%TD*%
%TA.AperFunction,Conductor*%
%ADD38C,0.160000*%
%TD*%
%TA.AperFunction,Conductor*%
%ADD39C,1.000000*%
%TD*%
G04 APERTURE END LIST*
D10*
%TO.P,C4,1*%
%TO.N,Net-(C4-Pad1)*%
X3100000Y-8262500D03*
%TO.P,C4,2*%
%TO.N,GND*%
X3100000Y-10337500D03*
%TD*%
D11*
%TO.P,R10,1*%
%TO.N,+5V*%
X24200000Y-5900000D03*
%TO.P,R10,2*%
%TO.N,CC2_USB3*%
X24200000Y-7900000D03*
%TD*%
D12*
%TO.P,Q2,1,G*%
%TO.N,CC2_USB2*%
X28825000Y-14200000D03*
%TO.P,Q2,2,S*%
%TO.N,+5V*%
X28825000Y-16100000D03*
%TO.P,Q2,3,D*%
%TO.N,VBUS_USB2*%
X30700000Y-15150000D03*
%TD*%
%TO.P,Q1,1,G*%
%TO.N,CC1_USB2*%
X28825000Y-17800000D03*
%TO.P,Q1,2,S*%
%TO.N,+5V*%
X28825000Y-19700000D03*
%TO.P,Q1,3,D*%
%TO.N,VBUS_USB2*%
X30700000Y-18750000D03*
%TD*%
D13*
%TO.P,U3,1,IO1*%
%TO.N,CC1_USB3*%
X21050000Y-26137500D03*
%TO.P,U3,2,VN*%
%TO.N,GND*%
X22000000Y-26137500D03*
%TO.P,U3,3,IO2*%
%TO.N,CC2_USB2*%
X22950000Y-26137500D03*
%TO.P,U3,4,IO3*%
%TO.N,CC1_USB2*%
X22950000Y-23862500D03*
%TO.P,U3,5,VP*%
%TO.N,+5V*%
X22000000Y-23862500D03*
%TO.P,U3,6,IO4*%
%TO.N,CC2_USB3*%
X21050000Y-23862500D03*
%TD*%
D14*
%TO.P,Q4,1,G*%
%TO.N,CC2_USB3*%
X22075000Y-7940000D03*
%TO.P,Q4,2,S*%
%TO.N,+5V*%
X22075000Y-6040000D03*
%TO.P,Q4,3,D*%
%TO.N,VBUS_USB3*%
X20200000Y-6990000D03*
%TD*%
D15*
%TO.P,H1,1,1*%
%TO.N,Net-(C4-Pad1)*%
X4000000Y-4000000D03*
%TD*%
D11*
%TO.P,R14,1*%
%TO.N,Net-(C4-Pad1)*%
X5200000Y-8300000D03*
%TO.P,R14,2*%
%TO.N,GND*%
X5200000Y-10300000D03*
%TD*%
D16*
%TO.P,R13,1*%
%TO.N,Net-(J3-SHIELD)*%
X4400000Y-19900000D03*
%TO.P,R13,2*%
%TO.N,GND*%
X4400000Y-17900000D03*
%TD*%
D17*
%TO.P,J3,A1,GND*%
%TO.N,GND*%
X10470000Y-19633610D03*
%TO.P,J3,A2,TX1+*%
%TO.N,TX1-*%
X10970000Y-19633610D03*
%TO.P,J3,A3,TX1-*%
%TO.N,TX1+*%
X11470000Y-19633610D03*
%TO.P,J3,A4,VBUS*%
%TO.N,VBUS_USB3*%
X11970000Y-19633610D03*
%TO.P,J3,A5,CC1*%
%TO.N,CC1_USB3*%
X12470000Y-19633610D03*
%TO.P,J3,A6,D+*%
%TO.N,unconnected-(J3-D+-PadA6)*%
X12970000Y-19633610D03*
%TO.P,J3,A7,D-*%
%TO.N,unconnected-(J3-D--PadA7)*%
X13470000Y-19633610D03*
%TO.P,J3,A8,SBU1*%
%TO.N,unconnected-(J3-SBU1-PadA8)*%
X13970000Y-19633610D03*
%TO.P,J3,A9,VBUS*%
%TO.N,VBUS_USB3*%
X14470000Y-19633610D03*
%TO.P,J3,A10,RX2-*%
%TO.N,RX2+*%
X14970000Y-19633610D03*
%TO.P,J3,A11,RX2+*%
%TO.N,RX2-*%
X15470000Y-19633610D03*
%TO.P,J3,A12,GND*%
%TO.N,GND*%
X15970000Y-19633610D03*
%TO.P,J3,B1,GND*%
X15720000Y-21333610D03*
%TO.P,J3,B2,TX2+*%
%TO.N,TX2-*%
X15220000Y-21333610D03*
%TO.P,J3,B3,TX2-*%
%TO.N,TX2+*%
X14720000Y-21333610D03*
%TO.P,J3,B4,VBUS*%
%TO.N,VBUS_USB3*%
X14220000Y-21333610D03*
%TO.P,J3,B5,CC2*%
%TO.N,CC2_USB3*%
X13720000Y-21333610D03*
%TO.P,J3,B6,D+*%
%TO.N,unconnected-(J3-D+-PadB6)*%
X13220000Y-21333610D03*
%TO.P,J3,B7,D-*%
%TO.N,unconnected-(J3-D--PadB7)*%
X12720000Y-21333610D03*
%TO.P,J3,B8,SBU2*%
%TO.N,unconnected-(J3-SBU2-PadB8)*%
X12220000Y-21333610D03*
%TO.P,J3,B9,VBUS*%
%TO.N,VBUS_USB3*%
X11720000Y-21333610D03*
%TO.P,J3,B10,RX1-*%
%TO.N,RX1+*%
X11220000Y-21333610D03*
%TO.P,J3,B11,RX1+*%
%TO.N,RX1-*%
X10720000Y-21333610D03*
%TO.P,J3,B12,GND*%
%TO.N,GND*%
X10220000Y-21333610D03*
D18*
%TO.P,J3,S1,SHIELD*%
%TO.N,Net-(J3-SHIELD)*%
X8730000Y-27493610D03*
X9090000Y-21543610D03*
X17350000Y-21543610D03*
X17710000Y-27493610D03*
%TD*%
D16*
%TO.P,R4,1*%
%TO.N,+5V*%
X26700000Y-16000000D03*
%TO.P,R4,2*%
%TO.N,CC2_USB2*%
X26700000Y-14000000D03*
%TD*%
D19*
%TO.P,C1,1*%
%TO.N,Net-(J2-SHIELD)*%
X20162500Y-1600000D03*
%TO.P,C1,2*%
%TO.N,GND*%
X22237500Y-1600000D03*
%TD*%
D20*
%TO.P,R11,1*%
%TO.N,Net-(J2-SHIELD)*%
X20200000Y-4000000D03*
%TO.P,R11,2*%
%TO.N,GND*%
X22200000Y-4000000D03*
%TD*%
D11*
%TO.P,R1,1*%
%TO.N,+5V*%
X27800000Y-21800000D03*
%TO.P,R1,2*%
%TO.N,CC1_USB2*%
X27800000Y-23800000D03*
%TD*%
D21*
%TO.P,C3,1*%
%TO.N,Net-(J3-SHIELD)*%
X2300000Y-19937500D03*
%TO.P,C3,2*%
%TO.N,GND*%
X2300000Y-17862500D03*
%TD*%
D16*
%TO.P,R12,1*%
%TO.N,Net-(J1-SHIELD)*%
X38700000Y-12500000D03*
%TO.P,R12,2*%
%TO.N,GND*%
X38700000Y-10500000D03*
%TD*%
D17*
%TO.P,J2,A1,GND*%
%TO.N,GND*%
X15970000Y-9173610D03*
%TO.P,J2,A2,TX1+*%
%TO.N,TX1+*%
X15470000Y-9173610D03*
%TO.P,J2,A3,TX1-*%
%TO.N,TX1-*%
X14970000Y-9173610D03*
%TO.P,J2,A4,VBUS*%
%TO.N,Net-(F1-Pad1)*%
X14470000Y-9173610D03*
%TO.P,J2,A5,CC1*%
%TO.N,CC1_UFP*%
X13970000Y-9173610D03*
%TO.P,J2,A6,D+*%
%TO.N,D+*%
X13470000Y-9173610D03*
%TO.P,J2,A7,D-*%
%TO.N,D-*%
X12970000Y-9173610D03*
%TO.P,J2,A8,SBU1*%
%TO.N,unconnected-(J2-SBU1-PadA8)*%
X12470000Y-9173610D03*
%TO.P,J2,A9,VBUS*%
%TO.N,Net-(F1-Pad1)*%
X11970000Y-9173610D03*
%TO.P,J2,A10,RX2-*%
%TO.N,RX2-*%
X11470000Y-9173610D03*
%TO.P,J2,A11,RX2+*%
%TO.N,RX2+*%
X10970000Y-9173610D03*
%TO.P,J2,A12,GND*%
%TO.N,GND*%
X10470000Y-9173610D03*
%TO.P,J2,B1,GND*%
X10720000Y-7473610D03*
%TO.P,J2,B2,TX2+*%
%TO.N,TX2+*%
X11220000Y-7473610D03*
%TO.P,J2,B3,TX2-*%
%TO.N,TX2-*%
X11720000Y-7473610D03*
%TO.P,J2,B4,VBUS*%
%TO.N,Net-(F1-Pad1)*%
X12220000Y-7473610D03*
%TO.P,J2,B5,CC2*%
%TO.N,CC2_UFP*%
X12720000Y-7473610D03*
%TO.P,J2,B6,D+*%
%TO.N,D+*%
X13220000Y-7473610D03*
%TO.P,J2,B7,D-*%
%TO.N,D-*%
X13720000Y-7473610D03*
%TO.P,J2,B8,SBU2*%
%TO.N,unconnected-(J2-SBU2-PadB8)*%
X14220000Y-7473610D03*
%TO.P,J2,B9,VBUS*%
%TO.N,Net-(F1-Pad1)*%
X14720000Y-7473610D03*
%TO.P,J2,B10,RX1-*%
%TO.N,RX1-*%
X15220000Y-7473610D03*
%TO.P,J2,B11,RX1+*%
%TO.N,RX1+*%
X15720000Y-7473610D03*
%TO.P,J2,B12,GND*%
%TO.N,GND*%
X16220000Y-7473610D03*
D18*
%TO.P,J2,S1,SHIELD*%
%TO.N,Net-(J2-SHIELD)*%
X17710000Y-1313610D03*
X17350000Y-7263610D03*
X9090000Y-7263610D03*
X8730000Y-1313610D03*
%TD*%
D22*
%TO.P,F1,1*%
%TO.N,Net-(F1-Pad1)*%
X17075000Y-16200000D03*
%TO.P,F1,2*%
%TO.N,+5V*%
X21525000Y-16200000D03*
%TD*%
D16*
%TO.P,R6,1*%
%TO.N,CC2_UFP*%
X9020000Y-13153610D03*
%TO.P,R6,2*%
%TO.N,GND*%
X9020000Y-11153610D03*
%TD*%
D23*
%TO.P,C6,1*%
%TO.N,VBUS_USB2*%
X38600000Y-16600000D03*
%TO.P,C6,2*%
%TO.N,GND*%
X38600000Y-19725000D03*
%TD*%
D24*
%TO.P,R8,1*%
%TO.N,+5V*%
X29300000Y-7330000D03*
%TO.P,R8,2*%
%TO.N,CC2_USB3*%
X27300000Y-7330000D03*
%TD*%
D14*
%TO.P,Q3,1,G*%
%TO.N,CC1_USB3*%
X22075000Y-11440000D03*
%TO.P,Q3,2,S*%
%TO.N,+5V*%
X22075000Y-9540000D03*
%TO.P,Q3,3,D*%
%TO.N,VBUS_USB3*%
X20200000Y-10490000D03*
%TD*%
D25*
%TO.P,C5,1*%
%TO.N,VBUS_USB3*%
X6600000Y-17162500D03*
%TO.P,C5,2*%
%TO.N,GND*%
X6600000Y-14037500D03*
%TD*%
D21*
%TO.P,C2,1*%
%TO.N,Net-(J1-SHIELD)*%
X36600000Y-12537500D03*
%TO.P,C2,2*%
%TO.N,GND*%
X36600000Y-10462500D03*
%TD*%
D24*
%TO.P,R7,1*%
%TO.N,+5V*%
X29300000Y-11100000D03*
%TO.P,R7,2*%
%TO.N,CC1_USB3*%
X27300000Y-11100000D03*
%TD*%
D11*
%TO.P,R2,1*%
%TO.N,+5V*%
X31900000Y-9600000D03*
%TO.P,R2,2*%
%TO.N,CC2_USB2*%
X31900000Y-11600000D03*
%TD*%
D16*
%TO.P,R3,1*%
%TO.N,+5V*%
X26700000Y-19900000D03*
%TO.P,R3,2*%
%TO.N,CC1_USB2*%
X26700000Y-17900000D03*
%TD*%
%TO.P,R5,1*%
%TO.N,CC1_UFP*%
X17420000Y-13153610D03*
%TO.P,R5,2*%
%TO.N,GND*%
X17420000Y-11153610D03*
%TD*%
D26*
%TO.P,J1,A1,GND*%
%TO.N,GND*%
X30970000Y-22108610D03*
%TO.P,J1,A4,VBUS*%
%TO.N,VBUS_USB2*%
X31770000Y-22108610D03*
D27*
%TO.P,J1,A5,CC1*%
%TO.N,CC1_USB2*%
X32970000Y-22108610D03*
%TO.P,J1,A6,D+*%
%TO.N,D+*%
X33970000Y-22108610D03*
%TO.P,J1,A7,D-*%
%TO.N,D-*%
X34470000Y-22108610D03*
%TO.P,J1,A8,SBU1*%
%TO.N,unconnected-(J1-SBU1-PadA8)*%
X35470000Y-22108610D03*
D26*
%TO.P,J1,A9,VBUS*%
%TO.N,VBUS_USB2*%
X36670000Y-22108610D03*
%TO.P,J1,A12,GND*%
%TO.N,GND*%
X37470000Y-22108610D03*
%TO.P,J1,B1,GND*%
X37470000Y-22108610D03*
%TO.P,J1,B4,VBUS*%
%TO.N,VBUS_USB2*%
X36670000Y-22108610D03*
D27*
%TO.P,J1,B5,CC2*%
%TO.N,CC2_USB2*%
X35970000Y-22108610D03*
%TO.P,J1,B6,D+*%
%TO.N,D+*%
X34970000Y-22108610D03*
%TO.P,J1,B7,D-*%
%TO.N,D-*%
X33470000Y-22108610D03*
%TO.P,J1,B8,SBU2*%
%TO.N,unconnected-(J1-SBU2-PadB8)*%
X32470000Y-22108610D03*
D26*
%TO.P,J1,B9,VBUS*%
%TO.N,VBUS_USB2*%
X31770000Y-22108610D03*
%TO.P,J1,B12,GND*%
%TO.N,GND*%
X30970000Y-22108610D03*
D28*
%TO.P,J1,S1,SHIELD*%
%TO.N,Net-(J1-SHIELD)*%
X29900000Y-23023610D03*
D29*
X29900000Y-27203610D03*
D28*
X38540000Y-23023610D03*
D29*
X38540000Y-27203610D03*
%TD*%
D11*
%TO.P,R9,1*%
%TO.N,+5V*%
X24200000Y-9700000D03*
%TO.P,R9,2*%
%TO.N,CC1_USB3*%
X24200000Y-11700000D03*
%TD*%
D30*
%TO.N,GND*%
X14080000Y-22100000D03*
D31*
%TO.N,CC2_USB2*%
X25600000Y-22200000D03*
X35690000Y-19730000D03*
X30200000Y-13420000D03*
X24100000Y-24300000D03*
D32*
%TO.N,GND*%
X11050000Y-14470000D03*
D30*
X14600000Y-6693610D03*
X16000000Y-21950199D03*
D32*
X6500000Y-12500000D03*
D30*
X16450000Y-6550000D03*
D31*
X28000000Y-27500000D03*
D32*
X18000000Y-9500000D03*
X12900000Y-10400000D03*
D31*
X1500000Y-16500000D03*
X12900000Y-15600000D03*
D30*
X11920000Y-22100000D03*
D31*
X28100000Y-4360000D03*
D32*
X14200000Y-11400000D03*
D30*
X10060000Y-22100000D03*
D31*
X37500000Y-14500000D03*
D32*
X15800000Y-12600000D03*
X10320000Y-6853610D03*
D30*
X12400000Y-6717088D03*
D31*
X28100000Y-2110000D03*
%TO.N,Net-(J1-SHIELD)*%
X39400000Y-14000000D03*
%TO.N,VBUS_USB2*%
X32900000Y-18200000D03*
X32900000Y-16700000D03*
X35700000Y-18200000D03*
X35700000Y-16700000D03*
D30*
%TO.N,D+*%
X13160000Y-6853610D03*
D31*
X28900000Y-2770000D03*
D30*
X13480000Y-9893610D03*
%TO.N,D-*%
X13770000Y-6853610D03*
D31*
X28900000Y-3730000D03*
%TO.N,CC1_USB2*%
X24537500Y-18350000D03*
X32870000Y-19710000D03*
X24100000Y-22200000D03*
D30*
%TO.N,TX2+*%
X14720000Y-21943610D03*
X10990000Y-6750000D03*
%TO.N,TX1+*%
X12050000Y-15410000D03*
X15200000Y-12250000D03*
%TO.N,TX1-*%
X14790000Y-11780000D03*
X11550000Y-15000000D03*
%TO.N,RX1+*%
X15820000Y-6830107D03*
X11260000Y-21933610D03*
%TO.N,TX2-*%
X11750000Y-6800000D03*
X15330000Y-21980000D03*
%TO.N,CC1_UFP*%
X14150000Y-8320000D03*
D31*
X16200000Y-13400000D03*
D30*
%TO.N,CC2_UFP*%
X12720000Y-8253610D03*
D31*
X8900000Y-14600000D03*
D30*
%TO.N,RX1-*%
X15198957Y-6859560D03*
X10660000Y-21944832D03*
D31*
%TO.N,VBUS_USB3*%
X18400000Y-16560000D03*
X18500000Y-17500000D03*
X14000000Y-17500000D03*
X13690000Y-16560000D03*
X9100000Y-16200000D03*
D32*
%TO.N,CC1_USB3*%
X12600000Y-20500000D03*
D31*
X19000000Y-23880000D03*
%TO.N,CC2_USB3*%
X25800000Y-8200000D03*
D32*
X13400000Y-20500000D03*
D31*
X19570000Y-23000000D03*
X22900000Y-13100000D03*
%TD*%
D33*
%TO.N,TX2-*%
X15271000Y-21921000D02*
X15330000Y-21980000D01*
X15271000Y-21715378D02*
X15271000Y-21921000D01*
X15220000Y-21333610D02*
X15220000Y-21664378D01*
X15220000Y-21664378D02*
X15271000Y-21715378D01*
D34*
%TO.N,Net-(F1-Pad1)*%
X14470000Y-8743877D02*
X14470000Y-9173610D01*
X14720000Y-8493877D02*
X14470000Y-8743877D01*
X14720000Y-7473610D02*
X14720000Y-8493877D01*
X12220000Y-8025610D02*
X12220000Y-7473610D01*
X11970000Y-8275610D02*
X12220000Y-8025610D01*
X11970000Y-9173610D02*
X11970000Y-8275610D01*
%TO.N,D-*%
X12970000Y-8756123D02*
X12970000Y-9173610D01*
X13720000Y-8006123D02*
X12970000Y-8756123D01*
X13720000Y-7473610D02*
X13720000Y-8006123D01*
D35*
%TO.N,CC2_USB2*%
X22950000Y-26137500D02*
X22950000Y-25550000D01*
X24100000Y-24300000D02*
X24100000Y-23700000D01*
X22950000Y-25550000D02*
X24100000Y-24400000D01*
X28825000Y-14200000D02*
X29890000Y-14200000D01*
D33*
X35970000Y-20010000D02*
X35690000Y-19730000D01*
D35*
X29890000Y-14200000D02*
X30200000Y-13890000D01*
D33*
X35970000Y-22108610D02*
X35970000Y-20010000D01*
D35*
X30200000Y-13890000D02*
X30200000Y-13420000D01*
X24100000Y-24400000D02*
X24100000Y-24300000D01*
X24100000Y-23700000D02*
X25600000Y-22200000D01*
X30200000Y-13420000D02*
X30200000Y-13300000D01*
X27500000Y-14200000D02*
X28400000Y-14200000D01*
X27050000Y-13750000D02*
X27500000Y-14200000D01*
X26300000Y-13750000D02*
X27050000Y-13750000D01*
X30200000Y-13300000D02*
X31900000Y-11600000D01*
D36*
%TO.N,GND*%
X14576522Y-6717088D02*
X14600000Y-6693610D01*
X16220000Y-7163610D02*
X16300000Y-7083610D01*
X16220000Y-7473610D02*
X16220000Y-7163610D01*
X10720000Y-7473610D02*
X10720000Y-7253610D01*
X16300000Y-6817037D02*
X16389418Y-6727619D01*
D33*
X15970000Y-8336891D02*
X15970000Y-9173610D01*
X16220000Y-7473610D02*
X16220000Y-8086891D01*
D36*
X10720000Y-7253610D02*
X10320000Y-6853610D01*
D33*
X10720000Y-8200000D02*
X10720000Y-7473610D01*
X15720000Y-21333610D02*
X15879839Y-21493449D01*
X16220000Y-8086891D02*
X15970000Y-8336891D01*
X15879839Y-21493449D02*
X15879839Y-21950199D01*
X10496000Y-8424000D02*
X10720000Y-8200000D01*
X10470000Y-9173610D02*
X10496000Y-9147610D01*
D36*
X16300000Y-7083610D02*
X16300000Y-6817037D01*
D33*
X10496000Y-9147610D02*
X10496000Y-8424000D01*
D35*
%TO.N,Net-(J1-SHIELD)*%
X39400000Y-13200000D02*
X38700000Y-12500000D01*
X38700000Y-12500000D02*
X36637500Y-12500000D01*
X36637500Y-12500000D02*
X36600000Y-12537500D01*
X39400000Y-14000000D02*
X39400000Y-13200000D01*
%TO.N,VBUS_USB2*%
X31190000Y-18750000D02*
X31770000Y-19330000D01*
X31350000Y-15150000D02*
X32900000Y-16700000D01*
X38500000Y-16700000D02*
X38600000Y-16600000D01*
X31770000Y-19330000D02*
X31770000Y-22108610D01*
X35700000Y-18200000D02*
X35700000Y-16700000D01*
X30275000Y-18750000D02*
X31190000Y-18750000D01*
X32900000Y-18200000D02*
X31770000Y-19330000D01*
X36670000Y-19170000D02*
X35700000Y-18200000D01*
X32900000Y-16700000D02*
X32900000Y-18200000D01*
X36670000Y-22108610D02*
X36670000Y-19170000D01*
X35700000Y-16700000D02*
X38500000Y-16700000D01*
X30275000Y-15150000D02*
X31350000Y-15150000D01*
D33*
%TO.N,D+*%
X13220000Y-7473610D02*
X13220000Y-6903610D01*
X33970000Y-21183610D02*
X34280000Y-20873610D01*
D37*
X34520000Y-6614020D02*
X30875980Y-2970000D01*
D33*
X13220000Y-6903610D02*
X13170000Y-6853610D01*
D37*
X28900000Y-2770000D02*
X29100000Y-2970000D01*
D33*
X34960000Y-20873610D02*
X34970000Y-20863610D01*
D37*
X29100000Y-2970000D02*
X30875980Y-2970000D01*
D33*
X33970000Y-22108610D02*
X33970000Y-21183610D01*
X34280000Y-20873610D02*
X34960000Y-20873610D01*
X34970000Y-20577404D02*
X34520000Y-20127404D01*
X13470000Y-9173610D02*
X13470000Y-9883610D01*
X34970000Y-20863610D02*
X34970000Y-20577404D01*
D37*
X34520000Y-20127404D02*
X34520000Y-6614020D01*
D33*
X13470000Y-9883610D02*
X13480000Y-9893610D01*
X34970000Y-22108610D02*
X34970000Y-20863610D01*
%TO.N,D-*%
X33470000Y-22108610D02*
X33470000Y-20617404D01*
X13720000Y-6883610D02*
X13750000Y-6853610D01*
X33470000Y-22983610D02*
X33470000Y-22108610D01*
X33650000Y-23163610D02*
X33470000Y-22983610D01*
X34470000Y-22963610D02*
X34270000Y-23163610D01*
X34270000Y-23163610D02*
X33650000Y-23163610D01*
X34470000Y-22108610D02*
X34470000Y-22963610D01*
D37*
X28900000Y-3730000D02*
X29100000Y-3530000D01*
D33*
X13720000Y-7473610D02*
X13720000Y-6883610D01*
X33470000Y-20617404D02*
X33960000Y-20127404D01*
D37*
X33960000Y-6845980D02*
X30644020Y-3530000D01*
X33960000Y-20127404D02*
X33960000Y-6845980D01*
X29100000Y-3530000D02*
X30644020Y-3530000D01*
D35*
%TO.N,CC1_USB2*%
X24537500Y-18350000D02*
X24737500Y-18350000D01*
D33*
X26500000Y-21700000D02*
X26500000Y-23500000D01*
X26500000Y-23500000D02*
X26800000Y-23800000D01*
D35*
X26387500Y-17800000D02*
X26337500Y-17750000D01*
D33*
X26800000Y-23800000D02*
X27800000Y-23800000D01*
X32970000Y-22108610D02*
X32970000Y-19810000D01*
X26000000Y-21200000D02*
X26500000Y-21700000D01*
X25100000Y-21200000D02*
X26000000Y-21200000D01*
D35*
X28400000Y-17800000D02*
X26387500Y-17800000D01*
X22950000Y-23862500D02*
X22950000Y-23350000D01*
D33*
X32970000Y-19810000D02*
X32870000Y-19710000D01*
X24100000Y-22200000D02*
X25100000Y-21200000D01*
D35*
X24737500Y-18350000D02*
X25337500Y-17750000D01*
X22950000Y-23350000D02*
X24100000Y-22200000D01*
X25337500Y-17750000D02*
X26337500Y-17750000D01*
D33*
%TO.N,TX2+*%
X11220000Y-7473610D02*
X11220000Y-7003610D01*
X11220000Y-7003610D02*
X10990000Y-6773610D01*
X14720000Y-21333610D02*
X14720000Y-21943610D01*
%TO.N,Net-(J2-SHIELD)*%
X20162500Y-1600000D02*
X17996390Y-1600000D01*
X17996390Y-1600000D02*
X17710000Y-1313610D01*
X20200000Y-4000000D02*
X17800000Y-4000000D01*
D37*
%TO.N,TX1+*%
X15200000Y-12200000D02*
X15203610Y-12200000D01*
X11995000Y-15408610D02*
X11495796Y-15907814D01*
X15496385Y-11907225D02*
X15496385Y-10020311D01*
X15203610Y-12200000D02*
X15496385Y-11907225D01*
D33*
X11470000Y-18686730D02*
X11495796Y-18660934D01*
X11470000Y-19633610D02*
X11470000Y-18686730D01*
X15470000Y-9173610D02*
X15470000Y-9993926D01*
X15470000Y-9993926D02*
X15496385Y-10020311D01*
D37*
X11495796Y-15907814D02*
X11495796Y-18660934D01*
%TO.N,TX1-*%
X14811650Y-11800000D02*
X14936385Y-11675265D01*
X14936385Y-11675265D02*
X14936385Y-10020311D01*
X11599020Y-15012630D02*
X10935796Y-15675854D01*
D33*
X10970000Y-18695138D02*
X10970000Y-19633610D01*
D37*
X14800000Y-11800000D02*
X14811650Y-11800000D01*
D33*
X14970000Y-9986696D02*
X14936385Y-10020311D01*
X10935796Y-18660934D02*
X10970000Y-18695138D01*
X14970000Y-9173610D02*
X14970000Y-9986696D01*
D37*
X10935796Y-15675854D02*
X10935796Y-18660934D01*
D33*
%TO.N,RX2+*%
X14970000Y-19633610D02*
X14970000Y-18688849D01*
X14970000Y-18688849D02*
X14942370Y-18661219D01*
X10970000Y-9173610D02*
X10970000Y-10086164D01*
X10970000Y-10086164D02*
X10931441Y-10124723D01*
D37*
X10931441Y-12221031D02*
X14942370Y-16231960D01*
X14942370Y-16231960D02*
X14942370Y-18661219D01*
X10931441Y-10124723D02*
X10931441Y-12221031D01*
X10931441Y-11159509D02*
X10931441Y-10124723D01*
D36*
%TO.N,RX1+*%
X15720000Y-7473610D02*
X15720000Y-6908341D01*
D33*
X11220000Y-21333610D02*
X11220000Y-21913610D01*
X11220000Y-21913610D02*
X11240000Y-21933610D01*
D36*
X15720000Y-6908341D02*
X15798234Y-6830107D01*
D33*
%TO.N,RX2-*%
X15470000Y-19633610D02*
X15470000Y-18693589D01*
X11470000Y-10103282D02*
X11491441Y-10124723D01*
X15470000Y-18693589D02*
X15502370Y-18661219D01*
X11470000Y-9173610D02*
X11470000Y-10103282D01*
D37*
X15502370Y-16000000D02*
X15502370Y-18661219D01*
X11491441Y-11159509D02*
X11491441Y-10124723D01*
X11491441Y-11989071D02*
X15502370Y-16000000D01*
X11491441Y-10124723D02*
X11491441Y-11989071D01*
D33*
%TO.N,TX2-*%
X11720000Y-6843635D02*
X11676906Y-6800541D01*
X11720000Y-7473610D02*
X11720000Y-6843635D01*
%TO.N,CC1_UFP*%
X17173610Y-13400000D02*
X17420000Y-13153610D01*
D38*
X13970000Y-9173610D02*
X13970000Y-8500000D01*
D33*
X16200000Y-13400000D02*
X17173610Y-13400000D01*
D38*
X13970000Y-8500000D02*
X14150000Y-8320000D01*
D33*
%TO.N,CC2_UFP*%
X8900000Y-13273610D02*
X9020000Y-13153610D01*
X9240000Y-13373610D02*
X9020000Y-13153610D01*
X12720000Y-7473610D02*
X12720000Y-8253610D01*
X8900000Y-14600000D02*
X8900000Y-13273610D01*
%TO.N,RX1-*%
X10720000Y-21914944D02*
X10690112Y-21944832D01*
X10720000Y-21333610D02*
X10720000Y-21914944D01*
D36*
X15220000Y-6880603D02*
X15198957Y-6859560D01*
X15220000Y-7473610D02*
X15220000Y-6880603D01*
D33*
%TO.N,VBUS_USB3*%
X11970000Y-20481610D02*
X11720000Y-20731610D01*
D35*
X18720000Y-11970000D02*
X18720000Y-14580000D01*
D33*
X14220000Y-21333610D02*
X14220000Y-20485610D01*
X11720000Y-20731610D02*
X11720000Y-21333610D01*
D35*
X9100000Y-16200000D02*
X8137500Y-17162500D01*
D39*
X14000000Y-16870000D02*
X13690000Y-16560000D01*
D35*
X20200000Y-6990000D02*
X20200000Y-10490000D01*
D33*
X11970000Y-19633610D02*
X11970000Y-19130000D01*
D39*
X14000000Y-17500000D02*
X14000000Y-16870000D01*
D33*
X12200000Y-18900000D02*
X14300000Y-18900000D01*
D37*
X14300000Y-18900000D02*
X14300000Y-17800000D01*
D35*
X18400000Y-16560000D02*
X18400000Y-17400000D01*
X18400000Y-14900000D02*
X18400000Y-16560000D01*
X8137500Y-17162500D02*
X6600000Y-17162500D01*
X18720000Y-14580000D02*
X18400000Y-14900000D01*
D33*
X14220000Y-20485610D02*
X14470000Y-20235610D01*
X14300000Y-18900000D02*
X14470000Y-19070000D01*
X11970000Y-19130000D02*
X12200000Y-18900000D01*
X11970000Y-19633610D02*
X11970000Y-20481610D01*
D37*
X14300000Y-17800000D02*
X14000000Y-17500000D01*
D33*
X14470000Y-20235610D02*
X14470000Y-19633610D01*
X14470000Y-19070000D02*
X14470000Y-19633610D01*
D35*
X18400000Y-17400000D02*
X18500000Y-17500000D01*
X20200000Y-10490000D02*
X18720000Y-11970000D01*
%TO.N,Net-(J3-SHIELD)*%
X9090000Y-27133610D02*
X8730000Y-27493610D01*
X9090000Y-21543610D02*
X9090000Y-27133610D01*
X17350000Y-21543610D02*
X17350000Y-27133610D01*
X1900000Y-19937500D02*
X3962500Y-19937500D01*
X4000000Y-19900000D02*
X5800000Y-19900000D01*
X7443610Y-21543610D02*
X9090000Y-21543610D01*
X3962500Y-19937500D02*
X4000000Y-19900000D01*
X5800000Y-19900000D02*
X7443610Y-21543610D01*
X17350000Y-27133610D02*
X17710000Y-27493610D01*
%TO.N,CC1_USB3*%
X22075000Y-11440000D02*
X23940000Y-11440000D01*
X24200000Y-11700000D02*
X25300000Y-11700000D01*
D33*
X19000000Y-23880000D02*
X18360000Y-23240000D01*
X20610000Y-11440000D02*
X22075000Y-11440000D01*
X19470000Y-12580000D02*
X20610000Y-11440000D01*
X18360000Y-23240000D02*
X18360000Y-22230000D01*
D35*
X21050000Y-26137500D02*
X21050000Y-25930000D01*
X21050000Y-25930000D02*
X19000000Y-23880000D01*
D33*
X18360000Y-22230000D02*
X18830000Y-21760000D01*
D35*
X25900000Y-11100000D02*
X27300000Y-11100000D01*
X23940000Y-11440000D02*
X24200000Y-11700000D01*
D33*
X19470000Y-17960000D02*
X19470000Y-12580000D01*
X12470000Y-20370000D02*
X12600000Y-20500000D01*
X18830000Y-21760000D02*
X18830000Y-18600000D01*
D35*
X25300000Y-11700000D02*
X25900000Y-11100000D01*
D33*
X12470000Y-19633610D02*
X12470000Y-20370000D01*
X18830000Y-18600000D02*
X19470000Y-17960000D01*
%TO.N,CC2_USB3*%
X25500000Y-7900000D02*
X25800000Y-8200000D01*
X13720000Y-20820000D02*
X13400000Y-20500000D01*
X22900000Y-13100000D02*
X22900000Y-12500000D01*
X24200000Y-7900000D02*
X25500000Y-7900000D01*
X19570000Y-18890000D02*
X19570000Y-23000000D01*
D35*
X21050000Y-23862500D02*
X20432500Y-23862500D01*
X27280000Y-7330000D02*
X26120000Y-7330000D01*
D33*
X13720000Y-21333610D02*
X13720000Y-20820000D01*
D35*
X20432500Y-23862500D02*
X19570000Y-23000000D01*
D33*
X22095000Y-7920000D02*
X22075000Y-7940000D01*
X20740000Y-12320000D02*
X20160000Y-12900000D01*
D35*
X26120000Y-7330000D02*
X25800000Y-7650000D01*
D33*
X22720000Y-12320000D02*
X20740000Y-12320000D01*
X22900000Y-12500000D02*
X22720000Y-12320000D01*
D35*
X25800000Y-7650000D02*
X25800000Y-8200000D01*
D33*
X20160000Y-18300000D02*
X19570000Y-18890000D01*
X23480000Y-7920000D02*
X22095000Y-7920000D01*
X20160000Y-12900000D02*
X20160000Y-18300000D01*
D35*
%TO.N,+5V*%
X22075000Y-6040000D02*
X24060000Y-6040000D01*
X31900000Y-9600000D02*
X29600000Y-9600000D01*
D39*
X26137500Y-15750000D02*
X25400000Y-15750000D01*
D35*
X26387500Y-19700000D02*
X26337500Y-19750000D01*
X26487500Y-16100000D02*
X26137500Y-15750000D01*
D39*
X21975000Y-15750000D02*
X21525000Y-16200000D01*
D35*
X28400000Y-19700000D02*
X26387500Y-19700000D01*
X29600000Y-9800000D02*
X29600000Y-9600000D01*
X27800000Y-21800000D02*
X26700000Y-20700000D01*
X24060000Y-6040000D02*
X24200000Y-5900000D01*
X26700000Y-20700000D02*
X26700000Y-19900000D01*
X29240000Y-5900000D02*
X24200000Y-5900000D01*
X29600000Y-8760000D02*
X29600000Y-6260000D01*
X22075000Y-9540000D02*
X24040000Y-9540000D01*
X24200000Y-9700000D02*
X25950000Y-9700000D01*
D39*
X25400000Y-15750000D02*
X24600000Y-15750000D01*
D35*
X25400000Y-15750000D02*
X25400000Y-13200000D01*
D39*
X24600000Y-15750000D02*
X21975000Y-15750000D01*
D35*
X25950000Y-9700000D02*
X26890000Y-8760000D01*
X28965000Y-12675000D02*
X29600000Y-12040000D01*
X29600000Y-12040000D02*
X29600000Y-8760000D01*
D39*
X26337500Y-19750000D02*
X22750000Y-19750000D01*
X22750000Y-19750000D02*
X21525000Y-18525000D01*
D35*
X26890000Y-8760000D02*
X29600000Y-8760000D01*
X24040000Y-9540000D02*
X24200000Y-9700000D01*
D39*
X21525000Y-18525000D02*
X21525000Y-16200000D01*
D35*
X22000000Y-20500000D02*
X22750000Y-19750000D01*
X25925000Y-12675000D02*
X28965000Y-12675000D01*
X29600000Y-6260000D02*
X29240000Y-5900000D01*
X29600000Y-9600000D02*
X29600000Y-8760000D01*
X25400000Y-13200000D02*
X25925000Y-12675000D01*
X28400000Y-16100000D02*
X26487500Y-16100000D01*
X22000000Y-23862500D02*
X22000000Y-20500000D01*
%TO.N,Net-(C4-Pad1)*%
X4000000Y-6700000D02*
X4200000Y-6900000D01*
X4200000Y-8300000D02*
X3137500Y-8300000D01*
X5200000Y-8300000D02*
X4200000Y-8300000D01*
X4200000Y-6900000D02*
X4200000Y-8300000D01*
X4000000Y-4000000D02*
X4000000Y-6700000D01*
X3137500Y-8300000D02*
X3100000Y-8262500D01*
%TO.N,Net-(F1-Pad1)*%
X16300000Y-14900000D02*
X13000000Y-11600000D01*
D33*
X12050000Y-11180000D02*
X12190000Y-11320000D01*
X14435385Y-9634615D02*
X14435385Y-9884615D01*
D35*
X17075000Y-16200000D02*
X17075000Y-14975000D01*
X17075000Y-14975000D02*
X17000000Y-14900000D01*
D33*
X12050000Y-9780000D02*
X12050000Y-11180000D01*
X11970000Y-9700000D02*
X12050000Y-9780000D01*
X12190000Y-11320000D02*
X13000000Y-11320000D01*
X14435385Y-9884615D02*
X13000000Y-11320000D01*
D35*
X17000000Y-14900000D02*
X16300000Y-14900000D01*
D33*
X14470000Y-9600000D02*
X14470000Y-9173610D01*
X14470000Y-9600000D02*
X14435385Y-9634615D01*
X11970000Y-9173610D02*
X11970000Y-9700000D01*
D35*
X13000000Y-11600000D02*
X13000000Y-11320000D01*
%TD*%
%TA.AperFunction,Conductor*%
%TO.N,GND*%
G36*
X8129668Y-518982D02*
G01*
X8156688Y-565782D01*
X8147304Y-619000D01*
X8134749Y-635361D01*
X8030540Y-739569D01*
X8030534Y-739576D01*
X7931988Y-887061D01*
X7931985Y-887066D01*
X7864106Y-1050941D01*
X7864105Y-1050943D01*
X7838979Y-1177264D01*
X7829500Y-1224919D01*
X7829500Y-1402301D01*
X7849074Y-1500705D01*
X7840853Y-1554115D01*
X7827453Y-1571978D01*
X7648211Y-1751220D01*
X7615636Y-1770849D01*
X7562532Y-1787230D01*
X7562528Y-1787232D01*
X7562522Y-1787235D01*
X7515743Y-1814242D01*
X7515731Y-1814250D01*
X7474991Y-1845109D01*
X7425374Y-1921933D01*
X7406893Y-1972711D01*
X7394500Y-2042994D01*
X7394500Y-2042998D01*
X7394500Y-2260824D01*
X7394500Y-6316393D01*
X7394500Y-7494823D01*
X7394810Y-7504312D01*
X7394940Y-7508272D01*
X7395615Y-7518570D01*
X7396935Y-7531973D01*
X7411935Y-7645907D01*
X7411941Y-7645942D01*
X7417180Y-7672282D01*
X7421969Y-7690153D01*
X7422518Y-7692202D01*
X7431159Y-7717659D01*
X7463313Y-7795286D01*
X7473150Y-7819034D01*
X7485037Y-7843137D01*
X7489580Y-7851006D01*
X7495346Y-7860993D01*
X7510282Y-7883348D01*
X7510286Y-7883353D01*
X7577074Y-7970394D01*
X7594800Y-7990605D01*
X7594819Y-7990626D01*
X7609372Y-8005179D01*
X7609382Y-8005188D01*
X7609388Y-8005194D01*
X7609393Y-8005198D01*
X7629604Y-8022924D01*
X7690274Y-8069477D01*
X7716651Y-8089717D01*
X7728877Y-8097886D01*
X7739001Y-8104651D01*
X7739003Y-8104652D01*
X7756859Y-8114961D01*
X7756864Y-8114963D01*
X7756874Y-8114969D01*
X7764826Y-8118890D01*
X7780965Y-8126849D01*
X7780970Y-8126851D01*
X7780974Y-8126853D01*
X7780981Y-8126856D01*
X7870459Y-8163920D01*
X7870469Y-8163923D01*
X7870480Y-8163928D01*
X7887557Y-8169353D01*
X7903764Y-8174502D01*
X7903766Y-8174502D01*
X7903771Y-8174504D01*
X7929868Y-8180409D01*
X7944828Y-8183216D01*
X7945330Y-8183177D01*
X7946554Y-8183402D01*
X8008259Y-8178388D01*
X8036021Y-8176276D01*
X8036023Y-8176275D01*
X8036447Y-8176243D01*
X8037703Y-8175997D01*
X8037704Y-8175996D01*
X8037710Y-8175996D01*
X8062242Y-8168259D01*
X8062444Y-8168196D01*
X8086976Y-8160698D01*
X8134024Y-8139545D01*
X8134689Y-8138895D01*
X8135698Y-8138435D01*
X8177051Y-8097591D01*
X8199505Y-8075698D01*
X8199506Y-8075695D01*
X8199623Y-8075582D01*
X8200758Y-8074176D01*
X8200767Y-8074168D01*
X8214582Y-8052479D01*
X8214714Y-8052274D01*
X8228673Y-8030782D01*
X8229519Y-8029034D01*
X8229598Y-8028911D01*
X8230593Y-8026815D01*
X8251019Y-7984628D01*
X8251019Y-7984626D01*
X8251150Y-7984356D01*
X8251683Y-7982420D01*
X8251683Y-7982418D01*
X8251684Y-7982417D01*
X8256845Y-7927372D01*
X8256900Y-7926819D01*
X8257492Y-7921000D01*
X8260276Y-7893642D01*
X8260275Y-7893639D01*
X8260639Y-7890069D01*
X8284166Y-7841420D01*
X8333460Y-7819276D01*
X8385455Y-7833999D01*
X8395094Y-7842204D01*
X8515959Y-7963069D01*
X8515966Y-7963075D01*
X8565127Y-7995923D01*
X8663453Y-8061623D01*
X8751001Y-8097886D01*
X8816479Y-8125008D01*
X8827334Y-8129504D01*
X8886741Y-8141320D01*
X8932939Y-8169353D01*
X8950310Y-8220524D01*
X8944316Y-8249034D01*
X8922380Y-8301990D01*
X8895357Y-8437846D01*
X8894500Y-8442155D01*
X8894500Y-8585065D01*
X8899852Y-8611970D01*
X8922381Y-8725231D01*
X8922382Y-8725235D01*
X8977068Y-8857257D01*
X8977071Y-8857263D01*
X9056466Y-8976087D01*
X9056472Y-8976094D01*
X9157515Y-9077137D01*
X9157522Y-9077143D01*
X9192935Y-9100805D01*
X9276347Y-9156539D01*
X9276352Y-9156541D01*
X9408374Y-9211227D01*
X9408376Y-9211227D01*
X9408380Y-9211229D01*
X9548545Y-9239110D01*
X9691455Y-9239110D01*
X9831620Y-9211229D01*
X9963653Y-9156539D01*
X10082479Y-9077142D01*
X10183532Y-8976089D01*
X10262929Y-8857263D01*
X10317619Y-8725230D01*
X10345500Y-8585065D01*
X10345500Y-8442155D01*
X10317619Y-8301990D01*
X10315057Y-8295804D01*
X10312697Y-8241816D01*
X10345593Y-8198943D01*
X10364287Y-8190225D01*
X10365857Y-8189729D01*
X10406968Y-8176768D01*
X10453768Y-8149748D01*
X10494507Y-8118890D01*
X10544125Y-8042064D01*
X10562607Y-7991284D01*
X10575000Y-7921000D01*
X10575000Y-7707781D01*
X10574969Y-7704204D01*
X10574921Y-7701447D01*
X10560588Y-7630988D01*
X10559989Y-7628045D01*
X10559988Y-7628044D01*
X10559988Y-7628041D01*
X10539744Y-7577936D01*
X10539740Y-7577928D01*
X10514858Y-7533303D01*
X10514855Y-7533300D01*
X10514855Y-7533299D01*
X10514852Y-7533297D01*
X10514851Y-7533295D01*
X10445684Y-7473474D01*
X10445678Y-7473470D01*
X10397972Y-7448105D01*
X10350216Y-7429909D01*
X10350211Y-7429908D01*
X10258772Y-7428539D01*
X10205917Y-7439773D01*
X10205905Y-7439776D01*
X10157631Y-7456534D01*
X10157629Y-7456535D01*
X10103626Y-7500488D01*
X10052575Y-7518208D01*
X10002077Y-7498967D01*
X9975761Y-7451768D01*
X9976275Y-7423809D01*
X9990500Y-7352301D01*
X9990500Y-7174919D01*
X9984848Y-7146503D01*
X9967589Y-7059739D01*
X9975810Y-7006329D01*
X9977536Y-7003340D01*
X9994122Y-6976010D01*
X9994122Y-6976009D01*
X9994125Y-6976005D01*
X10012607Y-6925225D01*
X10025000Y-6854941D01*
X10025000Y-6825169D01*
X10027690Y-6804729D01*
X10042413Y-6749779D01*
X10050298Y-6730743D01*
X10078746Y-6681469D01*
X10091294Y-6665118D01*
X10131508Y-6624904D01*
X10147859Y-6612356D01*
X10197133Y-6583908D01*
X10216169Y-6576023D01*
X10271119Y-6561300D01*
X10291559Y-6558610D01*
X10348439Y-6558610D01*
X10368884Y-6561301D01*
X10423818Y-6576021D01*
X10442866Y-6583910D01*
X10508727Y-6621935D01*
X10514127Y-6624034D01*
X10554758Y-6659661D01*
X10564500Y-6697665D01*
X10564500Y-6806020D01*
X10593496Y-6914234D01*
X10593497Y-6914238D01*
X10649516Y-7011265D01*
X10728734Y-7090483D01*
X10728736Y-7090484D01*
X10728737Y-7090485D01*
X10825763Y-7146503D01*
X10830000Y-7148949D01*
X10864736Y-7190345D01*
X10869500Y-7217365D01*
X10869500Y-7843357D01*
X10881132Y-7901840D01*
X10881133Y-7901841D01*
X10925448Y-7968162D01*
X10991769Y-8012477D01*
X10991768Y-8012477D01*
X11050252Y-8024110D01*
X11389747Y-8024110D01*
X11389748Y-8024110D01*
X11448231Y-8012477D01*
X11448232Y-8012476D01*
X11454587Y-8011212D01*
X11478544Y-8010157D01*
X11490193Y-8011424D01*
X11491769Y-8012477D01*
X11550252Y-8024110D01*
X11606804Y-8024110D01*
X11611060Y-8024573D01*
X11631690Y-8034728D01*
X11653296Y-8042592D01*
X11655531Y-8046464D01*
X11659543Y-8048439D01*
X11668818Y-8069477D01*
X11680316Y-8089392D01*
X11679539Y-8093795D01*
X11681343Y-8097886D01*
X11674925Y-8119964D01*
X11670932Y-8142610D01*
X11670931Y-8142611D01*
X11666683Y-8149967D01*
X11666681Y-8149973D01*
X11652112Y-8204345D01*
X11652112Y-8204347D01*
X11644500Y-8232757D01*
X11644500Y-8232759D01*
X11644500Y-8544110D01*
X11626018Y-8594890D01*
X11579218Y-8621910D01*
X11565500Y-8623110D01*
X11300252Y-8623110D01*
X11235412Y-8636007D01*
X11204588Y-8636007D01*
X11139748Y-8623110D01*
X10800252Y-8623110D01*
X10741769Y-8634742D01*
X10675448Y-8679058D01*
X10631132Y-8745379D01*
X10619500Y-8803862D01*
X10619500Y-9842852D01*
X10608916Y-9882352D01*
X10558234Y-9970134D01*
X10558233Y-9970138D01*
X10530941Y-10071993D01*
X10530941Y-12273760D01*
X10558233Y-12375616D01*
X10558234Y-12375620D01*
X10610962Y-12466946D01*
X13706947Y-15562930D01*
X13729785Y-15611906D01*
X13715799Y-15664104D01*
X13671533Y-15695099D01*
X13658833Y-15697410D01*
X13657338Y-15697557D01*
X13654972Y-15697790D01*
X13559196Y-15710400D01*
X13541019Y-15712794D01*
X13541015Y-15712794D01*
X13540999Y-15712797D01*
X13501850Y-15720584D01*
X13501839Y-15720586D01*
X13481915Y-15725924D01*
X13481898Y-15725929D01*
X13444088Y-15738764D01*
X13444050Y-15738778D01*
X13342717Y-15780752D01*
X13342678Y-15780770D01*
X13306856Y-15798436D01*
X13289006Y-15808742D01*
X13289001Y-15808745D01*
X13255773Y-15830948D01*
X13168710Y-15897753D01*
X13168707Y-15897756D01*
X13138693Y-15924077D01*
X13138676Y-15924093D01*
X13124109Y-15938659D01*
X13124107Y-15938661D01*
X13097746Y-15968720D01*
X13097743Y-15968724D01*
X13030950Y-16055769D01*
X13008739Y-16089011D01*
X12998436Y-16106856D01*
X12980770Y-16142678D01*
X12980752Y-16142717D01*
X12938778Y-16244050D01*
X12938764Y-16244088D01*
X12925929Y-16281898D01*
X12925924Y-16281915D01*
X12920590Y-16301825D01*
X12920583Y-16301853D01*
X12912793Y-16341021D01*
X12912792Y-16341027D01*
X12897789Y-16454992D01*
X12896411Y-16468982D01*
X12895830Y-16474879D01*
X12895154Y-16485190D01*
X12894500Y-16505176D01*
X12894500Y-17494823D01*
X12895154Y-17514809D01*
X12895830Y-17525120D01*
X12897024Y-17537243D01*
X12897790Y-17545022D01*
X12912790Y-17658959D01*
X12912796Y-17658994D01*
X12920585Y-17698156D01*
X12920594Y-17698192D01*
X12925926Y-17718087D01*
X12925932Y-17718109D01*
X12938766Y-17755914D01*
X12938771Y-17755926D01*
X12938772Y-17755929D01*
X12980760Y-17857297D01*
X12998431Y-17893132D01*
X13000751Y-17897150D01*
X13008736Y-17910983D01*
X13030950Y-17944229D01*
X13088246Y-18018897D01*
X13097746Y-18031278D01*
X13116614Y-18052793D01*
X13124095Y-18061323D01*
X13124114Y-18061343D01*
X13138655Y-18075884D01*
X13138675Y-18075903D01*
X13138677Y-18075905D01*
X13168721Y-18102253D01*
X13193077Y-18120942D01*
X13255769Y-18169048D01*
X13255775Y-18169052D01*
X13289007Y-18191257D01*
X13289010Y-18191259D01*
X13289015Y-18191262D01*
X13294093Y-18194193D01*
X13306867Y-18201568D01*
X13342702Y-18219239D01*
X13444070Y-18261227D01*
X13444080Y-18261230D01*
X13444084Y-18261232D01*
X13457488Y-18265782D01*
X13481905Y-18274071D01*
X13501825Y-18279409D01*
X13541024Y-18287206D01*
X13654990Y-18302210D01*
X13674878Y-18304169D01*
X13685188Y-18304845D01*
X13705176Y-18305500D01*
X13820500Y-18305500D01*
X13839787Y-18312519D01*
X13860000Y-18316084D01*
X13864581Y-18321544D01*
X13871280Y-18323982D01*
X13881541Y-18341756D01*
X13894736Y-18357480D01*
X13896545Y-18367743D01*
X13898300Y-18370782D01*
X13899500Y-18384500D01*
X13899500Y-18470500D01*
X13881018Y-18521280D01*
X13834218Y-18548300D01*
X13820500Y-18549500D01*
X12153853Y-18549500D01*
X12089218Y-18566819D01*
X12089214Y-18566820D01*
X12082141Y-18568716D01*
X12064712Y-18573386D01*
X12012166Y-18603722D01*
X12009421Y-18605038D01*
X11985370Y-18607392D01*
X11961577Y-18611588D01*
X11958813Y-18609992D01*
X11955639Y-18610303D01*
X11935709Y-18596652D01*
X11914778Y-18584568D01*
X11913686Y-18581569D01*
X11911055Y-18579767D01*
X11904562Y-18556499D01*
X11896296Y-18533788D01*
X11896296Y-16106429D01*
X11914778Y-16055649D01*
X11919424Y-16050578D01*
X12129962Y-15840039D01*
X12165372Y-15819595D01*
X12214237Y-15806503D01*
X12311263Y-15750485D01*
X12390485Y-15671263D01*
X12446503Y-15574237D01*
X12475500Y-15466018D01*
X12475500Y-15353982D01*
X12446503Y-15245763D01*
X12390485Y-15148737D01*
X12390484Y-15148736D01*
X12390483Y-15148734D01*
X12311265Y-15069516D01*
X12214238Y-15013497D01*
X12214234Y-15013496D01*
X12106020Y-14984500D01*
X12106018Y-14984500D01*
X12066729Y-14984500D01*
X12015949Y-14966018D01*
X11990421Y-14925947D01*
X11986752Y-14912256D01*
X11972226Y-14858043D01*
X11919500Y-14766718D01*
X11919499Y-14766717D01*
X11919498Y-14766715D01*
X11844935Y-14692152D01*
X11844587Y-14691885D01*
X11836821Y-14685073D01*
X11811265Y-14659516D01*
X11714238Y-14603497D01*
X11714234Y-14603496D01*
X11606020Y-14574500D01*
X11606018Y-14574500D01*
X11493982Y-14574500D01*
X11493979Y-14574500D01*
X11385765Y-14603496D01*
X11385761Y-14603497D01*
X11288734Y-14659516D01*
X11209516Y-14738734D01*
X11153496Y-14835762D01*
X11138478Y-14891811D01*
X11118031Y-14927224D01*
X10615317Y-15429938D01*
X10562589Y-15521264D01*
X10562588Y-15521268D01*
X10550790Y-15565301D01*
X10535296Y-15623124D01*
X10535296Y-18713663D01*
X10562588Y-18815518D01*
X10562589Y-18815522D01*
X10578948Y-18843856D01*
X10607544Y-18893386D01*
X10608916Y-18895761D01*
X10619500Y-18935261D01*
X10619500Y-20003357D01*
X10631132Y-20061840D01*
X10642409Y-20078716D01*
X10675448Y-20128162D01*
X10741769Y-20172477D01*
X10741768Y-20172477D01*
X10800252Y-20184110D01*
X11139747Y-20184110D01*
X11139748Y-20184110D01*
X11198231Y-20172477D01*
X11198232Y-20172476D01*
X11204587Y-20171212D01*
X11235413Y-20171212D01*
X11241767Y-20172476D01*
X11241769Y-20172477D01*
X11300252Y-20184110D01*
X11540500Y-20184110D01*
X11559787Y-20191129D01*
X11580000Y-20194694D01*
X11584581Y-20200154D01*
X11591280Y-20202592D01*
X11601541Y-20220366D01*
X11614736Y-20236090D01*
X11616545Y-20246353D01*
X11618300Y-20249392D01*
X11619500Y-20263110D01*
X11619500Y-20303705D01*
X11601018Y-20354485D01*
X11596361Y-20359566D01*
X11439531Y-20516395D01*
X11430948Y-20531262D01*
X11410955Y-20565892D01*
X11407342Y-20572150D01*
X11393385Y-20596324D01*
X11369500Y-20685463D01*
X11369500Y-20704110D01*
X11351018Y-20754890D01*
X11304218Y-20781910D01*
X11290500Y-20783110D01*
X11050252Y-20783110D01*
X10985412Y-20796007D01*
X10954588Y-20796007D01*
X10889748Y-20783110D01*
X10550252Y-20783110D01*
X10491769Y-20794742D01*
X10425448Y-20839058D01*
X10381132Y-20905379D01*
X10369500Y-20963862D01*
X10369500Y-21600861D01*
X10351018Y-21651641D01*
X10346361Y-21656722D01*
X10319516Y-21683566D01*
X10263497Y-21780593D01*
X10263496Y-21780597D01*
X10234500Y-21888811D01*
X10234500Y-22000852D01*
X10263496Y-22109066D01*
X10263497Y-22109071D01*
X10273438Y-22126288D01*
X10275992Y-22140773D01*
X10283086Y-22153662D01*
X10280539Y-22166558D01*
X10282822Y-22179506D01*
X10275466Y-22192246D01*
X10272616Y-22206678D01*
X10258291Y-22221993D01*
X10255802Y-22226305D01*
X10254554Y-22227330D01*
X10252488Y-22228992D01*
X10217945Y-22253181D01*
X10199426Y-22271698D01*
X10196105Y-22274372D01*
X10194170Y-22275031D01*
X10186073Y-22281245D01*
X10153924Y-22299806D01*
X10134873Y-22307698D01*
X10111280Y-22314020D01*
X10099010Y-22317308D01*
X10078563Y-22320000D01*
X10041441Y-22320000D01*
X10020994Y-22317308D01*
X9985126Y-22307697D01*
X9966079Y-22299808D01*
X9962178Y-22297556D01*
X9898723Y-22269968D01*
X9898721Y-22269967D01*
X9898718Y-22269966D01*
X9864723Y-22259575D01*
X9828659Y-22252511D01*
X9782379Y-22224612D01*
X9764860Y-22173491D01*
X9784300Y-22123069D01*
X9787976Y-22119132D01*
X9789464Y-22117645D01*
X9888013Y-21970157D01*
X9955894Y-21806276D01*
X9990500Y-21632301D01*
X9990500Y-21454919D01*
X9972388Y-21363862D01*
X9955894Y-21280943D01*
X9955893Y-21280941D01*
X9903681Y-21154890D01*
X9888013Y-21117063D01*
X9809714Y-20999881D01*
X9789465Y-20969576D01*
X9789459Y-20969569D01*
X9787184Y-20967294D01*
X9764346Y-20918318D01*
X9778332Y-20866120D01*
X9822596Y-20835126D01*
X9842135Y-20829891D01*
X9973365Y-20754125D01*
X10080515Y-20646975D01*
X10156281Y-20515745D01*
X10195500Y-20369376D01*
X10195500Y-20217844D01*
X10156281Y-20071475D01*
X10138897Y-20041366D01*
X10122202Y-20012449D01*
X10080515Y-19940245D01*
X10080514Y-19940244D01*
X10080513Y-19940242D01*
X9973367Y-19833096D01*
X9842136Y-19757329D01*
X9842132Y-19757328D01*
X9695768Y-19718110D01*
X9695766Y-19718110D01*
X9544234Y-19718110D01*
X9544231Y-19718110D01*
X9397867Y-19757328D01*
X9397863Y-19757329D01*
X9266632Y-19833096D01*
X9159486Y-19940242D01*
X9083719Y-20071473D01*
X9083718Y-20071477D01*
X9044500Y-20217841D01*
X9044500Y-20369378D01*
X9083718Y-20515742D01*
X9083719Y-20515746D01*
X9088837Y-20524610D01*
X9098221Y-20577828D01*
X9071201Y-20624628D01*
X9020421Y-20643110D01*
X9001309Y-20643110D01*
X8827333Y-20677715D01*
X8827331Y-20677716D01*
X8663456Y-20745595D01*
X8663451Y-20745598D01*
X8515966Y-20844144D01*
X8515959Y-20844150D01*
X8390540Y-20969569D01*
X8390534Y-20969576D01*
X8331452Y-21058000D01*
X8287872Y-21089954D01*
X8265766Y-21093110D01*
X7662935Y-21093110D01*
X7612155Y-21074628D01*
X7607074Y-21069971D01*
X6076616Y-19539512D01*
X5973888Y-19480201D01*
X5973883Y-19480199D01*
X5948453Y-19473386D01*
X5948452Y-19473385D01*
X5948452Y-19473386D01*
X5859309Y-19449500D01*
X5348171Y-19449500D01*
X5297391Y-19431018D01*
X5273604Y-19396592D01*
X5252794Y-19337120D01*
X5252792Y-19337117D01*
X5172150Y-19227849D01*
X5062882Y-19147207D01*
X5062879Y-19147205D01*
X4934699Y-19102354D01*
X4934696Y-19102353D01*
X4916278Y-19100626D01*
X4904266Y-19099500D01*
X3895734Y-19099500D01*
X3884601Y-19100544D01*
X3865303Y-19102353D01*
X3865300Y-19102354D01*
X3737120Y-19147205D01*
X3737117Y-19147207D01*
X3627849Y-19227849D01*
X3547207Y-19337117D01*
X3547204Y-19337121D01*
X3513275Y-19434091D01*
X3479058Y-19475918D01*
X3438708Y-19487000D01*
X3268797Y-19487000D01*
X3218017Y-19468518D01*
X3194230Y-19434092D01*
X3177794Y-19387120D01*
X3177792Y-19387117D01*
X3097150Y-19277849D01*
X2987882Y-19197207D01*
X2987879Y-19197205D01*
X2859699Y-19152354D01*
X2859696Y-19152353D01*
X2841278Y-19150626D01*
X2829266Y-19149500D01*
X1770734Y-19149500D01*
X1760892Y-19150423D01*
X1740303Y-19152353D01*
X1740300Y-19152354D01*
X1612120Y-19197205D01*
X1612117Y-19197207D01*
X1502849Y-19277849D01*
X1422207Y-19387117D01*
X1422205Y-19387120D01*
X1377354Y-19515300D01*
X1377353Y-19515303D01*
X1375401Y-19536124D01*
X1375084Y-19539512D01*
X1374500Y-19545738D01*
X1374500Y-20329261D01*
X1377353Y-20359696D01*
X1377354Y-20359699D01*
X1422205Y-20487879D01*
X1422207Y-20487882D01*
X1502849Y-20597150D01*
X1571103Y-20647523D01*
X1612012Y-20677715D01*
X1612117Y-20677792D01*
X1612120Y-20677794D01*
X1652610Y-20691961D01*
X1740301Y-20722646D01*
X1770734Y-20725500D01*
X1770739Y-20725500D01*
X2829261Y-20725500D01*
X2829266Y-20725500D01*
X2859699Y-20722646D01*
X2987882Y-20677793D01*
X3097150Y-20597150D01*
X3177793Y-20487882D01*
X3190761Y-20450822D01*
X3194230Y-20440908D01*
X3228447Y-20399082D01*
X3268797Y-20388000D01*
X3464951Y-20388000D01*
X3515731Y-20406482D01*
X3539518Y-20440909D01*
X3547205Y-20462878D01*
X3547207Y-20462882D01*
X3627849Y-20572150D01*
X3705248Y-20629272D01*
X3729977Y-20647523D01*
X3737117Y-20652792D01*
X3737120Y-20652794D01*
X3767614Y-20663464D01*
X3865301Y-20697646D01*
X3895734Y-20700500D01*
X3895739Y-20700500D01*
X4904261Y-20700500D01*
X4904266Y-20700500D01*
X4934699Y-20697646D01*
X5062882Y-20652793D01*
X5172150Y-20572150D01*
X5252793Y-20462882D01*
X5273604Y-20403408D01*
X5307821Y-20361582D01*
X5348171Y-20350500D01*
X5580675Y-20350500D01*
X5631455Y-20368982D01*
X5636536Y-20373639D01*
X7166995Y-21904099D01*
X7253713Y-21954165D01*
X7253714Y-21954166D01*
X7269718Y-21963406D01*
X7269724Y-21963409D01*
X7384301Y-21994110D01*
X8265766Y-21994110D01*
X8316546Y-22012592D01*
X8331451Y-22029219D01*
X8334145Y-22033250D01*
X8346988Y-22085741D01*
X8323087Y-22134207D01*
X8273624Y-22155970D01*
X8267647Y-22156135D01*
X8218421Y-22155629D01*
X8112532Y-22192943D01*
X8065733Y-22219963D01*
X8065728Y-22219966D01*
X7988534Y-22283402D01*
X7931405Y-22380048D01*
X7912923Y-22430827D01*
X7894500Y-22535310D01*
X7894500Y-26295326D01*
X7901274Y-26350500D01*
X7903575Y-26369235D01*
X7904606Y-26373370D01*
X7912820Y-26406317D01*
X7912821Y-26406321D01*
X7912822Y-26406323D01*
X7936619Y-26470272D01*
X8004829Y-26559448D01*
X8004832Y-26559450D01*
X8004834Y-26559453D01*
X8044982Y-26595603D01*
X8044987Y-26595606D01*
X8044988Y-26595607D01*
X8048234Y-26597682D01*
X8129167Y-26649418D01*
X8131441Y-26649926D01*
X8133403Y-26651180D01*
X8135546Y-26652072D01*
X8135388Y-26652449D01*
X8176971Y-26679033D01*
X8193139Y-26730597D01*
X8172380Y-26780490D01*
X8158115Y-26792709D01*
X8155966Y-26794144D01*
X8155959Y-26794150D01*
X8030540Y-26919569D01*
X8030534Y-26919576D01*
X7931988Y-27067061D01*
X7931985Y-27067066D01*
X7864106Y-27230941D01*
X7864105Y-27230943D01*
X7829500Y-27404919D01*
X7829500Y-27582300D01*
X7864105Y-27756276D01*
X7864106Y-27756278D01*
X7920115Y-27891495D01*
X7931987Y-27920157D01*
X7964836Y-27969319D01*
X8030534Y-28067643D01*
X8030540Y-28067650D01*
X8155959Y-28193069D01*
X8155966Y-28193075D01*
X8185984Y-28213132D01*
X8303453Y-28291623D01*
X8314969Y-28296393D01*
X8438386Y-28347514D01*
X8478228Y-28384022D01*
X8485281Y-28437599D01*
X8456246Y-28483175D01*
X8408154Y-28499500D01*
X1004435Y-28499500D01*
X995589Y-28499003D01*
X897696Y-28487972D01*
X880450Y-28484036D01*
X791676Y-28452973D01*
X775738Y-28445297D01*
X696101Y-28395258D01*
X682270Y-28384228D01*
X615771Y-28317729D01*
X604741Y-28303898D01*
X554702Y-28224261D01*
X547026Y-28208323D01*
X542652Y-28195823D01*
X515962Y-28119547D01*
X512027Y-28102302D01*
X500997Y-28004409D01*
X500500Y-27995564D01*
X500500Y-24621291D01*
X2149499Y-24621291D01*
X2181160Y-24861781D01*
X2243943Y-25096092D01*
X2243944Y-25096095D01*
X2336776Y-25320213D01*
X2393532Y-25418517D01*
X2458064Y-25530289D01*
X2552952Y-25653950D01*
X2605733Y-25722736D01*
X2605738Y-25722742D01*
X2777257Y-25894261D01*
X2777262Y-25894265D01*
X2969711Y-26041936D01*
X3179788Y-26163224D01*
X3403900Y-26256054D01*
X3638211Y-26318838D01*
X3638217Y-26318838D01*
X3638218Y-26318839D01*
X3878708Y-26350500D01*
X3878712Y-26350500D01*
X4121291Y-26350500D01*
X4361781Y-26318839D01*
X4361780Y-26318839D01*
X4361789Y-26318838D01*
X4596100Y-26256054D01*
X4820212Y-26163224D01*
X5030289Y-26041936D01*
X5222738Y-25894265D01*
X5394265Y-25722738D01*
X5541936Y-25530289D01*
X5663224Y-25320212D01*
X5756054Y-25096100D01*
X5818838Y-24861789D01*
X5834347Y-24743982D01*
X5850500Y-24621291D01*
X5850500Y-24378708D01*
X5818839Y-24138218D01*
X5818838Y-24138217D01*
X5818838Y-24138211D01*
X5763392Y-23931284D01*
X5756056Y-23903907D01*
X5756055Y-23903904D01*
X5756054Y-23903900D01*
X5663224Y-23679788D01*
X5656897Y-23668830D01*
X5617447Y-23600500D01*
X5541936Y-23469711D01*
X5394265Y-23277262D01*
X5394261Y-23277257D01*
X5222742Y-23105738D01*
X5222736Y-23105733D01*
X5111884Y-23020674D01*
X5030289Y-22958064D01*
X5026834Y-22956069D01*
X4820213Y-22836776D01*
X4596095Y-22743944D01*
X4596092Y-22743943D01*
X4395431Y-22690176D01*
X4361789Y-22681162D01*
X4361787Y-22681161D01*
X4361781Y-22681160D01*
X4121291Y-22649500D01*
X4121288Y-22649500D01*
X3878712Y-22649500D01*
X3878709Y-22649500D01*
X3638218Y-22681160D01*
X3403907Y-22743943D01*
X3403904Y-22743944D01*
X3179786Y-22836776D01*
X2969715Y-22958061D01*
X2777263Y-23105733D01*
X2777257Y-23105738D01*
X2605738Y-23277257D01*
X2605733Y-23277263D01*
X2493610Y-23423386D01*
X2462858Y-23463464D01*
X2458061Y-23469715D01*
X2336776Y-23679786D01*
X2243944Y-23903904D01*
X2243943Y-23903907D01*
X2181160Y-24138218D01*
X2149500Y-24378708D01*
X2149500Y-24378712D01*
X2149500Y-24621288D01*
X2149500Y-24621291D01*
X2149499Y-24621291D01*
X500500Y-24621291D01*
X500500Y-16695738D01*
X5499500Y-16695738D01*
X5499500Y-17629261D01*
X5502353Y-17659696D01*
X5502354Y-17659699D01*
X5547205Y-17787879D01*
X5547207Y-17787882D01*
X5627849Y-17897150D01*
X5664576Y-17924255D01*
X5734340Y-17975743D01*
X5737117Y-17977792D01*
X5737120Y-17977794D01*
X5766654Y-17988128D01*
X5865301Y-18022646D01*
X5895734Y-18025500D01*
X5895739Y-18025500D01*
X7304261Y-18025500D01*
X7304266Y-18025500D01*
X7334699Y-18022646D01*
X7462882Y-17977793D01*
X7572150Y-17897150D01*
X7652793Y-17787882D01*
X7695473Y-17665907D01*
X7729690Y-17624082D01*
X7770040Y-17613000D01*
X8196808Y-17613000D01*
X8196809Y-17613000D01*
X8272354Y-17592756D01*
X8287170Y-17588787D01*
X8287170Y-17588786D01*
X8287173Y-17588786D01*
X8311387Y-17582299D01*
X8414114Y-17522989D01*
X9113464Y-16823639D01*
X9162440Y-16800801D01*
X9169325Y-16800500D01*
X9179055Y-16800500D01*
X9179057Y-16800500D01*
X9331784Y-16759577D01*
X9468716Y-16680520D01*
X9580520Y-16568716D01*
X9659577Y-16431784D01*
X9700500Y-16279057D01*
X9700500Y-16120943D01*
X9659577Y-15968216D01*
X9580520Y-15831284D01*
X9580519Y-15831283D01*
X9580518Y-15831281D01*
X9468718Y-15719481D01*
X9331785Y-15640423D01*
X9331783Y-15640422D01*
X9179057Y-15599500D01*
X9020943Y-15599500D01*
X9020942Y-15599500D01*
X8868216Y-15640422D01*
X8868214Y-15640423D01*
X8731281Y-15719481D01*
X8619481Y-15831281D01*
X8540423Y-15968214D01*
X8540422Y-15968216D01*
X8499500Y-16120942D01*
X8499500Y-16130675D01*
X8481018Y-16181455D01*
X8476361Y-16186536D01*
X7974036Y-16688861D01*
X7958408Y-16696148D01*
X7945195Y-16707236D01*
X7928208Y-16710231D01*
X7925060Y-16711699D01*
X7918175Y-16712000D01*
X7770040Y-16712000D01*
X7719260Y-16693518D01*
X7695473Y-16659092D01*
X7682124Y-16620943D01*
X7660284Y-16558527D01*
X7652794Y-16537120D01*
X7652792Y-16537117D01*
X7647170Y-16529500D01*
X7614469Y-16485190D01*
X7572150Y-16427849D01*
X7462882Y-16347207D01*
X7462879Y-16347205D01*
X7334699Y-16302354D01*
X7334696Y-16302353D01*
X7316278Y-16300626D01*
X7304266Y-16299500D01*
X5895734Y-16299500D01*
X5884601Y-16300544D01*
X5865303Y-16302353D01*
X5865300Y-16302354D01*
X5737120Y-16347205D01*
X5737117Y-16347207D01*
X5627849Y-16427849D01*
X5547207Y-16537117D01*
X5547205Y-16537120D01*
X5502354Y-16665300D01*
X5502353Y-16665303D01*
X5499500Y-16695738D01*
X500500Y-16695738D01*
X500500Y-12918597D01*
X1173500Y-12918597D01*
X1173500Y-13081403D01*
X1177455Y-13101285D01*
X1197558Y-13202354D01*
X1205262Y-13241081D01*
X1267565Y-13391495D01*
X1267566Y-13391496D01*
X1358014Y-13526861D01*
X1358020Y-13526868D01*
X1473131Y-13641979D01*
X1473138Y-13641985D01*
X1487805Y-13651785D01*
X1608505Y-13732435D01*
X1758919Y-13794738D01*
X1918597Y-13826500D01*
X2081403Y-13826500D01*
X2241081Y-13794738D01*
X2391495Y-13732435D01*
X2526863Y-13641984D01*
X2641984Y-13526863D01*
X2732435Y-13391495D01*
X2794738Y-13241081D01*
X2826500Y-13081403D01*
X2826500Y-12918597D01*
X2816478Y-12868214D01*
X2795532Y-12762909D01*
X2794738Y-12758921D01*
X2794738Y-12758919D01*
X2790774Y-12749348D01*
X8119500Y-12749348D01*
X8119500Y-13557871D01*
X8122353Y-13588306D01*
X8122354Y-13588309D01*
X8167205Y-13716489D01*
X8167207Y-13716492D01*
X8247849Y-13825760D01*
X8357117Y-13906402D01*
X8357120Y-13906404D01*
X8397610Y-13920571D01*
X8485301Y-13951256D01*
X8485307Y-13951256D01*
X8487355Y-13951704D01*
X8488310Y-13952308D01*
X8489838Y-13952843D01*
X8489714Y-13953196D01*
X8497812Y-13958320D01*
X8510000Y-13960469D01*
X8519946Y-13972322D01*
X8533023Y-13980595D01*
X8537227Y-13992916D01*
X8544736Y-14001865D01*
X8549500Y-14028885D01*
X8549500Y-14068541D01*
X8531018Y-14119321D01*
X8526361Y-14124402D01*
X8419481Y-14231281D01*
X8340423Y-14368214D01*
X8340422Y-14368216D01*
X8299500Y-14520942D01*
X8299500Y-14679057D01*
X8340422Y-14831783D01*
X8340423Y-14831785D01*
X8419481Y-14968718D01*
X8531281Y-15080518D01*
X8531283Y-15080519D01*
X8531284Y-15080520D01*
X8668216Y-15159577D01*
X8820943Y-15200500D01*
X8820945Y-15200500D01*
X8979055Y-15200500D01*
X8979057Y-15200500D01*
X9131784Y-15159577D01*
X9268716Y-15080520D01*
X9380520Y-14968716D01*
X9459577Y-14831784D01*
X9500500Y-14679057D01*
X9500500Y-14520943D01*
X9459577Y-14368216D01*
X9380520Y-14231284D01*
X9380519Y-14231283D01*
X9380518Y-14231281D01*
X9273639Y-14124402D01*
X9266351Y-14108774D01*
X9255264Y-14095561D01*
X9252268Y-14078574D01*
X9250801Y-14075426D01*
X9250500Y-14068541D01*
X9250500Y-14033110D01*
X9268982Y-13982330D01*
X9315782Y-13955310D01*
X9329500Y-13954110D01*
X9524261Y-13954110D01*
X9524266Y-13954110D01*
X9554699Y-13951256D01*
X9682882Y-13906403D01*
X9792150Y-13825760D01*
X9872793Y-13716492D01*
X9917646Y-13588309D01*
X9920500Y-13557876D01*
X9920500Y-12749344D01*
X9917646Y-12718911D01*
X9879174Y-12608963D01*
X9872794Y-12590730D01*
X9872792Y-12590727D01*
X9872613Y-12590485D01*
X9814147Y-12511265D01*
X9792150Y-12481459D01*
X9682882Y-12400817D01*
X9682879Y-12400815D01*
X9554699Y-12355964D01*
X9554696Y-12355963D01*
X9536278Y-12354236D01*
X9524266Y-12353110D01*
X8515734Y-12353110D01*
X8504601Y-12354154D01*
X8485303Y-12355963D01*
X8485300Y-12355964D01*
X8357120Y-12400815D01*
X8357117Y-12400817D01*
X8247849Y-12481459D01*
X8167207Y-12590727D01*
X8167205Y-12590730D01*
X8122354Y-12718910D01*
X8122353Y-12718913D01*
X8119500Y-12749348D01*
X2790774Y-12749348D01*
X2732435Y-12608505D01*
X2658360Y-12497645D01*
X2641985Y-12473138D01*
X2641979Y-12473131D01*
X2526868Y-12358020D01*
X2526861Y-12358014D01*
X2417265Y-12284784D01*
X2391495Y-12267565D01*
X2241081Y-12205262D01*
X2241079Y-12205261D01*
X2241078Y-12205261D01*
X2081403Y-12173500D01*
X1918597Y-12173500D01*
X1758921Y-12205261D01*
X1712474Y-12224500D01*
X1613153Y-12265640D01*
X1608503Y-12267566D01*
X1473138Y-12358014D01*
X1473131Y-12358020D01*
X1358020Y-12473131D01*
X1358014Y-12473138D01*
X1267566Y-12608503D01*
X1205261Y-12758921D01*
X1183522Y-12868214D01*
X1173500Y-12918597D01*
X500500Y-12918597D01*
X500500Y-3828688D01*
X949500Y-3828688D01*
X949500Y-4171312D01*
X953918Y-4210520D01*
X987861Y-4511787D01*
X1064101Y-4845811D01*
X1064103Y-4845817D01*
X1177264Y-5169215D01*
X1258122Y-5337117D01*
X1325923Y-5477909D01*
X1364630Y-5539511D01*
X1455115Y-5683517D01*
X1508212Y-5768019D01*
X1721833Y-6035892D01*
X1721842Y-6035902D01*
X1964097Y-6278157D01*
X1964107Y-6278166D01*
X2231982Y-6491789D01*
X2522090Y-6674076D01*
X2830785Y-6822736D01*
X3154183Y-6935897D01*
X3488213Y-7012138D01*
X3488214Y-7012138D01*
X3488217Y-7012139D01*
X3671288Y-7032765D01*
X3683360Y-7038579D01*
X3695830Y-7039670D01*
X3718304Y-7055407D01*
X3726361Y-7063464D01*
X3749199Y-7112440D01*
X3749500Y-7119325D01*
X3749500Y-7399020D01*
X3731018Y-7449800D01*
X3684218Y-7476820D01*
X3663125Y-7477675D01*
X3646487Y-7476115D01*
X3629266Y-7474500D01*
X2570734Y-7474500D01*
X2559601Y-7475544D01*
X2540303Y-7477353D01*
X2540300Y-7477354D01*
X2412120Y-7522205D01*
X2412117Y-7522207D01*
X2302849Y-7602849D01*
X2222207Y-7712117D01*
X2222205Y-7712120D01*
X2177354Y-7840300D01*
X2177353Y-7840303D01*
X2174500Y-7870738D01*
X2174500Y-8654261D01*
X2177353Y-8684696D01*
X2177354Y-8684699D01*
X2222205Y-8812879D01*
X2222207Y-8812882D01*
X2302849Y-8922150D01*
X2412117Y-9002792D01*
X2412120Y-9002794D01*
X2452610Y-9016961D01*
X2540301Y-9047646D01*
X2570734Y-9050500D01*
X2570739Y-9050500D01*
X3629261Y-9050500D01*
X3629266Y-9050500D01*
X3659699Y-9047646D01*
X3787882Y-9002793D01*
X3897150Y-8922150D01*
X3977793Y-8812882D01*
X3978225Y-8811645D01*
X3981108Y-8803410D01*
X4015323Y-8761583D01*
X4055675Y-8750500D01*
X4140691Y-8750500D01*
X4251829Y-8750500D01*
X4302609Y-8768982D01*
X4326396Y-8803408D01*
X4347205Y-8862879D01*
X4347207Y-8862882D01*
X4427849Y-8972150D01*
X4469370Y-9002793D01*
X4532557Y-9049427D01*
X4537117Y-9052792D01*
X4537120Y-9052794D01*
X4550318Y-9057412D01*
X4665301Y-9097646D01*
X4695734Y-9100500D01*
X4695739Y-9100500D01*
X5704261Y-9100500D01*
X5704266Y-9100500D01*
X5734699Y-9097646D01*
X5862882Y-9052793D01*
X5972150Y-8972150D01*
X6052793Y-8862882D01*
X6097646Y-8734699D01*
X6100500Y-8704266D01*
X6100500Y-7895734D01*
X6097646Y-7865301D01*
X6052793Y-7737118D01*
X6028513Y-7704220D01*
X5972150Y-7627849D01*
X5862882Y-7547207D01*
X5862879Y-7547205D01*
X5734699Y-7502354D01*
X5734696Y-7502353D01*
X5714801Y-7500488D01*
X5704266Y-7499500D01*
X4729500Y-7499500D01*
X4678720Y-7481018D01*
X4651700Y-7434218D01*
X4650500Y-7420500D01*
X4650500Y-7043477D01*
X4668982Y-6992697D01*
X4711921Y-6966458D01*
X4787147Y-6949288D01*
X4845817Y-6935897D01*
X5169215Y-6822736D01*
X5477910Y-6674076D01*
X5768018Y-6491789D01*
X6035893Y-6278166D01*
X6278166Y-6035893D01*
X6491789Y-5768018D01*
X6674076Y-5477910D01*
X6822736Y-5169215D01*
X6935897Y-4845817D01*
X7012139Y-4511783D01*
X7050500Y-4171312D01*
X7050500Y-3828688D01*
X7012139Y-3488217D01*
X6935897Y-3154183D01*
X6822736Y-2830785D01*
X6674076Y-2522090D01*
X6491789Y-2231982D01*
X6278166Y-1964107D01*
X6278157Y-1964097D01*
X6035902Y-1721842D01*
X6035892Y-1721833D01*
X5816016Y-1546488D01*
X5768018Y-1508211D01*
X5582883Y-1391883D01*
X5477909Y-1325923D01*
X5356729Y-1267566D01*
X5169215Y-1177264D01*
X4845817Y-1064103D01*
X4845811Y-1064101D01*
X4511786Y-987861D01*
X4511788Y-987861D01*
X4268589Y-960460D01*
X4171312Y-949500D01*
X3828688Y-949500D01*
X3731410Y-960460D01*
X3488212Y-987861D01*
X3154188Y-1064101D01*
X3154182Y-1064103D01*
X2830790Y-1177262D01*
X2830788Y-1177262D01*
X2830785Y-1177264D01*
X2772649Y-1205261D01*
X2522090Y-1325923D01*
X2231980Y-1508212D01*
X1964107Y-1721833D01*
X1964097Y-1721842D01*
X1721842Y-1964097D01*
X1721833Y-1964107D01*
X1508212Y-2231980D01*
X1325923Y-2522090D01*
X1224628Y-2732433D01*
X1194624Y-2794738D01*
X1177262Y-2830790D01*
X1064103Y-3154182D01*
X1064101Y-3154188D01*
X987861Y-3488212D01*
X955893Y-3771942D01*
X949500Y-3828688D01*
X500500Y-3828688D01*
X500500Y-1004435D01*
X500997Y-995590D01*
X506190Y-949500D01*
X512027Y-897692D01*
X515961Y-880454D01*
X547027Y-791672D01*
X554702Y-775738D01*
X604741Y-696101D01*
X615767Y-682274D01*
X682274Y-615767D01*
X696101Y-604741D01*
X775738Y-554702D01*
X791672Y-547027D01*
X880454Y-515961D01*
X897694Y-512027D01*
X976109Y-503192D01*
X995590Y-500997D01*
X1004435Y-500500D01*
X1065892Y-500500D01*
X8078888Y-500500D01*
X8129668Y-518982D01*
G37*
%TD.AperFunction*%
%TA.AperFunction,Conductor*%
G36*
X28070555Y-14658526D02*
G01*
X28136107Y-14690573D01*
X28204240Y-14700500D01*
X28204244Y-14700500D01*
X29445756Y-14700500D01*
X29445760Y-14700500D01*
X29513893Y-14690573D01*
X29579444Y-14658526D01*
X29614140Y-14650500D01*
X29775596Y-14650500D01*
X29826376Y-14668982D01*
X29853396Y-14715782D01*
X29844012Y-14769000D01*
X29831457Y-14785361D01*
X29823305Y-14793512D01*
X29823302Y-14793516D01*
X29771927Y-14898604D01*
X29762000Y-14966738D01*
X29762000Y-15333261D01*
X29771927Y-15401395D01*
X29823302Y-15506483D01*
X29823305Y-15506487D01*
X29906012Y-15589194D01*
X29906016Y-15589197D01*
X29906017Y-15589198D01*
X29952467Y-15611906D01*
X30011104Y-15640572D01*
X30011105Y-15640572D01*
X30011107Y-15640573D01*
X30079240Y-15650500D01*
X31180675Y-15650500D01*
X31231455Y-15668982D01*
X31236536Y-15673639D01*
X32276361Y-16713464D01*
X32299199Y-16762440D01*
X32299500Y-16769325D01*
X32299500Y-16779057D01*
X32340422Y-16931783D01*
X32340423Y-16931785D01*
X32419479Y-17068715D01*
X32419480Y-17068716D01*
X32426359Y-17075595D01*
X32449199Y-17124569D01*
X32449500Y-17131458D01*
X32449500Y-17768541D01*
X32431018Y-17819321D01*
X32426361Y-17824402D01*
X32419481Y-17831281D01*
X32340423Y-17968214D01*
X32340422Y-17968216D01*
X32299500Y-18120942D01*
X32299500Y-18130675D01*
X32281018Y-18181455D01*
X32276361Y-18186536D01*
X31825861Y-18637036D01*
X31807263Y-18645708D01*
X31790447Y-18657483D01*
X31783344Y-18656861D01*
X31776885Y-18659874D01*
X31757059Y-18654561D01*
X31736613Y-18652773D01*
X31728078Y-18646796D01*
X31724687Y-18645888D01*
X31714139Y-18637036D01*
X31655538Y-18578435D01*
X31633224Y-18533964D01*
X31628073Y-18498607D01*
X31618638Y-18479308D01*
X31576698Y-18393518D01*
X31576698Y-18393517D01*
X31576696Y-18393515D01*
X31576694Y-18393512D01*
X31493987Y-18310805D01*
X31493983Y-18310802D01*
X31388895Y-18259427D01*
X31320761Y-18249500D01*
X31320760Y-18249500D01*
X30079240Y-18249500D01*
X30079238Y-18249500D01*
X30011104Y-18259427D01*
X29906016Y-18310802D01*
X29906012Y-18310805D01*
X29823305Y-18393512D01*
X29823302Y-18393516D01*
X29771927Y-18498604D01*
X29762000Y-18566738D01*
X29762000Y-18933261D01*
X29771927Y-19001395D01*
X29823302Y-19106483D01*
X29823305Y-19106487D01*
X29906012Y-19189194D01*
X29906016Y-19189197D01*
X29906017Y-19189198D01*
X29960953Y-19216054D01*
X30011104Y-19240572D01*
X30011105Y-19240572D01*
X30011107Y-19240573D01*
X30079240Y-19250500D01*
X31020675Y-19250500D01*
X31071455Y-19268982D01*
X31076536Y-19273639D01*
X31296361Y-19493464D01*
X31319199Y-19542440D01*
X31319500Y-19549325D01*
X31319500Y-21223994D01*
X31306186Y-21267884D01*
X31281133Y-21305377D01*
X31281132Y-21305378D01*
X31269500Y-21363862D01*
X31269500Y-22853358D01*
X31277851Y-22895345D01*
X31269630Y-22948755D01*
X31229001Y-22984385D01*
X31220816Y-22987064D01*
X31107865Y-23017328D01*
X31107863Y-23017329D01*
X30976632Y-23093096D01*
X30869486Y-23200242D01*
X30793719Y-23331473D01*
X30793718Y-23331477D01*
X30755808Y-23472962D01*
X30724813Y-23517229D01*
X30672615Y-23531215D01*
X30623639Y-23508378D01*
X30600801Y-23459402D01*
X30600500Y-23452516D01*
X30600500Y-22404617D01*
X30573580Y-22269281D01*
X30573579Y-22269279D01*
X30526328Y-22155206D01*
X30520775Y-22141799D01*
X30464049Y-22056903D01*
X30444115Y-22027069D01*
X30444109Y-22027062D01*
X30346547Y-21929500D01*
X30346540Y-21929494D01*
X30231811Y-21852835D01*
X30231805Y-21852832D01*
X30104330Y-21800030D01*
X30104328Y-21800029D01*
X29968993Y-21773110D01*
X29831007Y-21773110D01*
X29695671Y-21800029D01*
X29695669Y-21800030D01*
X29568194Y-21852832D01*
X29568188Y-21852835D01*
X29453459Y-21929494D01*
X29453452Y-21929500D01*
X29355890Y-22027062D01*
X29355884Y-22027069D01*
X29279225Y-22141798D01*
X29279222Y-22141804D01*
X29226420Y-22269279D01*
X29226419Y-22269281D01*
X29199500Y-22404617D01*
X29199500Y-23642602D01*
X29226419Y-23777938D01*
X29226420Y-23777940D01*
X29279222Y-23905415D01*
X29279225Y-23905421D01*
X29311736Y-23954077D01*
X29324580Y-24006568D01*
X29300679Y-24055034D01*
X29251217Y-24076798D01*
X29245240Y-24076963D01*
X29218422Y-24076687D01*
X29218421Y-24076687D01*
X29112532Y-24114001D01*
X29065733Y-24141021D01*
X29065728Y-24141024D01*
X28988534Y-24204460D01*
X28931405Y-24301106D01*
X28912923Y-24351885D01*
X28894500Y-24456368D01*
X28894500Y-26020876D01*
X28894661Y-26030791D01*
X28894834Y-26036057D01*
X28894976Y-26039727D01*
X28894977Y-26039731D01*
X28920542Y-26149053D01*
X28926777Y-26163224D01*
X28942309Y-26198521D01*
X28996957Y-26282155D01*
X29086810Y-26349467D01*
X29086813Y-26349469D01*
X29135279Y-26373370D01*
X29230909Y-26402313D01*
X29240760Y-26401768D01*
X29292480Y-26417420D01*
X29322041Y-26462657D01*
X29315609Y-26516312D01*
X29310804Y-26524537D01*
X29279224Y-26571800D01*
X29279222Y-26571804D01*
X29226420Y-26699279D01*
X29226419Y-26699281D01*
X29207549Y-26794150D01*
X29199500Y-26834617D01*
X29199500Y-27572603D01*
X29201429Y-27582300D01*
X29226419Y-27707938D01*
X29226420Y-27707940D01*
X29279222Y-27835415D01*
X29279225Y-27835421D01*
X29355884Y-27950150D01*
X29355890Y-27950157D01*
X29453452Y-28047719D01*
X29453458Y-28047724D01*
X29568189Y-28124385D01*
X29568194Y-28124387D01*
X29695669Y-28177189D01*
X29695671Y-28177190D01*
X29831007Y-28204110D01*
X29968993Y-28204110D01*
X30022241Y-28193518D01*
X30075651Y-28201738D01*
X30111281Y-28242367D01*
X30112461Y-28296393D01*
X30111607Y-28298780D01*
X30100653Y-28327939D01*
X30100651Y-28327947D01*
X30100651Y-28327949D01*
X30091267Y-28381167D01*
X30091266Y-28381173D01*
X30090855Y-28421310D01*
X30071853Y-28471898D01*
X30024779Y-28498436D01*
X30011859Y-28499500D01*
X18031846Y-28499500D01*
X17981066Y-28481018D01*
X17954046Y-28434218D01*
X17963430Y-28381000D01*
X18001614Y-28347514D01*
X18073521Y-28317729D01*
X18136547Y-28291623D01*
X18284035Y-28193074D01*
X18409464Y-28067645D01*
X18508013Y-27920157D01*
X18575894Y-27756276D01*
X18610500Y-27582301D01*
X18610500Y-27418597D01*
X25173500Y-27418597D01*
X25173500Y-27581403D01*
X25205262Y-27741081D01*
X25267565Y-27891495D01*
X25267566Y-27891496D01*
X25358014Y-28026861D01*
X25358020Y-28026868D01*
X25473131Y-28141979D01*
X25473137Y-28141984D01*
X25608505Y-28232435D01*
X25758919Y-28294738D01*
X25918597Y-28326500D01*
X26081403Y-28326500D01*
X26241081Y-28294738D01*
X26391495Y-28232435D01*
X26526863Y-28141984D01*
X26641984Y-28026863D01*
X26732435Y-27891495D01*
X26794738Y-27741081D01*
X26826500Y-27581403D01*
X26826500Y-27418597D01*
X26794738Y-27258919D01*
X26732435Y-27108505D01*
X26660267Y-27000499D01*
X26641985Y-26973138D01*
X26641979Y-26973131D01*
X26526868Y-26858020D01*
X26526861Y-26858014D01*
X26410838Y-26780490D01*
X26391495Y-26767565D01*
X26241081Y-26705262D01*
X26241079Y-26705261D01*
X26241078Y-26705261D01*
X26081403Y-26673500D01*
X25918597Y-26673500D01*
X25758921Y-26705261D01*
X25608503Y-26767566D01*
X25473138Y-26858014D01*
X25473131Y-26858020D01*
X25358020Y-26973131D01*
X25358014Y-26973138D01*
X25267566Y-27108503D01*
X25205261Y-27258921D01*
X25176221Y-27404919D01*
X25173500Y-27418597D01*
X18610500Y-27418597D01*
X18610500Y-27404919D01*
X18575894Y-27230944D01*
X18508013Y-27067063D01*
X18409464Y-26919575D01*
X18409459Y-26919569D01*
X18284040Y-26794150D01*
X18284037Y-26794148D01*
X18284035Y-26794146D01*
X18250471Y-26771719D01*
X18218518Y-26728138D01*
X18222053Y-26674215D01*
X18259422Y-26635180D01*
X18268096Y-26631528D01*
X18287468Y-26624702D01*
X18334268Y-26597682D01*
X18411465Y-26534245D01*
X18468595Y-26437596D01*
X18487077Y-26386816D01*
X18505500Y-26282331D01*
X18505500Y-24424198D01*
X18523982Y-24373418D01*
X18570782Y-24346398D01*
X18624000Y-24355782D01*
X18629859Y-24359697D01*
X18631283Y-24360519D01*
X18631284Y-24360520D01*
X18712066Y-24407159D01*
X18741578Y-24424198D01*
X18768216Y-24439577D01*
X18920943Y-24480500D01*
X18930675Y-24480500D01*
X18981455Y-24498982D01*
X18986536Y-24503639D01*
X20526361Y-26043464D01*
X20549199Y-26092440D01*
X20549500Y-26099325D01*
X20549500Y-26683261D01*
X20559427Y-26751395D01*
X20610802Y-26856483D01*
X20610805Y-26856487D01*
X20693512Y-26939194D01*
X20693516Y-26939197D01*
X20693517Y-26939198D01*
X20748453Y-26966054D01*
X20798604Y-26990572D01*
X20798605Y-26990572D01*
X20798607Y-26990573D01*
X20866740Y-27000500D01*
X20866744Y-27000500D01*
X21233256Y-27000500D01*
X21233260Y-27000500D01*
X21301393Y-26990573D01*
X21406483Y-26939198D01*
X21489198Y-26856483D01*
X21540573Y-26751393D01*
X21550500Y-26683260D01*
X21550500Y-25591740D01*
X21540573Y-25523607D01*
X21489198Y-25418517D01*
X21489196Y-25418515D01*
X21489194Y-25418512D01*
X21406487Y-25335805D01*
X21406483Y-25335802D01*
X21301395Y-25284427D01*
X21233261Y-25274500D01*
X21233260Y-25274500D01*
X21064326Y-25274500D01*
X21013546Y-25256018D01*
X21008465Y-25251361D01*
X20164263Y-24407159D01*
X20141425Y-24358183D01*
X20155411Y-24305985D01*
X20199677Y-24274990D01*
X20244642Y-24276199D01*
X20252479Y-24278757D01*
X20258613Y-24282299D01*
X20282826Y-24288786D01*
X20373191Y-24313000D01*
X20470500Y-24313000D01*
X20521280Y-24331482D01*
X20548300Y-24378282D01*
X20549500Y-24392000D01*
X20549500Y-24408261D01*
X20559427Y-24476395D01*
X20610802Y-24581483D01*
X20610805Y-24581487D01*
X20693512Y-24664194D01*
X20693516Y-24664197D01*
X20693517Y-24664198D01*
X20748453Y-24691054D01*
X20798604Y-24715572D01*
X20798605Y-24715572D01*
X20798607Y-24715573D01*
X20866740Y-24725500D01*
X20866744Y-24725500D01*
X21233256Y-24725500D01*
X21233260Y-24725500D01*
X21301393Y-24715573D01*
X21406483Y-24664198D01*
X21406487Y-24664194D01*
X21469139Y-24601543D01*
X21518115Y-24578705D01*
X21570313Y-24592691D01*
X21580861Y-24601543D01*
X21643512Y-24664194D01*
X21643516Y-24664197D01*
X21643517Y-24664198D01*
X21698453Y-24691054D01*
X21748604Y-24715572D01*
X21748605Y-24715572D01*
X21748607Y-24715573D01*
X21816740Y-24725500D01*
X21816744Y-24725500D01*
X22183256Y-24725500D01*
X22183260Y-24725500D01*
X22251393Y-24715573D01*
X22356483Y-24664198D01*
X22356487Y-24664194D01*
X22419139Y-24601543D01*
X22468115Y-24578705D01*
X22520313Y-24592691D01*
X22530861Y-24601543D01*
X22593512Y-24664194D01*
X22593516Y-24664197D01*
X22593517Y-24664198D01*
X22648453Y-24691054D01*
X22698604Y-24715572D01*
X22698605Y-24715572D01*
X22698607Y-24715573D01*
X22766740Y-24725500D01*
X22766744Y-24725500D01*
X22946674Y-24725500D01*
X22997454Y-24743982D01*
X23024474Y-24790782D01*
X23015090Y-24844000D01*
X23002535Y-24860361D01*
X22589512Y-25273383D01*
X22530200Y-25376114D01*
X22530200Y-25376116D01*
X22527257Y-25387097D01*
X22512903Y-25411978D01*
X22514604Y-25413192D01*
X22510803Y-25418515D01*
X22459427Y-25523604D01*
X22449500Y-25591738D01*
X22449500Y-26683261D01*
X22459427Y-26751395D01*
X22510802Y-26856483D01*
X22510805Y-26856487D01*
X22593512Y-26939194D01*
X22593516Y-26939197D01*
X22593517Y-26939198D01*
X22648453Y-26966054D01*
X22698604Y-26990572D01*
X22698605Y-26990572D01*
X22698607Y-26990573D01*
X22766740Y-27000500D01*
X22766744Y-27000500D01*
X23133256Y-27000500D01*
X23133260Y-27000500D01*
X23201393Y-26990573D01*
X23306483Y-26939198D01*
X23389198Y-26856483D01*
X23440573Y-26751393D01*
X23450500Y-26683260D01*
X23450500Y-25719325D01*
X23468982Y-25668545D01*
X23473639Y-25663464D01*
X23852676Y-25284427D01*
X24242700Y-24894402D01*
X24278109Y-24873958D01*
X24331784Y-24859577D01*
X24468716Y-24780520D01*
X24580520Y-24668716D01*
X24659577Y-24531784D01*
X24700500Y-24379057D01*
X24700500Y-24220943D01*
X24659577Y-24068216D01*
X24651966Y-24055034D01*
X24621040Y-24001467D01*
X24583485Y-23936421D01*
X24574102Y-23883204D01*
X24596039Y-23841063D01*
X25613464Y-22823639D01*
X25662440Y-22800801D01*
X25669325Y-22800500D01*
X25679055Y-22800500D01*
X25679057Y-22800500D01*
X25831784Y-22759577D01*
X25968716Y-22680520D01*
X25979224Y-22670012D01*
X26014639Y-22634598D01*
X26063615Y-22611760D01*
X26115813Y-22625746D01*
X26146808Y-22670012D01*
X26149500Y-22690459D01*
X26149500Y-23546144D01*
X26169696Y-23621515D01*
X26173386Y-23635288D01*
X26177609Y-23642602D01*
X26219531Y-23715214D01*
X26584785Y-24080468D01*
X26584787Y-24080469D01*
X26584788Y-24080470D01*
X26649314Y-24117724D01*
X26664712Y-24126614D01*
X26753856Y-24150500D01*
X26822520Y-24150500D01*
X26873300Y-24168982D01*
X26900320Y-24215782D01*
X26901175Y-24222124D01*
X26902353Y-24234696D01*
X26902354Y-24234699D01*
X26947205Y-24362879D01*
X26947207Y-24362882D01*
X27027849Y-24472150D01*
X27137117Y-24552792D01*
X27137120Y-24552794D01*
X27177610Y-24566961D01*
X27265301Y-24597646D01*
X27295734Y-24600500D01*
X27295739Y-24600500D01*
X28304261Y-24600500D01*
X28304266Y-24600500D01*
X28334699Y-24597646D01*
X28462882Y-24552793D01*
X28572150Y-24472150D01*
X28652793Y-24362882D01*
X28697646Y-24234699D01*
X28700500Y-24204266D01*
X28700500Y-23395734D01*
X28697646Y-23365301D01*
X28663024Y-23266357D01*
X28652794Y-23237120D01*
X28652792Y-23237117D01*
X28637761Y-23216751D01*
X28625580Y-23200245D01*
X28572150Y-23127849D01*
X28462882Y-23047207D01*
X28462879Y-23047205D01*
X28334699Y-23002354D01*
X28334696Y-23002353D01*
X28316278Y-23000626D01*
X28304266Y-22999500D01*
X27295734Y-22999500D01*
X27284601Y-23000544D01*
X27265303Y-23002353D01*
X27265300Y-23002354D01*
X27137120Y-23047205D01*
X27137117Y-23047207D01*
X27027849Y-23127849D01*
X26993063Y-23174984D01*
X26948038Y-23204866D01*
X26894338Y-23198816D01*
X26857091Y-23159663D01*
X26850500Y-23128072D01*
X26850500Y-22471927D01*
X26868982Y-22421147D01*
X26915782Y-22394127D01*
X26969000Y-22403511D01*
X26993063Y-22425016D01*
X27027848Y-22472148D01*
X27027849Y-22472148D01*
X27027850Y-22472150D01*
X27113436Y-22535315D01*
X27137117Y-22552792D01*
X27137120Y-22552794D01*
X27177610Y-22566961D01*
X27265301Y-22597646D01*
X27295734Y-22600500D01*
X27295739Y-22600500D01*
X28304261Y-22600500D01*
X28304266Y-22600500D01*
X28334699Y-22597646D01*
X28462882Y-22552793D01*
X28572150Y-22472150D01*
X28652793Y-22362882D01*
X28697646Y-22234699D01*
X28700500Y-22204266D01*
X28700500Y-21395734D01*
X28697646Y-21365301D01*
X28666961Y-21277610D01*
X28652794Y-21237120D01*
X28652792Y-21237117D01*
X28572150Y-21127849D01*
X28462882Y-21047207D01*
X28462879Y-21047205D01*
X28334699Y-21002354D01*
X28334696Y-21002353D01*
X28316278Y-21000626D01*
X28304266Y-20999500D01*
X28304261Y-20999500D01*
X27669325Y-20999500D01*
X27618545Y-20981018D01*
X27613464Y-20976361D01*
X27385800Y-20748697D01*
X27362962Y-20699721D01*
X27376948Y-20647523D01*
X27394744Y-20629277D01*
X27472150Y-20572150D01*
X27552793Y-20462882D01*
X27597646Y-20334699D01*
X27600500Y-20304266D01*
X27600500Y-20229500D01*
X27618982Y-20178720D01*
X27665782Y-20151700D01*
X27679500Y-20150500D01*
X28035860Y-20150500D01*
X28070555Y-20158526D01*
X28136107Y-20190573D01*
X28204240Y-20200500D01*
X28204244Y-20200500D01*
X29445756Y-20200500D01*
X29445760Y-20200500D01*
X29513893Y-20190573D01*
X29618983Y-20139198D01*
X29701698Y-20056483D01*
X29753073Y-19951393D01*
X29763000Y-19883260D01*
X29763000Y-19516740D01*
X29753073Y-19448607D01*
X29752735Y-19447916D01*
X29723013Y-19387118D01*
X29701698Y-19343517D01*
X29701697Y-19343516D01*
X29701694Y-19343512D01*
X29618987Y-19260805D01*
X29618983Y-19260802D01*
X29513895Y-19209427D01*
X29445761Y-19199500D01*
X29445760Y-19199500D01*
X28204240Y-19199500D01*
X28204238Y-19199500D01*
X28136106Y-19209427D01*
X28070556Y-19241473D01*
X28035860Y-19249500D01*
X27526523Y-19249500D01*
X27475743Y-19231018D01*
X27472849Y-19228366D01*
X27472148Y-19227849D01*
X27362882Y-19147207D01*
X27362879Y-19147205D01*
X27234699Y-19102354D01*
X27234696Y-19102353D01*
X27216278Y-19100626D01*
X27204266Y-19099500D01*
X27204261Y-19099500D01*
X26613261Y-19099500D01*
X26583029Y-19093486D01*
X26541828Y-19076420D01*
X26541826Y-19076419D01*
X26541828Y-19076419D01*
X26406493Y-19049500D01*
X24821763Y-19049500D01*
X24770983Y-19031018D01*
X24743963Y-18984218D01*
X24753347Y-18931000D01*
X24782263Y-18902084D01*
X24819302Y-18880699D01*
X24906216Y-18830520D01*
X25018020Y-18718716D01*
X25029394Y-18699014D01*
X25041942Y-18682659D01*
X25500965Y-18223637D01*
X25549940Y-18200801D01*
X25556825Y-18200500D01*
X25720500Y-18200500D01*
X25771280Y-18218982D01*
X25798300Y-18265782D01*
X25799500Y-18279500D01*
X25799500Y-18304266D01*
X25800113Y-18310802D01*
X25802353Y-18334696D01*
X25802354Y-18334699D01*
X25847205Y-18462879D01*
X25847207Y-18462882D01*
X25927849Y-18572150D01*
X25981287Y-18611588D01*
X26028992Y-18646796D01*
X26037117Y-18652792D01*
X26037120Y-18652794D01*
X26050521Y-18657483D01*
X26165301Y-18697646D01*
X26195734Y-18700500D01*
X26195739Y-18700500D01*
X27204261Y-18700500D01*
X27204266Y-18700500D01*
X27234699Y-18697646D01*
X27362882Y-18652793D01*
X27472150Y-18572150D01*
X27552793Y-18462882D01*
X27597646Y-18334699D01*
X27598825Y-18322123D01*
X27621968Y-18273291D01*
X27671085Y-18250759D01*
X27677480Y-18250500D01*
X28035860Y-18250500D01*
X28070555Y-18258526D01*
X28136107Y-18290573D01*
X28204240Y-18300500D01*
X28204244Y-18300500D01*
X29445756Y-18300500D01*
X29445760Y-18300500D01*
X29513893Y-18290573D01*
X29618983Y-18239198D01*
X29701698Y-18156483D01*
X29753073Y-18051393D01*
X29763000Y-17983260D01*
X29763000Y-17616740D01*
X29753073Y-17548607D01*
X29751320Y-17545022D01*
X29726774Y-17494812D01*
X29701698Y-17443517D01*
X29701697Y-17443516D01*
X29701694Y-17443512D01*
X29618987Y-17360805D01*
X29618983Y-17360802D01*
X29513895Y-17309427D01*
X29445761Y-17299500D01*
X29445760Y-17299500D01*
X28204240Y-17299500D01*
X28204238Y-17299500D01*
X28136106Y-17309427D01*
X28070556Y-17341473D01*
X28035860Y-17349500D01*
X27601813Y-17349500D01*
X27551033Y-17331018D01*
X27538250Y-17317412D01*
X27472150Y-17227849D01*
X27362882Y-17147207D01*
X27362879Y-17147205D01*
X27234699Y-17102354D01*
X27234696Y-17102353D01*
X27216278Y-17100626D01*
X27204266Y-17099500D01*
X26195734Y-17099500D01*
X26184601Y-17100544D01*
X26165303Y-17102353D01*
X26165300Y-17102354D01*
X26037120Y-17147205D01*
X26037117Y-17147207D01*
X25927848Y-17227851D01*
X25898652Y-17267411D01*
X25853627Y-17297294D01*
X25835089Y-17299500D01*
X25278188Y-17299500D01*
X25187825Y-17323713D01*
X25163614Y-17330200D01*
X25060885Y-17389511D01*
X24715324Y-17735072D01*
X24666348Y-17757909D01*
X24639017Y-17755518D01*
X24616559Y-17749500D01*
X24616557Y-17749500D01*
X24458443Y-17749500D01*
X24458442Y-17749500D01*
X24305716Y-17790422D01*
X24305714Y-17790423D01*
X24168781Y-17869481D01*
X24056981Y-17981281D01*
X23977923Y-18118214D01*
X23977922Y-18118216D01*
X23937000Y-18270942D01*
X23937000Y-18429057D01*
X23977922Y-18581783D01*
X23977923Y-18581785D01*
X24056981Y-18718718D01*
X24168781Y-18830518D01*
X24168783Y-18830519D01*
X24168784Y-18830520D01*
X24221656Y-18861045D01*
X24292737Y-18902084D01*
X24327473Y-18943480D01*
X24327473Y-18997520D01*
X24292737Y-19038916D01*
X24253237Y-19049500D01*
X23072879Y-19049500D01*
X23022099Y-19031018D01*
X23017018Y-19026361D01*
X22248639Y-18257982D01*
X22225801Y-18209006D01*
X22225500Y-18202121D01*
X22225500Y-18026523D01*
X22243982Y-17975743D01*
X22246633Y-17972849D01*
X22247147Y-17972151D01*
X22247150Y-17972150D01*
X22327793Y-17862882D01*
X22372646Y-17734699D01*
X22375500Y-17704266D01*
X22375500Y-16529500D01*
X22393982Y-16478720D01*
X22440782Y-16451700D01*
X22454500Y-16450500D01*
X24531007Y-16450500D01*
X25331007Y-16450500D01*
X25751829Y-16450500D01*
X25802609Y-16468982D01*
X25826396Y-16503408D01*
X25847205Y-16562879D01*
X25847207Y-16562882D01*
X25927849Y-16672150D01*
X26037117Y-16752792D01*
X26037120Y-16752794D01*
X26077610Y-16766961D01*
X26165301Y-16797646D01*
X26195734Y-16800500D01*
X26195739Y-16800500D01*
X27204261Y-16800500D01*
X27204266Y-16800500D01*
X27234699Y-16797646D01*
X27362882Y-16752793D01*
X27472150Y-16672150D01*
X27481787Y-16659092D01*
X27538250Y-16582588D01*
X27583275Y-16552706D01*
X27601813Y-16550500D01*
X28035860Y-16550500D01*
X28070555Y-16558526D01*
X28136107Y-16590573D01*
X28204240Y-16600500D01*
X28204244Y-16600500D01*
X29445756Y-16600500D01*
X29445760Y-16600500D01*
X29513893Y-16590573D01*
X29618983Y-16539198D01*
X29701698Y-16456483D01*
X29753073Y-16351393D01*
X29763000Y-16283260D01*
X29763000Y-15916740D01*
X29753073Y-15848607D01*
X29751511Y-15845412D01*
X29714098Y-15768882D01*
X29701698Y-15743517D01*
X29701697Y-15743516D01*
X29701694Y-15743512D01*
X29618987Y-15660805D01*
X29618983Y-15660802D01*
X29513895Y-15609427D01*
X29445761Y-15599500D01*
X29445760Y-15599500D01*
X28204240Y-15599500D01*
X28204238Y-15599500D01*
X28136106Y-15609427D01*
X28108089Y-15623124D01*
X28072704Y-15640423D01*
X28070556Y-15641473D01*
X28035860Y-15649500D01*
X27677480Y-15649500D01*
X27626700Y-15631018D01*
X27599680Y-15584218D01*
X27598825Y-15577876D01*
X27598483Y-15574234D01*
X27597646Y-15565301D01*
X27562906Y-15466018D01*
X27552794Y-15437120D01*
X27552792Y-15437117D01*
X27472150Y-15327849D01*
X27362882Y-15247207D01*
X27362879Y-15247205D01*
X27234699Y-15202354D01*
X27234696Y-15202353D01*
X27214929Y-15200500D01*
X27204266Y-15199500D01*
X27204261Y-15199500D01*
X26598449Y-15199500D01*
X26554559Y-15186186D01*
X26469311Y-15129225D01*
X26469305Y-15129222D01*
X26341830Y-15076420D01*
X26341828Y-15076419D01*
X26206493Y-15049500D01*
X25929500Y-15049500D01*
X25878720Y-15031018D01*
X25851700Y-14984218D01*
X25850500Y-14970500D01*
X25850500Y-14771553D01*
X25868982Y-14720773D01*
X25915782Y-14693753D01*
X25969000Y-14703137D01*
X25976409Y-14707988D01*
X25981384Y-14711660D01*
X26037117Y-14752792D01*
X26037120Y-14752794D01*
X26076905Y-14766715D01*
X26165301Y-14797646D01*
X26195734Y-14800500D01*
X26195739Y-14800500D01*
X27204261Y-14800500D01*
X27204266Y-14800500D01*
X27234699Y-14797646D01*
X27362882Y-14752793D01*
X27472150Y-14672150D01*
X27472149Y-14672150D01*
X27476913Y-14668635D01*
X27478060Y-14670189D01*
X27519638Y-14650801D01*
X27526523Y-14650500D01*
X28035860Y-14650500D01*
X28070555Y-14658526D01*
G37*
%TD.AperFunction*%
%TA.AperFunction,Conductor*%
G36*
X40004410Y-500997D02*
G01*
X40023891Y-503192D01*
X40102303Y-512027D01*
X40119547Y-515962D01*
X40208323Y-547026D01*
X40224261Y-554702D01*
X40303898Y-604741D01*
X40317729Y-615771D01*
X40384228Y-682270D01*
X40395258Y-696101D01*
X40445297Y-775738D01*
X40452973Y-791676D01*
X40484036Y-880450D01*
X40487972Y-897696D01*
X40499003Y-995589D01*
X40499500Y-1004435D01*
X40499500Y-22823843D01*
X40481018Y-22874623D01*
X40434218Y-22901643D01*
X40385563Y-22894698D01*
X40357283Y-22880753D01*
X40255938Y-22838775D01*
X40255913Y-22838765D01*
X40218116Y-22825935D01*
X40218099Y-22825930D01*
X40218093Y-22825928D01*
X40209014Y-22823495D01*
X40198167Y-22820588D01*
X40198162Y-22820587D01*
X40158993Y-22812796D01*
X40158984Y-22812794D01*
X40158977Y-22812793D01*
X40158973Y-22812792D01*
X40158965Y-22812791D01*
X40045019Y-22797790D01*
X40045013Y-22797789D01*
X40045010Y-22797789D01*
X40040801Y-22797374D01*
X40025076Y-22795826D01*
X40014793Y-22795153D01*
X40001868Y-22794730D01*
X39994824Y-22794500D01*
X39619000Y-22794500D01*
X39615868Y-22794636D01*
X39592363Y-22795662D01*
X39578675Y-22796859D01*
X39558419Y-22799315D01*
X39452532Y-22836628D01*
X39405733Y-22863648D01*
X39405729Y-22863651D01*
X39369656Y-22893294D01*
X39318688Y-22911254D01*
X39268101Y-22892251D01*
X39241563Y-22845176D01*
X39240500Y-22832258D01*
X39240500Y-22404617D01*
X39213580Y-22269281D01*
X39213579Y-22269279D01*
X39166328Y-22155206D01*
X39160775Y-22141799D01*
X39104049Y-22056903D01*
X39084115Y-22027069D01*
X39084109Y-22027062D01*
X38986547Y-21929500D01*
X38986540Y-21929494D01*
X38871811Y-21852835D01*
X38871805Y-21852832D01*
X38744330Y-21800030D01*
X38744328Y-21800029D01*
X38608993Y-21773110D01*
X38471007Y-21773110D01*
X38335671Y-21800029D01*
X38335669Y-21800030D01*
X38208194Y-21852832D01*
X38208188Y-21852835D01*
X38093459Y-21929494D01*
X38093452Y-21929500D01*
X37995890Y-22027062D01*
X37995884Y-22027069D01*
X37919225Y-22141798D01*
X37919222Y-22141804D01*
X37866420Y-22269279D01*
X37866419Y-22269281D01*
X37839500Y-22404617D01*
X37839500Y-23452516D01*
X37821018Y-23503296D01*
X37774218Y-23530316D01*
X37721000Y-23520932D01*
X37686264Y-23479536D01*
X37684192Y-23472962D01*
X37655345Y-23365303D01*
X37646281Y-23331475D01*
X37570515Y-23200245D01*
X37570514Y-23200244D01*
X37570513Y-23200242D01*
X37463367Y-23093096D01*
X37332136Y-23017329D01*
X37332132Y-23017328D01*
X37219184Y-22987064D01*
X37174917Y-22956069D01*
X37160931Y-22903871D01*
X37162148Y-22895345D01*
X37170500Y-22853358D01*
X37170500Y-21363862D01*
X37158867Y-21305379D01*
X37158867Y-21305378D01*
X37158866Y-21305377D01*
X37133814Y-21267884D01*
X37120500Y-21223994D01*
X37120500Y-19110693D01*
X37120500Y-19110691D01*
X37089799Y-18996114D01*
X37089799Y-18996113D01*
X37030489Y-18893386D01*
X37030488Y-18893385D01*
X37030487Y-18893383D01*
X36323639Y-18186535D01*
X36300801Y-18137559D01*
X36300500Y-18130674D01*
X36300500Y-18120945D01*
X36300500Y-18120943D01*
X36259577Y-17968216D01*
X36180520Y-17831284D01*
X36180519Y-17831283D01*
X36180518Y-17831281D01*
X36173639Y-17824402D01*
X36150801Y-17775426D01*
X36150500Y-17768541D01*
X36150500Y-17229500D01*
X36168982Y-17178720D01*
X36215782Y-17151700D01*
X36229500Y-17150500D01*
X37464951Y-17150500D01*
X37515731Y-17168982D01*
X37539518Y-17203409D01*
X37547205Y-17225378D01*
X37547207Y-17225382D01*
X37627849Y-17334650D01*
X37737117Y-17415292D01*
X37737120Y-17415294D01*
X37777610Y-17429461D01*
X37865301Y-17460146D01*
X37895734Y-17463000D01*
X37895739Y-17463000D01*
X39304261Y-17463000D01*
X39304266Y-17463000D01*
X39334699Y-17460146D01*
X39462882Y-17415293D01*
X39572150Y-17334650D01*
X39652793Y-17225382D01*
X39697646Y-17097199D01*
X39700500Y-17066766D01*
X39700500Y-16133234D01*
X39697646Y-16102801D01*
X39652793Y-15974618D01*
X39615504Y-15924093D01*
X39572150Y-15865349D01*
X39462882Y-15784707D01*
X39462879Y-15784705D01*
X39334699Y-15739854D01*
X39334696Y-15739853D01*
X39316278Y-15738126D01*
X39304266Y-15737000D01*
X37895734Y-15737000D01*
X37884601Y-15738044D01*
X37865303Y-15739853D01*
X37865300Y-15739854D01*
X37737120Y-15784705D01*
X37737117Y-15784707D01*
X37627849Y-15865349D01*
X37547207Y-15974617D01*
X37547205Y-15974620D01*
X37502354Y-16102800D01*
X37502353Y-16102803D01*
X37499500Y-16133238D01*
X37499500Y-16170500D01*
X37481018Y-16221280D01*
X37434218Y-16248300D01*
X37420500Y-16249500D01*
X36131459Y-16249500D01*
X36080679Y-16231018D01*
X36075598Y-16226361D01*
X36068718Y-16219481D01*
X35931785Y-16140423D01*
X35931783Y-16140422D01*
X35779057Y-16099500D01*
X35620943Y-16099500D01*
X35620942Y-16099500D01*
X35468216Y-16140422D01*
X35468214Y-16140423D01*
X35331281Y-16219481D01*
X35219481Y-16331281D01*
X35140423Y-16468214D01*
X35140422Y-16468216D01*
X35099500Y-16620942D01*
X35099500Y-16779057D01*
X35140422Y-16931783D01*
X35140423Y-16931785D01*
X35219479Y-17068715D01*
X35219480Y-17068716D01*
X35226359Y-17075595D01*
X35249199Y-17124569D01*
X35249500Y-17131458D01*
X35249500Y-17768541D01*
X35231018Y-17819321D01*
X35226361Y-17824402D01*
X35219481Y-17831281D01*
X35140423Y-17968214D01*
X35140422Y-17968216D01*
X35099500Y-18120942D01*
X35099500Y-18279057D01*
X35140422Y-18431783D01*
X35140423Y-18431785D01*
X35219481Y-18568718D01*
X35331281Y-18680518D01*
X35331283Y-18680519D01*
X35331284Y-18680520D01*
X35468216Y-18759577D01*
X35620943Y-18800500D01*
X35630675Y-18800500D01*
X35681455Y-18818982D01*
X35686536Y-18823639D01*
X35865668Y-19002771D01*
X35888506Y-19051747D01*
X35874520Y-19103945D01*
X35830254Y-19134940D01*
X35789362Y-19134940D01*
X35769061Y-19129500D01*
X35769057Y-19129500D01*
X35610943Y-19129500D01*
X35610942Y-19129500D01*
X35458216Y-19170422D01*
X35458214Y-19170423D01*
X35321281Y-19249481D01*
X35209481Y-19361281D01*
X35130423Y-19498214D01*
X35130422Y-19498216D01*
X35089500Y-19650942D01*
X35089500Y-19809057D01*
X35130422Y-19961783D01*
X35130423Y-19961785D01*
X35212069Y-20103200D01*
X35211068Y-20103777D01*
X35225718Y-20150237D01*
X35205039Y-20200163D01*
X35157106Y-20225116D01*
X35104347Y-20213421D01*
X35090932Y-20202653D01*
X34943639Y-20055360D01*
X34920801Y-20006384D01*
X34920500Y-19999499D01*
X34920500Y-12145738D01*
X35674500Y-12145738D01*
X35674500Y-12929261D01*
X35677353Y-12959696D01*
X35677354Y-12959699D01*
X35722205Y-13087879D01*
X35722207Y-13087882D01*
X35802849Y-13197150D01*
X35912117Y-13277792D01*
X35912120Y-13277794D01*
X35952610Y-13291961D01*
X36040301Y-13322646D01*
X36070734Y-13325500D01*
X36070739Y-13325500D01*
X37129261Y-13325500D01*
X37129266Y-13325500D01*
X37159699Y-13322646D01*
X37287882Y-13277793D01*
X37397150Y-13197150D01*
X37477793Y-13087882D01*
X37507351Y-13003408D01*
X37541567Y-12961582D01*
X37581918Y-12950500D01*
X37751829Y-12950500D01*
X37802609Y-12968982D01*
X37826396Y-13003408D01*
X37847205Y-13062879D01*
X37847207Y-13062882D01*
X37927849Y-13172150D01*
X38037117Y-13252792D01*
X38037120Y-13252794D01*
X38077610Y-13266961D01*
X38165301Y-13297646D01*
X38195734Y-13300500D01*
X38830675Y-13300500D01*
X38846882Y-13306398D01*
X38864062Y-13307902D01*
X38878186Y-13317792D01*
X38881455Y-13318982D01*
X38886536Y-13323639D01*
X38926361Y-13363464D01*
X38949199Y-13412440D01*
X38949500Y-13419325D01*
X38949500Y-13568541D01*
X38931018Y-13619321D01*
X38926361Y-13624402D01*
X38919481Y-13631281D01*
X38840423Y-13768214D01*
X38840422Y-13768216D01*
X38799500Y-13920942D01*
X38799500Y-14079057D01*
X38840422Y-14231783D01*
X38840423Y-14231785D01*
X38919481Y-14368718D01*
X39031281Y-14480518D01*
X39031283Y-14480519D01*
X39031284Y-14480520D01*
X39101298Y-14520942D01*
X39129315Y-14537118D01*
X39168216Y-14559577D01*
X39320943Y-14600500D01*
X39320945Y-14600500D01*
X39479055Y-14600500D01*
X39479057Y-14600500D01*
X39631784Y-14559577D01*
X39768716Y-14480520D01*
X39880520Y-14368716D01*
X39959577Y-14231784D01*
X40000500Y-14079057D01*
X40000500Y-13920943D01*
X39959577Y-13768216D01*
X39948771Y-13749500D01*
X39925635Y-13709427D01*
X39880520Y-13631284D01*
X39880519Y-13631283D01*
X39880518Y-13631281D01*
X39873639Y-13624402D01*
X39850801Y-13575426D01*
X39850500Y-13568541D01*
X39850500Y-13140693D01*
X39850500Y-13140691D01*
X39819799Y-13026114D01*
X39819798Y-13026112D01*
X39781454Y-12959699D01*
X39760487Y-12923383D01*
X39623639Y-12786535D01*
X39600801Y-12737559D01*
X39600500Y-12730674D01*
X39600500Y-12095738D01*
X39597646Y-12065303D01*
X39597646Y-12065301D01*
X39558278Y-11952792D01*
X39552794Y-11937120D01*
X39552792Y-11937117D01*
X39547962Y-11930573D01*
X39530821Y-11907347D01*
X39472150Y-11827849D01*
X39362882Y-11747207D01*
X39362879Y-11747205D01*
X39234699Y-11702354D01*
X39234696Y-11702353D01*
X39216278Y-11700626D01*
X39204266Y-11699500D01*
X38195734Y-11699500D01*
X38184601Y-11700544D01*
X38165303Y-11702353D01*
X38165300Y-11702354D01*
X38037120Y-11747205D01*
X38037117Y-11747207D01*
X37927849Y-11827849D01*
X37847207Y-11937117D01*
X37847205Y-11937120D01*
X37826396Y-11996592D01*
X37792179Y-12038418D01*
X37751829Y-12049500D01*
X37555675Y-12049500D01*
X37504895Y-12031018D01*
X37481108Y-11996590D01*
X37477795Y-11987123D01*
X37477794Y-11987121D01*
X37477793Y-11987118D01*
X37440891Y-11937117D01*
X37397150Y-11877849D01*
X37287882Y-11797207D01*
X37287879Y-11797205D01*
X37159699Y-11752354D01*
X37159696Y-11752353D01*
X37141278Y-11750626D01*
X37129266Y-11749500D01*
X36070734Y-11749500D01*
X36059601Y-11750544D01*
X36040303Y-11752353D01*
X36040300Y-11752354D01*
X35912120Y-11797205D01*
X35912117Y-11797207D01*
X35802849Y-11877849D01*
X35722207Y-11987117D01*
X35722205Y-11987120D01*
X35677354Y-12115300D01*
X35677353Y-12115303D01*
X35675651Y-12133464D01*
X35674695Y-12143660D01*
X35674500Y-12145738D01*
X34920500Y-12145738D01*
X34920500Y-6673121D01*
X34920501Y-6673108D01*
X34920501Y-6561296D01*
X34920501Y-6561294D01*
X34894131Y-6462882D01*
X34893207Y-6459432D01*
X34887474Y-6449504D01*
X34887471Y-6449499D01*
X34886628Y-6448038D01*
X34840480Y-6368107D01*
X34765913Y-6293540D01*
X34765910Y-6293538D01*
X34763154Y-6290781D01*
X34763148Y-6290776D01*
X32593664Y-4121291D01*
X35149499Y-4121291D01*
X35181160Y-4361781D01*
X35181161Y-4361787D01*
X35181162Y-4361789D01*
X35186108Y-4380248D01*
X35243943Y-4596092D01*
X35243944Y-4596095D01*
X35336776Y-4820213D01*
X35383130Y-4900500D01*
X35458064Y-5030289D01*
X35547777Y-5147205D01*
X35605733Y-5222736D01*
X35605738Y-5222742D01*
X35777257Y-5394261D01*
X35777263Y-5394266D01*
X35811655Y-5420656D01*
X35969711Y-5541936D01*
X36179788Y-5663224D01*
X36403900Y-5756054D01*
X36638211Y-5818838D01*
X36638217Y-5818838D01*
X36638218Y-5818839D01*
X36878708Y-5850500D01*
X36878712Y-5850500D01*
X37121291Y-5850500D01*
X37361781Y-5818839D01*
X37361780Y-5818839D01*
X37361789Y-5818838D01*
X37596100Y-5756054D01*
X37820212Y-5663224D01*
X38030289Y-5541936D01*
X38222738Y-5394265D01*
X38394265Y-5222738D01*
X38541936Y-5030289D01*
X38663224Y-4820212D01*
X38756054Y-4596100D01*
X38818838Y-4361789D01*
X38838753Y-4210518D01*
X38850500Y-4121291D01*
X38850500Y-3878708D01*
X38818839Y-3638218D01*
X38818838Y-3638217D01*
X38818838Y-3638211D01*
X38756054Y-3403900D01*
X38663224Y-3179788D01*
X38541936Y-2969711D01*
X38394265Y-2777262D01*
X38394261Y-2777257D01*
X38222742Y-2605738D01*
X38222736Y-2605733D01*
X38119956Y-2526868D01*
X38030289Y-2458064D01*
X38030284Y-2458061D01*
X37820213Y-2336776D01*
X37596095Y-2243944D01*
X37596092Y-2243943D01*
X37380949Y-2186296D01*
X37361789Y-2181162D01*
X37361787Y-2181161D01*
X37361781Y-2181160D01*
X37121291Y-2149500D01*
X37121288Y-2149500D01*
X36878712Y-2149500D01*
X36878709Y-2149500D01*
X36638218Y-2181160D01*
X36403907Y-2243943D01*
X36403904Y-2243944D01*
X36179786Y-2336776D01*
X35969715Y-2458061D01*
X35777263Y-2605733D01*
X35777257Y-2605738D01*
X35605738Y-2777257D01*
X35605733Y-2777263D01*
X35458061Y-2969715D01*
X35336776Y-3179786D01*
X35243944Y-3403904D01*
X35243943Y-3403907D01*
X35181160Y-3638218D01*
X35149500Y-3878708D01*
X35149500Y-3878712D01*
X35149500Y-4121288D01*
X35149500Y-4121291D01*
X35149499Y-4121291D01*
X32593664Y-4121291D01*
X32404360Y-3931987D01*
X31121895Y-2649521D01*
X31030569Y-2596793D01*
X31030565Y-2596792D01*
X30928709Y-2569500D01*
X30928707Y-2569500D01*
X29523250Y-2569500D01*
X29472470Y-2551018D01*
X29454834Y-2530000D01*
X29380518Y-2401281D01*
X29268718Y-2289481D01*
X29131785Y-2210423D01*
X29131783Y-2210422D01*
X28979057Y-2169500D01*
X28820943Y-2169500D01*
X28820942Y-2169500D01*
X28668216Y-2210422D01*
X28668214Y-2210423D01*
X28531281Y-2289481D01*
X28419481Y-2401281D01*
X28340423Y-2538214D01*
X28340422Y-2538216D01*
X28299500Y-2690942D01*
X28299500Y-2849057D01*
X28340422Y-3001783D01*
X28340423Y-3001785D01*
X28419481Y-3138718D01*
X28474902Y-3194139D01*
X28497740Y-3243115D01*
X28483754Y-3295313D01*
X28474902Y-3305861D01*
X28419481Y-3361281D01*
X28340423Y-3498214D01*
X28340422Y-3498216D01*
X28299500Y-3650942D01*
X28299500Y-3809057D01*
X28340422Y-3961783D01*
X28340423Y-3961785D01*
X28419481Y-4098718D01*
X28531281Y-4210518D01*
X28531283Y-4210519D01*
X28531284Y-4210520D01*
X28668216Y-4289577D01*
X28820943Y-4330500D01*
X28820945Y-4330500D01*
X28979055Y-4330500D01*
X28979057Y-4330500D01*
X29131784Y-4289577D01*
X29268716Y-4210520D01*
X29380520Y-4098716D01*
X29454834Y-3970000D01*
X29496230Y-3935264D01*
X29523250Y-3930500D01*
X30445405Y-3930500D01*
X30496185Y-3948982D01*
X30501266Y-3953639D01*
X33536361Y-6988734D01*
X33559199Y-7037710D01*
X33559500Y-7044595D01*
X33559500Y-16346455D01*
X33541018Y-16397235D01*
X33494218Y-16424255D01*
X33441000Y-16414871D01*
X33412084Y-16385955D01*
X33386142Y-16341022D01*
X33380520Y-16331284D01*
X33380519Y-16331283D01*
X33380518Y-16331281D01*
X33268718Y-16219481D01*
X33131785Y-16140423D01*
X33131783Y-16140422D01*
X32979057Y-16099500D01*
X32969325Y-16099500D01*
X32918545Y-16081018D01*
X32913464Y-16076361D01*
X31626616Y-14789512D01*
X31587136Y-14766718D01*
X31523887Y-14730201D01*
X31523886Y-14730200D01*
X31523883Y-14730199D01*
X31520468Y-14728784D01*
X31494842Y-14711660D01*
X31493987Y-14710805D01*
X31493983Y-14710802D01*
X31388895Y-14659427D01*
X31320761Y-14649500D01*
X31320760Y-14649500D01*
X30268326Y-14649500D01*
X30217546Y-14631018D01*
X30190526Y-14584218D01*
X30199910Y-14531000D01*
X30212465Y-14514639D01*
X30560487Y-14166616D01*
X30560489Y-14166614D01*
X30619799Y-14063887D01*
X30636062Y-14003192D01*
X30637051Y-13999501D01*
X30637051Y-13999500D01*
X30638815Y-13992916D01*
X30650500Y-13949309D01*
X30650500Y-13851458D01*
X30668982Y-13800678D01*
X30673630Y-13795605D01*
X30680520Y-13788716D01*
X30759577Y-13651784D01*
X30800500Y-13499057D01*
X30800500Y-13369324D01*
X30818982Y-13318544D01*
X30823639Y-13313463D01*
X31713464Y-12423639D01*
X31762440Y-12400801D01*
X31769325Y-12400500D01*
X32404261Y-12400500D01*
X32404266Y-12400500D01*
X32434699Y-12397646D01*
X32562882Y-12352793D01*
X32672150Y-12272150D01*
X32752793Y-12162882D01*
X32797646Y-12034699D01*
X32800500Y-12004266D01*
X32800500Y-11195734D01*
X32797646Y-11165301D01*
X32752793Y-11037118D01*
X32717650Y-10989500D01*
X32672150Y-10927849D01*
X32562882Y-10847207D01*
X32562879Y-10847205D01*
X32434699Y-10802354D01*
X32434696Y-10802353D01*
X32416278Y-10800626D01*
X32404266Y-10799500D01*
X31395734Y-10799500D01*
X31384601Y-10800544D01*
X31365303Y-10802353D01*
X31365300Y-10802354D01*
X31237120Y-10847205D01*
X31237117Y-10847207D01*
X31127849Y-10927849D01*
X31047207Y-11037117D01*
X31047205Y-11037120D01*
X31002354Y-11165300D01*
X31002353Y-11165303D01*
X30999500Y-11195738D01*
X30999500Y-11830674D01*
X30981018Y-11881454D01*
X30976361Y-11886535D01*
X30029981Y-12832914D01*
X29994569Y-12853361D01*
X29968215Y-12860423D01*
X29831281Y-12939481D01*
X29719481Y-13051281D01*
X29640423Y-13188214D01*
X29640422Y-13188216D01*
X29599500Y-13340942D01*
X29599500Y-13499059D01*
X29632348Y-13621651D01*
X29627638Y-13675484D01*
X29589426Y-13713696D01*
X29535593Y-13718405D01*
X29521345Y-13713070D01*
X29513893Y-13709427D01*
X29445761Y-13699500D01*
X29445760Y-13699500D01*
X28204240Y-13699500D01*
X28204238Y-13699500D01*
X28136106Y-13709427D01*
X28070556Y-13741473D01*
X28035860Y-13749500D01*
X27719325Y-13749500D01*
X27703117Y-13743601D01*
X27685938Y-13742098D01*
X27671813Y-13732207D01*
X27668545Y-13731018D01*
X27663464Y-13726361D01*
X27623639Y-13686536D01*
X27600801Y-13637560D01*
X27600500Y-13630675D01*
X27600500Y-13595738D01*
X27599803Y-13588309D01*
X27597646Y-13565301D01*
X27552793Y-13437118D01*
X27472150Y-13327850D01*
X27472148Y-13327849D01*
X27472148Y-13327848D01*
X27391142Y-13268063D01*
X27361259Y-13223038D01*
X27367309Y-13169339D01*
X27406461Y-13132092D01*
X27438053Y-13125500D01*
X29024308Y-13125500D01*
X29024309Y-13125500D01*
X29099854Y-13105256D01*
X29114670Y-13101287D01*
X29114670Y-13101286D01*
X29114673Y-13101286D01*
X29138887Y-13094799D01*
X29241614Y-13035489D01*
X29960490Y-12316614D01*
X30019799Y-12213886D01*
X30028745Y-12180500D01*
X30050500Y-12099309D01*
X30050500Y-11782859D01*
X30054933Y-11756767D01*
X30066406Y-11723979D01*
X30097646Y-11634699D01*
X30100500Y-11604266D01*
X30100500Y-10595734D01*
X30097646Y-10565301D01*
X30067699Y-10479718D01*
X30054933Y-10443233D01*
X30050500Y-10417141D01*
X30050500Y-10129500D01*
X30068982Y-10078720D01*
X30115782Y-10051700D01*
X30129500Y-10050500D01*
X30951829Y-10050500D01*
X31002609Y-10068982D01*
X31026396Y-10103408D01*
X31047205Y-10162879D01*
X31047207Y-10162882D01*
X31127849Y-10272150D01*
X31237117Y-10352792D01*
X31237120Y-10352794D01*
X31277610Y-10366961D01*
X31365301Y-10397646D01*
X31395734Y-10400500D01*
X31395739Y-10400500D01*
X32404261Y-10400500D01*
X32404266Y-10400500D01*
X32434699Y-10397646D01*
X32562882Y-10352793D01*
X32672150Y-10272150D01*
X32752793Y-10162882D01*
X32797646Y-10034699D01*
X32800500Y-10004266D01*
X32800500Y-9195734D01*
X32797646Y-9165301D01*
X32757476Y-9050500D01*
X32752794Y-9037120D01*
X32752792Y-9037117D01*
X32672150Y-8927849D01*
X32562882Y-8847207D01*
X32562879Y-8847205D01*
X32434699Y-8802354D01*
X32434696Y-8802353D01*
X32414929Y-8800500D01*
X32404266Y-8799500D01*
X31395734Y-8799500D01*
X31385071Y-8800500D01*
X31365303Y-8802353D01*
X31365300Y-8802354D01*
X31237120Y-8847205D01*
X31237117Y-8847207D01*
X31127849Y-8927849D01*
X31047207Y-9037117D01*
X31047205Y-9037120D01*
X31026396Y-9096592D01*
X30992179Y-9138418D01*
X30951829Y-9149500D01*
X30129500Y-9149500D01*
X30078720Y-9131018D01*
X30051700Y-9084218D01*
X30050500Y-9070500D01*
X30050500Y-8012859D01*
X30054933Y-7986767D01*
X30067772Y-7950075D01*
X30097646Y-7864699D01*
X30100500Y-7834266D01*
X30100500Y-6825734D01*
X30097646Y-6795301D01*
X30062193Y-6693982D01*
X30054933Y-6673233D01*
X30050500Y-6647141D01*
X30050500Y-6200693D01*
X30050500Y-6200691D01*
X30019799Y-6086114D01*
X30019799Y-6086113D01*
X29960489Y-5983386D01*
X29960488Y-5983385D01*
X29960487Y-5983383D01*
X29516616Y-5539512D01*
X29413888Y-5480201D01*
X29413884Y-5480200D01*
X29389673Y-5473713D01*
X29299309Y-5449500D01*
X25148171Y-5449500D01*
X25097391Y-5431018D01*
X25073604Y-5396592D01*
X25052794Y-5337120D01*
X25052792Y-5337117D01*
X24972150Y-5227849D01*
X24862882Y-5147207D01*
X24862879Y-5147205D01*
X24734699Y-5102354D01*
X24734696Y-5102353D01*
X24716278Y-5100626D01*
X24704266Y-5099500D01*
X23695734Y-5099500D01*
X23684601Y-5100544D01*
X23665303Y-5102353D01*
X23665300Y-5102354D01*
X23537120Y-5147205D01*
X23537117Y-5147207D01*
X23427849Y-5227849D01*
X23347207Y-5337117D01*
X23347205Y-5337120D01*
X23302354Y-5465300D01*
X23302353Y-5465303D01*
X23299500Y-5495738D01*
X23299500Y-5510500D01*
X23281018Y-5561280D01*
X23234218Y-5588300D01*
X23220500Y-5589500D01*
X22864140Y-5589500D01*
X22829444Y-5581473D01*
X22763893Y-5549427D01*
X22763894Y-5549427D01*
X22695761Y-5539500D01*
X22695760Y-5539500D01*
X21454240Y-5539500D01*
X21454238Y-5539500D01*
X21386104Y-5549427D01*
X21281016Y-5600802D01*
X21281012Y-5600805D01*
X21198305Y-5683512D01*
X21198302Y-5683516D01*
X21146927Y-5788604D01*
X21137000Y-5856738D01*
X21137000Y-6223261D01*
X21146927Y-6291395D01*
X21198302Y-6396483D01*
X21198305Y-6396487D01*
X21281012Y-6479194D01*
X21281016Y-6479197D01*
X21281017Y-6479198D01*
X21332508Y-6504370D01*
X21386104Y-6530572D01*
X21386105Y-6530572D01*
X21386107Y-6530573D01*
X21454240Y-6540500D01*
X21454244Y-6540500D01*
X22695756Y-6540500D01*
X22695760Y-6540500D01*
X22763893Y-6530573D01*
X22829444Y-6498526D01*
X22864140Y-6490500D01*
X23327709Y-6490500D01*
X23378489Y-6508982D01*
X23391271Y-6522586D01*
X23427850Y-6572150D01*
X23531622Y-6648737D01*
X23537117Y-6652792D01*
X23537120Y-6652794D01*
X23574484Y-6665868D01*
X23665301Y-6697646D01*
X23695734Y-6700500D01*
X23695739Y-6700500D01*
X24704261Y-6700500D01*
X24704266Y-6700500D01*
X24734699Y-6697646D01*
X24862882Y-6652793D01*
X24972150Y-6572150D01*
X25052793Y-6462882D01*
X25071766Y-6408660D01*
X25073604Y-6403408D01*
X25107821Y-6361582D01*
X25148171Y-6350500D01*
X26668722Y-6350500D01*
X26719502Y-6368982D01*
X26746522Y-6415782D01*
X26737138Y-6469000D01*
X26715633Y-6493063D01*
X26627851Y-6557848D01*
X26547207Y-6667117D01*
X26547205Y-6667120D01*
X26502354Y-6795300D01*
X26502353Y-6795303D01*
X26502139Y-6797592D01*
X26501282Y-6806738D01*
X26501175Y-6807876D01*
X26478032Y-6856709D01*
X26428915Y-6879241D01*
X26422520Y-6879500D01*
X26060690Y-6879500D01*
X25946115Y-6910200D01*
X25939122Y-6914238D01*
X25920092Y-6925225D01*
X25843383Y-6969512D01*
X25439512Y-7373383D01*
X25380201Y-7476111D01*
X25380200Y-7476115D01*
X25379006Y-7480570D01*
X25379006Y-7480572D01*
X25379006Y-7480573D01*
X25376226Y-7490949D01*
X25345229Y-7535214D01*
X25299918Y-7549500D01*
X25177480Y-7549500D01*
X25126700Y-7531018D01*
X25099680Y-7484218D01*
X25098825Y-7477876D01*
X25098659Y-7476111D01*
X25097646Y-7465301D01*
X25058106Y-7352301D01*
X25052794Y-7337120D01*
X25052792Y-7337117D01*
X25051396Y-7335226D01*
X24982147Y-7241395D01*
X24972150Y-7227849D01*
X24862882Y-7147207D01*
X24862879Y-7147205D01*
X24734699Y-7102354D01*
X24734696Y-7102353D01*
X24716278Y-7100626D01*
X24704266Y-7099500D01*
X23695734Y-7099500D01*
X23684601Y-7100544D01*
X23665303Y-7102353D01*
X23665300Y-7102354D01*
X23537120Y-7147205D01*
X23537117Y-7147207D01*
X23427849Y-7227849D01*
X23347207Y-7337117D01*
X23347205Y-7337120D01*
X23302354Y-7465300D01*
X23302353Y-7465303D01*
X23300880Y-7481018D01*
X23299586Y-7494823D01*
X23299328Y-7497573D01*
X23298189Y-7497466D01*
X23278768Y-7544019D01*
X23230772Y-7568850D01*
X23220659Y-7569500D01*
X22970403Y-7569500D01*
X22919623Y-7551018D01*
X22914552Y-7546371D01*
X22868983Y-7500802D01*
X22860159Y-7496488D01*
X22763895Y-7449427D01*
X22695761Y-7439500D01*
X22695760Y-7439500D01*
X21454240Y-7439500D01*
X21454238Y-7439500D01*
X21386104Y-7449427D01*
X21281016Y-7500802D01*
X21281012Y-7500805D01*
X21198305Y-7583512D01*
X21198302Y-7583516D01*
X21146927Y-7688604D01*
X21137000Y-7756738D01*
X21137000Y-8123261D01*
X21146927Y-8191395D01*
X21198302Y-8296483D01*
X21198305Y-8296487D01*
X21281012Y-8379194D01*
X21281016Y-8379197D01*
X21281017Y-8379198D01*
X21322566Y-8399510D01*
X21386104Y-8430572D01*
X21386105Y-8430572D01*
X21386107Y-8430573D01*
X21454240Y-8440500D01*
X21454244Y-8440500D01*
X22695756Y-8440500D01*
X22695760Y-8440500D01*
X22763893Y-8430573D01*
X22868983Y-8379198D01*
X22951698Y-8296483D01*
X22951698Y-8296481D01*
X22954541Y-8293639D01*
X23003517Y-8270801D01*
X23010403Y-8270500D01*
X23224725Y-8270500D01*
X23275505Y-8288982D01*
X23300467Y-8330266D01*
X23300767Y-8330162D01*
X23301264Y-8331584D01*
X23301906Y-8332645D01*
X23302354Y-8334699D01*
X23347205Y-8462879D01*
X23347207Y-8462882D01*
X23427849Y-8572150D01*
X23537117Y-8652792D01*
X23537120Y-8652794D01*
X23577610Y-8666961D01*
X23665301Y-8697646D01*
X23695734Y-8700500D01*
X23695739Y-8700500D01*
X24704261Y-8700500D01*
X24704266Y-8700500D01*
X24734699Y-8697646D01*
X24862882Y-8652793D01*
X24972150Y-8572150D01*
X25052793Y-8462882D01*
X25079184Y-8387459D01*
X25113400Y-8345633D01*
X25166497Y-8335586D01*
X25213630Y-8362020D01*
X25230059Y-8393105D01*
X25240422Y-8431781D01*
X25240423Y-8431785D01*
X25319481Y-8568718D01*
X25431281Y-8680518D01*
X25431283Y-8680519D01*
X25431284Y-8680520D01*
X25465891Y-8700500D01*
X25563731Y-8756988D01*
X25568216Y-8759577D01*
X25720943Y-8800500D01*
X25720945Y-8800500D01*
X25879055Y-8800500D01*
X25879057Y-8800500D01*
X26031784Y-8759577D01*
X26036269Y-8756987D01*
X26089484Y-8747600D01*
X26136285Y-8774616D01*
X26154772Y-8825394D01*
X26136294Y-8876176D01*
X26131634Y-8881262D01*
X26040747Y-8972150D01*
X25786535Y-9226361D01*
X25737561Y-9249199D01*
X25730675Y-9249500D01*
X25148171Y-9249500D01*
X25097391Y-9231018D01*
X25073604Y-9196592D01*
X25052794Y-9137120D01*
X25052792Y-9137117D01*
X25045669Y-9127466D01*
X25017361Y-9089109D01*
X24972150Y-9027849D01*
X24862882Y-8947207D01*
X24862879Y-8947205D01*
X24734699Y-8902354D01*
X24734696Y-8902353D01*
X24716278Y-8900626D01*
X24704266Y-8899500D01*
X23695734Y-8899500D01*
X23684601Y-8900544D01*
X23665303Y-8902353D01*
X23665300Y-8902354D01*
X23537120Y-8947205D01*
X23537117Y-8947207D01*
X23427849Y-9027849D01*
X23406032Y-9057412D01*
X23361007Y-9087294D01*
X23342469Y-9089500D01*
X22864140Y-9089500D01*
X22829444Y-9081473D01*
X22820585Y-9077142D01*
X22763893Y-9049427D01*
X22763894Y-9049427D01*
X22695761Y-9039500D01*
X22695760Y-9039500D01*
X21454240Y-9039500D01*
X21454238Y-9039500D01*
X21386104Y-9049427D01*
X21281016Y-9100802D01*
X21281012Y-9100805D01*
X21198305Y-9183512D01*
X21198302Y-9183516D01*
X21146927Y-9288604D01*
X21137000Y-9356738D01*
X21137000Y-9723261D01*
X21146927Y-9791395D01*
X21198302Y-9896483D01*
X21198305Y-9896487D01*
X21281012Y-9979194D01*
X21281016Y-9979197D01*
X21281017Y-9979198D01*
X21332285Y-10004261D01*
X21386104Y-10030572D01*
X21386105Y-10030572D01*
X21386107Y-10030573D01*
X21454240Y-10040500D01*
X21454244Y-10040500D01*
X22695756Y-10040500D01*
X22695760Y-10040500D01*
X22763893Y-10030573D01*
X22829444Y-9998526D01*
X22864140Y-9990500D01*
X23220500Y-9990500D01*
X23271280Y-10008982D01*
X23298300Y-10055782D01*
X23299500Y-10069500D01*
X23299500Y-10104261D01*
X23302353Y-10134696D01*
X23302354Y-10134699D01*
X23347205Y-10262879D01*
X23347207Y-10262882D01*
X23427849Y-10372150D01*
X23537117Y-10452792D01*
X23537120Y-10452794D01*
X23577610Y-10466961D01*
X23665301Y-10497646D01*
X23695734Y-10500500D01*
X23695739Y-10500500D01*
X24704261Y-10500500D01*
X24704266Y-10500500D01*
X24734699Y-10497646D01*
X24862882Y-10452793D01*
X24972150Y-10372150D01*
X25052793Y-10262882D01*
X25073604Y-10203408D01*
X25107821Y-10161582D01*
X25148171Y-10150500D01*
X26009307Y-10150500D01*
X26009309Y-10150500D01*
X26115732Y-10121984D01*
X26123887Y-10119799D01*
X26226614Y-10060489D01*
X27053465Y-9233639D01*
X27102441Y-9210801D01*
X27109326Y-9210500D01*
X29070500Y-9210500D01*
X29121280Y-9228982D01*
X29148300Y-9275782D01*
X29149500Y-9289500D01*
X29149500Y-10120500D01*
X29131018Y-10171280D01*
X29084218Y-10198300D01*
X29070500Y-10199500D01*
X28895734Y-10199500D01*
X28884601Y-10200544D01*
X28865303Y-10202353D01*
X28865300Y-10202354D01*
X28737120Y-10247205D01*
X28737117Y-10247207D01*
X28627849Y-10327849D01*
X28547207Y-10437117D01*
X28547205Y-10437120D01*
X28502354Y-10565300D01*
X28502353Y-10565303D01*
X28499500Y-10595738D01*
X28499500Y-11604261D01*
X28502353Y-11634696D01*
X28502354Y-11634699D01*
X28547205Y-11762879D01*
X28547207Y-11762882D01*
X28627849Y-11872150D01*
X28680067Y-11910688D01*
X28737050Y-11952743D01*
X28737117Y-11952792D01*
X28737120Y-11952794D01*
X28784864Y-11969500D01*
X28850301Y-11992397D01*
X28858851Y-11999392D01*
X28869521Y-12002251D01*
X28879142Y-12015991D01*
X28892127Y-12026614D01*
X28894180Y-12037468D01*
X28900517Y-12046517D01*
X28899055Y-12063228D01*
X28902174Y-12079711D01*
X28896675Y-12090437D01*
X28895808Y-12100350D01*
X28880071Y-12122825D01*
X28801536Y-12201361D01*
X28752560Y-12224199D01*
X28745674Y-12224500D01*
X25865690Y-12224500D01*
X25783161Y-12246614D01*
X25783160Y-12246614D01*
X25751115Y-12255200D01*
X25751111Y-12255201D01*
X25648383Y-12314512D01*
X25039512Y-12923383D01*
X24980199Y-13026115D01*
X24977744Y-13035283D01*
X24977743Y-13035288D01*
X24949500Y-13140690D01*
X24949500Y-14970500D01*
X24931018Y-15021280D01*
X24884218Y-15048300D01*
X24870500Y-15049500D01*
X22454500Y-15049500D01*
X22403720Y-15031018D01*
X22376700Y-14984218D01*
X22375500Y-14970500D01*
X22375500Y-14695738D01*
X22373935Y-14679054D01*
X22372646Y-14665301D01*
X22341961Y-14577610D01*
X22327794Y-14537120D01*
X22327792Y-14537117D01*
X22247150Y-14427849D01*
X22137882Y-14347207D01*
X22137879Y-14347205D01*
X22009699Y-14302354D01*
X22009696Y-14302353D01*
X21991278Y-14300626D01*
X21979266Y-14299500D01*
X21070734Y-14299500D01*
X21059601Y-14300544D01*
X21040303Y-14302353D01*
X21040300Y-14302354D01*
X20912120Y-14347205D01*
X20912117Y-14347207D01*
X20802849Y-14427849D01*
X20722207Y-14537117D01*
X20722205Y-14537120D01*
X20677354Y-14665300D01*
X20677353Y-14665303D01*
X20674500Y-14695738D01*
X20674500Y-17704261D01*
X20677353Y-17734696D01*
X20677354Y-17734699D01*
X20722205Y-17862879D01*
X20722207Y-17862882D01*
X20806365Y-17976913D01*
X20804810Y-17978060D01*
X20824199Y-18019638D01*
X20824500Y-18026523D01*
X20824500Y-18593993D01*
X20851419Y-18729328D01*
X20851420Y-18729330D01*
X20904223Y-18856807D01*
X20904226Y-18856812D01*
X20980884Y-18971541D01*
X20980890Y-18971548D01*
X21880258Y-19870915D01*
X21903096Y-19919891D01*
X21889110Y-19972089D01*
X21880259Y-19982637D01*
X21639511Y-20223385D01*
X21580201Y-20326111D01*
X21580200Y-20326113D01*
X21576611Y-20339511D01*
X21549500Y-20440688D01*
X21549500Y-23013096D01*
X21531018Y-23063876D01*
X21484218Y-23090896D01*
X21431000Y-23081512D01*
X21414639Y-23068957D01*
X21406487Y-23060805D01*
X21406483Y-23060802D01*
X21301395Y-23009427D01*
X21233261Y-22999500D01*
X21233260Y-22999500D01*
X20866740Y-22999500D01*
X20866738Y-22999500D01*
X20798604Y-23009427D01*
X20693516Y-23060802D01*
X20693512Y-23060805D01*
X20610805Y-23143512D01*
X20610802Y-23143516D01*
X20573966Y-23218865D01*
X20535058Y-23256368D01*
X20481147Y-23260087D01*
X20447132Y-23240029D01*
X20193639Y-22986536D01*
X20170801Y-22937560D01*
X20170500Y-22930675D01*
X20170500Y-22920945D01*
X20170500Y-22920943D01*
X20129577Y-22768216D01*
X20050520Y-22631284D01*
X20050519Y-22631283D01*
X20050518Y-22631281D01*
X19943639Y-22524402D01*
X19920801Y-22475426D01*
X19920500Y-22468541D01*
X19920500Y-19067904D01*
X19938982Y-19017124D01*
X19943639Y-19012043D01*
X20440468Y-18515214D01*
X20440470Y-18515212D01*
X20486614Y-18435288D01*
X20493824Y-18408380D01*
X20510500Y-18346144D01*
X20510500Y-13077904D01*
X20528982Y-13027124D01*
X20533639Y-13022043D01*
X20862043Y-12693639D01*
X20911019Y-12670801D01*
X20917904Y-12670500D01*
X22317742Y-12670500D01*
X22368522Y-12688982D01*
X22395542Y-12735782D01*
X22386158Y-12789000D01*
X22340423Y-12868214D01*
X22340422Y-12868216D01*
X22299500Y-13020942D01*
X22299500Y-13179057D01*
X22340422Y-13331783D01*
X22340423Y-13331785D01*
X22419481Y-13468718D01*
X22531281Y-13580518D01*
X22531283Y-13580519D01*
X22531284Y-13580520D01*
X22668216Y-13659577D01*
X22820943Y-13700500D01*
X22820945Y-13700500D01*
X22979055Y-13700500D01*
X22979057Y-13700500D01*
X23131784Y-13659577D01*
X23268716Y-13580520D01*
X23380520Y-13468716D01*
X23459577Y-13331784D01*
X23500500Y-13179057D01*
X23500500Y-13020943D01*
X23459577Y-12868216D01*
X23380520Y-12731284D01*
X23380519Y-12731283D01*
X23380518Y-12731281D01*
X23273639Y-12624402D01*
X23250801Y-12575426D01*
X23250500Y-12568541D01*
X23250500Y-12453858D01*
X23250499Y-12453853D01*
X23235438Y-12397646D01*
X23226614Y-12364712D01*
X23220768Y-12354587D01*
X23180469Y-12284787D01*
X23180468Y-12284786D01*
X23180467Y-12284784D01*
X22935214Y-12039531D01*
X22935212Y-12039530D01*
X22932417Y-12037916D01*
X22931165Y-12036424D01*
X22931106Y-12036379D01*
X22931116Y-12036365D01*
X22897681Y-11996520D01*
X22897680Y-11942481D01*
X22932415Y-11901084D01*
X22971916Y-11890500D01*
X23220500Y-11890500D01*
X23239787Y-11897519D01*
X23260000Y-11901084D01*
X23264581Y-11906544D01*
X23271280Y-11908982D01*
X23281541Y-11926756D01*
X23294736Y-11942480D01*
X23296545Y-11952743D01*
X23298300Y-11955782D01*
X23299500Y-11969500D01*
X23299500Y-12104261D01*
X23302353Y-12134696D01*
X23302355Y-12134701D01*
X23342499Y-12249432D01*
X23342503Y-12249439D01*
X23347207Y-12262882D01*
X23361254Y-12281916D01*
X23361257Y-12281920D01*
X23427848Y-12372148D01*
X23427849Y-12372148D01*
X23427850Y-12372150D01*
X23537117Y-12452792D01*
X23537120Y-12452794D01*
X23557303Y-12459856D01*
X23665301Y-12497646D01*
X23695734Y-12500500D01*
X23695739Y-12500500D01*
X24704261Y-12500500D01*
X24704266Y-12500500D01*
X24734699Y-12497646D01*
X24862882Y-12452793D01*
X24972150Y-12372150D01*
X25052793Y-12262882D01*
X25063717Y-12231662D01*
X25073604Y-12203408D01*
X25107821Y-12161582D01*
X25148171Y-12150500D01*
X25359308Y-12150500D01*
X25359309Y-12150500D01*
X25434854Y-12130256D01*
X25449670Y-12126287D01*
X25449670Y-12126286D01*
X25449673Y-12126286D01*
X25473887Y-12119799D01*
X25576614Y-12060489D01*
X26063464Y-11573639D01*
X26112440Y-11550801D01*
X26119325Y-11550500D01*
X26422520Y-11550500D01*
X26473300Y-11568982D01*
X26500320Y-11615782D01*
X26501175Y-11622124D01*
X26502353Y-11634696D01*
X26502354Y-11634699D01*
X26547205Y-11762879D01*
X26547207Y-11762882D01*
X26627849Y-11872150D01*
X26680067Y-11910688D01*
X26737050Y-11952743D01*
X26737117Y-11952792D01*
X26737120Y-11952794D01*
X26757577Y-11959952D01*
X26865301Y-11997646D01*
X26895734Y-12000500D01*
X26895739Y-12000500D01*
X27704261Y-12000500D01*
X27704266Y-12000500D01*
X27734699Y-11997646D01*
X27862882Y-11952793D01*
X27972150Y-11872150D01*
X28052793Y-11762882D01*
X28097646Y-11634699D01*
X28100500Y-11604266D01*
X28100500Y-10595734D01*
X28097646Y-10565301D01*
X28066961Y-10477610D01*
X28052794Y-10437120D01*
X28052792Y-10437117D01*
X27972150Y-10327849D01*
X27862882Y-10247207D01*
X27862879Y-10247205D01*
X27734699Y-10202354D01*
X27734696Y-10202353D01*
X27716278Y-10200626D01*
X27704266Y-10199500D01*
X26895734Y-10199500D01*
X26884601Y-10200544D01*
X26865303Y-10202353D01*
X26865300Y-10202354D01*
X26737120Y-10247205D01*
X26737117Y-10247207D01*
X26627849Y-10327849D01*
X26547207Y-10437117D01*
X26547205Y-10437120D01*
X26502354Y-10565300D01*
X26502353Y-10565303D01*
X26501175Y-10577876D01*
X26478032Y-10626709D01*
X26428915Y-10649241D01*
X26422520Y-10649500D01*
X25840690Y-10649500D01*
X25752018Y-10673260D01*
X25752017Y-10673260D01*
X25726115Y-10680200D01*
X25726111Y-10680201D01*
X25623383Y-10739512D01*
X25186536Y-11176360D01*
X25137560Y-11199198D01*
X25085362Y-11185212D01*
X25056108Y-11146591D01*
X25052794Y-11137120D01*
X25052792Y-11137117D01*
X24972150Y-11027849D01*
X24862882Y-10947207D01*
X24862879Y-10947205D01*
X24734699Y-10902354D01*
X24734696Y-10902353D01*
X24716278Y-10900626D01*
X24704266Y-10899500D01*
X23695734Y-10899500D01*
X23684601Y-10900544D01*
X23665303Y-10902353D01*
X23665301Y-10902354D01*
X23537114Y-10947208D01*
X23500728Y-10974063D01*
X23453817Y-10989500D01*
X22864140Y-10989500D01*
X22829444Y-10981473D01*
X22827603Y-10980573D01*
X22763893Y-10949427D01*
X22763894Y-10949427D01*
X22695761Y-10939500D01*
X22695760Y-10939500D01*
X21454240Y-10939500D01*
X21454238Y-10939500D01*
X21386104Y-10949427D01*
X21281016Y-11000802D01*
X21281012Y-11000805D01*
X21215457Y-11066361D01*
X21199829Y-11073648D01*
X21186616Y-11084736D01*
X21169629Y-11087731D01*
X21166481Y-11089199D01*
X21159596Y-11089500D01*
X21007551Y-11089500D01*
X20956771Y-11071018D01*
X20929751Y-11024218D01*
X20939135Y-10971000D01*
X20972853Y-10939527D01*
X20993983Y-10929198D01*
X21076698Y-10846483D01*
X21128073Y-10741393D01*
X21138000Y-10673260D01*
X21138000Y-10306740D01*
X21128073Y-10238607D01*
X21125867Y-10234095D01*
X21095159Y-10171280D01*
X21076698Y-10133517D01*
X21076697Y-10133516D01*
X21076694Y-10133512D01*
X20993987Y-10050805D01*
X20993983Y-10050802D01*
X20888895Y-9999427D01*
X20820761Y-9989500D01*
X20820760Y-9989500D01*
X20729500Y-9989500D01*
X20678720Y-9971018D01*
X20651700Y-9924218D01*
X20650500Y-9910500D01*
X20650500Y-7569500D01*
X20668982Y-7518720D01*
X20715782Y-7491700D01*
X20729500Y-7490500D01*
X20820756Y-7490500D01*
X20820760Y-7490500D01*
X20888893Y-7480573D01*
X20993983Y-7429198D01*
X21076698Y-7346483D01*
X21128073Y-7241393D01*
X21138000Y-7173260D01*
X21138000Y-6806740D01*
X21128073Y-6738607D01*
X21124225Y-6730736D01*
X21094519Y-6669971D01*
X21076698Y-6633517D01*
X21076697Y-6633516D01*
X21076694Y-6633512D01*
X20993987Y-6550805D01*
X20993983Y-6550802D01*
X20888895Y-6499427D01*
X20820761Y-6489500D01*
X20820760Y-6489500D01*
X19579240Y-6489500D01*
X19579238Y-6489500D01*
X19511104Y-6499427D01*
X19406016Y-6550802D01*
X19406012Y-6550805D01*
X19323305Y-6633512D01*
X19323298Y-6633522D01*
X19320662Y-6638914D01*
X19281751Y-6676413D01*
X19227840Y-6680127D01*
X19184154Y-6648319D01*
X19170718Y-6606186D01*
X19116350Y-4431472D01*
X19123182Y-4411133D01*
X19126909Y-4390000D01*
X19131604Y-4386059D01*
X19133557Y-4380248D01*
X19151866Y-4369057D01*
X19168305Y-4355264D01*
X19176921Y-4353744D01*
X19179667Y-4352067D01*
X19195325Y-4350500D01*
X19320500Y-4350500D01*
X19371280Y-4368982D01*
X19398300Y-4415782D01*
X19399500Y-4429500D01*
X19399500Y-4504261D01*
X19402353Y-4534696D01*
X19402354Y-4534699D01*
X19447205Y-4662879D01*
X19447207Y-4662882D01*
X19527849Y-4772150D01*
X19637117Y-4852792D01*
X19637120Y-4852794D01*
X19677610Y-4866961D01*
X19765301Y-4897646D01*
X19795734Y-4900500D01*
X19795739Y-4900500D01*
X20604261Y-4900500D01*
X20604266Y-4900500D01*
X20634699Y-4897646D01*
X20762882Y-4852793D01*
X20872150Y-4772150D01*
X20952793Y-4662882D01*
X20997646Y-4534699D01*
X21000500Y-4504266D01*
X21000500Y-3495734D01*
X20997646Y-3465301D01*
X20952793Y-3337118D01*
X20921940Y-3295313D01*
X20872150Y-3227849D01*
X20762882Y-3147207D01*
X20762879Y-3147205D01*
X20634699Y-3102354D01*
X20634696Y-3102353D01*
X20616278Y-3100626D01*
X20604266Y-3099500D01*
X19795734Y-3099500D01*
X19784601Y-3100544D01*
X19765303Y-3102353D01*
X19765300Y-3102354D01*
X19637120Y-3147205D01*
X19637117Y-3147207D01*
X19527849Y-3227849D01*
X19447207Y-3337117D01*
X19447205Y-3337120D01*
X19402354Y-3465300D01*
X19402353Y-3465303D01*
X19399500Y-3495738D01*
X19399500Y-3570500D01*
X19392480Y-3589787D01*
X19388916Y-3610000D01*
X19383455Y-3614581D01*
X19381018Y-3621280D01*
X19363243Y-3631541D01*
X19347520Y-3644736D01*
X19337256Y-3646545D01*
X19334218Y-3648300D01*
X19320500Y-3649500D01*
X19173850Y-3649500D01*
X19123070Y-3631018D01*
X19096050Y-3584218D01*
X19094875Y-3572474D01*
X19089595Y-3361284D01*
X19074995Y-2777257D01*
X19056351Y-2031474D01*
X19073558Y-1980248D01*
X19119668Y-1952067D01*
X19135326Y-1950500D01*
X19295500Y-1950500D01*
X19346280Y-1968982D01*
X19373300Y-2015782D01*
X19374500Y-2029500D01*
X19374500Y-2129261D01*
X19377353Y-2159696D01*
X19377354Y-2159699D01*
X19422205Y-2287879D01*
X19422207Y-2287882D01*
X19502849Y-2397150D01*
X19612117Y-2477792D01*
X19612120Y-2477794D01*
X19652610Y-2491961D01*
X19740301Y-2522646D01*
X19770734Y-2525500D01*
X19770739Y-2525500D01*
X20554261Y-2525500D01*
X20554266Y-2525500D01*
X20584699Y-2522646D01*
X20712882Y-2477793D01*
X20822150Y-2397150D01*
X20902793Y-2287882D01*
X20947646Y-2159699D01*
X20950500Y-2129266D01*
X20950500Y-1918597D01*
X32173500Y-1918597D01*
X32173500Y-2081402D01*
X32203451Y-2231980D01*
X32205262Y-2241081D01*
X32267565Y-2391495D01*
X32267566Y-2391496D01*
X32358014Y-2526861D01*
X32358020Y-2526868D01*
X32473131Y-2641979D01*
X32473138Y-2641985D01*
X32518259Y-2672134D01*
X32608505Y-2732435D01*
X32758919Y-2794738D01*
X32918597Y-2826500D01*
X33081403Y-2826500D01*
X33241081Y-2794738D01*
X33391495Y-2732435D01*
X33526863Y-2641984D01*
X33641984Y-2526863D01*
X33732435Y-2391495D01*
X33794738Y-2241081D01*
X33826500Y-2081403D01*
X33826500Y-1918597D01*
X33794738Y-1758919D01*
X33732435Y-1608505D01*
X33641984Y-1473137D01*
X33641979Y-1473131D01*
X33526868Y-1358020D01*
X33526861Y-1358014D01*
X33391496Y-1267566D01*
X33391497Y-1267566D01*
X33391495Y-1267565D01*
X33241081Y-1205262D01*
X33241079Y-1205261D01*
X33241078Y-1205261D01*
X33081403Y-1173500D01*
X32918597Y-1173500D01*
X32758921Y-1205261D01*
X32608503Y-1267566D01*
X32473138Y-1358014D01*
X32473131Y-1358020D01*
X32358020Y-1473131D01*
X32358014Y-1473138D01*
X32267566Y-1608503D01*
X32205261Y-1758921D01*
X32173500Y-1918597D01*
X20950500Y-1918597D01*
X20950500Y-1070734D01*
X20947646Y-1040301D01*
X20916961Y-952610D01*
X20902794Y-912120D01*
X20902792Y-912117D01*
X20822150Y-802849D01*
X20712882Y-722207D01*
X20712879Y-722205D01*
X20584699Y-677354D01*
X20584696Y-677353D01*
X20566278Y-675626D01*
X20554266Y-674500D01*
X19770734Y-674500D01*
X19759601Y-675544D01*
X19740303Y-677353D01*
X19740300Y-677354D01*
X19612120Y-722205D01*
X19612117Y-722207D01*
X19502849Y-802849D01*
X19422207Y-912117D01*
X19422205Y-912120D01*
X19377354Y-1040300D01*
X19377353Y-1040303D01*
X19374500Y-1070738D01*
X19374500Y-1170500D01*
X19356018Y-1221280D01*
X19309218Y-1248300D01*
X19295500Y-1249500D01*
X18680223Y-1249500D01*
X18629443Y-1231018D01*
X18602741Y-1185912D01*
X18575894Y-1050943D01*
X18575893Y-1050941D01*
X18518391Y-912118D01*
X18508013Y-887063D01*
X18409464Y-739575D01*
X18409459Y-739569D01*
X18305251Y-635361D01*
X18282413Y-586385D01*
X18296399Y-534187D01*
X18340665Y-503192D01*
X18361112Y-500500D01*
X39934108Y-500500D01*
X39995565Y-500500D01*
X40004410Y-500997D01*
G37*
%TD.AperFunction*%
%TA.AperFunction,Conductor*%
G36*
X11990702Y-21871764D02*
G01*
X11991769Y-21872477D01*
X12050252Y-21884110D01*
X12082690Y-21884110D01*
X12087921Y-21884812D01*
X12107461Y-21895046D01*
X12128193Y-21902592D01*
X12130934Y-21907341D01*
X12135792Y-21909885D01*
X12144182Y-21930286D01*
X12155213Y-21949392D01*
X12154260Y-21954791D01*
X12156346Y-21959862D01*
X12155213Y-21976828D01*
X12140000Y-22063104D01*
X12140000Y-22118563D01*
X12137307Y-22139012D01*
X12127697Y-22174872D01*
X12119807Y-22193922D01*
X12101243Y-22226077D01*
X12088687Y-22242439D01*
X12062439Y-22268687D01*
X12046078Y-22281242D01*
X12013924Y-22299806D01*
X11994875Y-22307697D01*
X11994873Y-22307698D01*
X11971280Y-22314020D01*
X11959010Y-22317308D01*
X11938563Y-22320000D01*
X11901440Y-22320000D01*
X11880993Y-22317308D01*
X11845124Y-22307696D01*
X11826074Y-22299806D01*
X11793921Y-22281243D01*
X11777559Y-22268687D01*
X11740527Y-22231655D01*
X11740518Y-22231646D01*
X11740508Y-22231637D01*
X11740491Y-22231622D01*
X11699734Y-22197424D01*
X11686175Y-22187929D01*
X11655182Y-22143661D01*
X11655183Y-22102771D01*
X11656501Y-22097849D01*
X11656503Y-22097847D01*
X11685500Y-21989628D01*
X11685500Y-21963110D01*
X11703982Y-21912330D01*
X11750782Y-21885310D01*
X11764500Y-21884110D01*
X11889747Y-21884110D01*
X11889748Y-21884110D01*
X11948231Y-21872477D01*
X11948232Y-21872476D01*
X11954587Y-21871212D01*
X11960677Y-21871212D01*
X11980508Y-21870396D01*
X11990702Y-21871764D01*
G37*
%TD.AperFunction*%
%TA.AperFunction,Conductor*%
G36*
X13991767Y-21872476D02*
G01*
X13991769Y-21872477D01*
X14050252Y-21884110D01*
X14215500Y-21884110D01*
X14266280Y-21902592D01*
X14293300Y-21949392D01*
X14294500Y-21963110D01*
X14294500Y-21999630D01*
X14323496Y-22107844D01*
X14325479Y-22112632D01*
X14322977Y-22113668D01*
X14323827Y-22118499D01*
X14330920Y-22131404D01*
X14328367Y-22144286D01*
X14330644Y-22157219D01*
X14323279Y-22169967D01*
X14320417Y-22184413D01*
X14306090Y-22199720D01*
X14303612Y-22204011D01*
X14302342Y-22205054D01*
X14300297Y-22206697D01*
X14247362Y-22243763D01*
X14219409Y-22271716D01*
X14216066Y-22274404D01*
X14214128Y-22275063D01*
X14206070Y-22281247D01*
X14173921Y-22299807D01*
X14154872Y-22307697D01*
X14119012Y-22317307D01*
X14098563Y-22320000D01*
X14061440Y-22320000D01*
X14040993Y-22317308D01*
X14005124Y-22307696D01*
X13986075Y-22299806D01*
X13953923Y-22281244D01*
X13953922Y-22281243D01*
X13937559Y-22268687D01*
X13911309Y-22242436D01*
X13898759Y-22226082D01*
X13880188Y-22193918D01*
X13872299Y-22174869D01*
X13870326Y-22167507D01*
X13862692Y-22139012D01*
X13860000Y-22118567D01*
X13860000Y-22056399D01*
X13846730Y-21969622D01*
X13850425Y-21951134D01*
X13850015Y-21932286D01*
X13855580Y-21925351D01*
X13857324Y-21916631D01*
X13872040Y-21904843D01*
X13883840Y-21890142D01*
X13896579Y-21885187D01*
X13899501Y-21882848D01*
X13909399Y-21880201D01*
X13948231Y-21872477D01*
X13948231Y-21872476D01*
X13954589Y-21871212D01*
X13985413Y-21871212D01*
X13991767Y-21872476D01*
G37*
%TD.AperFunction*%
%TA.AperFunction,Conductor*%
G36*
X12010438Y-11621052D02*
G01*
X12014262Y-11623260D01*
X12014274Y-11623267D01*
X12040985Y-11638689D01*
X12054712Y-11646614D01*
X12143856Y-11670500D01*
X12491880Y-11670500D01*
X12542660Y-11688982D01*
X12568188Y-11729054D01*
X12580200Y-11773884D01*
X12580201Y-11773888D01*
X12639512Y-11876616D01*
X16023383Y-15260488D01*
X16023385Y-15260489D01*
X16023386Y-15260490D01*
X16126113Y-15319799D01*
X16150326Y-15326286D01*
X16165948Y-15330472D01*
X16210213Y-15361467D01*
X16224500Y-15406779D01*
X16224500Y-17704261D01*
X16227353Y-17734696D01*
X16227354Y-17734699D01*
X16272205Y-17862879D01*
X16272207Y-17862882D01*
X16352849Y-17972150D01*
X16417194Y-18019638D01*
X16460260Y-18051422D01*
X16462117Y-18052792D01*
X16462120Y-18052794D01*
X16502610Y-18066961D01*
X16590301Y-18097646D01*
X16620734Y-18100500D01*
X16620739Y-18100500D01*
X17529261Y-18100500D01*
X17529266Y-18100500D01*
X17559699Y-18097646D01*
X17621559Y-18076000D01*
X17675593Y-18076674D01*
X17716065Y-18111066D01*
X17729461Y-18134268D01*
X17792898Y-18211465D01*
X17889547Y-18268595D01*
X17940327Y-18287077D01*
X18044812Y-18305500D01*
X18044816Y-18305500D01*
X18458475Y-18305500D01*
X18471564Y-18310264D01*
X18485495Y-18310264D01*
X18496165Y-18319218D01*
X18509255Y-18323982D01*
X18516220Y-18336045D01*
X18526891Y-18345000D01*
X18529309Y-18358718D01*
X18536275Y-18370782D01*
X18533856Y-18384500D01*
X18536275Y-18398218D01*
X18526891Y-18424000D01*
X18504450Y-18462869D01*
X18504446Y-18462876D01*
X18503387Y-18464708D01*
X18503384Y-18464716D01*
X18479500Y-18553853D01*
X18479500Y-21582094D01*
X18461018Y-21632874D01*
X18456361Y-21637956D01*
X18382129Y-21712187D01*
X18333153Y-21735024D01*
X18280955Y-21721038D01*
X18249960Y-21676771D01*
X18248787Y-21640911D01*
X18250500Y-21632301D01*
X18250500Y-21454919D01*
X18232388Y-21363862D01*
X18215894Y-21280943D01*
X18215893Y-21280941D01*
X18163681Y-21154890D01*
X18148013Y-21117063D01*
X18069714Y-20999881D01*
X18049465Y-20969576D01*
X18049459Y-20969569D01*
X17924040Y-20844150D01*
X17924033Y-20844144D01*
X17805029Y-20764628D01*
X17776547Y-20745597D01*
X17776544Y-20745596D01*
X17776543Y-20745595D01*
X17612668Y-20677716D01*
X17553258Y-20665898D01*
X17507059Y-20637863D01*
X17489690Y-20586691D01*
X17495685Y-20558183D01*
X17506838Y-20531257D01*
X17517619Y-20505230D01*
X17545500Y-20365065D01*
X17545500Y-20222155D01*
X17517619Y-20081990D01*
X17513264Y-20071477D01*
X17467828Y-19961784D01*
X17462929Y-19949957D01*
X17418364Y-19883261D01*
X17383533Y-19831132D01*
X17383527Y-19831125D01*
X17282484Y-19730082D01*
X17282477Y-19730076D01*
X17163653Y-19650681D01*
X17163647Y-19650678D01*
X17031625Y-19595992D01*
X17031621Y-19595991D01*
X16891455Y-19568110D01*
X16748545Y-19568110D01*
X16608378Y-19595991D01*
X16608374Y-19595992D01*
X16476352Y-19650678D01*
X16476346Y-19650681D01*
X16357522Y-19730076D01*
X16357515Y-19730082D01*
X16256472Y-19831125D01*
X16256466Y-19831132D01*
X16177071Y-19949956D01*
X16177068Y-19949962D01*
X16122382Y-20081984D01*
X16122381Y-20081988D01*
X16098660Y-20201241D01*
X16094500Y-20222155D01*
X16094500Y-20365065D01*
X16104194Y-20413797D01*
X16122381Y-20505231D01*
X16122382Y-20505235D01*
X16177068Y-20637257D01*
X16177071Y-20637263D01*
X16256466Y-20756087D01*
X16256472Y-20756094D01*
X16357515Y-20857137D01*
X16357522Y-20857143D01*
X16387106Y-20876910D01*
X16476347Y-20936539D01*
X16541132Y-20963373D01*
X16580972Y-20999881D01*
X16588025Y-21053457D01*
X16576585Y-21080247D01*
X16551990Y-21117057D01*
X16551985Y-21117066D01*
X16484106Y-21280941D01*
X16484105Y-21280943D01*
X16449500Y-21454919D01*
X16449500Y-21625789D01*
X16431018Y-21676569D01*
X16426362Y-21681650D01*
X16326212Y-21781800D01*
X16277668Y-21845062D01*
X16257220Y-21880477D01*
X16226694Y-21954172D01*
X16207697Y-22025072D01*
X16199805Y-22044124D01*
X16181243Y-22076275D01*
X16168688Y-22092637D01*
X16142439Y-22118886D01*
X16126078Y-22131441D01*
X16093924Y-22150005D01*
X16074873Y-22157897D01*
X16054353Y-22163396D01*
X16039010Y-22167507D01*
X16018563Y-22170199D01*
X15981439Y-22170199D01*
X15960992Y-22167507D01*
X15957450Y-22166558D01*
X15945650Y-22163396D01*
X15925121Y-22157895D01*
X15906068Y-22150003D01*
X15902600Y-22148001D01*
X15883054Y-22136716D01*
X15870097Y-22130674D01*
X15834806Y-22114217D01*
X15834801Y-22114215D01*
X15834799Y-22114214D01*
X15809018Y-22104830D01*
X15809009Y-22104827D01*
X15807590Y-22104311D01*
X15807880Y-22103513D01*
X15767415Y-22071760D01*
X15755500Y-22030039D01*
X15755500Y-21923984D01*
X15755499Y-21923979D01*
X15751041Y-21907341D01*
X15726503Y-21815763D01*
X15720949Y-21806144D01*
X15671813Y-21721038D01*
X15670485Y-21718737D01*
X15636655Y-21684907D01*
X15633487Y-21679748D01*
X15630351Y-21677796D01*
X15621884Y-21660850D01*
X15617428Y-21653593D01*
X15616768Y-21651574D01*
X15597614Y-21580090D01*
X15592021Y-21570403D01*
X15581083Y-21551457D01*
X15570500Y-21511959D01*
X15570500Y-20963862D01*
X15558867Y-20905379D01*
X15514552Y-20839058D01*
X15448231Y-20794743D01*
X15448230Y-20794742D01*
X15448231Y-20794742D01*
X15389748Y-20783110D01*
X15050252Y-20783110D01*
X14985412Y-20796007D01*
X14954588Y-20796007D01*
X14889748Y-20783110D01*
X14649500Y-20783110D01*
X14630212Y-20776090D01*
X14610000Y-20772526D01*
X14605418Y-20767065D01*
X14598720Y-20764628D01*
X14588458Y-20746853D01*
X14575264Y-20731130D01*
X14573454Y-20720866D01*
X14571700Y-20717828D01*
X14570500Y-20704110D01*
X14570500Y-20663513D01*
X14588982Y-20612733D01*
X14593628Y-20607662D01*
X14750469Y-20450822D01*
X14796614Y-20370898D01*
X14798177Y-20365065D01*
X14820500Y-20281754D01*
X14820500Y-20255120D01*
X14822100Y-20247292D01*
X14832308Y-20230666D01*
X14838982Y-20212330D01*
X14846085Y-20208228D01*
X14850376Y-20201241D01*
X14868883Y-20195066D01*
X14885782Y-20185310D01*
X14899500Y-20184110D01*
X15139747Y-20184110D01*
X15139748Y-20184110D01*
X15198231Y-20172477D01*
X15198232Y-20172476D01*
X15204587Y-20171212D01*
X15235413Y-20171212D01*
X15241767Y-20172476D01*
X15241769Y-20172477D01*
X15300252Y-20184110D01*
X15300253Y-20184110D01*
X15639748Y-20184110D01*
X15698231Y-20172477D01*
X15764552Y-20128162D01*
X15808867Y-20061841D01*
X15820500Y-20003358D01*
X15820500Y-19263862D01*
X15820500Y-18932370D01*
X15831084Y-18892870D01*
X15867083Y-18830518D01*
X15875577Y-18815806D01*
X15902870Y-18713946D01*
X15902870Y-15947273D01*
X15887178Y-15888708D01*
X15879352Y-15859499D01*
X15875577Y-15845413D01*
X15875577Y-15845412D01*
X15822850Y-15754087D01*
X15822849Y-15754086D01*
X15822848Y-15754084D01*
X11915080Y-11846316D01*
X11907792Y-11830688D01*
X11896705Y-11817475D01*
X11893709Y-11800488D01*
X11892242Y-11797340D01*
X11891941Y-11790455D01*
X11891941Y-11689469D01*
X11910423Y-11638689D01*
X11957223Y-11611669D01*
X12010438Y-11621052D01*
G37*
%TD.AperFunction*%
%TA.AperFunction,Conductor*%
G36*
X16489003Y-6332690D02*
G01*
X16524879Y-6342303D01*
X16543918Y-6350189D01*
X16601503Y-6383435D01*
X16628936Y-6396667D01*
X16650664Y-6405226D01*
X16660044Y-6408660D01*
X16744023Y-6417276D01*
X16792651Y-6440844D01*
X16814753Y-6490157D01*
X16799986Y-6542139D01*
X16779859Y-6561542D01*
X16775973Y-6564139D01*
X16775959Y-6564150D01*
X16650540Y-6689569D01*
X16650534Y-6689576D01*
X16551988Y-6837061D01*
X16551985Y-6837066D01*
X16484106Y-7000941D01*
X16484105Y-7000943D01*
X16450361Y-7170592D01*
X16449500Y-7174919D01*
X16449500Y-7352301D01*
X16453694Y-7373386D01*
X16484105Y-7526276D01*
X16484106Y-7526278D01*
X16551345Y-7688607D01*
X16551987Y-7690157D01*
X16583365Y-7737117D01*
X16650534Y-7837643D01*
X16650540Y-7837650D01*
X16652815Y-7839925D01*
X16675653Y-7888901D01*
X16661667Y-7941099D01*
X16617402Y-7972094D01*
X16597864Y-7977329D01*
X16597863Y-7977329D01*
X16466632Y-8053096D01*
X16359486Y-8160242D01*
X16283719Y-8291473D01*
X16283718Y-8291477D01*
X16244500Y-8437841D01*
X16244500Y-8589378D01*
X16283718Y-8735742D01*
X16283719Y-8735746D01*
X16359486Y-8866977D01*
X16466632Y-8974123D01*
X16466634Y-8974124D01*
X16466635Y-8974125D01*
X16516289Y-9002793D01*
X16593976Y-9047646D01*
X16597865Y-9049891D01*
X16744234Y-9089110D01*
X16744236Y-9089110D01*
X16895764Y-9089110D01*
X16895766Y-9089110D01*
X17042135Y-9049891D01*
X17173365Y-8974125D01*
X17280515Y-8866975D01*
X17356281Y-8735745D01*
X17395500Y-8589376D01*
X17395500Y-8437844D01*
X17356281Y-8291475D01*
X17351163Y-8282610D01*
X17341779Y-8229392D01*
X17368799Y-8182592D01*
X17419579Y-8164110D01*
X17438691Y-8164110D01*
X17612666Y-8129504D01*
X17612668Y-8129503D01*
X17776547Y-8061623D01*
X17924035Y-7963074D01*
X18034385Y-7852723D01*
X18083360Y-7829886D01*
X18135558Y-7843872D01*
X18166554Y-7888138D01*
X18169193Y-7911489D01*
X18167773Y-7950078D01*
X18194728Y-8037465D01*
X18194729Y-8037467D01*
X18221742Y-8084256D01*
X18221750Y-8084268D01*
X18252138Y-8124387D01*
X18252609Y-8125008D01*
X18329433Y-8174625D01*
X18375510Y-8191395D01*
X18380214Y-8193107D01*
X18450498Y-8205500D01*
X18450502Y-8205500D01*
X18482090Y-8205500D01*
X18495734Y-8205046D01*
X18500650Y-8204718D01*
X18506218Y-8204347D01*
X18519804Y-8202987D01*
X18635541Y-8187504D01*
X18662305Y-8182094D01*
X18682517Y-8176588D01*
X18708330Y-8167675D01*
X18811029Y-8124382D01*
X18835431Y-8112127D01*
X18853487Y-8101501D01*
X18876051Y-8086116D01*
X18963765Y-8017347D01*
X18984092Y-7999104D01*
X18998718Y-7984107D01*
X19016440Y-7963338D01*
X19082991Y-7873938D01*
X19097806Y-7850998D01*
X19107977Y-7832683D01*
X19119619Y-7807982D01*
X19160333Y-7704230D01*
X19168596Y-7678210D01*
X19173596Y-7657867D01*
X19178338Y-7630968D01*
X19190924Y-7514880D01*
X19191945Y-7501245D01*
X19192380Y-7490756D01*
X19192492Y-7477105D01*
X19190729Y-7406583D01*
X19207936Y-7355356D01*
X19254046Y-7327175D01*
X19307482Y-7335226D01*
X19325565Y-7348747D01*
X19406012Y-7429194D01*
X19406016Y-7429197D01*
X19406017Y-7429198D01*
X19452185Y-7451768D01*
X19511104Y-7480572D01*
X19511105Y-7480572D01*
X19511107Y-7480573D01*
X19579240Y-7490500D01*
X19670500Y-7490500D01*
X19721280Y-7508982D01*
X19748300Y-7555782D01*
X19749500Y-7569500D01*
X19749500Y-9910500D01*
X19731018Y-9961280D01*
X19684218Y-9988300D01*
X19670500Y-9989500D01*
X19579238Y-9989500D01*
X19511104Y-9999427D01*
X19406016Y-10050802D01*
X19406012Y-10050805D01*
X19323305Y-10133512D01*
X19323302Y-10133516D01*
X19271927Y-10238604D01*
X19262000Y-10306738D01*
X19262000Y-10673260D01*
X19271245Y-10736713D01*
X19260276Y-10789628D01*
X19248931Y-10803964D01*
X18359512Y-11693383D01*
X18300200Y-11796114D01*
X18293713Y-11820325D01*
X18269500Y-11910688D01*
X18269500Y-12382056D01*
X18251018Y-12432836D01*
X18204218Y-12459856D01*
X18151000Y-12450472D01*
X18143589Y-12445620D01*
X18082881Y-12400816D01*
X18082879Y-12400815D01*
X17954699Y-12355964D01*
X17954696Y-12355963D01*
X17936278Y-12354236D01*
X17924266Y-12353110D01*
X16915734Y-12353110D01*
X16904601Y-12354154D01*
X16885303Y-12355963D01*
X16885300Y-12355964D01*
X16757120Y-12400815D01*
X16757117Y-12400817D01*
X16647849Y-12481459D01*
X16567207Y-12590727D01*
X16567205Y-12590730D01*
X16522354Y-12718910D01*
X16522353Y-12718913D01*
X16519500Y-12749348D01*
X16519500Y-12760971D01*
X16501018Y-12811751D01*
X16454218Y-12838771D01*
X16420054Y-12837279D01*
X16279059Y-12799500D01*
X16279057Y-12799500D01*
X16120943Y-12799500D01*
X16120942Y-12799500D01*
X15968216Y-12840422D01*
X15968214Y-12840423D01*
X15831281Y-12919481D01*
X15719481Y-13031281D01*
X15640423Y-13168214D01*
X15640422Y-13168216D01*
X15599500Y-13320942D01*
X15599500Y-13371674D01*
X15581018Y-13422454D01*
X15534218Y-13449474D01*
X15481000Y-13440090D01*
X15464639Y-13427535D01*
X13482254Y-11445150D01*
X13459416Y-11396174D01*
X13473402Y-11343976D01*
X13482254Y-11333428D01*
X14401024Y-10414658D01*
X14450000Y-10391820D01*
X14502198Y-10405806D01*
X14533193Y-10450072D01*
X14535885Y-10470519D01*
X14535885Y-11399644D01*
X14517403Y-11450424D01*
X14512746Y-11455505D01*
X14449516Y-11518734D01*
X14393497Y-11615761D01*
X14393496Y-11615765D01*
X14364500Y-11723979D01*
X14364500Y-11836020D01*
X14393496Y-11944234D01*
X14393497Y-11944238D01*
X14449516Y-12041265D01*
X14528734Y-12120483D01*
X14528736Y-12120484D01*
X14528737Y-12120485D01*
X14585292Y-12153137D01*
X14620561Y-12173500D01*
X14625763Y-12176503D01*
X14715946Y-12200667D01*
X14760213Y-12231662D01*
X14774500Y-12276975D01*
X14774500Y-12306020D01*
X14803496Y-12414234D01*
X14803497Y-12414238D01*
X14859516Y-12511265D01*
X14938734Y-12590483D01*
X14938736Y-12590484D01*
X14938737Y-12590485D01*
X15035763Y-12646503D01*
X15143982Y-12675500D01*
X15143984Y-12675500D01*
X15256016Y-12675500D01*
X15256018Y-12675500D01*
X15364237Y-12646503D01*
X15461263Y-12590485D01*
X15540485Y-12511263D01*
X15596503Y-12414237D01*
X15605935Y-12379032D01*
X15626379Y-12343622D01*
X15816865Y-12153138D01*
X15822338Y-12143658D01*
X15869592Y-12061812D01*
X15896885Y-11959952D01*
X15896885Y-9967584D01*
X15869592Y-9865724D01*
X15853349Y-9837591D01*
X15831084Y-9799026D01*
X15820500Y-9759526D01*
X15820500Y-8803862D01*
X15808867Y-8745379D01*
X15795404Y-8725231D01*
X15764552Y-8679058D01*
X15698231Y-8634743D01*
X15698230Y-8634742D01*
X15698231Y-8634742D01*
X15639748Y-8623110D01*
X15300252Y-8623110D01*
X15235412Y-8636007D01*
X15208244Y-8636645D01*
X15198994Y-8635253D01*
X15198231Y-8634743D01*
X15139748Y-8623110D01*
X15118302Y-8623110D01*
X15112454Y-8622230D01*
X15093603Y-8611970D01*
X15073430Y-8604628D01*
X15070367Y-8599323D01*
X15064990Y-8596397D01*
X15057143Y-8576419D01*
X15046410Y-8557828D01*
X15046208Y-8548576D01*
X15045235Y-8546098D01*
X15046098Y-8543526D01*
X15046063Y-8541908D01*
X15045500Y-8541908D01*
X15045500Y-8103110D01*
X15063982Y-8052330D01*
X15110782Y-8025310D01*
X15124500Y-8024110D01*
X15389747Y-8024110D01*
X15389748Y-8024110D01*
X15448231Y-8012477D01*
X15448232Y-8012476D01*
X15454587Y-8011212D01*
X15485413Y-8011212D01*
X15491767Y-8012476D01*
X15491769Y-8012477D01*
X15550252Y-8024110D01*
X15550253Y-8024110D01*
X15889748Y-8024110D01*
X15948231Y-8012477D01*
X16014552Y-7968162D01*
X16058867Y-7901841D01*
X16070500Y-7843358D01*
X16070500Y-7214078D01*
X16088982Y-7163298D01*
X16093639Y-7158217D01*
X16160483Y-7091372D01*
X16160485Y-7091370D01*
X16216503Y-6994344D01*
X16245500Y-6886125D01*
X16245500Y-6774089D01*
X16216503Y-6665870D01*
X16190167Y-6620256D01*
X16189082Y-6614100D01*
X16184959Y-6609400D01*
X16184490Y-6588059D01*
X16180784Y-6567039D01*
X16183879Y-6560206D01*
X16183773Y-6555373D01*
X16193527Y-6538907D01*
X16196966Y-6531317D01*
X16198599Y-6529280D01*
X16199934Y-6527827D01*
X16199837Y-6527738D01*
X16218507Y-6504470D01*
X16218670Y-6504370D01*
X16222216Y-6500175D01*
X16228130Y-6493801D01*
X16228877Y-6492996D01*
X16263888Y-6432354D01*
X16268760Y-6423915D01*
X16281311Y-6407557D01*
X16307558Y-6381310D01*
X16323907Y-6368763D01*
X16356084Y-6350186D01*
X16375121Y-6342302D01*
X16410992Y-6332690D01*
X16431433Y-6330000D01*
X16468564Y-6330000D01*
X16489003Y-6332690D01*
G37*
%TD.AperFunction*%
%TA.AperFunction,Conductor*%
G36*
X12741767Y-9712476D02*
G01*
X12741769Y-9712477D01*
X12800252Y-9724110D01*
X12981953Y-9724110D01*
X13032733Y-9742592D01*
X13059753Y-9789392D01*
X13058261Y-9823557D01*
X13054500Y-9837591D01*
X13054500Y-9949630D01*
X13083496Y-10057844D01*
X13083497Y-10057848D01*
X13139516Y-10154875D01*
X13218734Y-10234093D01*
X13218736Y-10234094D01*
X13218737Y-10234095D01*
X13315763Y-10290113D01*
X13355873Y-10300860D01*
X13400139Y-10331854D01*
X13414126Y-10384052D01*
X13391289Y-10433029D01*
X13391288Y-10433029D01*
X12974957Y-10849360D01*
X12939543Y-10869807D01*
X12826114Y-10900200D01*
X12826112Y-10900201D01*
X12724418Y-10958916D01*
X12684918Y-10969500D01*
X12479500Y-10969500D01*
X12428720Y-10951018D01*
X12401700Y-10904218D01*
X12400500Y-10890500D01*
X12400500Y-9803110D01*
X12418982Y-9752330D01*
X12465782Y-9725310D01*
X12479500Y-9724110D01*
X12639747Y-9724110D01*
X12639748Y-9724110D01*
X12698231Y-9712477D01*
X12698232Y-9712476D01*
X12704587Y-9711212D01*
X12735413Y-9711212D01*
X12741767Y-9712476D01*
G37*
%TD.AperFunction*%
%TA.AperFunction,Conductor*%
G36*
X14639005Y-6476300D02*
G01*
X14674875Y-6485911D01*
X14693922Y-6493801D01*
X14703666Y-6499427D01*
X14726082Y-6512369D01*
X14742438Y-6524919D01*
X14795174Y-6577655D01*
X14799995Y-6582476D01*
X14822832Y-6631452D01*
X14812550Y-6677836D01*
X14802453Y-6695323D01*
X14802453Y-6695325D01*
X14773457Y-6803539D01*
X14773457Y-6844110D01*
X14754975Y-6894890D01*
X14708175Y-6921910D01*
X14694457Y-6923110D01*
X14550252Y-6923110D01*
X14485412Y-6936007D01*
X14472827Y-6934070D01*
X14460424Y-6936942D01*
X14454588Y-6936007D01*
X14389748Y-6923110D01*
X14274500Y-6923110D01*
X14255212Y-6916090D01*
X14235000Y-6912526D01*
X14230418Y-6907065D01*
X14223720Y-6904628D01*
X14213458Y-6886853D01*
X14200264Y-6871130D01*
X14198454Y-6860866D01*
X14196700Y-6857828D01*
X14195500Y-6844110D01*
X14195500Y-6833482D01*
X14213982Y-6782702D01*
X14237111Y-6765071D01*
X14237094Y-6765046D01*
X14237634Y-6764672D01*
X14241571Y-6761672D01*
X14242776Y-6761118D01*
X14242780Y-6761118D01*
X14267585Y-6743984D01*
X14318022Y-6709144D01*
X14318022Y-6709143D01*
X14318029Y-6709139D01*
X14351758Y-6672340D01*
X14351757Y-6672339D01*
X14353928Y-6669970D01*
X14353929Y-6669971D01*
X14354402Y-6669456D01*
X14354406Y-6669448D01*
X14356669Y-6666986D01*
X14356719Y-6666927D01*
X14366436Y-6656325D01*
X14377572Y-6638866D01*
X14378897Y-6636570D01*
X14378899Y-6636568D01*
X14380569Y-6633674D01*
X14380568Y-6633673D01*
X14381463Y-6632125D01*
X14388920Y-6619210D01*
X14417998Y-6568844D01*
X14418758Y-6567526D01*
X14431309Y-6551169D01*
X14457558Y-6524920D01*
X14473907Y-6512373D01*
X14506084Y-6493796D01*
X14525121Y-6485912D01*
X14560992Y-6476300D01*
X14581433Y-6473610D01*
X14618564Y-6473610D01*
X14639005Y-6476300D01*
G37*
%TD.AperFunction*%
%TA.AperFunction,Conductor*%
G36*
X12439009Y-6499780D02*
G01*
X12474869Y-6509388D01*
X12493919Y-6517277D01*
X12526084Y-6535848D01*
X12542438Y-6548399D01*
X12568688Y-6574649D01*
X12581241Y-6591007D01*
X12589935Y-6606065D01*
X12589938Y-6606070D01*
X12616393Y-6642151D01*
X12630845Y-6657922D01*
X12639492Y-6667359D01*
X12652664Y-6680127D01*
X12656952Y-6684284D01*
X12695778Y-6704807D01*
X12732035Y-6744878D01*
X12737768Y-6778467D01*
X12737359Y-6786921D01*
X12734500Y-6797592D01*
X12734500Y-6846025D01*
X12734408Y-6847927D01*
X12724646Y-6871182D01*
X12716018Y-6894890D01*
X12714272Y-6895897D01*
X12713493Y-6897755D01*
X12691064Y-6909297D01*
X12669218Y-6921910D01*
X12666009Y-6922190D01*
X12665443Y-6922482D01*
X12664673Y-6922307D01*
X12655500Y-6923110D01*
X12550252Y-6923110D01*
X12485412Y-6936007D01*
X12454588Y-6936007D01*
X12389748Y-6923110D01*
X12254500Y-6923110D01*
X12203720Y-6904628D01*
X12176700Y-6857828D01*
X12175500Y-6844110D01*
X12175500Y-6743984D01*
X12175499Y-6743979D01*
X12160674Y-6688650D01*
X12160994Y-6684990D01*
X12159162Y-6681806D01*
X12163316Y-6658447D01*
X12165384Y-6634817D01*
X12168162Y-6631201D01*
X12168625Y-6628601D01*
X12178070Y-6618308D01*
X12186293Y-6607610D01*
X12188884Y-6605441D01*
X12227687Y-6578272D01*
X12260046Y-6545912D01*
X12262731Y-6543666D01*
X12264616Y-6542982D01*
X12273915Y-6535847D01*
X12306082Y-6517276D01*
X12325121Y-6509390D01*
X12360992Y-6499778D01*
X12381433Y-6497088D01*
X12418564Y-6497088D01*
X12439009Y-6499780D01*
G37*
%TD.AperFunction*%
%TD*%
%TA.AperFunction,Conductor*%
%TO.N,VBUS_USB3*%
G36*
X14020655Y-16018482D02*
G01*
X14025736Y-16023139D01*
X14418731Y-16416134D01*
X14441569Y-16465110D01*
X14441870Y-16471995D01*
X14441870Y-17921000D01*
X14423388Y-17971780D01*
X14376588Y-17998800D01*
X14362870Y-18000000D01*
X13705176Y-18000000D01*
X13694866Y-17999324D01*
X13657090Y-17994350D01*
X13580900Y-17984320D01*
X13560980Y-17978982D01*
X13459612Y-17936994D01*
X13441752Y-17926683D01*
X13354698Y-17859884D01*
X13340115Y-17845301D01*
X13273316Y-17758247D01*
X13263005Y-17740387D01*
X13221017Y-17639019D01*
X13215679Y-17619098D01*
X13200676Y-17505134D01*
X13200000Y-17494823D01*
X13200000Y-16505176D01*
X13200676Y-16494865D01*
X13211041Y-16416134D01*
X13215680Y-16380897D01*
X13221015Y-16360984D01*
X13263007Y-16259608D01*
X13273316Y-16241752D01*
X13296827Y-16211112D01*
X13340118Y-16154694D01*
X13354696Y-16140117D01*
X13441752Y-16073316D01*
X13459608Y-16063007D01*
X13560984Y-16021015D01*
X13580897Y-16015680D01*
X13694865Y-16000675D01*
X13705176Y-16000000D01*
X13969875Y-16000000D01*
X14020655Y-16018482D01*
G37*
%TD.AperFunction*%
%TA.AperFunction,Conductor*%
G36*
X18605134Y-16000675D02*
G01*
X18719101Y-16015679D01*
X18739017Y-16021016D01*
X18840387Y-16063005D01*
X18858247Y-16073316D01*
X18945303Y-16140117D01*
X18959884Y-16154698D01*
X19003174Y-16211114D01*
X19019500Y-16259205D01*
X19019500Y-17740673D01*
X19013601Y-17756880D01*
X19012098Y-17774060D01*
X19002207Y-17788185D01*
X19001018Y-17791453D01*
X18996361Y-17796535D01*
X18896144Y-17896751D01*
X18888376Y-17903563D01*
X18858248Y-17926682D01*
X18840387Y-17936994D01*
X18739019Y-17978982D01*
X18719099Y-17984320D01*
X18634865Y-17995409D01*
X18605133Y-17999324D01*
X18594824Y-18000000D01*
X18044812Y-18000000D01*
X17994032Y-17981518D01*
X17967012Y-17934718D01*
X17971320Y-17892019D01*
X18010977Y-17791453D01*
X18014877Y-17781564D01*
X18025500Y-17693102D01*
X18025500Y-16079000D01*
X18043982Y-16028220D01*
X18090782Y-16001200D01*
X18104500Y-16000000D01*
X18594824Y-16000000D01*
X18605134Y-16000675D01*
G37*
%TD.AperFunction*%
%TD*%
%TA.AperFunction,Conductor*%
%TO.N,Net-(J3-SHIELD)*%
G36*
X16837482Y-21755902D02*
G01*
X16909890Y-21881318D01*
X17012292Y-21983720D01*
X17137708Y-22056128D01*
X17179764Y-22067397D01*
X16695669Y-22551492D01*
X16695669Y-22551493D01*
X16721056Y-22569937D01*
X16721062Y-22569941D01*
X16889349Y-22655689D01*
X16889365Y-22655696D01*
X17068986Y-22714058D01*
X17069009Y-22714064D01*
X17255546Y-22743608D01*
X17255563Y-22743610D01*
X17444437Y-22743610D01*
X17444453Y-22743608D01*
X17630990Y-22714064D01*
X17631009Y-22714059D01*
X17806087Y-22657173D01*
X17860094Y-22659058D01*
X17900253Y-22695218D01*
X17909500Y-22732306D01*
X17909500Y-23299309D01*
X17917590Y-23329501D01*
X17940200Y-23413884D01*
X17940201Y-23413888D01*
X17951500Y-23433458D01*
X17999511Y-23516614D01*
X18176861Y-23693964D01*
X18199699Y-23742939D01*
X18200000Y-23749825D01*
X18200000Y-26282331D01*
X18181518Y-26333111D01*
X18134718Y-26360131D01*
X18096588Y-26357465D01*
X17991002Y-26323158D01*
X17990990Y-26323155D01*
X17804453Y-26293611D01*
X17804437Y-26293610D01*
X17615563Y-26293610D01*
X17615546Y-26293611D01*
X17429009Y-26323155D01*
X17428986Y-26323161D01*
X17249365Y-26381523D01*
X17249344Y-26381532D01*
X17081068Y-26467274D01*
X17081059Y-26467280D01*
X17055669Y-26485725D01*
X17539766Y-26969822D01*
X17497708Y-26981092D01*
X17372292Y-27053500D01*
X17269890Y-27155902D01*
X17197482Y-27281318D01*
X17186212Y-27323375D01*
X16702115Y-26839279D01*
X16683670Y-26864669D01*
X16683664Y-26864678D01*
X16597922Y-27032954D01*
X16597913Y-27032975D01*
X16539551Y-27212596D01*
X16539545Y-27212619D01*
X16510001Y-27399156D01*
X16510000Y-27399172D01*
X16510000Y-27588047D01*
X16510001Y-27588063D01*
X16539545Y-27774600D01*
X16539551Y-27774623D01*
X16597913Y-27954244D01*
X16597920Y-27954260D01*
X16683667Y-28122546D01*
X16702116Y-28147939D01*
X17186212Y-27663843D01*
X17197482Y-27705902D01*
X17269890Y-27831318D01*
X17372292Y-27933720D01*
X17497708Y-28006128D01*
X17539765Y-28017397D01*
X17080802Y-28476361D01*
X17031826Y-28499199D01*
X17024941Y-28499500D01*
X9415059Y-28499500D01*
X9364279Y-28481018D01*
X9359198Y-28476361D01*
X8900233Y-28017397D01*
X8942292Y-28006128D01*
X9067708Y-27933720D01*
X9170110Y-27831318D01*
X9242518Y-27705902D01*
X9253787Y-27663844D01*
X9737882Y-28147939D01*
X9756329Y-28122550D01*
X9756334Y-28122540D01*
X9842079Y-27954260D01*
X9842086Y-27954244D01*
X9900448Y-27774623D01*
X9900454Y-27774600D01*
X9929998Y-27588063D01*
X9930000Y-27588047D01*
X9930000Y-27399172D01*
X9929998Y-27399156D01*
X9900454Y-27212619D01*
X9900448Y-27212596D01*
X9842086Y-27032975D01*
X9842079Y-27032959D01*
X9756331Y-26864672D01*
X9756327Y-26864666D01*
X9737882Y-26839279D01*
X9253787Y-27323374D01*
X9242518Y-27281318D01*
X9170110Y-27155902D01*
X9067708Y-27053500D01*
X8942292Y-26981092D01*
X8900232Y-26969822D01*
X9384329Y-26485726D01*
X9358936Y-26467277D01*
X9190650Y-26381530D01*
X9190634Y-26381523D01*
X9011013Y-26323161D01*
X9010990Y-26323155D01*
X8824453Y-26293611D01*
X8824437Y-26293610D01*
X8635563Y-26293610D01*
X8635546Y-26293611D01*
X8449009Y-26323155D01*
X8448997Y-26323158D01*
X8303412Y-26370462D01*
X8249406Y-26368575D01*
X8209247Y-26332416D01*
X8200000Y-26295328D01*
X8200000Y-22535315D01*
X8218482Y-22484535D01*
X8265282Y-22457515D01*
X8318500Y-22466899D01*
X8325435Y-22471403D01*
X8461056Y-22569937D01*
X8461062Y-22569941D01*
X8629349Y-22655689D01*
X8629365Y-22655696D01*
X8808986Y-22714058D01*
X8809009Y-22714064D01*
X8995546Y-22743608D01*
X8995563Y-22743610D01*
X9184437Y-22743610D01*
X9184453Y-22743608D01*
X9370990Y-22714064D01*
X9371013Y-22714058D01*
X9550634Y-22655696D01*
X9550650Y-22655689D01*
X9718931Y-22569944D01*
X9718935Y-22569941D01*
X9723485Y-22566636D01*
X9775429Y-22551735D01*
X9809426Y-22562126D01*
X9857164Y-22589688D01*
X9990817Y-22625500D01*
X9990819Y-22625500D01*
X10129181Y-22625500D01*
X10129183Y-22625500D01*
X10262836Y-22589688D01*
X10382665Y-22520505D01*
X10433970Y-22469198D01*
X10482945Y-22446360D01*
X10510273Y-22448750D01*
X10590817Y-22470332D01*
X10590819Y-22470332D01*
X10729181Y-22470332D01*
X10729183Y-22470332D01*
X10862836Y-22434520D01*
X10930219Y-22395615D01*
X10983435Y-22386232D01*
X11009214Y-22395614D01*
X11057164Y-22423298D01*
X11190817Y-22459110D01*
X11190819Y-22459110D01*
X11329181Y-22459110D01*
X11329183Y-22459110D01*
X11448191Y-22427222D01*
X11502024Y-22431932D01*
X11524498Y-22447669D01*
X11597332Y-22520503D01*
X11597334Y-22520504D01*
X11597335Y-22520505D01*
X11717164Y-22589688D01*
X11850817Y-22625500D01*
X11850819Y-22625500D01*
X11989181Y-22625500D01*
X11989183Y-22625500D01*
X12122836Y-22589688D01*
X12242665Y-22520505D01*
X12340505Y-22422665D01*
X12409688Y-22302836D01*
X12445500Y-22169183D01*
X12445500Y-22063109D01*
X12463982Y-22012329D01*
X12510782Y-21985309D01*
X12524500Y-21984109D01*
X12525126Y-21984109D01*
X12525135Y-21984110D01*
X12914864Y-21984109D01*
X12939991Y-21981195D01*
X12939996Y-21981192D01*
X12945728Y-21979634D01*
X12946234Y-21981494D01*
X12991989Y-21978424D01*
X12998394Y-21980755D01*
X13000005Y-21981193D01*
X13000009Y-21981195D01*
X13025135Y-21984110D01*
X13414864Y-21984109D01*
X13439991Y-21981195D01*
X13439996Y-21981192D01*
X13445728Y-21979634D01*
X13446234Y-21981494D01*
X13455081Y-21980900D01*
X13471188Y-21975311D01*
X13486953Y-21978761D01*
X13491989Y-21978424D01*
X13498133Y-21980481D01*
X13503633Y-21982577D01*
X13504147Y-21983021D01*
X13505454Y-21983599D01*
X13505277Y-21983999D01*
X13521303Y-21997862D01*
X13540389Y-22011338D01*
X13541692Y-22015500D01*
X13544502Y-22017931D01*
X13546665Y-22031381D01*
X13554500Y-22056398D01*
X13554500Y-22169185D01*
X13590311Y-22302833D01*
X13590312Y-22302837D01*
X13659496Y-22422667D01*
X13757332Y-22520503D01*
X13757334Y-22520504D01*
X13757335Y-22520505D01*
X13877164Y-22589688D01*
X14010817Y-22625500D01*
X14010819Y-22625500D01*
X14149181Y-22625500D01*
X14149183Y-22625500D01*
X14282836Y-22589688D01*
X14402665Y-22520505D01*
X14463387Y-22459781D01*
X14512363Y-22436944D01*
X14539693Y-22439334D01*
X14650817Y-22469110D01*
X14650819Y-22469110D01*
X14789181Y-22469110D01*
X14789183Y-22469110D01*
X14922836Y-22433298D01*
X14953985Y-22415313D01*
X15007201Y-22405929D01*
X15032980Y-22415311D01*
X15127164Y-22469688D01*
X15260817Y-22505500D01*
X15260819Y-22505500D01*
X15399181Y-22505500D01*
X15399183Y-22505500D01*
X15532836Y-22469688D01*
X15651309Y-22401287D01*
X15704526Y-22391904D01*
X15730307Y-22401288D01*
X15797161Y-22439886D01*
X15797162Y-22439886D01*
X15797164Y-22439887D01*
X15930817Y-22475699D01*
X15930819Y-22475699D01*
X16069181Y-22475699D01*
X16069183Y-22475699D01*
X16202836Y-22439887D01*
X16322665Y-22370704D01*
X16420505Y-22272864D01*
X16489688Y-22153035D01*
X16521788Y-22033233D01*
X16542234Y-21997821D01*
X16826212Y-21713843D01*
X16837482Y-21755902D01*
G37*
%TD.AperFunction*%
%TD*%
%TA.AperFunction,Conductor*%
%TO.N,Net-(J2-SHIELD)*%
G36*
X16679256Y-506623D02*
G01*
X16697062Y-508495D01*
X16703925Y-515602D01*
X16713211Y-518982D01*
X16722163Y-534489D01*
X16734601Y-547368D01*
X16735290Y-557224D01*
X16740231Y-565782D01*
X16737121Y-583414D01*
X16738371Y-601275D01*
X16731481Y-615399D01*
X16730847Y-619000D01*
X16726343Y-625935D01*
X16683672Y-684666D01*
X16683668Y-684672D01*
X16597920Y-852959D01*
X16597913Y-852975D01*
X16539551Y-1032596D01*
X16539545Y-1032619D01*
X16510001Y-1219156D01*
X16510000Y-1219172D01*
X16510000Y-1408047D01*
X16510001Y-1408063D01*
X16539545Y-1594600D01*
X16539551Y-1594623D01*
X16597913Y-1774244D01*
X16597920Y-1774260D01*
X16683667Y-1942546D01*
X16702116Y-1967939D01*
X17186212Y-1483842D01*
X17197482Y-1525902D01*
X17269890Y-1651318D01*
X17372292Y-1753720D01*
X17497708Y-1826128D01*
X17539764Y-1837397D01*
X17055669Y-2321492D01*
X17055669Y-2321493D01*
X17081056Y-2339937D01*
X17081062Y-2339941D01*
X17249349Y-2425689D01*
X17249365Y-2425696D01*
X17428986Y-2484058D01*
X17429009Y-2484064D01*
X17615546Y-2513608D01*
X17615563Y-2513610D01*
X17804437Y-2513610D01*
X17804453Y-2513608D01*
X17990990Y-2484064D01*
X17991013Y-2484058D01*
X18170634Y-2425696D01*
X18170650Y-2425689D01*
X18338930Y-2339944D01*
X18338940Y-2339939D01*
X18364329Y-2321492D01*
X17880235Y-1837397D01*
X17922292Y-1826128D01*
X18047708Y-1753720D01*
X18150110Y-1651318D01*
X18222518Y-1525902D01*
X18233787Y-1483843D01*
X18717882Y-1967939D01*
X18729790Y-1967002D01*
X18752568Y-1951638D01*
X18806312Y-1957285D01*
X18843851Y-1996157D01*
X18850657Y-2026317D01*
X18987056Y-7482241D01*
X18986621Y-7492730D01*
X18974035Y-7608818D01*
X18969035Y-7629161D01*
X18928321Y-7732913D01*
X18918150Y-7751228D01*
X18851599Y-7840628D01*
X18836973Y-7855625D01*
X18749259Y-7924394D01*
X18731203Y-7935020D01*
X18628504Y-7978313D01*
X18608292Y-7983819D01*
X18492555Y-7999302D01*
X18482080Y-8000000D01*
X18450498Y-8000000D01*
X18399718Y-7981518D01*
X18372698Y-7934718D01*
X18380109Y-7885134D01*
X18462079Y-7724260D01*
X18462086Y-7724244D01*
X18520448Y-7544623D01*
X18520454Y-7544600D01*
X18549998Y-7358063D01*
X18550000Y-7358047D01*
X18550000Y-7169172D01*
X18549998Y-7169156D01*
X18520454Y-6982619D01*
X18520448Y-6982596D01*
X18462086Y-6802975D01*
X18462079Y-6802959D01*
X18376331Y-6634672D01*
X18376327Y-6634666D01*
X18357882Y-6609279D01*
X17873787Y-7093374D01*
X17862518Y-7051318D01*
X17790110Y-6925902D01*
X17687708Y-6823500D01*
X17562292Y-6751092D01*
X17520233Y-6739822D01*
X18004329Y-6255726D01*
X17978936Y-6237277D01*
X17810650Y-6151530D01*
X17810634Y-6151523D01*
X17631013Y-6093161D01*
X17630990Y-6093155D01*
X17444453Y-6063611D01*
X17444437Y-6063610D01*
X17255563Y-6063610D01*
X17255546Y-6063611D01*
X17069009Y-6093155D01*
X17068986Y-6093161D01*
X16889364Y-6151524D01*
X16889355Y-6151528D01*
X16779617Y-6207441D01*
X16725981Y-6214026D01*
X16704253Y-6205467D01*
X16614238Y-6153497D01*
X16614234Y-6153496D01*
X16506020Y-6124500D01*
X16506018Y-6124500D01*
X16393982Y-6124500D01*
X16393979Y-6124500D01*
X16285765Y-6153496D01*
X16285761Y-6153497D01*
X16188734Y-6209516D01*
X16109516Y-6288734D01*
X16050908Y-6390247D01*
X16048532Y-6388875D01*
X16018690Y-6421391D01*
X15965108Y-6428403D01*
X15961821Y-6427597D01*
X15876020Y-6404607D01*
X15876018Y-6404607D01*
X15763982Y-6404607D01*
X15763979Y-6404607D01*
X15655765Y-6433603D01*
X15655761Y-6433604D01*
X15558736Y-6489622D01*
X15546867Y-6501491D01*
X15497890Y-6524328D01*
X15451507Y-6514044D01*
X15363195Y-6463057D01*
X15363191Y-6463056D01*
X15254977Y-6434060D01*
X15254975Y-6434060D01*
X15142939Y-6434060D01*
X15142936Y-6434060D01*
X15029718Y-6464397D01*
X15029199Y-6462460D01*
X14982985Y-6464470D01*
X14945061Y-6435359D01*
X14943636Y-6436453D01*
X14940484Y-6432345D01*
X14861265Y-6353126D01*
X14764238Y-6297107D01*
X14764234Y-6297106D01*
X14656020Y-6268110D01*
X14656018Y-6268110D01*
X14543982Y-6268110D01*
X14543979Y-6268110D01*
X14435765Y-6297106D01*
X14435761Y-6297107D01*
X14338734Y-6353126D01*
X14259516Y-6432344D01*
X14203495Y-6529375D01*
X14203051Y-6530448D01*
X14202578Y-6530963D01*
X14200908Y-6533857D01*
X14200266Y-6533486D01*
X14166537Y-6570285D01*
X14112960Y-6577332D01*
X14074207Y-6556068D01*
X14031265Y-6513126D01*
X13934238Y-6457107D01*
X13934234Y-6457106D01*
X13826020Y-6428110D01*
X13826018Y-6428110D01*
X13713982Y-6428110D01*
X13713979Y-6428110D01*
X13605765Y-6457106D01*
X13605761Y-6457107D01*
X13504500Y-6515571D01*
X13451282Y-6524955D01*
X13425500Y-6515571D01*
X13324238Y-6457107D01*
X13324234Y-6457106D01*
X13216020Y-6428110D01*
X13216018Y-6428110D01*
X13103982Y-6428110D01*
X13103979Y-6428110D01*
X12995765Y-6457106D01*
X12995761Y-6457107D01*
X12898735Y-6513125D01*
X12892180Y-6519681D01*
X12843202Y-6542517D01*
X12791005Y-6528528D01*
X12767905Y-6503318D01*
X12766850Y-6501491D01*
X12740485Y-6455825D01*
X12740483Y-6455823D01*
X12740482Y-6455821D01*
X12661265Y-6376604D01*
X12564238Y-6320585D01*
X12564234Y-6320584D01*
X12456020Y-6291588D01*
X12456018Y-6291588D01*
X12343982Y-6291588D01*
X12343979Y-6291588D01*
X12235765Y-6320584D01*
X12235761Y-6320585D01*
X12138736Y-6376603D01*
X12082377Y-6432962D01*
X12033401Y-6455799D01*
X11987016Y-6445516D01*
X11914238Y-6403497D01*
X11914234Y-6403496D01*
X11806020Y-6374500D01*
X11806018Y-6374500D01*
X11693982Y-6374500D01*
X11693979Y-6374500D01*
X11585765Y-6403496D01*
X11585761Y-6403497D01*
X11488736Y-6459515D01*
X11450203Y-6498048D01*
X11401226Y-6520885D01*
X11349029Y-6506898D01*
X11331664Y-6490274D01*
X11330480Y-6488731D01*
X11251265Y-6409516D01*
X11154238Y-6353497D01*
X11154234Y-6353496D01*
X11046020Y-6324500D01*
X11046018Y-6324500D01*
X10933982Y-6324500D01*
X10933979Y-6324500D01*
X10825765Y-6353496D01*
X10825761Y-6353497D01*
X10728734Y-6409516D01*
X10706839Y-6431412D01*
X10657863Y-6454250D01*
X10611478Y-6443967D01*
X10513187Y-6387218D01*
X10513183Y-6387217D01*
X10385894Y-6353110D01*
X10385892Y-6353110D01*
X10254108Y-6353110D01*
X10254105Y-6353110D01*
X10126816Y-6387217D01*
X10126812Y-6387218D01*
X10012683Y-6453111D01*
X9919501Y-6546293D01*
X9853608Y-6660422D01*
X9853607Y-6660426D01*
X9819500Y-6787715D01*
X9819500Y-6854941D01*
X9801018Y-6905721D01*
X9796361Y-6910802D01*
X9613787Y-7093375D01*
X9602518Y-7051318D01*
X9530110Y-6925902D01*
X9427708Y-6823500D01*
X9302292Y-6751092D01*
X9260234Y-6739822D01*
X9744329Y-6255726D01*
X9718936Y-6237277D01*
X9550650Y-6151530D01*
X9550634Y-6151523D01*
X9371013Y-6093161D01*
X9370990Y-6093155D01*
X9184453Y-6063611D01*
X9184437Y-6063610D01*
X8995563Y-6063610D01*
X8995546Y-6063611D01*
X8809009Y-6093155D01*
X8808986Y-6093161D01*
X8629365Y-6151523D01*
X8629344Y-6151532D01*
X8461068Y-6237274D01*
X8461059Y-6237280D01*
X8435669Y-6255725D01*
X8919765Y-6739822D01*
X8877708Y-6751092D01*
X8752292Y-6823500D01*
X8649890Y-6925902D01*
X8577482Y-7051318D01*
X8566212Y-7093376D01*
X8082115Y-6609279D01*
X8063670Y-6634669D01*
X8063664Y-6634678D01*
X7977922Y-6802954D01*
X7977913Y-6802975D01*
X7919551Y-6982596D01*
X7919545Y-6982619D01*
X7890001Y-7169156D01*
X7890000Y-7169172D01*
X7890000Y-7358047D01*
X7890001Y-7358063D01*
X7919545Y-7544600D01*
X7919551Y-7544623D01*
X7977913Y-7724244D01*
X7977920Y-7724260D01*
X8049743Y-7865218D01*
X8052994Y-7891696D01*
X8056481Y-7918183D01*
X8056284Y-7918491D01*
X8056329Y-7918855D01*
X8041777Y-7941262D01*
X8027446Y-7963759D01*
X8027097Y-7963868D01*
X8026898Y-7964176D01*
X8001357Y-7971984D01*
X7975908Y-7980009D01*
X7975446Y-7979906D01*
X7975220Y-7979976D01*
X7949123Y-7974071D01*
X7859608Y-7936992D01*
X7841752Y-7926683D01*
X7754698Y-7859884D01*
X7740115Y-7845301D01*
X7673316Y-7758247D01*
X7663005Y-7740387D01*
X7656323Y-7724255D01*
X7621016Y-7639017D01*
X7615679Y-7619098D01*
X7600676Y-7505134D01*
X7600000Y-7494823D01*
X7600000Y-2042998D01*
X7618482Y-1992218D01*
X7665282Y-1965198D01*
X7685518Y-1968766D01*
X7685808Y-1965082D01*
X7722116Y-1967939D01*
X8206212Y-1483842D01*
X8217482Y-1525902D01*
X8289890Y-1651318D01*
X8392292Y-1753720D01*
X8517708Y-1826128D01*
X8559764Y-1837397D01*
X8075669Y-2321492D01*
X8075669Y-2321493D01*
X8101056Y-2339937D01*
X8101062Y-2339941D01*
X8269349Y-2425689D01*
X8269365Y-2425696D01*
X8448986Y-2484058D01*
X8449009Y-2484064D01*
X8635546Y-2513608D01*
X8635563Y-2513610D01*
X8824437Y-2513610D01*
X8824453Y-2513608D01*
X9010990Y-2484064D01*
X9011013Y-2484058D01*
X9190634Y-2425696D01*
X9190650Y-2425689D01*
X9358930Y-2339944D01*
X9358940Y-2339939D01*
X9384329Y-2321492D01*
X8900235Y-1837397D01*
X8942292Y-1826128D01*
X9067708Y-1753720D01*
X9170110Y-1651318D01*
X9242518Y-1525902D01*
X9253787Y-1483843D01*
X9737882Y-1967939D01*
X9756327Y-1942552D01*
X9756334Y-1942540D01*
X9842079Y-1774260D01*
X9842086Y-1774244D01*
X9900448Y-1594623D01*
X9900454Y-1594600D01*
X9929998Y-1408063D01*
X9930000Y-1408047D01*
X9930000Y-1219172D01*
X9929998Y-1219156D01*
X9900454Y-1032619D01*
X9900448Y-1032596D01*
X9842086Y-852975D01*
X9842079Y-852959D01*
X9756331Y-684672D01*
X9756327Y-684666D01*
X9713657Y-625935D01*
X9698761Y-573989D01*
X9720741Y-524622D01*
X9769311Y-500933D01*
X9777569Y-500500D01*
X16662431Y-500500D01*
X16679256Y-506623D01*
G37*
%TD.AperFunction*%
%TD*%
%TA.AperFunction,Conductor*%
%TO.N,Net-(J1-SHIELD)*%
G36*
X40005134Y-23100675D02*
G01*
X40119101Y-23115679D01*
X40139017Y-23121016D01*
X40240387Y-23163005D01*
X40258247Y-23173316D01*
X40345301Y-23240115D01*
X40359884Y-23254698D01*
X40426683Y-23341752D01*
X40436994Y-23359612D01*
X40478982Y-23460980D01*
X40484320Y-23480900D01*
X40498669Y-23589893D01*
X40498824Y-23591066D01*
X40499500Y-23601378D01*
X40499500Y-27995561D01*
X40499003Y-28004412D01*
X40496610Y-28025636D01*
X40496431Y-28027096D01*
X40485460Y-28110433D01*
X40481703Y-28126214D01*
X40468386Y-28164272D01*
X40466806Y-28168411D01*
X40443081Y-28225690D01*
X40436984Y-28237491D01*
X40413517Y-28274837D01*
X40409302Y-28280897D01*
X40373680Y-28327321D01*
X40366866Y-28335090D01*
X40335090Y-28366866D01*
X40327321Y-28373680D01*
X40280897Y-28409302D01*
X40274837Y-28413517D01*
X40237491Y-28436984D01*
X40225690Y-28443081D01*
X40168411Y-28466806D01*
X40164272Y-28468386D01*
X40126214Y-28481703D01*
X40110433Y-28485460D01*
X40027096Y-28496431D01*
X40025637Y-28496610D01*
X40009046Y-28498480D01*
X40004407Y-28499003D01*
X39995562Y-28499500D01*
X39109926Y-28499500D01*
X39059146Y-28481018D01*
X39032126Y-28434218D01*
X39041510Y-28381000D01*
X39066036Y-28354814D01*
X39177461Y-28280362D01*
X39177468Y-28280356D01*
X39316746Y-28141078D01*
X39316752Y-28141071D01*
X39426188Y-27977288D01*
X39426191Y-27977282D01*
X39501569Y-27795303D01*
X39501570Y-27795299D01*
X39540000Y-27602100D01*
X39540000Y-27453610D01*
X38840000Y-27453610D01*
X38840000Y-26953610D01*
X39540000Y-26953610D01*
X39540000Y-26805119D01*
X39501570Y-26611920D01*
X39501569Y-26611916D01*
X39426191Y-26429937D01*
X39426188Y-26429931D01*
X39316752Y-26266148D01*
X39316746Y-26266141D01*
X39177468Y-26126863D01*
X39177461Y-26126857D01*
X39013678Y-26017421D01*
X39013672Y-26017418D01*
X38831694Y-25942040D01*
X38831691Y-25942039D01*
X38790000Y-25933745D01*
X38790000Y-26736621D01*
X38780060Y-26719405D01*
X38724205Y-26663550D01*
X38655796Y-26624054D01*
X38579496Y-26603610D01*
X38500504Y-26603610D01*
X38424204Y-26624054D01*
X38355795Y-26663550D01*
X38299940Y-26719405D01*
X38290000Y-26736621D01*
X38290000Y-25933745D01*
X38248308Y-25942039D01*
X38248305Y-25942040D01*
X38066327Y-26017418D01*
X38066321Y-26017421D01*
X37902538Y-26126857D01*
X37902531Y-26126863D01*
X37763253Y-26266141D01*
X37763247Y-26266148D01*
X37653811Y-26429931D01*
X37653808Y-26429937D01*
X37578430Y-26611916D01*
X37578429Y-26611920D01*
X37540000Y-26805119D01*
X37540000Y-26953610D01*
X38240000Y-26953610D01*
X38240000Y-27453610D01*
X37540000Y-27453610D01*
X37540000Y-27602100D01*
X37578429Y-27795299D01*
X37578430Y-27795303D01*
X37653808Y-27977282D01*
X37653811Y-27977288D01*
X37763247Y-28141071D01*
X37763253Y-28141078D01*
X37902531Y-28280356D01*
X37902538Y-28280362D01*
X38013964Y-28354814D01*
X38045918Y-28398393D01*
X38042384Y-28452317D01*
X38005015Y-28491353D01*
X37970074Y-28499500D01*
X30469926Y-28499500D01*
X30419146Y-28481018D01*
X30392126Y-28434218D01*
X30401510Y-28381000D01*
X30426036Y-28354814D01*
X30537461Y-28280362D01*
X30537468Y-28280356D01*
X30676746Y-28141078D01*
X30676752Y-28141071D01*
X30786188Y-27977288D01*
X30786191Y-27977282D01*
X30861569Y-27795303D01*
X30861570Y-27795299D01*
X30900000Y-27602100D01*
X30900000Y-27453610D01*
X30200000Y-27453610D01*
X30200000Y-26953610D01*
X30900000Y-26953610D01*
X30900000Y-26805119D01*
X30861570Y-26611920D01*
X30861569Y-26611916D01*
X30786191Y-26429937D01*
X30786188Y-26429931D01*
X30676752Y-26266148D01*
X30676746Y-26266141D01*
X30537468Y-26126863D01*
X30537461Y-26126857D01*
X30373678Y-26017421D01*
X30373672Y-26017418D01*
X30191694Y-25942040D01*
X30191691Y-25942039D01*
X30150000Y-25933745D01*
X30150000Y-26736621D01*
X30140060Y-26719405D01*
X30084205Y-26663550D01*
X30015796Y-26624054D01*
X29939496Y-26603610D01*
X29860504Y-26603610D01*
X29784204Y-26624054D01*
X29715795Y-26663550D01*
X29659940Y-26719405D01*
X29650000Y-26736621D01*
X29650000Y-25933745D01*
X29608308Y-25942039D01*
X29608305Y-25942040D01*
X29426327Y-26017418D01*
X29426321Y-26017421D01*
X29322890Y-26086532D01*
X29270399Y-26099376D01*
X29221933Y-26075475D01*
X29200169Y-26026013D01*
X29200000Y-26020846D01*
X29200000Y-24456373D01*
X29218482Y-24405593D01*
X29265282Y-24378573D01*
X29318500Y-24387957D01*
X29322890Y-24390687D01*
X29426321Y-24459798D01*
X29426327Y-24459801D01*
X29608306Y-24535179D01*
X29608311Y-24535181D01*
X29649999Y-24543473D01*
X29650000Y-24543472D01*
X29650000Y-23740598D01*
X29659940Y-23757815D01*
X29715795Y-23813670D01*
X29784204Y-23853166D01*
X29860504Y-23873610D01*
X29939496Y-23873610D01*
X30015796Y-23853166D01*
X30084205Y-23813670D01*
X30140060Y-23757815D01*
X30150000Y-23740598D01*
X30150000Y-24543473D01*
X30191688Y-24535181D01*
X30191693Y-24535179D01*
X30373672Y-24459801D01*
X30373678Y-24459798D01*
X30537461Y-24350362D01*
X30537468Y-24350356D01*
X30676746Y-24211078D01*
X30676752Y-24211071D01*
X30786186Y-24047291D01*
X30806436Y-23998404D01*
X30842944Y-23958562D01*
X30896521Y-23951509D01*
X30935284Y-23972775D01*
X30976632Y-24014123D01*
X30976634Y-24014124D01*
X30976635Y-24014125D01*
X31107865Y-24089891D01*
X31254234Y-24129110D01*
X31254236Y-24129110D01*
X31405764Y-24129110D01*
X31405766Y-24129110D01*
X31552135Y-24089891D01*
X31683365Y-24014125D01*
X31790515Y-23906975D01*
X31866281Y-23775745D01*
X31905500Y-23629376D01*
X31905500Y-23477844D01*
X31866281Y-23331475D01*
X31820746Y-23252607D01*
X31811363Y-23199391D01*
X31838382Y-23152592D01*
X31889162Y-23134109D01*
X32114858Y-23134109D01*
X32114864Y-23134109D01*
X32139991Y-23131195D01*
X32163089Y-23120995D01*
X32217007Y-23117391D01*
X32226905Y-23120993D01*
X32250009Y-23131195D01*
X32275135Y-23134110D01*
X32664864Y-23134109D01*
X32689991Y-23131195D01*
X32689996Y-23131192D01*
X32695728Y-23129634D01*
X32696234Y-23131494D01*
X32741989Y-23128424D01*
X32748394Y-23130755D01*
X32750005Y-23131193D01*
X32750009Y-23131195D01*
X32775135Y-23134110D01*
X32991087Y-23134109D01*
X33041867Y-23152591D01*
X33059502Y-23173607D01*
X33109511Y-23260224D01*
X33109512Y-23260225D01*
X33109514Y-23260228D01*
X33373384Y-23524098D01*
X33432694Y-23558340D01*
X33432695Y-23558341D01*
X33476112Y-23583408D01*
X33476114Y-23583409D01*
X33590691Y-23614110D01*
X33590693Y-23614110D01*
X34329308Y-23614110D01*
X34329309Y-23614110D01*
X34415307Y-23591066D01*
X34419670Y-23589897D01*
X34419670Y-23589896D01*
X34419673Y-23589896D01*
X34443887Y-23583409D01*
X34546614Y-23524099D01*
X34830490Y-23240224D01*
X34868950Y-23173609D01*
X34910346Y-23138873D01*
X34937366Y-23134109D01*
X35164858Y-23134109D01*
X35164864Y-23134109D01*
X35189991Y-23131195D01*
X35189996Y-23131192D01*
X35195728Y-23129634D01*
X35196234Y-23131494D01*
X35241989Y-23128424D01*
X35248394Y-23130755D01*
X35250005Y-23131193D01*
X35250009Y-23131195D01*
X35275135Y-23134110D01*
X35664864Y-23134109D01*
X35689991Y-23131195D01*
X35689996Y-23131192D01*
X35695728Y-23129634D01*
X35696234Y-23131494D01*
X35741989Y-23128424D01*
X35748394Y-23130755D01*
X35750005Y-23131193D01*
X35750009Y-23131195D01*
X35775135Y-23134110D01*
X36164864Y-23134109D01*
X36189991Y-23131195D01*
X36213089Y-23120995D01*
X36267007Y-23117391D01*
X36276905Y-23120993D01*
X36300009Y-23131195D01*
X36325135Y-23134110D01*
X36550837Y-23134109D01*
X36601616Y-23152591D01*
X36628636Y-23199390D01*
X36619252Y-23252609D01*
X36573719Y-23331473D01*
X36573718Y-23331477D01*
X36534500Y-23477841D01*
X36534500Y-23629378D01*
X36573718Y-23775742D01*
X36573719Y-23775746D01*
X36649486Y-23906977D01*
X36756632Y-24014123D01*
X36756634Y-24014124D01*
X36756635Y-24014125D01*
X36887865Y-24089891D01*
X37034234Y-24129110D01*
X37034236Y-24129110D01*
X37185764Y-24129110D01*
X37185766Y-24129110D01*
X37332135Y-24089891D01*
X37463365Y-24014125D01*
X37504715Y-23972774D01*
X37553690Y-23949937D01*
X37605888Y-23963922D01*
X37633562Y-23998404D01*
X37653808Y-24047282D01*
X37653811Y-24047288D01*
X37763247Y-24211071D01*
X37763253Y-24211078D01*
X37902531Y-24350356D01*
X37902538Y-24350362D01*
X38066321Y-24459798D01*
X38066327Y-24459801D01*
X38248306Y-24535179D01*
X38248311Y-24535181D01*
X38289999Y-24543473D01*
X38290000Y-24543472D01*
X38290000Y-23740598D01*
X38299940Y-23757815D01*
X38355795Y-23813670D01*
X38424204Y-23853166D01*
X38500504Y-23873610D01*
X38579496Y-23873610D01*
X38655796Y-23853166D01*
X38724205Y-23813670D01*
X38780060Y-23757815D01*
X38790000Y-23740598D01*
X38790000Y-24543473D01*
X38831688Y-24535181D01*
X38831693Y-24535179D01*
X39013672Y-24459801D01*
X39013678Y-24459798D01*
X39177461Y-24350362D01*
X39177468Y-24350356D01*
X39316746Y-24211078D01*
X39316752Y-24211071D01*
X39426188Y-24047288D01*
X39426191Y-24047282D01*
X39501569Y-23865303D01*
X39501570Y-23865299D01*
X39540000Y-23672100D01*
X39540000Y-23179000D01*
X39558482Y-23128220D01*
X39605282Y-23101200D01*
X39619000Y-23100000D01*
X39994824Y-23100000D01*
X40005134Y-23100675D01*
G37*
%TD.AperFunction*%
%TD*%
M02*
