%TF.GenerationSoftware,KiCad,Pcbnew,9.0.1*%
%TF.CreationDate,2025-04-14T01:12:43-04:00*%
%TF.ProjectId,USB-3-2-splitter,5553422d-332d-4322-9d73-706c69747465,rev?*%
%TF.SameCoordinates,Original*%
%TF.FileFunction,Paste,Top*%
%TF.FilePolarity,Positive*%
%FSLAX46Y46*%
G04 Gerber Fmt 4.6, Leading zero omitted, Abs format (unit mm)*
G04 Created by KiCad (PCBNEW 9.0.1) date 2025-04-14 01:12:43*
%MOMM*%
%LPD*%
G01*
G04 APERTURE LIST*
G04 Aperture macros list*
%AMRoundRect*
0 Rectangle with rounded corners*
0 $1 Rounding radius*
0 $2 $3 $4 $5 $6 $7 $8 $9 X,Y pos of 4 corners*
0 Add a 4 corners polygon primitive as box body*
4,1,4,$2,$3,$4,$5,$6,$7,$8,$9,$2,$3,0*
0 Add four circle primitives for the rounded corners*
1,1,$1+$1,$2,$3*
1,1,$1+$1,$4,$5*
1,1,$1+$1,$6,$7*
1,1,$1+$1,$8,$9*
0 Add four rect primitives between the rounded corners*
20,1,$1+$1,$2,$3,$4,$5,0*
20,1,$1+$1,$4,$5,$6,$7,0*
20,1,$1+$1,$6,$7,$8,$9,0*
20,1,$1+$1,$8,$9,$2,$3,0*%
G04 Aperture macros list end*
%ADD10RoundRect,0.250000X-0.475000X0.337500X-0.475000X-0.337500X0.475000X-0.337500X0.475000X0.337500X0*%
%ADD11RoundRect,0.250000X-0.450000X0.350000X-0.450000X-0.350000X0.450000X-0.350000X0.450000X0.350000X0*%
%ADD12RoundRect,0.150000X-0.587500X-0.150000X0.587500X-0.150000X0.587500X0.150000X-0.587500X0.150000X0*%
%ADD13RoundRect,0.150000X0.150000X-0.512500X0.150000X0.512500X-0.150000X0.512500X-0.150000X-0.512500X0*%
%ADD14RoundRect,0.150000X0.587500X0.150000X-0.587500X0.150000X-0.587500X-0.150000X0.587500X-0.150000X0*%
%ADD15RoundRect,0.250000X0.450000X-0.350000X0.450000X0.350000X-0.450000X0.350000X-0.450000X-0.350000X0*%
%ADD16R,0.300000X0.700000*%
%ADD17RoundRect,0.250000X-0.337500X-0.475000X0.337500X-0.475000X0.337500X0.475000X-0.337500X0.475000X0*%
%ADD18RoundRect,0.250000X-0.350000X-0.450000X0.350000X-0.450000X0.350000X0.450000X-0.350000X0.450000X0*%
%ADD19RoundRect,0.250000X0.475000X-0.337500X0.475000X0.337500X-0.475000X0.337500X-0.475000X-0.337500X0*%
%ADD20RoundRect,0.250000X-0.400000X-1.450000X0.400000X-1.450000X0.400000X1.450000X-0.400000X1.450000X0*%
%ADD21RoundRect,0.250000X-0.650000X0.412500X-0.650000X-0.412500X0.650000X-0.412500X0.650000X0.412500X0*%
%ADD22RoundRect,0.250000X0.350000X0.450000X-0.350000X0.450000X-0.350000X-0.450000X0.350000X-0.450000X0*%
%ADD23RoundRect,0.250000X0.650000X-0.412500X0.650000X0.412500X-0.650000X0.412500X-0.650000X-0.412500X0*%
%ADD24R,0.600000X1.450000*%
%ADD25R,0.300000X1.450000*%
G04 APERTURE END LIST*
D10*
%TO.C,C4*%
X3100000Y-8262500D03*
X3100000Y-10337500D03*
%TD*%
D11*
%TO.C,R10*%
X24200000Y-5900000D03*
X24200000Y-7900000D03*
%TD*%
D12*
%TO.C,Q2*%
X28825000Y-14200000D03*
X28825000Y-16100000D03*
X30700000Y-15150000D03*
%TD*%
%TO.C,Q1*%
X28825000Y-17800000D03*
X28825000Y-19700000D03*
X30700000Y-18750000D03*
%TD*%
D13*
%TO.C,U3*%
X21050000Y-26137500D03*
X22000000Y-26137500D03*
X22950000Y-26137500D03*
X22950000Y-23862500D03*
X22000000Y-23862500D03*
X21050000Y-23862500D03*
%TD*%
D14*
%TO.C,Q4*%
X22075000Y-7940000D03*
X22075000Y-6040000D03*
X20200000Y-6990000D03*
%TD*%
D11*
%TO.C,R14*%
X5200000Y-8300000D03*
X5200000Y-10300000D03*
%TD*%
D15*
%TO.C,R13*%
X4400000Y-19900000D03*
X4400000Y-17900000D03*
%TD*%
D16*
%TO.C,J3*%
X10470000Y-19633610D03*
X10970000Y-19633610D03*
X11470000Y-19633610D03*
X11970000Y-19633610D03*
X12470000Y-19633610D03*
X12970000Y-19633610D03*
X13470000Y-19633610D03*
X13970000Y-19633610D03*
X14470000Y-19633610D03*
X14970000Y-19633610D03*
X15470000Y-19633610D03*
X15970000Y-19633610D03*
X15720000Y-21333610D03*
X15220000Y-21333610D03*
X14720000Y-21333610D03*
X14220000Y-21333610D03*
X13720000Y-21333610D03*
X13220000Y-21333610D03*
X12720000Y-21333610D03*
X12220000Y-21333610D03*
X11720000Y-21333610D03*
X11220000Y-21333610D03*
X10720000Y-21333610D03*
X10220000Y-21333610D03*
%TD*%
D15*
%TO.C,R4*%
X26700000Y-16000000D03*
X26700000Y-14000000D03*
%TD*%
D17*
%TO.C,C1*%
X20162500Y-1600000D03*
X22237500Y-1600000D03*
%TD*%
D18*
%TO.C,R11*%
X20200000Y-4000000D03*
X22200000Y-4000000D03*
%TD*%
D11*
%TO.C,R1*%
X27800000Y-21800000D03*
X27800000Y-23800000D03*
%TD*%
D19*
%TO.C,C3*%
X2300000Y-19937500D03*
X2300000Y-17862500D03*
%TD*%
D15*
%TO.C,R12*%
X38700000Y-12500000D03*
X38700000Y-10500000D03*
%TD*%
D16*
%TO.C,J2*%
X15970000Y-9173610D03*
X15470000Y-9173610D03*
X14970000Y-9173610D03*
X14470000Y-9173610D03*
X13970000Y-9173610D03*
X13470000Y-9173610D03*
X12970000Y-9173610D03*
X12470000Y-9173610D03*
X11970000Y-9173610D03*
X11470000Y-9173610D03*
X10970000Y-9173610D03*
X10470000Y-9173610D03*
X10720000Y-7473610D03*
X11220000Y-7473610D03*
X11720000Y-7473610D03*
X12220000Y-7473610D03*
X12720000Y-7473610D03*
X13220000Y-7473610D03*
X13720000Y-7473610D03*
X14220000Y-7473610D03*
X14720000Y-7473610D03*
X15220000Y-7473610D03*
X15720000Y-7473610D03*
X16220000Y-7473610D03*
%TD*%
D20*
%TO.C,F1*%
X17075000Y-16200000D03*
X21525000Y-16200000D03*
%TD*%
D15*
%TO.C,R6*%
X9020000Y-13153610D03*
X9020000Y-11153610D03*
%TD*%
D21*
%TO.C,C6*%
X38600000Y-16600000D03*
X38600000Y-19725000D03*
%TD*%
D22*
%TO.C,R8*%
X29300000Y-7330000D03*
X27300000Y-7330000D03*
%TD*%
D14*
%TO.C,Q3*%
X22075000Y-11440000D03*
X22075000Y-9540000D03*
X20200000Y-10490000D03*
%TD*%
D23*
%TO.C,C5*%
X6600000Y-17162500D03*
X6600000Y-14037500D03*
%TD*%
D19*
%TO.C,C2*%
X36600000Y-12537500D03*
X36600000Y-10462500D03*
%TD*%
D22*
%TO.C,R7*%
X29300000Y-11100000D03*
X27300000Y-11100000D03*
%TD*%
D11*
%TO.C,R2*%
X31900000Y-9600000D03*
X31900000Y-11600000D03*
%TD*%
D15*
%TO.C,R3*%
X26700000Y-19900000D03*
X26700000Y-17900000D03*
%TD*%
%TO.C,R5*%
X17420000Y-13153610D03*
X17420000Y-11153610D03*
%TD*%
D24*
%TO.C,J1*%
X30970000Y-22108610D03*
X31770000Y-22108610D03*
D25*
X32970000Y-22108610D03*
X33970000Y-22108610D03*
X34470000Y-22108610D03*
X35470000Y-22108610D03*
D24*
X36670000Y-22108610D03*
X37470000Y-22108610D03*
X37470000Y-22108610D03*
X36670000Y-22108610D03*
D25*
X35970000Y-22108610D03*
X34970000Y-22108610D03*
X33470000Y-22108610D03*
X32470000Y-22108610D03*
D24*
X31770000Y-22108610D03*
X30970000Y-22108610D03*
%TD*%
D11*
%TO.C,R9*%
X24200000Y-9700000D03*
X24200000Y-11700000D03*
%TD*%
M02*
