%TF.GenerationSoftware,KiCad,Pcbnew,9.0.1*%
%TF.CreationDate,2025-04-14T01:57:56-04:00*%
%TF.ProjectId,USB-3-2-splitter,5553422d-332d-4322-9d73-706c69747465,rev?*%
%TF.SameCoordinates,Original*%
%TF.FileFunction,Legend,Top*%
%TF.FilePolarity,Positive*%
%FSLAX46Y46*%
G04 Gerber Fmt 4.6, Leading zero omitted, Abs format (unit mm)*
G04 Created by KiCad (PCBNEW 9.0.1) date 2025-04-14 01:57:56*
%MOMM*%
%LPD*%
G01*
G04 APERTURE LIST*
%ADD10C,0.200000*%
%ADD11C,0.150000*%
%ADD12C,0.120000*%
G04 APERTURE END LIST*
D10*
X24417292Y-25142742D02*
X24417292Y-26114171D01*
X24417292Y-26114171D02*
X24474435Y-26228457D01*
X24474435Y-26228457D02*
X24531578Y-26285600D01*
X24531578Y-26285600D02*
X24645863Y-26342742D01*
X24645863Y-26342742D02*
X24874435Y-26342742D01*
X24874435Y-26342742D02*
X24988720Y-26285600D01*
X24988720Y-26285600D02*
X25045863Y-26228457D01*
X25045863Y-26228457D02*
X25103006Y-26114171D01*
X25103006Y-26114171D02*
X25103006Y-25142742D01*
X25617292Y-26285600D02*
X25788721Y-26342742D01*
X25788721Y-26342742D02*
X26074435Y-26342742D01*
X26074435Y-26342742D02*
X26188721Y-26285600D01*
X26188721Y-26285600D02*
X26245863Y-26228457D01*
X26245863Y-26228457D02*
X26303006Y-26114171D01*
X26303006Y-26114171D02*
X26303006Y-25999885D01*
X26303006Y-25999885D02*
X26245863Y-25885600D01*
X26245863Y-25885600D02*
X26188721Y-25828457D01*
X26188721Y-25828457D02*
X26074435Y-25771314D01*
X26074435Y-25771314D02*
X25845863Y-25714171D01*
X25845863Y-25714171D02*
X25731578Y-25657028D01*
X25731578Y-25657028D02*
X25674435Y-25599885D01*
X25674435Y-25599885D02*
X25617292Y-25485600D01*
X25617292Y-25485600D02*
X25617292Y-25371314D01*
X25617292Y-25371314D02*
X25674435Y-25257028D01*
X25674435Y-25257028D02*
X25731578Y-25199885D01*
X25731578Y-25199885D02*
X25845863Y-25142742D01*
X25845863Y-25142742D02*
X26131578Y-25142742D01*
X26131578Y-25142742D02*
X26303006Y-25199885D01*
X27217292Y-25714171D02*
X27388720Y-25771314D01*
X27388720Y-25771314D02*
X27445863Y-25828457D01*
X27445863Y-25828457D02*
X27503006Y-25942742D01*
X27503006Y-25942742D02*
X27503006Y-26114171D01*
X27503006Y-26114171D02*
X27445863Y-26228457D01*
X27445863Y-26228457D02*
X27388720Y-26285600D01*
X27388720Y-26285600D02*
X27274435Y-26342742D01*
X27274435Y-26342742D02*
X26817292Y-26342742D01*
X26817292Y-26342742D02*
X26817292Y-25142742D01*
X26817292Y-25142742D02*
X27217292Y-25142742D01*
X27217292Y-25142742D02*
X27331578Y-25199885D01*
X27331578Y-25199885D02*
X27388720Y-25257028D01*
X27388720Y-25257028D02*
X27445863Y-25371314D01*
X27445863Y-25371314D02*
X27445863Y-25485600D01*
X27445863Y-25485600D02*
X27388720Y-25599885D01*
X27388720Y-25599885D02*
X27331578Y-25657028D01*
X27331578Y-25657028D02*
X27217292Y-25714171D01*
X27217292Y-25714171D02*
X26817292Y-25714171D01*
X27960149Y-25257028D02*
X28017292Y-25199885D01*
X28017292Y-25199885D02*
X28131578Y-25142742D01*
X28131578Y-25142742D02*
X28417292Y-25142742D01*
X28417292Y-25142742D02*
X28531578Y-25199885D01*
X28531578Y-25199885D02*
X28588720Y-25257028D01*
X28588720Y-25257028D02*
X28645863Y-25371314D01*
X28645863Y-25371314D02*
X28645863Y-25485600D01*
X28645863Y-25485600D02*
X28588720Y-25657028D01*
X28588720Y-25657028D02*
X27903006Y-26342742D01*
X27903006Y-26342742D02*
X28645863Y-26342742D01*
X19417292Y-27142742D02*
X19417292Y-28114171D01*
X19417292Y-28114171D02*
X19474435Y-28228457D01*
X19474435Y-28228457D02*
X19531578Y-28285600D01*
X19531578Y-28285600D02*
X19645863Y-28342742D01*
X19645863Y-28342742D02*
X19874435Y-28342742D01*
X19874435Y-28342742D02*
X19988720Y-28285600D01*
X19988720Y-28285600D02*
X20045863Y-28228457D01*
X20045863Y-28228457D02*
X20103006Y-28114171D01*
X20103006Y-28114171D02*
X20103006Y-27142742D01*
X20617292Y-28285600D02*
X20788721Y-28342742D01*
X20788721Y-28342742D02*
X21074435Y-28342742D01*
X21074435Y-28342742D02*
X21188721Y-28285600D01*
X21188721Y-28285600D02*
X21245863Y-28228457D01*
X21245863Y-28228457D02*
X21303006Y-28114171D01*
X21303006Y-28114171D02*
X21303006Y-27999885D01*
X21303006Y-27999885D02*
X21245863Y-27885600D01*
X21245863Y-27885600D02*
X21188721Y-27828457D01*
X21188721Y-27828457D02*
X21074435Y-27771314D01*
X21074435Y-27771314D02*
X20845863Y-27714171D01*
X20845863Y-27714171D02*
X20731578Y-27657028D01*
X20731578Y-27657028D02*
X20674435Y-27599885D01*
X20674435Y-27599885D02*
X20617292Y-27485600D01*
X20617292Y-27485600D02*
X20617292Y-27371314D01*
X20617292Y-27371314D02*
X20674435Y-27257028D01*
X20674435Y-27257028D02*
X20731578Y-27199885D01*
X20731578Y-27199885D02*
X20845863Y-27142742D01*
X20845863Y-27142742D02*
X21131578Y-27142742D01*
X21131578Y-27142742D02*
X21303006Y-27199885D01*
X22217292Y-27714171D02*
X22388720Y-27771314D01*
X22388720Y-27771314D02*
X22445863Y-27828457D01*
X22445863Y-27828457D02*
X22503006Y-27942742D01*
X22503006Y-27942742D02*
X22503006Y-28114171D01*
X22503006Y-28114171D02*
X22445863Y-28228457D01*
X22445863Y-28228457D02*
X22388720Y-28285600D01*
X22388720Y-28285600D02*
X22274435Y-28342742D01*
X22274435Y-28342742D02*
X21817292Y-28342742D01*
X21817292Y-28342742D02*
X21817292Y-27142742D01*
X21817292Y-27142742D02*
X22217292Y-27142742D01*
X22217292Y-27142742D02*
X22331578Y-27199885D01*
X22331578Y-27199885D02*
X22388720Y-27257028D01*
X22388720Y-27257028D02*
X22445863Y-27371314D01*
X22445863Y-27371314D02*
X22445863Y-27485600D01*
X22445863Y-27485600D02*
X22388720Y-27599885D01*
X22388720Y-27599885D02*
X22331578Y-27657028D01*
X22331578Y-27657028D02*
X22217292Y-27714171D01*
X22217292Y-27714171D02*
X21817292Y-27714171D01*
X22903006Y-27142742D02*
X23645863Y-27142742D01*
X23645863Y-27142742D02*
X23245863Y-27599885D01*
X23245863Y-27599885D02*
X23417292Y-27599885D01*
X23417292Y-27599885D02*
X23531578Y-27657028D01*
X23531578Y-27657028D02*
X23588720Y-27714171D01*
X23588720Y-27714171D02*
X23645863Y-27828457D01*
X23645863Y-27828457D02*
X23645863Y-28114171D01*
X23645863Y-28114171D02*
X23588720Y-28228457D01*
X23588720Y-28228457D02*
X23531578Y-28285600D01*
X23531578Y-28285600D02*
X23417292Y-28342742D01*
X23417292Y-28342742D02*
X23074435Y-28342742D01*
X23074435Y-28342742D02*
X22960149Y-28285600D01*
X22960149Y-28285600D02*
X22903006Y-28228457D01*
D11*
X1859580Y-9566666D02*
X1907200Y-9614285D01*
X1907200Y-9614285D02*
X1954819Y-9757142D01*
X1954819Y-9757142D02*
X1954819Y-9852380D01*
X1954819Y-9852380D02*
X1907200Y-9995237D01*
X1907200Y-9995237D02*
X1811961Y-10090475D01*
X1811961Y-10090475D02*
X1716723Y-10138094D01*
X1716723Y-10138094D02*
X1526247Y-10185713D01*
X1526247Y-10185713D02*
X1383390Y-10185713D01*
X1383390Y-10185713D02*
X1192914Y-10138094D01*
X1192914Y-10138094D02*
X1097676Y-10090475D01*
X1097676Y-10090475D02*
X1002438Y-9995237D01*
X1002438Y-9995237D02*
X954819Y-9852380D01*
X954819Y-9852380D02*
X954819Y-9757142D01*
X954819Y-9757142D02*
X1002438Y-9614285D01*
X1002438Y-9614285D02*
X1050057Y-9566666D01*
X1288152Y-8709523D02*
X1954819Y-8709523D01*
X907200Y-8947618D02*
X1621485Y-9185713D01*
X1621485Y-9185713D02*
X1621485Y-8566666D01*
X26304819Y-7142857D02*
X25828628Y-7476190D01*
X26304819Y-7714285D02*
X25304819Y-7714285D01*
X25304819Y-7714285D02*
X25304819Y-7333333D01*
X25304819Y-7333333D02*
X25352438Y-7238095D01*
X25352438Y-7238095D02*
X25400057Y-7190476D01*
X25400057Y-7190476D02*
X25495295Y-7142857D01*
X25495295Y-7142857D02*
X25638152Y-7142857D01*
X25638152Y-7142857D02*
X25733390Y-7190476D01*
X25733390Y-7190476D02*
X25781009Y-7238095D01*
X25781009Y-7238095D02*
X25828628Y-7333333D01*
X25828628Y-7333333D02*
X25828628Y-7714285D01*
X26304819Y-6190476D02*
X26304819Y-6761904D01*
X26304819Y-6476190D02*
X25304819Y-6476190D01*
X25304819Y-6476190D02*
X25447676Y-6571428D01*
X25447676Y-6571428D02*
X25542914Y-6666666D01*
X25542914Y-6666666D02*
X25590533Y-6761904D01*
X25304819Y-5571428D02*
X25304819Y-5476190D01*
X25304819Y-5476190D02*
X25352438Y-5380952D01*
X25352438Y-5380952D02*
X25400057Y-5333333D01*
X25400057Y-5333333D02*
X25495295Y-5285714D01*
X25495295Y-5285714D02*
X25685771Y-5238095D01*
X25685771Y-5238095D02*
X25923866Y-5238095D01*
X25923866Y-5238095D02*
X26114342Y-5285714D01*
X26114342Y-5285714D02*
X26209580Y-5333333D01*
X26209580Y-5333333D02*
X26257200Y-5380952D01*
X26257200Y-5380952D02*
X26304819Y-5476190D01*
X26304819Y-5476190D02*
X26304819Y-5571428D01*
X26304819Y-5571428D02*
X26257200Y-5666666D01*
X26257200Y-5666666D02*
X26209580Y-5714285D01*
X26209580Y-5714285D02*
X26114342Y-5761904D01*
X26114342Y-5761904D02*
X25923866Y-5809523D01*
X25923866Y-5809523D02*
X25685771Y-5809523D01*
X25685771Y-5809523D02*
X25495295Y-5761904D01*
X25495295Y-5761904D02*
X25400057Y-5714285D01*
X25400057Y-5714285D02*
X25352438Y-5666666D01*
X25352438Y-5666666D02*
X25304819Y-5571428D01*
X31604761Y-14350057D02*
X31509523Y-14302438D01*
X31509523Y-14302438D02*
X31414285Y-14207200D01*
X31414285Y-14207200D02*
X31271428Y-14064342D01*
X31271428Y-14064342D02*
X31176190Y-14016723D01*
X31176190Y-14016723D02*
X31080952Y-14016723D01*
X31128571Y-14254819D02*
X31033333Y-14207200D01*
X31033333Y-14207200D02*
X30938095Y-14111961D01*
X30938095Y-14111961D02*
X30890476Y-13921485D01*
X30890476Y-13921485D02*
X30890476Y-13588152D01*
X30890476Y-13588152D02*
X30938095Y-13397676D01*
X30938095Y-13397676D02*
X31033333Y-13302438D01*
X31033333Y-13302438D02*
X31128571Y-13254819D01*
X31128571Y-13254819D02*
X31319047Y-13254819D01*
X31319047Y-13254819D02*
X31414285Y-13302438D01*
X31414285Y-13302438D02*
X31509523Y-13397676D01*
X31509523Y-13397676D02*
X31557142Y-13588152D01*
X31557142Y-13588152D02*
X31557142Y-13921485D01*
X31557142Y-13921485D02*
X31509523Y-14111961D01*
X31509523Y-14111961D02*
X31414285Y-14207200D01*
X31414285Y-14207200D02*
X31319047Y-14254819D01*
X31319047Y-14254819D02*
X31128571Y-14254819D01*
X31938095Y-13350057D02*
X31985714Y-13302438D01*
X31985714Y-13302438D02*
X32080952Y-13254819D01*
X32080952Y-13254819D02*
X32319047Y-13254819D01*
X32319047Y-13254819D02*
X32414285Y-13302438D01*
X32414285Y-13302438D02*
X32461904Y-13350057D01*
X32461904Y-13350057D02*
X32509523Y-13445295D01*
X32509523Y-13445295D02*
X32509523Y-13540533D01*
X32509523Y-13540533D02*
X32461904Y-13683390D01*
X32461904Y-13683390D02*
X31890476Y-14254819D01*
X31890476Y-14254819D02*
X32509523Y-14254819D01*
X31404761Y-17950057D02*
X31309523Y-17902438D01*
X31309523Y-17902438D02*
X31214285Y-17807200D01*
X31214285Y-17807200D02*
X31071428Y-17664342D01*
X31071428Y-17664342D02*
X30976190Y-17616723D01*
X30976190Y-17616723D02*
X30880952Y-17616723D01*
X30928571Y-17854819D02*
X30833333Y-17807200D01*
X30833333Y-17807200D02*
X30738095Y-17711961D01*
X30738095Y-17711961D02*
X30690476Y-17521485D01*
X30690476Y-17521485D02*
X30690476Y-17188152D01*
X30690476Y-17188152D02*
X30738095Y-16997676D01*
X30738095Y-16997676D02*
X30833333Y-16902438D01*
X30833333Y-16902438D02*
X30928571Y-16854819D01*
X30928571Y-16854819D02*
X31119047Y-16854819D01*
X31119047Y-16854819D02*
X31214285Y-16902438D01*
X31214285Y-16902438D02*
X31309523Y-16997676D01*
X31309523Y-16997676D02*
X31357142Y-17188152D01*
X31357142Y-17188152D02*
X31357142Y-17521485D01*
X31357142Y-17521485D02*
X31309523Y-17711961D01*
X31309523Y-17711961D02*
X31214285Y-17807200D01*
X31214285Y-17807200D02*
X31119047Y-17854819D01*
X31119047Y-17854819D02*
X30928571Y-17854819D01*
X32309523Y-17854819D02*
X31738095Y-17854819D01*
X32023809Y-17854819D02*
X32023809Y-16854819D01*
X32023809Y-16854819D02*
X31928571Y-16997676D01*
X31928571Y-16997676D02*
X31833333Y-17092914D01*
X31833333Y-17092914D02*
X31738095Y-17140533D01*
X19054819Y-25761904D02*
X19864342Y-25761904D01*
X19864342Y-25761904D02*
X19959580Y-25714285D01*
X19959580Y-25714285D02*
X20007200Y-25666666D01*
X20007200Y-25666666D02*
X20054819Y-25571428D01*
X20054819Y-25571428D02*
X20054819Y-25380952D01*
X20054819Y-25380952D02*
X20007200Y-25285714D01*
X20007200Y-25285714D02*
X19959580Y-25238095D01*
X19959580Y-25238095D02*
X19864342Y-25190476D01*
X19864342Y-25190476D02*
X19054819Y-25190476D01*
X19054819Y-24809523D02*
X19054819Y-24190476D01*
X19054819Y-24190476D02*
X19435771Y-24523809D01*
X19435771Y-24523809D02*
X19435771Y-24380952D01*
X19435771Y-24380952D02*
X19483390Y-24285714D01*
X19483390Y-24285714D02*
X19531009Y-24238095D01*
X19531009Y-24238095D02*
X19626247Y-24190476D01*
X19626247Y-24190476D02*
X19864342Y-24190476D01*
X19864342Y-24190476D02*
X19959580Y-24238095D01*
X19959580Y-24238095D02*
X20007200Y-24285714D01*
X20007200Y-24285714D02*
X20054819Y-24380952D01*
X20054819Y-24380952D02*
X20054819Y-24666666D01*
X20054819Y-24666666D02*
X20007200Y-24761904D01*
X20007200Y-24761904D02*
X19959580Y-24809523D01*
X19404761Y-6350057D02*
X19309523Y-6302438D01*
X19309523Y-6302438D02*
X19214285Y-6207200D01*
X19214285Y-6207200D02*
X19071428Y-6064342D01*
X19071428Y-6064342D02*
X18976190Y-6016723D01*
X18976190Y-6016723D02*
X18880952Y-6016723D01*
X18928571Y-6254819D02*
X18833333Y-6207200D01*
X18833333Y-6207200D02*
X18738095Y-6111961D01*
X18738095Y-6111961D02*
X18690476Y-5921485D01*
X18690476Y-5921485D02*
X18690476Y-5588152D01*
X18690476Y-5588152D02*
X18738095Y-5397676D01*
X18738095Y-5397676D02*
X18833333Y-5302438D01*
X18833333Y-5302438D02*
X18928571Y-5254819D01*
X18928571Y-5254819D02*
X19119047Y-5254819D01*
X19119047Y-5254819D02*
X19214285Y-5302438D01*
X19214285Y-5302438D02*
X19309523Y-5397676D01*
X19309523Y-5397676D02*
X19357142Y-5588152D01*
X19357142Y-5588152D02*
X19357142Y-5921485D01*
X19357142Y-5921485D02*
X19309523Y-6111961D01*
X19309523Y-6111961D02*
X19214285Y-6207200D01*
X19214285Y-6207200D02*
X19119047Y-6254819D01*
X19119047Y-6254819D02*
X18928571Y-6254819D01*
X20214285Y-5588152D02*
X20214285Y-6254819D01*
X19976190Y-5207200D02*
X19738095Y-5921485D01*
X19738095Y-5921485D02*
X20357142Y-5921485D01*
X7354819Y-8842857D02*
X6878628Y-9176190D01*
X7354819Y-9414285D02*
X6354819Y-9414285D01*
X6354819Y-9414285D02*
X6354819Y-9033333D01*
X6354819Y-9033333D02*
X6402438Y-8938095D01*
X6402438Y-8938095D02*
X6450057Y-8890476D01*
X6450057Y-8890476D02*
X6545295Y-8842857D01*
X6545295Y-8842857D02*
X6688152Y-8842857D01*
X6688152Y-8842857D02*
X6783390Y-8890476D01*
X6783390Y-8890476D02*
X6831009Y-8938095D01*
X6831009Y-8938095D02*
X6878628Y-9033333D01*
X6878628Y-9033333D02*
X6878628Y-9414285D01*
X7354819Y-7890476D02*
X7354819Y-8461904D01*
X7354819Y-8176190D02*
X6354819Y-8176190D01*
X6354819Y-8176190D02*
X6497676Y-8271428D01*
X6497676Y-8271428D02*
X6592914Y-8366666D01*
X6592914Y-8366666D02*
X6640533Y-8461904D01*
X6688152Y-7033333D02*
X7354819Y-7033333D01*
X6307200Y-7271428D02*
X7021485Y-7509523D01*
X7021485Y-7509523D02*
X7021485Y-6890476D01*
X6654819Y-20742857D02*
X6178628Y-21076190D01*
X6654819Y-21314285D02*
X5654819Y-21314285D01*
X5654819Y-21314285D02*
X5654819Y-20933333D01*
X5654819Y-20933333D02*
X5702438Y-20838095D01*
X5702438Y-20838095D02*
X5750057Y-20790476D01*
X5750057Y-20790476D02*
X5845295Y-20742857D01*
X5845295Y-20742857D02*
X5988152Y-20742857D01*
X5988152Y-20742857D02*
X6083390Y-20790476D01*
X6083390Y-20790476D02*
X6131009Y-20838095D01*
X6131009Y-20838095D02*
X6178628Y-20933333D01*
X6178628Y-20933333D02*
X6178628Y-21314285D01*
X6654819Y-19790476D02*
X6654819Y-20361904D01*
X6654819Y-20076190D02*
X5654819Y-20076190D01*
X5654819Y-20076190D02*
X5797676Y-20171428D01*
X5797676Y-20171428D02*
X5892914Y-20266666D01*
X5892914Y-20266666D02*
X5940533Y-20361904D01*
X5654819Y-19457142D02*
X5654819Y-18838095D01*
X5654819Y-18838095D02*
X6035771Y-19171428D01*
X6035771Y-19171428D02*
X6035771Y-19028571D01*
X6035771Y-19028571D02*
X6083390Y-18933333D01*
X6083390Y-18933333D02*
X6131009Y-18885714D01*
X6131009Y-18885714D02*
X6226247Y-18838095D01*
X6226247Y-18838095D02*
X6464342Y-18838095D01*
X6464342Y-18838095D02*
X6559580Y-18885714D01*
X6559580Y-18885714D02*
X6607200Y-18933333D01*
X6607200Y-18933333D02*
X6654819Y-19028571D01*
X6654819Y-19028571D02*
X6654819Y-19314285D01*
X6654819Y-19314285D02*
X6607200Y-19409523D01*
X6607200Y-19409523D02*
X6559580Y-19457142D01*
X6166666Y-27454819D02*
X6166666Y-28169104D01*
X6166666Y-28169104D02*
X6119047Y-28311961D01*
X6119047Y-28311961D02*
X6023809Y-28407200D01*
X6023809Y-28407200D02*
X5880952Y-28454819D01*
X5880952Y-28454819D02*
X5785714Y-28454819D01*
X6547619Y-27454819D02*
X7166666Y-27454819D01*
X7166666Y-27454819D02*
X6833333Y-27835771D01*
X6833333Y-27835771D02*
X6976190Y-27835771D01*
X6976190Y-27835771D02*
X7071428Y-27883390D01*
X7071428Y-27883390D02*
X7119047Y-27931009D01*
X7119047Y-27931009D02*
X7166666Y-28026247D01*
X7166666Y-28026247D02*
X7166666Y-28264342D01*
X7166666Y-28264342D02*
X7119047Y-28359580D01*
X7119047Y-28359580D02*
X7071428Y-28407200D01*
X7071428Y-28407200D02*
X6976190Y-28454819D01*
X6976190Y-28454819D02*
X6690476Y-28454819D01*
X6690476Y-28454819D02*
X6595238Y-28407200D01*
X6595238Y-28407200D02*
X6547619Y-28359580D01*
X25504819Y-15166666D02*
X25028628Y-15499999D01*
X25504819Y-15738094D02*
X24504819Y-15738094D01*
X24504819Y-15738094D02*
X24504819Y-15357142D01*
X24504819Y-15357142D02*
X24552438Y-15261904D01*
X24552438Y-15261904D02*
X24600057Y-15214285D01*
X24600057Y-15214285D02*
X24695295Y-15166666D01*
X24695295Y-15166666D02*
X24838152Y-15166666D01*
X24838152Y-15166666D02*
X24933390Y-15214285D01*
X24933390Y-15214285D02*
X24981009Y-15261904D01*
X24981009Y-15261904D02*
X25028628Y-15357142D01*
X25028628Y-15357142D02*
X25028628Y-15738094D01*
X24838152Y-14309523D02*
X25504819Y-14309523D01*
X24457200Y-14547618D02*
X25171485Y-14785713D01*
X25171485Y-14785713D02*
X25171485Y-14166666D01*
X24033333Y-1959580D02*
X23985714Y-2007200D01*
X23985714Y-2007200D02*
X23842857Y-2054819D01*
X23842857Y-2054819D02*
X23747619Y-2054819D01*
X23747619Y-2054819D02*
X23604762Y-2007200D01*
X23604762Y-2007200D02*
X23509524Y-1911961D01*
X23509524Y-1911961D02*
X23461905Y-1816723D01*
X23461905Y-1816723D02*
X23414286Y-1626247D01*
X23414286Y-1626247D02*
X23414286Y-1483390D01*
X23414286Y-1483390D02*
X23461905Y-1292914D01*
X23461905Y-1292914D02*
X23509524Y-1197676D01*
X23509524Y-1197676D02*
X23604762Y-1102438D01*
X23604762Y-1102438D02*
X23747619Y-1054819D01*
X23747619Y-1054819D02*
X23842857Y-1054819D01*
X23842857Y-1054819D02*
X23985714Y-1102438D01*
X23985714Y-1102438D02*
X24033333Y-1150057D01*
X24985714Y-2054819D02*
X24414286Y-2054819D01*
X24700000Y-2054819D02*
X24700000Y-1054819D01*
X24700000Y-1054819D02*
X24604762Y-1197676D01*
X24604762Y-1197676D02*
X24509524Y-1292914D01*
X24509524Y-1292914D02*
X24414286Y-1340533D01*
X23957142Y-4454819D02*
X23623809Y-3978628D01*
X23385714Y-4454819D02*
X23385714Y-3454819D01*
X23385714Y-3454819D02*
X23766666Y-3454819D01*
X23766666Y-3454819D02*
X23861904Y-3502438D01*
X23861904Y-3502438D02*
X23909523Y-3550057D01*
X23909523Y-3550057D02*
X23957142Y-3645295D01*
X23957142Y-3645295D02*
X23957142Y-3788152D01*
X23957142Y-3788152D02*
X23909523Y-3883390D01*
X23909523Y-3883390D02*
X23861904Y-3931009D01*
X23861904Y-3931009D02*
X23766666Y-3978628D01*
X23766666Y-3978628D02*
X23385714Y-3978628D01*
X24909523Y-4454819D02*
X24338095Y-4454819D01*
X24623809Y-4454819D02*
X24623809Y-3454819D01*
X24623809Y-3454819D02*
X24528571Y-3597676D01*
X24528571Y-3597676D02*
X24433333Y-3692914D01*
X24433333Y-3692914D02*
X24338095Y-3740533D01*
X25861904Y-4454819D02*
X25290476Y-4454819D01*
X25576190Y-4454819D02*
X25576190Y-3454819D01*
X25576190Y-3454819D02*
X25480952Y-3597676D01*
X25480952Y-3597676D02*
X25385714Y-3692914D01*
X25385714Y-3692914D02*
X25290476Y-3740533D01*
X26554819Y-23866666D02*
X26078628Y-24199999D01*
X26554819Y-24438094D02*
X25554819Y-24438094D01*
X25554819Y-24438094D02*
X25554819Y-24057142D01*
X25554819Y-24057142D02*
X25602438Y-23961904D01*
X25602438Y-23961904D02*
X25650057Y-23914285D01*
X25650057Y-23914285D02*
X25745295Y-23866666D01*
X25745295Y-23866666D02*
X25888152Y-23866666D01*
X25888152Y-23866666D02*
X25983390Y-23914285D01*
X25983390Y-23914285D02*
X26031009Y-23961904D01*
X26031009Y-23961904D02*
X26078628Y-24057142D01*
X26078628Y-24057142D02*
X26078628Y-24438094D01*
X26554819Y-22914285D02*
X26554819Y-23485713D01*
X26554819Y-23199999D02*
X25554819Y-23199999D01*
X25554819Y-23199999D02*
X25697676Y-23295237D01*
X25697676Y-23295237D02*
X25792914Y-23390475D01*
X25792914Y-23390475D02*
X25840533Y-23485713D01*
X1159580Y-19066666D02*
X1207200Y-19114285D01*
X1207200Y-19114285D02*
X1254819Y-19257142D01*
X1254819Y-19257142D02*
X1254819Y-19352380D01*
X1254819Y-19352380D02*
X1207200Y-19495237D01*
X1207200Y-19495237D02*
X1111961Y-19590475D01*
X1111961Y-19590475D02*
X1016723Y-19638094D01*
X1016723Y-19638094D02*
X826247Y-19685713D01*
X826247Y-19685713D02*
X683390Y-19685713D01*
X683390Y-19685713D02*
X492914Y-19638094D01*
X492914Y-19638094D02*
X397676Y-19590475D01*
X397676Y-19590475D02*
X302438Y-19495237D01*
X302438Y-19495237D02*
X254819Y-19352380D01*
X254819Y-19352380D02*
X254819Y-19257142D01*
X254819Y-19257142D02*
X302438Y-19114285D01*
X302438Y-19114285D02*
X350057Y-19066666D01*
X254819Y-18733332D02*
X254819Y-18114285D01*
X254819Y-18114285D02*
X635771Y-18447618D01*
X635771Y-18447618D02*
X635771Y-18304761D01*
X635771Y-18304761D02*
X683390Y-18209523D01*
X683390Y-18209523D02*
X731009Y-18161904D01*
X731009Y-18161904D02*
X826247Y-18114285D01*
X826247Y-18114285D02*
X1064342Y-18114285D01*
X1064342Y-18114285D02*
X1159580Y-18161904D01*
X1159580Y-18161904D02*
X1207200Y-18209523D01*
X1207200Y-18209523D02*
X1254819Y-18304761D01*
X1254819Y-18304761D02*
X1254819Y-18590475D01*
X1254819Y-18590475D02*
X1207200Y-18685713D01*
X1207200Y-18685713D02*
X1159580Y-18733332D01*
X39254819Y-8842857D02*
X38778628Y-9176190D01*
X39254819Y-9414285D02*
X38254819Y-9414285D01*
X38254819Y-9414285D02*
X38254819Y-9033333D01*
X38254819Y-9033333D02*
X38302438Y-8938095D01*
X38302438Y-8938095D02*
X38350057Y-8890476D01*
X38350057Y-8890476D02*
X38445295Y-8842857D01*
X38445295Y-8842857D02*
X38588152Y-8842857D01*
X38588152Y-8842857D02*
X38683390Y-8890476D01*
X38683390Y-8890476D02*
X38731009Y-8938095D01*
X38731009Y-8938095D02*
X38778628Y-9033333D01*
X38778628Y-9033333D02*
X38778628Y-9414285D01*
X39254819Y-7890476D02*
X39254819Y-8461904D01*
X39254819Y-8176190D02*
X38254819Y-8176190D01*
X38254819Y-8176190D02*
X38397676Y-8271428D01*
X38397676Y-8271428D02*
X38492914Y-8366666D01*
X38492914Y-8366666D02*
X38540533Y-8461904D01*
X38350057Y-7509523D02*
X38302438Y-7461904D01*
X38302438Y-7461904D02*
X38254819Y-7366666D01*
X38254819Y-7366666D02*
X38254819Y-7128571D01*
X38254819Y-7128571D02*
X38302438Y-7033333D01*
X38302438Y-7033333D02*
X38350057Y-6985714D01*
X38350057Y-6985714D02*
X38445295Y-6938095D01*
X38445295Y-6938095D02*
X38540533Y-6938095D01*
X38540533Y-6938095D02*
X38683390Y-6985714D01*
X38683390Y-6985714D02*
X39254819Y-7557142D01*
X39254819Y-7557142D02*
X39254819Y-6938095D01*
X6366666Y-554819D02*
X6366666Y-1269104D01*
X6366666Y-1269104D02*
X6319047Y-1411961D01*
X6319047Y-1411961D02*
X6223809Y-1507200D01*
X6223809Y-1507200D02*
X6080952Y-1554819D01*
X6080952Y-1554819D02*
X5985714Y-1554819D01*
X6795238Y-650057D02*
X6842857Y-602438D01*
X6842857Y-602438D02*
X6938095Y-554819D01*
X6938095Y-554819D02*
X7176190Y-554819D01*
X7176190Y-554819D02*
X7271428Y-602438D01*
X7271428Y-602438D02*
X7319047Y-650057D01*
X7319047Y-650057D02*
X7366666Y-745295D01*
X7366666Y-745295D02*
X7366666Y-840533D01*
X7366666Y-840533D02*
X7319047Y-983390D01*
X7319047Y-983390D02*
X6747619Y-1554819D01*
X6747619Y-1554819D02*
X7366666Y-1554819D01*
X18966666Y-13481009D02*
X18633333Y-13481009D01*
X18633333Y-14004819D02*
X18633333Y-13004819D01*
X18633333Y-13004819D02*
X19109523Y-13004819D01*
X20014285Y-14004819D02*
X19442857Y-14004819D01*
X19728571Y-14004819D02*
X19728571Y-13004819D01*
X19728571Y-13004819D02*
X19633333Y-13147676D01*
X19633333Y-13147676D02*
X19538095Y-13242914D01*
X19538095Y-13242914D02*
X19442857Y-13290533D01*
X7754819Y-11366666D02*
X7278628Y-11699999D01*
X7754819Y-11938094D02*
X6754819Y-11938094D01*
X6754819Y-11938094D02*
X6754819Y-11557142D01*
X6754819Y-11557142D02*
X6802438Y-11461904D01*
X6802438Y-11461904D02*
X6850057Y-11414285D01*
X6850057Y-11414285D02*
X6945295Y-11366666D01*
X6945295Y-11366666D02*
X7088152Y-11366666D01*
X7088152Y-11366666D02*
X7183390Y-11414285D01*
X7183390Y-11414285D02*
X7231009Y-11461904D01*
X7231009Y-11461904D02*
X7278628Y-11557142D01*
X7278628Y-11557142D02*
X7278628Y-11938094D01*
X6754819Y-10509523D02*
X6754819Y-10699999D01*
X6754819Y-10699999D02*
X6802438Y-10795237D01*
X6802438Y-10795237D02*
X6850057Y-10842856D01*
X6850057Y-10842856D02*
X6992914Y-10938094D01*
X6992914Y-10938094D02*
X7183390Y-10985713D01*
X7183390Y-10985713D02*
X7564342Y-10985713D01*
X7564342Y-10985713D02*
X7659580Y-10938094D01*
X7659580Y-10938094D02*
X7707200Y-10890475D01*
X7707200Y-10890475D02*
X7754819Y-10795237D01*
X7754819Y-10795237D02*
X7754819Y-10604761D01*
X7754819Y-10604761D02*
X7707200Y-10509523D01*
X7707200Y-10509523D02*
X7659580Y-10461904D01*
X7659580Y-10461904D02*
X7564342Y-10414285D01*
X7564342Y-10414285D02*
X7326247Y-10414285D01*
X7326247Y-10414285D02*
X7231009Y-10461904D01*
X7231009Y-10461904D02*
X7183390Y-10509523D01*
X7183390Y-10509523D02*
X7135771Y-10604761D01*
X7135771Y-10604761D02*
X7135771Y-10795237D01*
X7135771Y-10795237D02*
X7183390Y-10890475D01*
X7183390Y-10890475D02*
X7231009Y-10938094D01*
X7231009Y-10938094D02*
X7326247Y-10985713D01*
X37159580Y-18366666D02*
X37207200Y-18414285D01*
X37207200Y-18414285D02*
X37254819Y-18557142D01*
X37254819Y-18557142D02*
X37254819Y-18652380D01*
X37254819Y-18652380D02*
X37207200Y-18795237D01*
X37207200Y-18795237D02*
X37111961Y-18890475D01*
X37111961Y-18890475D02*
X37016723Y-18938094D01*
X37016723Y-18938094D02*
X36826247Y-18985713D01*
X36826247Y-18985713D02*
X36683390Y-18985713D01*
X36683390Y-18985713D02*
X36492914Y-18938094D01*
X36492914Y-18938094D02*
X36397676Y-18890475D01*
X36397676Y-18890475D02*
X36302438Y-18795237D01*
X36302438Y-18795237D02*
X36254819Y-18652380D01*
X36254819Y-18652380D02*
X36254819Y-18557142D01*
X36254819Y-18557142D02*
X36302438Y-18414285D01*
X36302438Y-18414285D02*
X36350057Y-18366666D01*
X36254819Y-17509523D02*
X36254819Y-17699999D01*
X36254819Y-17699999D02*
X36302438Y-17795237D01*
X36302438Y-17795237D02*
X36350057Y-17842856D01*
X36350057Y-17842856D02*
X36492914Y-17938094D01*
X36492914Y-17938094D02*
X36683390Y-17985713D01*
X36683390Y-17985713D02*
X37064342Y-17985713D01*
X37064342Y-17985713D02*
X37159580Y-17938094D01*
X37159580Y-17938094D02*
X37207200Y-17890475D01*
X37207200Y-17890475D02*
X37254819Y-17795237D01*
X37254819Y-17795237D02*
X37254819Y-17604761D01*
X37254819Y-17604761D02*
X37207200Y-17509523D01*
X37207200Y-17509523D02*
X37159580Y-17461904D01*
X37159580Y-17461904D02*
X37064342Y-17414285D01*
X37064342Y-17414285D02*
X36826247Y-17414285D01*
X36826247Y-17414285D02*
X36731009Y-17461904D01*
X36731009Y-17461904D02*
X36683390Y-17509523D01*
X36683390Y-17509523D02*
X36635771Y-17604761D01*
X36635771Y-17604761D02*
X36635771Y-17795237D01*
X36635771Y-17795237D02*
X36683390Y-17890475D01*
X36683390Y-17890475D02*
X36731009Y-17938094D01*
X36731009Y-17938094D02*
X36826247Y-17985713D01*
X29133333Y-6154819D02*
X28800000Y-5678628D01*
X28561905Y-6154819D02*
X28561905Y-5154819D01*
X28561905Y-5154819D02*
X28942857Y-5154819D01*
X28942857Y-5154819D02*
X29038095Y-5202438D01*
X29038095Y-5202438D02*
X29085714Y-5250057D01*
X29085714Y-5250057D02*
X29133333Y-5345295D01*
X29133333Y-5345295D02*
X29133333Y-5488152D01*
X29133333Y-5488152D02*
X29085714Y-5583390D01*
X29085714Y-5583390D02*
X29038095Y-5631009D01*
X29038095Y-5631009D02*
X28942857Y-5678628D01*
X28942857Y-5678628D02*
X28561905Y-5678628D01*
X29704762Y-5583390D02*
X29609524Y-5535771D01*
X29609524Y-5535771D02*
X29561905Y-5488152D01*
X29561905Y-5488152D02*
X29514286Y-5392914D01*
X29514286Y-5392914D02*
X29514286Y-5345295D01*
X29514286Y-5345295D02*
X29561905Y-5250057D01*
X29561905Y-5250057D02*
X29609524Y-5202438D01*
X29609524Y-5202438D02*
X29704762Y-5154819D01*
X29704762Y-5154819D02*
X29895238Y-5154819D01*
X29895238Y-5154819D02*
X29990476Y-5202438D01*
X29990476Y-5202438D02*
X30038095Y-5250057D01*
X30038095Y-5250057D02*
X30085714Y-5345295D01*
X30085714Y-5345295D02*
X30085714Y-5392914D01*
X30085714Y-5392914D02*
X30038095Y-5488152D01*
X30038095Y-5488152D02*
X29990476Y-5535771D01*
X29990476Y-5535771D02*
X29895238Y-5583390D01*
X29895238Y-5583390D02*
X29704762Y-5583390D01*
X29704762Y-5583390D02*
X29609524Y-5631009D01*
X29609524Y-5631009D02*
X29561905Y-5678628D01*
X29561905Y-5678628D02*
X29514286Y-5773866D01*
X29514286Y-5773866D02*
X29514286Y-5964342D01*
X29514286Y-5964342D02*
X29561905Y-6059580D01*
X29561905Y-6059580D02*
X29609524Y-6107200D01*
X29609524Y-6107200D02*
X29704762Y-6154819D01*
X29704762Y-6154819D02*
X29895238Y-6154819D01*
X29895238Y-6154819D02*
X29990476Y-6107200D01*
X29990476Y-6107200D02*
X30038095Y-6059580D01*
X30038095Y-6059580D02*
X30085714Y-5964342D01*
X30085714Y-5964342D02*
X30085714Y-5773866D01*
X30085714Y-5773866D02*
X30038095Y-5678628D01*
X30038095Y-5678628D02*
X29990476Y-5631009D01*
X29990476Y-5631009D02*
X29895238Y-5583390D01*
X19304761Y-9950057D02*
X19209523Y-9902438D01*
X19209523Y-9902438D02*
X19114285Y-9807200D01*
X19114285Y-9807200D02*
X18971428Y-9664342D01*
X18971428Y-9664342D02*
X18876190Y-9616723D01*
X18876190Y-9616723D02*
X18780952Y-9616723D01*
X18828571Y-9854819D02*
X18733333Y-9807200D01*
X18733333Y-9807200D02*
X18638095Y-9711961D01*
X18638095Y-9711961D02*
X18590476Y-9521485D01*
X18590476Y-9521485D02*
X18590476Y-9188152D01*
X18590476Y-9188152D02*
X18638095Y-8997676D01*
X18638095Y-8997676D02*
X18733333Y-8902438D01*
X18733333Y-8902438D02*
X18828571Y-8854819D01*
X18828571Y-8854819D02*
X19019047Y-8854819D01*
X19019047Y-8854819D02*
X19114285Y-8902438D01*
X19114285Y-8902438D02*
X19209523Y-8997676D01*
X19209523Y-8997676D02*
X19257142Y-9188152D01*
X19257142Y-9188152D02*
X19257142Y-9521485D01*
X19257142Y-9521485D02*
X19209523Y-9711961D01*
X19209523Y-9711961D02*
X19114285Y-9807200D01*
X19114285Y-9807200D02*
X19019047Y-9854819D01*
X19019047Y-9854819D02*
X18828571Y-9854819D01*
X19590476Y-8854819D02*
X20209523Y-8854819D01*
X20209523Y-8854819D02*
X19876190Y-9235771D01*
X19876190Y-9235771D02*
X20019047Y-9235771D01*
X20019047Y-9235771D02*
X20114285Y-9283390D01*
X20114285Y-9283390D02*
X20161904Y-9331009D01*
X20161904Y-9331009D02*
X20209523Y-9426247D01*
X20209523Y-9426247D02*
X20209523Y-9664342D01*
X20209523Y-9664342D02*
X20161904Y-9759580D01*
X20161904Y-9759580D02*
X20114285Y-9807200D01*
X20114285Y-9807200D02*
X20019047Y-9854819D01*
X20019047Y-9854819D02*
X19733333Y-9854819D01*
X19733333Y-9854819D02*
X19638095Y-9807200D01*
X19638095Y-9807200D02*
X19590476Y-9759580D01*
X8959580Y-17966666D02*
X9007200Y-18014285D01*
X9007200Y-18014285D02*
X9054819Y-18157142D01*
X9054819Y-18157142D02*
X9054819Y-18252380D01*
X9054819Y-18252380D02*
X9007200Y-18395237D01*
X9007200Y-18395237D02*
X8911961Y-18490475D01*
X8911961Y-18490475D02*
X8816723Y-18538094D01*
X8816723Y-18538094D02*
X8626247Y-18585713D01*
X8626247Y-18585713D02*
X8483390Y-18585713D01*
X8483390Y-18585713D02*
X8292914Y-18538094D01*
X8292914Y-18538094D02*
X8197676Y-18490475D01*
X8197676Y-18490475D02*
X8102438Y-18395237D01*
X8102438Y-18395237D02*
X8054819Y-18252380D01*
X8054819Y-18252380D02*
X8054819Y-18157142D01*
X8054819Y-18157142D02*
X8102438Y-18014285D01*
X8102438Y-18014285D02*
X8150057Y-17966666D01*
X8054819Y-17061904D02*
X8054819Y-17538094D01*
X8054819Y-17538094D02*
X8531009Y-17585713D01*
X8531009Y-17585713D02*
X8483390Y-17538094D01*
X8483390Y-17538094D02*
X8435771Y-17442856D01*
X8435771Y-17442856D02*
X8435771Y-17204761D01*
X8435771Y-17204761D02*
X8483390Y-17109523D01*
X8483390Y-17109523D02*
X8531009Y-17061904D01*
X8531009Y-17061904D02*
X8626247Y-17014285D01*
X8626247Y-17014285D02*
X8864342Y-17014285D01*
X8864342Y-17014285D02*
X8959580Y-17061904D01*
X8959580Y-17061904D02*
X9007200Y-17109523D01*
X9007200Y-17109523D02*
X9054819Y-17204761D01*
X9054819Y-17204761D02*
X9054819Y-17442856D01*
X9054819Y-17442856D02*
X9007200Y-17538094D01*
X9007200Y-17538094D02*
X8959580Y-17585713D01*
X36959580Y-8766666D02*
X37007200Y-8814285D01*
X37007200Y-8814285D02*
X37054819Y-8957142D01*
X37054819Y-8957142D02*
X37054819Y-9052380D01*
X37054819Y-9052380D02*
X37007200Y-9195237D01*
X37007200Y-9195237D02*
X36911961Y-9290475D01*
X36911961Y-9290475D02*
X36816723Y-9338094D01*
X36816723Y-9338094D02*
X36626247Y-9385713D01*
X36626247Y-9385713D02*
X36483390Y-9385713D01*
X36483390Y-9385713D02*
X36292914Y-9338094D01*
X36292914Y-9338094D02*
X36197676Y-9290475D01*
X36197676Y-9290475D02*
X36102438Y-9195237D01*
X36102438Y-9195237D02*
X36054819Y-9052380D01*
X36054819Y-9052380D02*
X36054819Y-8957142D01*
X36054819Y-8957142D02*
X36102438Y-8814285D01*
X36102438Y-8814285D02*
X36150057Y-8766666D01*
X36150057Y-8385713D02*
X36102438Y-8338094D01*
X36102438Y-8338094D02*
X36054819Y-8242856D01*
X36054819Y-8242856D02*
X36054819Y-8004761D01*
X36054819Y-8004761D02*
X36102438Y-7909523D01*
X36102438Y-7909523D02*
X36150057Y-7861904D01*
X36150057Y-7861904D02*
X36245295Y-7814285D01*
X36245295Y-7814285D02*
X36340533Y-7814285D01*
X36340533Y-7814285D02*
X36483390Y-7861904D01*
X36483390Y-7861904D02*
X37054819Y-8433332D01*
X37054819Y-8433332D02*
X37054819Y-7814285D01*
X28133333Y-9954819D02*
X27800000Y-9478628D01*
X27561905Y-9954819D02*
X27561905Y-8954819D01*
X27561905Y-8954819D02*
X27942857Y-8954819D01*
X27942857Y-8954819D02*
X28038095Y-9002438D01*
X28038095Y-9002438D02*
X28085714Y-9050057D01*
X28085714Y-9050057D02*
X28133333Y-9145295D01*
X28133333Y-9145295D02*
X28133333Y-9288152D01*
X28133333Y-9288152D02*
X28085714Y-9383390D01*
X28085714Y-9383390D02*
X28038095Y-9431009D01*
X28038095Y-9431009D02*
X27942857Y-9478628D01*
X27942857Y-9478628D02*
X27561905Y-9478628D01*
X28466667Y-8954819D02*
X29133333Y-8954819D01*
X29133333Y-8954819D02*
X28704762Y-9954819D01*
X34004819Y-10766666D02*
X33528628Y-11099999D01*
X34004819Y-11338094D02*
X33004819Y-11338094D01*
X33004819Y-11338094D02*
X33004819Y-10957142D01*
X33004819Y-10957142D02*
X33052438Y-10861904D01*
X33052438Y-10861904D02*
X33100057Y-10814285D01*
X33100057Y-10814285D02*
X33195295Y-10766666D01*
X33195295Y-10766666D02*
X33338152Y-10766666D01*
X33338152Y-10766666D02*
X33433390Y-10814285D01*
X33433390Y-10814285D02*
X33481009Y-10861904D01*
X33481009Y-10861904D02*
X33528628Y-10957142D01*
X33528628Y-10957142D02*
X33528628Y-11338094D01*
X33100057Y-10385713D02*
X33052438Y-10338094D01*
X33052438Y-10338094D02*
X33004819Y-10242856D01*
X33004819Y-10242856D02*
X33004819Y-10004761D01*
X33004819Y-10004761D02*
X33052438Y-9909523D01*
X33052438Y-9909523D02*
X33100057Y-9861904D01*
X33100057Y-9861904D02*
X33195295Y-9814285D01*
X33195295Y-9814285D02*
X33290533Y-9814285D01*
X33290533Y-9814285D02*
X33433390Y-9861904D01*
X33433390Y-9861904D02*
X34004819Y-10433332D01*
X34004819Y-10433332D02*
X34004819Y-9814285D01*
X25504819Y-20066666D02*
X25028628Y-20399999D01*
X25504819Y-20638094D02*
X24504819Y-20638094D01*
X24504819Y-20638094D02*
X24504819Y-20257142D01*
X24504819Y-20257142D02*
X24552438Y-20161904D01*
X24552438Y-20161904D02*
X24600057Y-20114285D01*
X24600057Y-20114285D02*
X24695295Y-20066666D01*
X24695295Y-20066666D02*
X24838152Y-20066666D01*
X24838152Y-20066666D02*
X24933390Y-20114285D01*
X24933390Y-20114285D02*
X24981009Y-20161904D01*
X24981009Y-20161904D02*
X25028628Y-20257142D01*
X25028628Y-20257142D02*
X25028628Y-20638094D01*
X24504819Y-19733332D02*
X24504819Y-19114285D01*
X24504819Y-19114285D02*
X24885771Y-19447618D01*
X24885771Y-19447618D02*
X24885771Y-19304761D01*
X24885771Y-19304761D02*
X24933390Y-19209523D01*
X24933390Y-19209523D02*
X24981009Y-19161904D01*
X24981009Y-19161904D02*
X25076247Y-19114285D01*
X25076247Y-19114285D02*
X25314342Y-19114285D01*
X25314342Y-19114285D02*
X25409580Y-19161904D01*
X25409580Y-19161904D02*
X25457200Y-19209523D01*
X25457200Y-19209523D02*
X25504819Y-19304761D01*
X25504819Y-19304761D02*
X25504819Y-19590475D01*
X25504819Y-19590475D02*
X25457200Y-19685713D01*
X25457200Y-19685713D02*
X25409580Y-19733332D01*
X16254819Y-11366666D02*
X15778628Y-11699999D01*
X16254819Y-11938094D02*
X15254819Y-11938094D01*
X15254819Y-11938094D02*
X15254819Y-11557142D01*
X15254819Y-11557142D02*
X15302438Y-11461904D01*
X15302438Y-11461904D02*
X15350057Y-11414285D01*
X15350057Y-11414285D02*
X15445295Y-11366666D01*
X15445295Y-11366666D02*
X15588152Y-11366666D01*
X15588152Y-11366666D02*
X15683390Y-11414285D01*
X15683390Y-11414285D02*
X15731009Y-11461904D01*
X15731009Y-11461904D02*
X15778628Y-11557142D01*
X15778628Y-11557142D02*
X15778628Y-11938094D01*
X15254819Y-10461904D02*
X15254819Y-10938094D01*
X15254819Y-10938094D02*
X15731009Y-10985713D01*
X15731009Y-10985713D02*
X15683390Y-10938094D01*
X15683390Y-10938094D02*
X15635771Y-10842856D01*
X15635771Y-10842856D02*
X15635771Y-10604761D01*
X15635771Y-10604761D02*
X15683390Y-10509523D01*
X15683390Y-10509523D02*
X15731009Y-10461904D01*
X15731009Y-10461904D02*
X15826247Y-10414285D01*
X15826247Y-10414285D02*
X16064342Y-10414285D01*
X16064342Y-10414285D02*
X16159580Y-10461904D01*
X16159580Y-10461904D02*
X16207200Y-10509523D01*
X16207200Y-10509523D02*
X16254819Y-10604761D01*
X16254819Y-10604761D02*
X16254819Y-10842856D01*
X16254819Y-10842856D02*
X16207200Y-10938094D01*
X16207200Y-10938094D02*
X16159580Y-10985713D01*
X39454819Y-27833333D02*
X40169104Y-27833333D01*
X40169104Y-27833333D02*
X40311961Y-27880952D01*
X40311961Y-27880952D02*
X40407200Y-27976190D01*
X40407200Y-27976190D02*
X40454819Y-28119047D01*
X40454819Y-28119047D02*
X40454819Y-28214285D01*
X40454819Y-26833333D02*
X40454819Y-27404761D01*
X40454819Y-27119047D02*
X39454819Y-27119047D01*
X39454819Y-27119047D02*
X39597676Y-27214285D01*
X39597676Y-27214285D02*
X39692914Y-27309523D01*
X39692914Y-27309523D02*
X39740533Y-27404761D01*
X26304819Y-10866666D02*
X25828628Y-11199999D01*
X26304819Y-11438094D02*
X25304819Y-11438094D01*
X25304819Y-11438094D02*
X25304819Y-11057142D01*
X25304819Y-11057142D02*
X25352438Y-10961904D01*
X25352438Y-10961904D02*
X25400057Y-10914285D01*
X25400057Y-10914285D02*
X25495295Y-10866666D01*
X25495295Y-10866666D02*
X25638152Y-10866666D01*
X25638152Y-10866666D02*
X25733390Y-10914285D01*
X25733390Y-10914285D02*
X25781009Y-10961904D01*
X25781009Y-10961904D02*
X25828628Y-11057142D01*
X25828628Y-11057142D02*
X25828628Y-11438094D01*
X26304819Y-10390475D02*
X26304819Y-10199999D01*
X26304819Y-10199999D02*
X26257200Y-10104761D01*
X26257200Y-10104761D02*
X26209580Y-10057142D01*
X26209580Y-10057142D02*
X26066723Y-9961904D01*
X26066723Y-9961904D02*
X25876247Y-9914285D01*
X25876247Y-9914285D02*
X25495295Y-9914285D01*
X25495295Y-9914285D02*
X25400057Y-9961904D01*
X25400057Y-9961904D02*
X25352438Y-10009523D01*
X25352438Y-10009523D02*
X25304819Y-10104761D01*
X25304819Y-10104761D02*
X25304819Y-10295237D01*
X25304819Y-10295237D02*
X25352438Y-10390475D01*
X25352438Y-10390475D02*
X25400057Y-10438094D01*
X25400057Y-10438094D02*
X25495295Y-10485713D01*
X25495295Y-10485713D02*
X25733390Y-10485713D01*
X25733390Y-10485713D02*
X25828628Y-10438094D01*
X25828628Y-10438094D02*
X25876247Y-10390475D01*
X25876247Y-10390475D02*
X25923866Y-10295237D01*
X25923866Y-10295237D02*
X25923866Y-10104761D01*
X25923866Y-10104761D02*
X25876247Y-10009523D01*
X25876247Y-10009523D02*
X25828628Y-9961904D01*
X25828628Y-9961904D02*
X25733390Y-9914285D01*
D12*
%TO.C,C4*%
X2365000Y-9038748D02*
X2365000Y-9561252D01*
X3835000Y-9038748D02*
X3835000Y-9561252D01*
%TO.C,R10*%
X23465000Y-6672936D02*
X23465000Y-7127064D01*
X24935000Y-6672936D02*
X24935000Y-7127064D01*
%TO.C,Q2*%
X29762500Y-13590000D02*
X29112500Y-13590000D01*
X29762500Y-13590000D02*
X30412500Y-13590000D01*
X29762500Y-16710000D02*
X29112500Y-16710000D01*
X29762500Y-16710000D02*
X30412500Y-16710000D01*
X28600000Y-13640000D02*
X28360000Y-13310000D01*
X28840000Y-13310000D01*
X28600000Y-13640000D01*
G36*
X28600000Y-13640000D02*
G01*
X28360000Y-13310000D01*
X28840000Y-13310000D01*
X28600000Y-13640000D01*
G37*
%TO.C,Q1*%
X29762500Y-17190000D02*
X29112500Y-17190000D01*
X29762500Y-17190000D02*
X30412500Y-17190000D01*
X29762500Y-20310000D02*
X29112500Y-20310000D01*
X29762500Y-20310000D02*
X30412500Y-20310000D01*
X28600000Y-17240000D02*
X28360000Y-16910000D01*
X28840000Y-16910000D01*
X28600000Y-17240000D01*
G36*
X28600000Y-17240000D02*
G01*
X28360000Y-16910000D01*
X28840000Y-16910000D01*
X28600000Y-17240000D01*
G37*
%TO.C,U3*%
X20440000Y-25000000D02*
X20440000Y-24200000D01*
X20440000Y-25000000D02*
X20440000Y-25800000D01*
X23560000Y-25000000D02*
X23560000Y-24200000D01*
X23560000Y-25000000D02*
X23560000Y-25800000D01*
X20490000Y-26300000D02*
X20160000Y-26540000D01*
X20160000Y-26060000D01*
X20490000Y-26300000D01*
G36*
X20490000Y-26300000D02*
G01*
X20160000Y-26540000D01*
X20160000Y-26060000D01*
X20490000Y-26300000D01*
G37*
%TO.C,Q4*%
X21137500Y-5430000D02*
X20487500Y-5430000D01*
X21137500Y-5430000D02*
X21787500Y-5430000D01*
X21137500Y-8550000D02*
X20487500Y-8550000D01*
X21137500Y-8550000D02*
X21787500Y-8550000D01*
X22540000Y-8830000D02*
X22060000Y-8830000D01*
X22300000Y-8500000D01*
X22540000Y-8830000D01*
G36*
X22540000Y-8830000D02*
G01*
X22060000Y-8830000D01*
X22300000Y-8500000D01*
X22540000Y-8830000D01*
G37*
%TO.C,R14*%
X4465000Y-9072936D02*
X4465000Y-9527064D01*
X5935000Y-9072936D02*
X5935000Y-9527064D01*
%TO.C,R13*%
X3665000Y-19127064D02*
X3665000Y-18672936D01*
X5135000Y-19127064D02*
X5135000Y-18672936D01*
%TO.C,J3*%
X8470000Y-19283610D02*
X8470000Y-20803610D01*
X8470000Y-19283610D02*
X9970000Y-19283610D01*
X8470000Y-22303610D02*
X8470000Y-26543610D01*
X16470000Y-19283610D02*
X17970000Y-19283610D01*
X17970000Y-19283610D02*
X17970000Y-20803610D01*
X17970000Y-22303610D02*
X17970000Y-26543610D01*
%TO.C,R4*%
X25965000Y-15227064D02*
X25965000Y-14772936D01*
X27435000Y-15227064D02*
X27435000Y-14772936D01*
%TO.C,C1*%
X20938748Y-865000D02*
X21461252Y-865000D01*
X20938748Y-2335000D02*
X21461252Y-2335000D01*
%TO.C,R11*%
X20972936Y-3265000D02*
X21427064Y-3265000D01*
X20972936Y-4735000D02*
X21427064Y-4735000D01*
%TO.C,R1*%
X27065000Y-22572936D02*
X27065000Y-23027064D01*
X28535000Y-22572936D02*
X28535000Y-23027064D01*
%TO.C,C3*%
X1565000Y-19161252D02*
X1565000Y-18638748D01*
X3035000Y-19161252D02*
X3035000Y-18638748D01*
%TO.C,R12*%
X37965000Y-11727064D02*
X37965000Y-11272936D01*
X39435000Y-11727064D02*
X39435000Y-11272936D01*
%TO.C,J2*%
X8470000Y-6503610D02*
X8470000Y-2263610D01*
X8470000Y-9523610D02*
X8470000Y-8003610D01*
X9970000Y-9523610D02*
X8470000Y-9523610D01*
X17970000Y-6503610D02*
X17970000Y-2263610D01*
X17970000Y-9523610D02*
X16470000Y-9523610D01*
X17970000Y-9523610D02*
X17970000Y-8003610D01*
%TO.C,F1*%
X17913748Y-14490000D02*
X20686252Y-14490000D01*
X17913748Y-17910000D02*
X20686252Y-17910000D01*
%TO.C,R6*%
X8285000Y-12380674D02*
X8285000Y-11926546D01*
X9755000Y-12380674D02*
X9755000Y-11926546D01*
%TO.C,C6*%
X37690000Y-17451248D02*
X37690000Y-18873752D01*
X39510000Y-17451248D02*
X39510000Y-18873752D01*
%TO.C,R8*%
X28527064Y-6595000D02*
X28072936Y-6595000D01*
X28527064Y-8065000D02*
X28072936Y-8065000D01*
%TO.C,Q3*%
X21137500Y-8930000D02*
X20487500Y-8930000D01*
X21137500Y-8930000D02*
X21787500Y-8930000D01*
X21137500Y-12050000D02*
X20487500Y-12050000D01*
X21137500Y-12050000D02*
X21787500Y-12050000D01*
X22540000Y-12330000D02*
X22060000Y-12330000D01*
X22300000Y-12000000D01*
X22540000Y-12330000D01*
G36*
X22540000Y-12330000D02*
G01*
X22060000Y-12330000D01*
X22300000Y-12000000D01*
X22540000Y-12330000D01*
G37*
%TO.C,C5*%
X5690000Y-16311252D02*
X5690000Y-14888748D01*
X7510000Y-16311252D02*
X7510000Y-14888748D01*
%TO.C,C2*%
X35865000Y-11761252D02*
X35865000Y-11238748D01*
X37335000Y-11761252D02*
X37335000Y-11238748D01*
%TO.C,R7*%
X28527064Y-10365000D02*
X28072936Y-10365000D01*
X28527064Y-11835000D02*
X28072936Y-11835000D01*
%TO.C,R2*%
X31165000Y-10372936D02*
X31165000Y-10827064D01*
X32635000Y-10372936D02*
X32635000Y-10827064D01*
%TO.C,R3*%
X25965000Y-19127064D02*
X25965000Y-18672936D01*
X27435000Y-19127064D02*
X27435000Y-18672936D01*
%TO.C,R5*%
X16685000Y-12380674D02*
X16685000Y-11926546D01*
X18155000Y-12380674D02*
X18155000Y-11926546D01*
%TO.C,J1*%
X29520000Y-24253610D02*
X29520000Y-26253610D01*
X29520000Y-28153610D02*
X29520000Y-30053610D01*
X29520000Y-30053610D02*
X38920000Y-30053610D01*
X38920000Y-24253610D02*
X38920000Y-26253610D01*
X38920000Y-28153610D02*
X38920000Y-30053610D01*
%TO.C,R9*%
X23465000Y-10472936D02*
X23465000Y-10927064D01*
X24935000Y-10472936D02*
X24935000Y-10927064D01*
%TD*%
M02*
